<svg width="177" height="235" viewBox="0 0 177 235" fill="none" xmlns="http://www.w3.org/2000/svg">
<path d="M18.0059 176.565C18.1133 176.321 18.2939 176.116 18.5479 175.95C18.8115 175.774 19.0801 175.687 19.3535 175.687C19.6172 175.687 19.8809 175.774 20.1445 175.95C20.418 176.116 20.6035 176.321 20.7012 176.565L28.7578 195.257C28.8457 195.452 28.8896 195.652 28.8896 195.857C28.8896 196.258 28.7432 196.604 28.4502 196.897C28.167 197.181 27.8252 197.322 27.4248 197.322C27.1514 197.322 26.8828 197.234 26.6191 197.059C26.3555 196.883 26.1699 196.673 26.0625 196.429L23.5576 190.613L15.208 190.496L12.6445 196.443C12.5469 196.688 12.3662 196.897 12.1025 197.073C11.8389 197.259 11.5703 197.352 11.2969 197.352C10.8965 197.352 10.5498 197.21 10.2568 196.927C9.97363 196.634 9.83203 196.287 9.83203 195.887C9.83203 195.682 9.87598 195.481 9.96387 195.286L18.0059 176.565ZM19.3535 180.857L16.4678 187.581L22.2832 187.654L19.3535 180.857ZM38.666 180.945C39.6133 180.945 40.4434 181.175 41.1562 181.634C41.8789 182.093 42.4697 182.649 42.9287 183.304C43.4756 182.669 44.1348 182.117 44.9062 181.648C45.6777 181.17 46.5371 180.931 47.4844 180.931C48.7344 180.931 49.7695 181.268 50.5898 181.941C51.4199 182.605 52.0352 183.479 52.4355 184.563C52.8359 185.647 53.0361 186.819 53.0361 188.079L53.0508 195.887C53.0508 196.277 52.9092 196.614 52.626 196.897C52.3428 197.181 51.9961 197.322 51.5859 197.322C51.1758 197.322 50.8291 197.181 50.5459 196.897C50.2627 196.614 50.1211 196.277 50.1211 195.887L50.1064 188.108C50.1064 187.366 50.0381 186.673 49.9014 186.028C49.7646 185.374 49.5156 184.847 49.1543 184.446C48.793 184.046 48.2705 183.846 47.5869 183.846C46.8643 183.846 46.2441 184.046 45.7266 184.446C45.2188 184.847 44.8281 185.374 44.5547 186.028C44.291 186.673 44.1592 187.371 44.1592 188.123L44.1738 195.931C44.1738 196.321 44.0273 196.658 43.7344 196.941C43.4512 197.215 43.1094 197.352 42.709 197.352C42.2988 197.352 41.9521 197.21 41.6689 196.927C41.3857 196.644 41.2441 196.307 41.2441 195.916V188.138C41.2441 187.22 41.0879 186.443 40.7754 185.809C40.4727 185.174 40.0771 184.695 39.5889 184.373C39.1104 184.041 38.6172 183.875 38.1094 183.875C37.3867 183.875 36.7373 184.212 36.1611 184.886C35.585 185.56 35.2969 186.609 35.2969 188.035V195.931C35.2969 196.321 35.1504 196.658 34.8574 196.941C34.5742 197.215 34.2324 197.352 33.832 197.352C33.4316 197.352 33.085 197.21 32.792 196.927C32.5088 196.644 32.3672 196.307 32.3672 195.916V182.366C32.3672 181.966 32.4404 181.629 32.5869 181.355C32.7432 181.072 33.0264 180.931 33.4365 180.931C33.7588 180.931 34.0566 181.033 34.3301 181.238C34.6035 181.443 34.8232 181.785 34.9893 182.264L35.2676 183.069C35.5801 182.425 36.0586 181.912 36.7031 181.531C37.3574 181.141 38.0117 180.945 38.666 180.945ZM65.083 180.887C65.8057 180.887 66.5088 181.033 67.1924 181.326C67.8857 181.609 68.501 181.971 69.0381 182.41C69.585 182.84 69.9902 183.284 70.2539 183.743L70.415 182.337C70.415 181.937 70.5322 181.595 70.7666 181.312C71.001 181.019 71.3184 180.872 71.7188 180.872C72.1191 180.872 72.4609 181.019 72.7441 181.312C73.0371 181.595 73.1836 181.937 73.1836 182.337V182.366L73.1543 195.931C73.1543 196.331 73.0078 196.678 72.7148 196.971C72.4316 197.254 72.0898 197.396 71.6895 197.396C71.2891 197.396 70.9717 197.254 70.7373 196.971C70.5029 196.678 70.3857 196.331 70.3857 195.931L70.2246 194.759C69.7168 195.628 68.9746 196.277 67.998 196.707C67.0215 197.127 66.04 197.337 65.0537 197.337C63.9502 197.337 62.915 197.122 61.9482 196.692C60.9814 196.253 60.1318 195.652 59.3994 194.891C58.667 194.129 58.0908 193.255 57.6709 192.269C57.2607 191.282 57.0557 190.242 57.0557 189.148C57.0557 188.064 57.2559 187.029 57.6562 186.043C58.0664 185.047 58.6328 184.163 59.3555 183.392C60.0879 182.61 60.9375 182 61.9043 181.561C62.8809 181.111 63.9404 180.887 65.083 180.887ZM70.1367 189.119C70.1367 188.162 69.9121 187.283 69.4629 186.482C69.0234 185.682 68.4229 185.037 67.6611 184.549C66.8994 184.061 66.0303 183.816 65.0537 183.816C64.0967 183.816 63.2324 184.061 62.4609 184.549C61.6895 185.037 61.0791 185.687 60.6299 186.497C60.1807 187.298 59.9561 188.167 59.9561 189.104C59.9561 190.052 60.1855 190.931 60.6445 191.741C61.1035 192.542 61.7188 193.187 62.4902 193.675C63.2715 194.163 64.1309 194.407 65.0684 194.407C66.0059 194.407 66.8555 194.163 67.6172 193.675C68.3887 193.187 68.999 192.542 69.4482 191.741C69.9072 190.931 70.1367 190.057 70.1367 189.119ZM83.707 180.945C84.6543 180.945 85.4844 181.175 86.1973 181.634C86.9199 182.093 87.5107 182.649 87.9697 183.304C88.5166 182.669 89.1758 182.117 89.9473 181.648C90.7188 181.17 91.5781 180.931 92.5254 180.931C93.7754 180.931 94.8105 181.268 95.6309 181.941C96.4609 182.605 97.0762 183.479 97.4766 184.563C97.877 185.647 98.0771 186.819 98.0771 188.079L98.0918 195.887C98.0918 196.277 97.9502 196.614 97.667 196.897C97.3838 197.181 97.0371 197.322 96.627 197.322C96.2168 197.322 95.8701 197.181 95.5869 196.897C95.3037 196.614 95.1621 196.277 95.1621 195.887L95.1475 188.108C95.1475 187.366 95.0791 186.673 94.9424 186.028C94.8057 185.374 94.5566 184.847 94.1953 184.446C93.834 184.046 93.3115 183.846 92.6279 183.846C91.9053 183.846 91.2852 184.046 90.7676 184.446C90.2598 184.847 89.8691 185.374 89.5957 186.028C89.332 186.673 89.2002 187.371 89.2002 188.123L89.2148 195.931C89.2148 196.321 89.0684 196.658 88.7754 196.941C88.4922 197.215 88.1504 197.352 87.75 197.352C87.3398 197.352 86.9932 197.21 86.71 196.927C86.4268 196.644 86.2852 196.307 86.2852 195.916V188.138C86.2852 187.22 86.1289 186.443 85.8164 185.809C85.5137 185.174 85.1182 184.695 84.6299 184.373C84.1514 184.041 83.6582 183.875 83.1504 183.875C82.4277 183.875 81.7783 184.212 81.2021 184.886C80.626 185.56 80.3379 186.609 80.3379 188.035V195.931C80.3379 196.321 80.1914 196.658 79.8984 196.941C79.6152 197.215 79.2734 197.352 78.873 197.352C78.4727 197.352 78.126 197.21 77.833 196.927C77.5498 196.644 77.4082 196.307 77.4082 195.916V182.366C77.4082 181.966 77.4814 181.629 77.6279 181.355C77.7842 181.072 78.0674 180.931 78.4775 180.931C78.7998 180.931 79.0977 181.033 79.3711 181.238C79.6445 181.443 79.8643 181.785 80.0303 182.264L80.3086 183.069C80.6211 182.425 81.0996 181.912 81.7441 181.531C82.3984 181.141 83.0527 180.945 83.707 180.945ZM109.523 181.004C110.822 181.004 112.014 181.326 113.098 181.971C114.182 182.615 115.051 183.484 115.705 184.578C116.369 185.662 116.701 186.868 116.701 188.196C116.701 188.47 116.687 188.748 116.657 189.031C116.618 189.393 116.452 189.7 116.159 189.954C115.876 190.198 115.554 190.32 115.192 190.32L104.953 190.335C105.119 191.038 105.432 191.697 105.891 192.312C106.35 192.928 106.906 193.426 107.561 193.807C108.225 194.188 108.947 194.378 109.729 194.378C110.568 194.378 111.32 194.173 111.984 193.763C112.648 193.353 113.166 192.879 113.537 192.342C113.654 192.156 113.83 192 114.064 191.873C114.309 191.746 114.538 191.683 114.753 191.683C115.153 191.683 115.495 191.829 115.778 192.122C116.071 192.415 116.218 192.762 116.218 193.162C116.218 193.475 116.13 193.753 115.954 193.997C115.349 194.886 114.514 195.657 113.449 196.312C112.395 196.956 111.169 197.278 109.772 197.278C108.649 197.278 107.604 197.059 106.638 196.619C105.681 196.18 104.846 195.579 104.133 194.817C103.42 194.056 102.863 193.182 102.463 192.195C102.072 191.199 101.877 190.149 101.877 189.046C101.877 187.981 102.072 186.971 102.463 186.014C102.854 185.047 103.396 184.188 104.089 183.436C104.792 182.684 105.607 182.093 106.535 181.663C107.463 181.224 108.459 181.004 109.523 181.004ZM113.684 187.391C113.498 186.434 113.02 185.618 112.248 184.944C111.477 184.271 110.568 183.934 109.523 183.934C108.459 183.934 107.517 184.28 106.696 184.974C105.886 185.667 105.339 186.478 105.056 187.405L113.684 187.391ZM123.401 183.274C123.929 182.757 124.559 182.244 125.291 181.736C126.033 181.229 126.893 180.975 127.869 180.975C129.148 180.975 130.213 181.316 131.062 182C131.912 182.674 132.537 183.46 132.938 184.358C133.25 185.071 133.436 185.779 133.494 186.482C133.562 187.176 133.597 187.83 133.597 188.445V195.843C133.597 196.243 133.45 196.59 133.157 196.883C132.874 197.166 132.532 197.308 132.132 197.308C131.731 197.308 131.385 197.166 131.092 196.883C130.809 196.59 130.667 196.243 130.667 195.843V188.445C130.667 187.869 130.638 187.337 130.579 186.849C130.53 186.36 130.423 185.931 130.257 185.56C130.071 185.13 129.783 184.749 129.393 184.417C129.002 184.075 128.504 183.904 127.898 183.904C126.453 183.904 125.34 184.456 124.559 185.56C123.787 186.663 123.406 188.152 123.416 190.027L123.431 195.872C123.431 196.272 123.284 196.619 122.991 196.912C122.708 197.195 122.366 197.337 121.966 197.337C121.556 197.337 121.209 197.195 120.926 196.912C120.643 196.619 120.501 196.268 120.501 195.857L120.472 182.396C120.472 181.995 120.579 181.653 120.794 181.37C121.019 181.077 121.331 180.931 121.731 180.931C122.132 180.931 122.439 181.077 122.654 181.37C122.869 181.653 123.035 181.995 123.152 182.396L123.401 183.274ZM140.15 178.338C140.15 177.938 140.292 177.596 140.575 177.312C140.858 177.02 141.205 176.873 141.615 176.873C142.016 176.873 142.357 177.02 142.641 177.312C142.934 177.596 143.08 177.938 143.08 178.338V181.253H145.043C145.424 181.253 145.751 181.39 146.024 181.663C146.298 181.937 146.435 182.264 146.435 182.645C146.435 183.025 146.298 183.353 146.024 183.626C145.751 183.899 145.424 184.036 145.043 184.036H143.065L143.051 193.104V193.133C143.051 193.611 143.104 193.943 143.212 194.129C143.319 194.305 143.539 194.393 143.871 194.393C144.291 194.393 144.662 194.28 144.984 194.056C145.102 193.978 145.243 193.909 145.409 193.851C145.575 193.782 145.736 193.748 145.893 193.748C146.293 193.748 146.635 193.89 146.918 194.173C147.211 194.456 147.357 194.798 147.357 195.198C147.357 195.677 147.162 196.062 146.771 196.355C146.4 196.639 145.976 196.873 145.497 197.059C145.019 197.244 144.506 197.337 143.959 197.337C142.729 197.337 141.781 196.961 141.117 196.209C140.453 195.447 140.121 194.5 140.121 193.367V193.235L140.136 184.051H138.246C137.865 184.051 137.538 183.914 137.265 183.641C136.991 183.367 136.854 183.04 136.854 182.659C136.854 182.278 136.991 181.951 137.265 181.678C137.538 181.404 137.865 181.268 138.246 181.268H140.15V178.338ZM158.335 180.887C159.058 180.887 159.761 181.033 160.444 181.326C161.138 181.609 161.753 181.971 162.29 182.41C162.837 182.84 163.242 183.284 163.506 183.743L163.667 182.337C163.667 181.937 163.784 181.595 164.019 181.312C164.253 181.019 164.57 180.872 164.971 180.872C165.371 180.872 165.713 181.019 165.996 181.312C166.289 181.595 166.436 181.937 166.436 182.337V182.366L166.406 195.931C166.406 196.331 166.26 196.678 165.967 196.971C165.684 197.254 165.342 197.396 164.941 197.396C164.541 197.396 164.224 197.254 163.989 196.971C163.755 196.678 163.638 196.331 163.638 195.931L163.477 194.759C162.969 195.628 162.227 196.277 161.25 196.707C160.273 197.127 159.292 197.337 158.306 197.337C157.202 197.337 156.167 197.122 155.2 196.692C154.233 196.253 153.384 195.652 152.651 194.891C151.919 194.129 151.343 193.255 150.923 192.269C150.513 191.282 150.308 190.242 150.308 189.148C150.308 188.064 150.508 187.029 150.908 186.043C151.318 185.047 151.885 184.163 152.607 183.392C153.34 182.61 154.189 182 155.156 181.561C156.133 181.111 157.192 180.887 158.335 180.887ZM163.389 189.119C163.389 188.162 163.164 187.283 162.715 186.482C162.275 185.682 161.675 185.037 160.913 184.549C160.151 184.061 159.282 183.816 158.306 183.816C157.349 183.816 156.484 184.061 155.713 184.549C154.941 185.037 154.331 185.687 153.882 186.497C153.433 187.298 153.208 188.167 153.208 189.104C153.208 190.052 153.438 190.931 153.896 191.741C154.355 192.542 154.971 193.187 155.742 193.675C156.523 194.163 157.383 194.407 158.32 194.407C159.258 194.407 160.107 194.163 160.869 193.675C161.641 193.187 162.251 192.542 162.7 191.741C163.159 190.931 163.389 190.057 163.389 189.119ZM59.7188 217.222C60.0703 217.222 60.3877 217.363 60.6709 217.646C60.9639 217.92 61.1104 218.228 61.1104 218.569C61.1104 218.843 61.0615 219.077 60.9639 219.272C60.4756 220.347 59.7822 221.348 58.8838 222.275C57.9951 223.193 56.9355 223.931 55.7051 224.487C54.4746 225.044 53.0928 225.322 51.5596 225.322C50.0459 225.322 48.6787 225.034 47.458 224.458C46.2373 223.882 45.1924 223.096 44.3232 222.1C43.4639 221.094 42.7998 219.941 42.3311 218.643C41.8721 217.334 41.6426 215.952 41.6426 214.497C41.6426 213.062 41.877 211.694 42.3457 210.396C42.8145 209.097 43.4834 207.949 44.3525 206.953C45.2217 205.947 46.2617 205.156 47.4727 204.58C48.6836 204.004 50.0312 203.716 51.5156 203.716C53.0195 203.716 54.3818 203.984 55.6025 204.521C56.833 205.049 57.8975 205.757 58.7959 206.646C59.7041 207.524 60.4121 208.491 60.9199 209.546C61.0273 209.751 61.0811 209.966 61.0811 210.19C61.0811 210.552 60.9492 210.884 60.6855 211.187C60.4316 211.479 60.1338 211.626 59.792 211.626C59.46 211.626 59.1572 211.558 58.8838 211.421C58.6201 211.274 58.4199 211.06 58.2832 210.776C57.7363 209.644 56.877 208.672 55.7051 207.861C54.543 207.051 53.1465 206.646 51.5156 206.646C50.0996 206.646 48.8691 207.007 47.8242 207.729C46.7891 208.452 45.9883 209.414 45.4219 210.615C44.8555 211.807 44.5723 213.11 44.5723 214.526C44.5723 215.952 44.8506 217.261 45.4072 218.452C45.9736 219.644 46.7744 220.596 47.8096 221.309C48.8545 222.021 50.0947 222.378 51.5303 222.378C52.6045 222.378 53.5859 222.183 54.4746 221.792C55.373 221.392 56.1494 220.864 56.8037 220.21C57.458 219.556 57.9561 218.853 58.2979 218.101C58.5615 217.515 59.0352 217.222 59.7188 217.222ZM72.0879 208.96C73.2109 208.96 74.2559 209.175 75.2227 209.604C76.1992 210.034 77.0537 210.63 77.7861 211.392C78.5186 212.153 79.0898 213.027 79.5 214.014C79.9199 215 80.1299 216.05 80.1299 217.163C80.1299 218.257 79.9199 219.297 79.5 220.283C79.0801 221.26 78.499 222.124 77.7568 222.876C77.0244 223.618 76.1699 224.204 75.1934 224.634C74.2266 225.063 73.1914 225.278 72.0879 225.278C70.9941 225.278 69.959 225.068 68.9824 224.648C68.0156 224.229 67.1611 223.647 66.4189 222.905C65.6865 222.163 65.1104 221.304 64.6904 220.327C64.2705 219.341 64.0605 218.286 64.0605 217.163C64.0605 216.05 64.2705 215 64.6904 214.014C65.1104 213.027 65.6865 212.158 66.4189 211.406C67.1611 210.645 68.0156 210.049 68.9824 209.619C69.9492 209.18 70.9844 208.96 72.0879 208.96ZM67.0195 217.192C67.0195 218.14 67.249 219.004 67.708 219.785C68.1768 220.557 68.7969 221.172 69.5684 221.631C70.3398 222.09 71.1846 222.319 72.1025 222.319C73.04 222.319 73.8896 222.085 74.6514 221.616C75.4229 221.138 76.0332 220.508 76.4824 219.727C76.9414 218.945 77.1709 218.091 77.1709 217.163C77.1709 216.216 76.9463 215.347 76.4971 214.556C76.0479 213.755 75.4375 213.115 74.666 212.637C73.9043 212.158 73.0449 211.919 72.0879 211.919C71.1211 211.919 70.2568 212.163 69.4951 212.651C68.7334 213.13 68.1279 213.77 67.6787 214.57C67.2393 215.361 67.0195 216.235 67.0195 217.192ZM91.4736 208.887C92.1963 208.887 92.8994 209.033 93.583 209.326C94.2764 209.609 94.8916 209.971 95.4287 210.41C95.9756 210.84 96.3809 211.284 96.6445 211.743L96.8057 210.337C96.8057 209.937 96.9229 209.595 97.1572 209.312C97.3916 209.019 97.709 208.872 98.1094 208.872C98.5098 208.872 98.8516 209.019 99.1348 209.312C99.4277 209.595 99.5742 209.937 99.5742 210.337V210.366L99.5449 223.931C99.5449 224.331 99.3984 224.678 99.1055 224.971C98.8223 225.254 98.4805 225.396 98.0801 225.396C97.6797 225.396 97.3623 225.254 97.1279 224.971C96.8936 224.678 96.7764 224.331 96.7764 223.931L96.6152 222.759C96.1074 223.628 95.3652 224.277 94.3887 224.707C93.4121 225.127 92.4307 225.337 91.4443 225.337C90.3408 225.337 89.3057 225.122 88.3389 224.692C87.3721 224.253 86.5225 223.652 85.79 222.891C85.0576 222.129 84.4814 221.255 84.0615 220.269C83.6514 219.282 83.4463 218.242 83.4463 217.148C83.4463 216.064 83.6465 215.029 84.0469 214.043C84.457 213.047 85.0234 212.163 85.7461 211.392C86.4785 210.61 87.3281 210 88.2949 209.561C89.2715 209.111 90.3311 208.887 91.4736 208.887ZM96.5273 217.119C96.5273 216.162 96.3027 215.283 95.8535 214.482C95.4141 213.682 94.8135 213.037 94.0518 212.549C93.29 212.061 92.4209 211.816 91.4443 211.816C90.4873 211.816 89.623 212.061 88.8516 212.549C88.0801 213.037 87.4697 213.687 87.0205 214.497C86.5713 215.298 86.3467 216.167 86.3467 217.104C86.3467 218.052 86.5762 218.931 87.0352 219.741C87.4941 220.542 88.1094 221.187 88.8809 221.675C89.6621 222.163 90.5215 222.407 91.459 222.407C92.3965 222.407 93.2461 222.163 94.0078 221.675C94.7793 221.187 95.3896 220.542 95.8389 219.741C96.2979 218.931 96.5273 218.057 96.5273 217.119ZM103.418 217.104C103.418 216.021 103.608 214.99 103.989 214.014C104.37 213.037 104.907 212.168 105.601 211.406C106.294 210.645 107.1 210.044 108.018 209.604C108.945 209.165 109.951 208.945 111.035 208.945C112.109 208.945 113.081 209.155 113.95 209.575C114.829 209.985 115.581 210.532 116.206 211.216C116.841 211.89 117.314 212.627 117.627 213.428C117.695 213.594 117.729 213.779 117.729 213.984C117.729 214.385 117.583 214.731 117.29 215.024C117.007 215.308 116.665 215.449 116.265 215.449C115.991 215.449 115.723 215.356 115.459 215.171C115.195 214.985 115.01 214.761 114.902 214.497C114.629 213.794 114.15 213.184 113.467 212.666C112.793 212.139 111.982 211.875 111.035 211.875C110.146 211.875 109.346 212.124 108.633 212.622C107.93 213.11 107.373 213.75 106.963 214.541C106.553 215.332 106.348 216.187 106.348 217.104C106.348 218.032 106.558 218.906 106.978 219.727C107.397 220.537 107.974 221.196 108.706 221.704C109.438 222.202 110.264 222.451 111.182 222.451C112.08 222.451 112.856 222.227 113.511 221.777C114.165 221.318 114.658 220.786 114.99 220.181C115.107 219.966 115.293 219.785 115.547 219.639C115.801 219.482 116.05 219.404 116.294 219.404C116.694 219.404 117.036 219.551 117.319 219.844C117.612 220.127 117.759 220.469 117.759 220.869C117.759 221.113 117.695 221.353 117.568 221.587C117.012 222.612 116.182 223.501 115.078 224.253C113.975 225.005 112.676 225.381 111.182 225.381C110.068 225.381 109.038 225.161 108.091 224.722C107.153 224.272 106.333 223.662 105.63 222.891C104.937 222.119 104.395 221.24 104.004 220.254C103.613 219.258 103.418 218.208 103.418 217.104ZM121.515 205.049C121.515 204.658 121.656 204.326 121.939 204.053C122.223 203.77 122.569 203.628 122.979 203.628C123.38 203.628 123.722 203.77 124.005 204.053C124.298 204.326 124.444 204.658 124.444 205.049V211.436C124.815 210.645 125.357 210.039 126.07 209.619C126.783 209.189 127.472 208.975 128.136 208.975C129.669 208.975 130.919 209.287 131.886 209.912C132.862 210.537 133.58 211.406 134.039 212.52C134.498 213.633 134.728 214.917 134.728 216.372V216.504L134.713 223.901V223.916C134.713 224.307 134.566 224.644 134.273 224.927C133.99 225.2 133.648 225.337 133.248 225.337C132.848 225.337 132.501 225.2 132.208 224.927C131.925 224.644 131.783 224.307 131.783 223.916V223.901L131.798 216.577V216.548C131.798 215.044 131.549 213.896 131.051 213.105C130.553 212.314 129.581 211.919 128.136 211.919C126.915 211.919 125.997 212.344 125.382 213.193C124.776 214.043 124.474 215.137 124.474 216.475V223.931C124.474 224.321 124.327 224.658 124.034 224.941C123.751 225.215 123.409 225.352 123.009 225.352C122.589 225.352 122.232 225.21 121.939 224.927C121.656 224.634 121.515 224.302 121.515 223.931V205.049Z" fill="#FAFAFA"/>
<path fill-rule="evenodd" clip-rule="evenodd" d="M152.957 54.4791C153.442 54.8272 153.901 55.2111 154.33 55.6276L157.607 58.8136C158.117 59.3093 158.582 59.8494 158.996 60.4275L161.166 63.4556L161.215 63.5234L161.258 63.595L163.385 67.1567C164.123 68.392 164.633 69.75 164.89 71.1658L165.415 74.0544C165.545 74.7698 165.609 75.4955 165.608 76.2226L165.601 79.5507C165.599 80.7875 165.405 82.0164 165.027 83.194L164.052 86.2346C163.772 87.1074 163.392 87.9453 162.922 88.7318L159.277 94.8203C158.628 95.9033 157.813 96.8772 156.861 97.7061L151.969 101.966C151.093 102.729 150.111 103.36 149.054 103.841L142.637 106.757C142.023 107.036 141.447 107.391 140.923 107.815L137.59 110.504C136.692 111.229 135.961 112.139 135.448 113.173L133.508 117.082L133.476 117.146L133.44 117.208L129.795 123.401L129.734 123.504L129.661 123.599L126.156 128.192C125.5 129.052 124.731 129.819 123.87 130.472L118.606 134.467C117.95 134.964 117.244 135.394 116.5 135.747L109.49 139.076L109.393 139.122L109.291 139.158L87.6816 146.703L78.1247 151.457L78.1128 151.433L76.1473 152.498C74.1201 153.596 71.8907 154.27 69.5947 154.479L66.5403 154.758C63.4411 155.041 60.3294 154.371 57.6204 152.84C55.8786 151.855 54.3468 150.538 53.1119 148.964L51.8517 147.357C49.7292 144.651 48.4774 141.364 48.2616 137.932L48.0964 135.304C48.0186 134.066 48.1334 132.822 48.4368 131.618L53.2262 112.619L51.6161 113.377C50.3935 113.952 49.0824 114.316 47.7383 114.455L33.8199 115.89C32.7092 116.004 31.6874 116.549 30.9728 117.407C30.3658 118.136 29.6379 118.755 28.8211 119.237L27.9149 119.772C26.0618 120.866 23.7845 120.961 21.8464 120.027C20.6708 119.459 19.6954 118.548 19.0496 117.414L17.1661 114.106L17.1554 114.087L17.145 114.068L12.1366 104.809C11.9041 104.379 11.6327 103.971 11.3259 103.591L9.58086 101.429C9.00161 100.711 8.59047 99.8723 8.37763 98.9748L8.281 98.5674C7.89317 96.932 8.29794 95.2095 9.37354 93.918L9.50921 93.7551C10.4994 92.5662 11.9916 91.9128 13.5368 91.9916C15.1948 92.0761 16.6981 92.9918 17.5338 94.4262L18.2118 95.5898C18.3443 95.8171 18.5027 96.0283 18.6838 96.2192L21.7478 99.4478L25.8028 102.825C26.2136 103.167 26.6984 103.409 27.2188 103.531C27.7963 103.667 28.3991 103.651 28.9687 103.485L56.7278 95.4074C58.5263 94.884 60.4422 94.9263 62.2158 95.5284C63.7875 96.0619 65.1841 97.0137 66.2555 98.2814L66.7277 98.8401C68.0173 100.366 68.8971 102.195 69.2844 104.155L71.1355 113.525L75.7622 112.294L75.6681 111.934L75.6356 111.81L75.6192 111.683L74.2496 101.039C74.161 100.35 74.1323 99.6556 74.1638 98.9622L74.5609 90.2326C74.5957 89.4674 74.5204 88.7011 74.3373 87.9572L73.2919 83.7096C73.1209 83.0149 72.8575 82.3464 72.5088 81.7218L71.4795 79.8781C71.3511 79.648 71.1814 79.4436 70.979 79.275L70.1721 78.603C68.6887 77.3676 68.1273 75.3416 68.7632 73.5188C69.0549 72.6826 69.5804 71.9475 70.2772 71.4008L70.9417 70.8794C72.7872 69.4315 75.2029 68.9284 77.473 69.5192L78.3295 69.7421C80.0115 70.1799 81.5373 71.0801 82.7337 72.3409L84.1849 73.87C84.8107 74.5294 85.3088 75.2992 85.654 76.1402L86.8716 79.1071C88.4581 79.2042 89.7662 80.6132 89.5834 82.3243L89.496 83.1428L89.4871 83.2262L89.4712 83.3086L87.9115 91.4063C87.7304 92.3463 87.7196 93.3111 87.8794 94.2549L88.4951 97.8912L90.4276 104.915L92.8471 103.551C93.3608 103.261 93.8952 103.01 94.446 102.799L100.694 100.405C101.639 100.043 102.626 99.8021 103.632 99.6879L108.783 99.1025L106.483 98.648L106.411 98.6339L106.341 98.6146L104.101 98C103.026 97.7048 102.007 97.2307 101.089 96.5974L100.079 95.9009C99.3841 95.4213 98.8192 94.7762 98.4355 94.0237C97.7135 92.6074 97.6951 90.9349 98.3858 89.5029L98.8083 88.6271L98.829 88.5843L98.8517 88.5424L98.8729 88.5033C98.0894 87.3347 98.2218 85.7442 99.2169 84.7235C98.2504 83.4807 98.2916 81.6514 99.4596 80.4551L100.499 79.3906L100.513 79.3745L99.804 78.7841C98.8106 77.9568 98.4581 76.5866 98.9288 75.3826C99.0986 74.9483 99.3672 74.5596 99.7132 74.2471L100.482 73.5532C101.071 73.0209 101.743 72.5871 102.47 72.2686L103.815 71.6799C103.956 71.6181 104.092 71.5465 104.223 71.4655C105.058 70.9484 105.614 70.082 105.737 69.1079L106.086 66.3357C106.27 64.8772 106.72 63.4648 107.415 62.169L108.866 59.4609C109.193 58.8497 109.573 58.2681 110.001 57.7225L112.313 54.7758L112.388 54.6795L112.475 54.5932L115.748 51.333C116.225 50.8579 116.741 50.4238 117.291 50.0352L118.789 48.9762C119.854 48.2237 121.034 47.6497 122.284 47.2769L125.783 46.2327C126.737 45.9481 127.722 45.7832 128.717 45.742L132.045 45.6039C133.45 45.5455 134.855 45.7349 136.195 46.1632L141.66 47.9098L141.794 47.9525L141.92 48.0133L147.141 50.5303C147.764 50.8305 148.36 51.1841 148.922 51.587L152.957 54.4791ZM76.9456 116.118L71.665 117.523L72.0199 133.034C72.0579 134.697 71.7497 136.35 71.1148 137.888L69.9748 140.649L66.2775 139.123L67.4175 136.362C67.8408 135.336 68.0463 134.234 68.0209 133.126L67.6398 116.469L65.3602 104.93C65.1046 103.637 64.5238 102.429 63.6726 101.422L63.2005 100.863C62.5983 100.151 61.8133 99.616 60.93 99.3161C59.9331 98.9777 58.8563 98.9539 57.8455 99.2481L30.0864 107.326C28.8551 107.684 27.5522 107.718 26.3038 107.425C25.1789 107.161 24.131 106.638 23.243 105.899L19.0979 102.446L19.0078 102.371L18.9271 102.286L15.7824 98.9727C15.3884 98.5575 15.0439 98.0981 14.7557 97.6035L14.0777 96.4399C13.922 96.1727 13.642 96.0022 13.3331 95.9864C13.0453 95.9717 12.7673 96.0934 12.5828 96.3149L12.4472 96.4778C12.1773 96.8019 12.0757 97.2341 12.1731 97.6444L12.2697 98.0518C12.3447 98.3682 12.4896 98.6637 12.6938 98.9167L14.4388 101.079C14.8991 101.65 15.3061 102.261 15.6548 102.906L20.653 112.146L22.5257 115.435C22.7702 115.864 23.1393 116.209 23.5843 116.424C24.3179 116.778 25.1799 116.742 25.8813 116.327L26.7875 115.792C27.2095 115.543 27.5856 115.223 27.8992 114.847C29.2822 113.186 31.26 112.132 33.4097 111.911L47.3282 110.476C48.2242 110.384 49.0983 110.141 49.9134 109.757L55.347 107.201L57.4692 106.203L59.172 109.822L57.9064 110.417L52.3155 132.596C52.1132 133.399 52.0366 134.228 52.0886 135.053L52.2537 137.681C52.4187 140.306 53.376 142.819 54.9991 144.888L56.2593 146.495C57.1714 147.658 58.3026 148.63 59.5891 149.358C61.5899 150.489 63.8881 150.983 66.177 150.774L69.2314 150.496C70.9872 150.336 72.692 149.82 74.2422 148.98L76.8503 147.568L76.8741 147.612L86.0127 143.066L86.1254 143.01L86.2442 142.968L107.871 135.417L114.784 132.134C115.28 131.898 115.751 131.612 116.188 131.28L121.452 127.286C122.027 126.85 122.539 126.339 122.976 125.766L126.408 121.268L129.957 115.24L131.865 111.395C132.635 109.844 133.731 108.478 135.078 107.391L138.411 104.702C139.198 104.067 140.061 103.534 140.982 103.116L147.399 100.199C148.104 99.8787 148.759 99.4577 149.342 98.9492L154.234 94.6895C154.869 94.1369 155.412 93.4876 155.845 92.7656L159.49 86.6771C159.804 86.1528 160.056 85.5942 160.243 85.0124L161.219 81.9717C161.471 81.1867 161.6 80.3674 161.601 79.5429L161.608 76.2148C161.609 75.73 161.566 75.2462 161.479 74.7693L160.954 71.8807C160.783 70.9368 160.443 70.0315 159.951 69.2079L157.867 65.7179L155.745 62.7576C155.469 62.3723 155.159 62.0122 154.819 61.6817L151.541 58.4957C151.256 58.2181 150.95 57.9622 150.626 57.7301L146.592 54.838C146.217 54.5694 145.82 54.3337 145.404 54.1335L140.309 51.6773L134.978 49.9733C134.084 49.6878 133.148 49.5615 132.21 49.6004L128.883 49.7385C128.22 49.766 127.563 49.8759 126.927 50.0657L123.428 51.1099C122.595 51.3584 121.808 51.7411 121.098 52.2427L119.599 53.3018C119.233 53.5608 118.889 53.8502 118.571 54.1669L115.384 57.3408L113.149 60.1912C112.863 60.5549 112.61 60.9427 112.392 61.3502L110.941 64.0583C110.478 64.9222 110.177 65.8637 110.055 66.8361L109.705 69.6082C109.431 71.7806 108.191 73.7129 106.329 74.8659C106.038 75.0466 105.733 75.2064 105.419 75.344L104.075 75.9327C103.774 76.0644 103.494 76.2391 103.243 76.4511C103.355 76.5553 103.461 76.6659 103.56 76.7824C104.847 78.2911 104.832 80.5149 103.525 82.0062L103.472 82.067L103.436 82.1077L103.399 82.1463L102.856 82.7022C103.89 83.9416 103.852 85.796 102.742 86.9889C103.19 87.856 103.201 88.9131 102.713 89.8129L102.39 90.408L101.989 91.2409C101.841 91.5469 101.845 91.9043 101.999 92.207C102.081 92.3678 102.202 92.5056 102.35 92.6081L103.36 93.3046C103.909 93.683 104.517 93.9662 105.16 94.1426L107.33 94.738L110.257 95.3164C111.066 95.4764 111.823 95.8369 112.457 96.365L113.338 97.0989C114.355 97.9462 114.755 99.3276 114.346 100.587C113.954 101.794 112.893 102.661 111.631 102.804L104.084 103.662C103.413 103.738 102.755 103.899 102.125 104.141L95.877 106.534C95.5098 106.675 95.1536 106.843 94.8111 107.036L93.6996 107.662L94.1158 107.839C95.8175 108.562 97.7171 108.673 99.4916 108.154L104.928 106.562L104.964 106.551L105.001 106.542L111.707 104.851L111.715 104.849L111.723 104.847L114.518 104.166C116.379 103.713 118.322 103.72 120.18 104.189C121.566 104.538 122.877 105.137 124.048 105.957L125.042 106.652L122.749 109.929L121.755 109.234C120.982 108.693 120.117 108.298 119.202 108.067C117.976 107.758 116.693 107.753 115.465 108.052L112.685 108.73L112.67 108.734L106.016 110.412L100.615 111.992C97.9537 112.772 95.1042 112.605 92.5517 111.52L88.3967 109.755L87.5069 109.377L87.2504 108.445L84.6116 98.8552L84.5849 98.7579L84.568 98.6585L83.9355 94.9227C83.6958 93.507 83.7121 92.0597 83.9837 90.6498L85.4404 83.0865C84.5802 82.8629 83.8376 82.2496 83.4781 81.3738L81.9535 77.6589C81.7961 77.2753 81.5689 76.9242 81.2834 76.6235L79.8323 75.0944C79.1504 74.3758 78.2808 73.8627 77.3221 73.6132L76.4655 73.3903C75.4038 73.1139 74.2739 73.3493 73.4108 74.0265L72.7463 74.5478C72.6513 74.6223 72.5797 74.7225 72.5399 74.8365C72.4533 75.0849 72.5298 75.361 72.732 75.5294L73.5388 76.2014C74.1185 76.6842 74.6044 77.2695 74.9721 77.9282L76.0014 79.772C76.5245 80.7089 76.9195 81.7117 77.1759 82.7536L78.2214 87.0013C78.496 88.117 78.6089 89.2665 78.5567 90.4143L78.1597 99.1439C78.1387 99.6062 78.1578 100.069 78.2169 100.528L79.5701 111.045L80.1554 113.28C80.5086 114.629 81.2744 115.834 82.3457 116.726C83.3787 117.586 84.6471 118.116 85.9852 118.244L91.297 118.756L112.843 119.37L112.73 123.368L91.1156 122.753L91.048 122.751L90.9808 122.744L85.6017 122.226C83.4633 122.02 81.4366 121.175 79.7859 119.8C78.5744 118.791 77.6075 117.532 76.9456 116.118ZM133.554 83.3247C132.908 82.7867 132.075 82.5273 131.238 82.6037L128.46 82.857L128.188 79.8694L130.965 79.6161C132.595 79.4675 134.217 79.9723 135.474 81.0195C136.543 81.9099 137.516 83.3319 137.38 85.0854C137.296 86.1808 137.059 87.1203 136.981 87.4288L136.979 87.4345C136.897 87.7614 136.677 88.2674 136.466 88.7146C136.23 89.213 135.925 89.8063 135.599 90.3661C134.941 91.494 133.96 92.2746 133.004 92.8316L132.414 93.1754C131.387 93.7735 130.226 94.1024 129.038 94.1314C127.551 94.1677 126.09 93.7323 124.865 92.8876L123.588 92.0066L125.291 89.537L126.569 90.418C127.272 90.9031 128.111 91.1531 128.965 91.1323C129.647 91.1157 130.314 90.9268 130.903 90.5833L131.493 90.2395C132.189 89.8338 132.702 89.3787 133.007 88.8548C133.283 88.3819 133.548 87.8671 133.753 87.4339C133.973 86.9677 134.064 86.7196 134.07 86.7022L134.07 86.7012C134.14 86.4256 134.325 85.6878 134.389 84.854C134.424 84.4069 134.181 83.8467 133.554 83.3247ZM118.524 77.4966L118.024 77.1657C116.701 76.2897 115.156 75.8077 113.57 75.7757L113.63 72.7763C115.785 72.8197 117.883 73.4745 119.68 74.6642L120.18 74.9952L118.524 77.4966Z" fill="#FAFAFA"/>
<path fill-rule="evenodd" clip-rule="evenodd" d="M52.3489 84.6025C70.4431 87.793 87.6977 75.7111 90.8882 57.6169C92.7339 47.1497 93.2973 38.9868 91.4762 33.4568C90.6311 30.8902 89.3164 29.0491 87.4139 27.738C85.4488 26.3837 82.4486 25.3167 77.7944 25.0721C63.6134 24.3269 50.9191 25.4255 41.5236 28.9439C32.3063 32.3955 26.8016 37.9067 25.3634 46.0631C22.1729 64.1573 34.2547 81.412 52.3489 84.6025ZM51.4806 89.5265C72.2943 93.1965 92.1422 79.2988 95.8122 58.4852C99.4823 37.6715 99.1624 21.1881 78.0568 20.079C49.1125 18.558 24.1093 24.3812 20.4393 45.1949C16.7693 66.0085 30.667 85.8565 51.4806 89.5265ZM56.4976 63.1267C61.7834 64.0587 66.8239 60.5293 67.7559 55.2435C68.688 49.9577 65.1585 44.9172 59.8728 43.9852C54.587 43.0532 49.5465 46.5826 48.6144 51.8684C47.6824 57.1541 51.2118 62.1947 56.4976 63.1267ZM55.6294 68.0507C63.6346 69.4623 71.2684 64.117 72.68 56.1118C74.0915 48.1065 68.7463 40.4727 60.741 39.0612C52.7358 37.6496 45.1019 42.9949 43.6904 51.0001C42.2789 59.0054 47.6241 66.6392 55.6294 68.0507ZM57.2547 58.9234C60.4225 59.4819 63.4434 57.3667 64.002 54.1988C64.5606 51.031 62.4453 48.0101 59.2775 47.4515C56.1096 46.893 53.0887 49.0082 52.5302 52.176C51.9716 55.3439 54.0868 58.3648 57.2547 58.9234Z" fill="#FAFAFA"/>
<rect x="81.1445" y="76.2891" width="4.95516" height="6.2777" transform="rotate(64.0037 81.1445 76.2891)" fill="#7D5CD7"/>
<rect x="82.3813" y="79.8086" width="1.77935" height="6.22824" transform="rotate(58.3102 82.3813 79.8086)" fill="#7D5CD7"/>
<rect x="77.1553" y="78.8721" width="5.83483" height="1.27683" transform="rotate(73.8125 77.1553 78.8721)" fill="#7D5CD7"/>
</svg>
