<svg width="227" height="227" viewBox="0 0 227 227" fill="none" xmlns="http://www.w3.org/2000/svg">
<path d="M201.708 118.394H15.8672V137.657H201.708V118.394Z" fill="#F5F5F5"/>
<path d="M204.981 182.635C204.113 182.635 203.28 182.29 202.666 181.676C202.052 181.063 201.708 180.23 201.708 179.362V59.7827C201.708 58.9146 202.052 58.082 202.666 57.4681C203.28 56.8543 204.113 56.5094 204.981 56.5094C205.849 56.5094 206.682 56.8543 207.295 57.4681C207.909 58.082 208.254 58.9146 208.254 59.7827V179.362C208.254 180.23 207.909 181.063 207.295 181.676C206.682 182.29 205.849 182.635 204.981 182.635Z" fill="#EBEBEB"/>
<path d="M19.1404 59.7827C19.1404 57.9749 17.6749 56.5094 15.8671 56.5094C14.0593 56.5094 12.5938 57.9749 12.5938 59.7827V179.362C12.5938 181.17 14.0593 182.635 15.8671 182.635C17.6749 182.635 19.1404 181.17 19.1404 179.362V59.7827Z" fill="#EBEBEB"/>
<path d="M203.405 133.358H12.6982V141.952H203.405V133.358Z" fill="#EBEBEB"/>
<path d="M203.405 63.9504H12.6982V71.2099H203.405V63.9504Z" fill="#EBEBEB"/>
<path d="M32.1158 67.5824H28.6155V137.657H32.1158V67.5824Z" fill="#EBEBEB"/>
<path d="M45.4859 67.5824H41.9856V137.657H45.4859V67.5824Z" fill="#EBEBEB"/>
<path d="M58.8607 67.5824H55.3604V137.657H58.8607V67.5824Z" fill="#EBEBEB"/>
<path d="M72.2313 67.5824H68.731V137.657H72.2313V67.5824Z" fill="#EBEBEB"/>
<path d="M85.6014 67.5824H82.1011V137.657H85.6014V67.5824Z" fill="#EBEBEB"/>
<path d="M98.9764 67.5824H95.4761V137.657H98.9764V67.5824Z" fill="#EBEBEB"/>
<path d="M112.347 67.5824H108.846V137.657H112.347V67.5824Z" fill="#EBEBEB"/>
<path d="M125.717 67.5824H122.217V137.657H125.717V67.5824Z" fill="#EBEBEB"/>
<path d="M139.087 67.5824H135.587V137.657H139.087V67.5824Z" fill="#EBEBEB"/>
<path d="M152.462 67.5824H148.962V137.657H152.462V67.5824Z" fill="#EBEBEB"/>
<path d="M165.832 67.5824H162.332V137.657H165.832V67.5824Z" fill="#EBEBEB"/>
<path d="M179.203 67.5824H175.702V137.657H179.203V67.5824Z" fill="#EBEBEB"/>
<path d="M192.578 67.5824H189.077V137.657H192.578V67.5824Z" fill="#EBEBEB"/>
<path d="M82.6324 17.3701H49.8354V51.5563H82.6324V17.3701Z" fill="#E0E0E0"/>
<path d="M80.4122 17.3701H47.6152V51.5563H80.4122V17.3701Z" fill="#FAFAFA"/>
<path d="M80.4215 51.5699H47.6018V17.361H80.4215V51.5699ZM47.6245 51.5699H80.3988V17.3791H47.6245V51.5699Z" fill="#E0E0E0"/>
<path d="M76.004 21.9645H52.0237V46.9618H76.004V21.9645Z" fill="white"/>
<path d="M52.0238 47.1298C51.8526 47.3804 51.653 47.6104 51.429 47.8153C51.0477 48.2194 50.521 48.7687 49.9081 49.3634C49.2952 49.9582 48.7504 50.4848 48.3418 50.8616C48.1429 51.0812 47.9172 51.2749 47.6699 51.4382C47.8366 51.1855 48.035 50.9551 48.2601 50.7527C48.6415 50.3486 49.1681 49.7993 49.7856 49.2045C50.403 48.6098 50.9478 48.0786 51.3564 47.7018C51.5549 47.4848 51.779 47.2927 52.0238 47.1298Z" fill="#E0E0E0"/>
<path d="M75.9993 47.0662C76.252 47.2365 76.4836 47.4361 76.6893 47.6609C77.0934 48.0423 77.6382 48.5689 78.233 49.1818C78.8277 49.7947 79.3589 50.3395 79.7357 50.7481C79.9534 50.9572 80.1468 51.1903 80.3123 51.4427C80.0595 51.2761 79.8291 51.0777 79.6267 50.8526C79.2227 50.4712 78.6733 49.9446 78.0786 49.3271C77.4838 48.7097 76.9527 48.1649 76.5758 47.7563C76.3586 47.5484 76.1652 47.317 75.9993 47.0662Z" fill="#E0E0E0"/>
<path d="M75.9358 22.0326C76.1061 21.7826 76.3041 21.5527 76.526 21.3471C76.9119 20.943 77.434 20.3937 78.0514 19.7989C78.6689 19.2042 79.2091 18.6776 79.6177 18.3007C79.8225 18.0733 80.056 17.8733 80.3123 17.706C80.1406 17.9549 79.9428 18.1847 79.7221 18.3915C79.3408 18.7956 78.8141 19.3404 78.1967 19.9397C77.5793 20.539 77.0345 21.0656 76.6259 21.4424C76.4199 21.6657 76.1883 21.8638 75.9358 22.0326Z" fill="#E0E0E0"/>
<path d="M51.9557 22.0962C51.7051 21.925 51.475 21.7254 51.2701 21.5014C50.8661 21.1201 50.3167 20.5934 49.722 19.9805C49.1273 19.3676 48.6006 18.8228 48.2238 18.4142C48.0124 18.2004 47.8265 17.9627 47.6699 17.706C47.9227 17.8727 48.1531 18.071 48.3555 18.2962C48.7595 18.6776 49.3089 19.2042 49.9036 19.8216C50.4983 20.4391 51.0295 20.9839 51.4063 21.3925C51.6191 21.6023 51.8038 21.8388 51.9557 22.0962Z" fill="#E0E0E0"/>
<path d="M75.9357 46.9618C75.9357 46.9618 75.9357 46.9209 75.9357 46.8392C75.9357 46.7575 75.9357 46.6394 75.9357 46.4941C75.9357 46.1763 75.9357 45.7269 75.9357 45.1321C75.9357 43.9472 75.9357 42.2265 75.913 40.0383C75.913 35.6617 75.8857 29.4237 75.8676 21.9554L75.9584 22.0508H52.0462L52.1506 21.9418C52.1506 31.1172 52.1506 39.7023 52.1506 46.9391L52.0598 46.8483L69.3754 46.8937L74.2377 46.9209H75.5225H74.2513L69.4071 46.9436L52.0371 46.989H51.9463V46.8982C51.9463 39.6614 51.9463 31.0763 51.9463 21.901V21.7965H52.0553H75.9674H76.0582V21.8873C76.0582 29.3829 76.0265 35.639 76.0128 40.0473C76.0128 42.2265 76.0128 43.9427 75.9901 45.1231C75.9901 45.6996 75.9901 46.1446 75.9901 46.4533C75.9901 46.5986 75.9901 46.7075 75.9901 46.7938C75.9775 46.8514 75.9592 46.9077 75.9357 46.9618Z" fill="#E0E0E0"/>
<path d="M68.009 30.4634H60.0095V38.4629H68.009V30.4634Z" fill="#EBEBEB"/>
<path d="M180.442 12.3034V53.7854H126.861L124.932 12.594L180.442 12.3034Z" fill="#E0E0E0"/>
<path d="M124.932 12.544V53.7854H178.513V12.544H124.932Z" fill="white"/>
<path d="M178.717 53.9897H124.727V12.3397H178.717V53.9897ZM125.145 53.5811H178.308V12.7483H125.136L125.145 53.5811Z" fill="#E0E0E0"/>
<path d="M172.706 16.7798H130.734V48.3556H172.706V16.7798Z" fill="white"/>
<path d="M172.71 16.798H172.52H171.929H169.659L161.033 16.8253L130.747 16.8707L130.847 16.7753C130.847 26.2458 130.847 36.9965 130.847 48.3465L130.738 48.2421H172.715L172.624 48.3283C172.624 38.7943 172.66 30.9038 172.669 25.4013C172.669 22.6501 172.669 20.4936 172.692 19.0181C172.692 18.2826 172.692 17.7196 172.692 17.3383C172.692 16.9569 172.692 16.7526 172.692 16.7526C172.692 16.7526 172.692 16.9433 172.692 17.3156C172.692 17.6879 172.692 18.2554 172.692 18.9818C172.692 20.4527 172.692 22.6138 172.715 25.3378C172.715 30.8539 172.742 38.7535 172.76 48.3192V48.4055H172.674H130.697H130.593V48.2965C130.593 36.9465 130.593 26.1958 130.593 16.7254V16.63H130.752L161.102 16.68H169.687H171.957H172.733L172.71 16.798Z" fill="#E0E0E0"/>
<path d="M124.932 12.4487C125.253 12.6008 125.557 12.7865 125.84 13.0025C126.384 13.3703 127.124 13.8878 127.933 14.4826C128.741 15.0773 129.449 15.6403 129.953 16.0625C130.246 16.2763 130.515 16.5231 130.752 16.798C130.429 16.623 130.125 16.4161 129.844 16.1806L127.792 14.6551L125.758 13.1251C125.461 12.9274 125.184 12.7008 124.932 12.4487Z" fill="#E0E0E0"/>
<path d="M178.513 12.544C177.617 13.3306 176.677 14.0658 175.698 14.7459C174.743 15.488 173.746 16.1732 172.71 16.798C173.611 16.0081 174.559 15.2728 175.548 14.5961C176.493 13.8524 177.484 13.1671 178.513 12.544Z" fill="#E0E0E0"/>
<path d="M172.52 48.3556C173.59 49.1818 174.618 50.0622 175.598 50.9933C176.625 51.8723 177.605 52.8043 178.535 53.7854C177.462 52.9613 176.433 52.0808 175.453 51.1477C174.427 50.2694 173.448 49.3374 172.52 48.3556Z" fill="#E0E0E0"/>
<path d="M124.932 53.7854C125.815 52.8443 126.75 51.9531 127.733 51.1159C128.666 50.2236 129.648 49.3839 130.675 48.6007C129.793 49.5431 128.857 50.4344 127.874 51.2702C126.94 52.1622 125.958 53.0019 124.932 53.7854Z" fill="#E0E0E0"/>
<path d="M150.056 33.8457C150.009 33.4069 149.997 32.9652 150.02 32.5246C150.047 32.007 150.02 31.4758 150.02 30.9537C150.02 29.1014 148.767 27.9619 146.946 27.98C146.091 28.0605 145.274 28.3746 144.585 28.888C141.353 31.1035 142.547 35.9704 144.585 38.4901C145.254 39.2918 146.058 39.9708 146.96 40.4968C148.086 41.1188 149.947 41.1642 150.723 40.07C151.022 39.6486 151.207 39.1567 151.258 38.6426C151.31 38.1285 151.227 37.6097 151.018 37.1372C150.529 36.0966 150.204 34.9861 150.056 33.8457Z" fill="#EBEBEB"/>
<path d="M150.728 26.5272C150.405 27.5351 149.506 28.148 148.717 27.8892C147.927 27.6304 147.55 26.6135 147.868 25.6192C148.185 24.625 149.089 23.9984 149.879 24.2572C150.669 24.516 151.041 25.5193 150.728 26.5272Z" fill="#EBEBEB"/>
<path d="M147.023 26.332C147.023 27.0766 146.537 27.6668 145.956 27.6622C145.375 27.6577 144.917 27.0448 144.926 26.3002C144.935 25.5557 145.412 24.9655 145.993 24.9746C146.574 24.9836 147.032 25.6056 147.023 26.332Z" fill="#EBEBEB"/>
<path d="M144.445 26.9268C144.539 27.0396 144.606 27.1723 144.641 27.315C144.676 27.4577 144.679 27.6066 144.648 27.7503C144.617 27.8939 144.553 28.0287 144.463 28.1442C144.372 28.2598 144.256 28.3531 144.124 28.4171C143.991 28.4811 143.846 28.5141 143.699 28.5137C143.552 28.5132 143.407 28.4792 143.275 28.4143C143.144 28.3494 143.028 28.2553 142.938 28.1391C142.848 28.023 142.786 27.8878 142.756 27.744C142.661 27.6311 142.594 27.4984 142.559 27.3557C142.524 27.213 142.522 27.0641 142.553 26.9204C142.584 26.7768 142.647 26.642 142.738 26.5265C142.828 26.4109 142.944 26.3176 143.077 26.2536C143.209 26.1896 143.354 26.1566 143.501 26.157C143.648 26.1575 143.793 26.1915 143.925 26.2564C144.057 26.3213 144.172 26.4154 144.262 26.5316C144.352 26.6477 144.415 26.7829 144.445 26.9268Z" fill="#EBEBEB"/>
<path d="M142.556 28.4658C142.687 28.5164 142.804 28.5966 142.899 28.7001C142.993 28.8036 143.063 28.9277 143.101 29.0625C143.14 29.1973 143.147 29.3393 143.122 29.4772C143.096 29.6152 143.039 29.7454 142.955 29.8576C142.871 29.9698 142.762 30.061 142.636 30.124C142.511 30.187 142.373 30.2201 142.233 30.2208C142.092 30.2214 141.954 30.1895 141.828 30.1277C141.702 30.0658 141.592 29.9756 141.507 29.8641C141.376 29.8136 141.259 29.7334 141.164 29.6299C141.07 29.5264 141 29.4023 140.962 29.2675C140.923 29.1326 140.916 28.9907 140.941 28.8527C140.967 28.7148 141.024 28.5846 141.108 28.4724C141.192 28.3602 141.301 28.269 141.426 28.206C141.552 28.143 141.69 28.1098 141.83 28.1092C141.971 28.1086 142.109 28.1404 142.235 28.2023C142.361 28.2642 142.471 28.3544 142.556 28.4658Z" fill="#EBEBEB"/>
<path d="M141.689 30.4816C141.814 30.5552 141.916 30.6625 141.983 30.7913C142.051 30.92 142.08 31.0651 142.069 31.2099C142.058 31.3547 142.007 31.4936 141.921 31.6106C141.835 31.7276 141.717 31.8182 141.582 31.8719C141.448 31.9257 141.3 31.9405 141.157 31.9147C141.014 31.8889 140.881 31.8235 140.774 31.726C140.666 31.6284 140.588 31.5027 140.548 31.3629C140.509 31.2232 140.509 31.0751 140.549 30.9356C140.643 30.7266 140.814 30.5623 141.027 30.4776C141.24 30.3928 141.477 30.3943 141.689 30.4816Z" fill="#EBEBEB"/>
<path d="M155.318 33.8457C155.364 33.4069 155.376 32.9652 155.354 32.5246C155.327 32.007 155.354 31.4758 155.354 30.9537C155.354 29.1014 156.612 27.9619 158.432 27.98C159.286 28.0616 160.101 28.3756 160.788 28.888C164.021 31.1035 162.827 35.9704 160.788 38.4901C160.12 39.2928 159.317 39.972 158.414 40.4968C157.288 41.1188 155.431 41.1642 154.65 40.07C154.351 39.6486 154.167 39.1567 154.115 38.6426C154.063 38.1285 154.146 37.6097 154.355 37.1372C154.845 36.0966 155.169 34.9861 155.318 33.8457Z" fill="#EBEBEB"/>
<path d="M154.655 26.5272C154.973 27.5351 155.872 28.148 156.662 27.8892C157.452 27.6304 157.833 26.6135 157.511 25.6192C157.188 24.625 156.289 23.9984 155.499 24.2572C154.709 24.516 154.333 25.5193 154.655 26.5272Z" fill="#EBEBEB"/>
<path d="M158.35 26.332C158.35 27.0766 158.836 27.6668 159.417 27.6622C159.998 27.6577 160.457 27.0448 160.448 26.3002C160.439 25.5557 159.962 24.9655 159.381 24.9746C158.8 24.9836 158.341 25.6056 158.35 26.332Z" fill="#EBEBEB"/>
<path d="M160.929 26.9267C160.837 27.0399 160.771 27.1726 160.737 27.3149C160.703 27.4571 160.702 27.6052 160.733 27.748C160.765 27.8908 160.829 28.0246 160.919 28.1393C161.01 28.254 161.126 28.3466 161.257 28.4102C161.389 28.4737 161.533 28.5066 161.68 28.5063C161.826 28.5059 161.97 28.4725 162.102 28.4083C162.233 28.3442 162.348 28.2511 162.439 28.136C162.529 28.0209 162.592 27.8869 162.623 27.7439C162.715 27.6308 162.781 27.4981 162.815 27.3558C162.849 27.2136 162.85 27.0655 162.819 26.9227C162.787 26.7799 162.723 26.6461 162.633 26.5314C162.542 26.4167 162.426 26.3241 162.295 26.2605C162.163 26.197 162.019 26.1641 161.872 26.1644C161.726 26.1647 161.582 26.1982 161.45 26.2624C161.319 26.3265 161.204 26.4196 161.113 26.5347C161.023 26.6498 160.96 26.7838 160.929 26.9267Z" fill="#EBEBEB"/>
<path d="M162.804 28.4658C162.673 28.5164 162.556 28.5966 162.461 28.7001C162.367 28.8036 162.297 28.9277 162.259 29.0625C162.22 29.1973 162.213 29.3393 162.239 29.4772C162.264 29.6152 162.321 29.7454 162.405 29.8576C162.489 29.9698 162.598 30.061 162.724 30.124C162.849 30.187 162.987 30.2201 163.127 30.2208C163.268 30.2214 163.406 30.1895 163.532 30.1277C163.658 30.0658 163.768 29.9756 163.853 29.8641C163.984 29.8136 164.101 29.7334 164.196 29.6299C164.29 29.5264 164.36 29.4023 164.398 29.2675C164.437 29.1326 164.444 28.9907 164.419 28.8527C164.393 28.7148 164.336 28.5846 164.252 28.4724C164.168 28.3602 164.059 28.269 163.934 28.206C163.808 28.143 163.67 28.1098 163.53 28.1092C163.389 28.1086 163.251 28.1404 163.125 28.2023C162.999 28.2642 162.889 28.3544 162.804 28.4658Z" fill="#EBEBEB"/>
<path d="M163.685 30.4816C163.559 30.5555 163.456 30.6635 163.388 30.7931C163.32 30.9227 163.29 31.0688 163.301 31.2147C163.312 31.3606 163.364 31.5004 163.451 31.6183C163.538 31.7361 163.656 31.8272 163.792 31.8811C163.928 31.9351 164.076 31.9498 164.22 31.9235C164.364 31.8972 164.498 31.831 164.606 31.7324C164.714 31.6339 164.792 31.5069 164.832 31.366C164.871 31.2251 164.87 31.076 164.829 30.9356C164.735 30.7255 164.563 30.5604 164.349 30.4756C164.136 30.3907 163.897 30.3929 163.685 30.4816Z" fill="#EBEBEB"/>
<path d="M27.5986 183.062C45.5271 204.931 76.1766 218.524 107.108 218.347C138.039 218.17 168.475 204.223 186.067 182.149L27.5986 183.062Z" fill="#F5F5F5"/>
<path d="M40.9097 182.985C55.2515 200.06 82.3008 210.552 107.053 210.415C131.805 210.279 159.808 199.456 173.882 182.217L40.9097 182.985Z" fill="#FAFAFA"/>
<path d="M54.666 182.776C69.3847 192.569 88.8431 198.212 107.053 198.121C125.181 198.017 145.057 192.187 159.926 182.299L54.666 182.776Z" fill="#EBEBEB"/>
<path d="M211.832 181.931C211.832 182 167.04 182.049 111.802 182.049C56.5638 182.049 11.7585 182 11.7585 181.931C11.7585 181.863 56.5411 181.813 111.802 181.813C167.063 181.813 211.832 181.868 211.832 181.931Z" fill="#263238"/>
<path d="M43.6522 142.161C43.6114 142.211 43.2663 142.002 42.885 141.707C42.5036 141.412 42.2221 141.108 42.263 141.058C42.3038 141.008 42.6489 141.212 43.0348 141.512C43.4207 141.811 43.6931 142.102 43.6522 142.161Z" fill="#263238"/>
<path d="M54.1124 126.525C54.1759 125.063 54.2168 123.565 53.7537 122.18C53.2906 120.796 52.2237 119.516 50.7936 119.22C49.1592 118.88 47.484 119.911 46.5669 121.309C45.6498 122.707 45.3365 124.396 45.0687 126.044C43.2038 137.4 42.5162 148.919 43.0166 160.416L49.704 161.352C52.6641 149.366 53.5721 138.865 54.1124 126.525Z" fill="#455A64"/>
<path d="M49.8627 119.166C49.8605 119.204 49.8512 119.241 49.8355 119.275L49.722 119.579C49.613 119.861 49.4677 120.246 49.268 120.732C49.1772 120.986 49.05 121.259 48.9502 121.568C48.8503 121.876 48.7413 122.217 48.6278 122.58C48.5143 122.943 48.3872 123.334 48.251 123.742C48.1148 124.151 48.0285 124.605 47.906 125.068C47.349 127.248 46.9185 129.458 46.6166 131.687C46.2534 134.202 46.0173 136.985 45.8312 139.914C45.4861 145.77 45.4362 151.087 45.2864 154.932C45.2137 156.857 45.1456 158.414 45.073 159.472C45.0367 159.994 45.0094 160.407 44.9913 160.707C44.9913 160.839 44.9686 160.943 44.9595 161.029C44.9653 161.065 44.9653 161.102 44.9595 161.138C44.9526 161.102 44.9526 161.065 44.9595 161.029C44.9595 160.943 44.9595 160.834 44.9595 160.707C44.9595 160.404 44.9731 159.991 45.0004 159.468C45.0458 158.392 45.0821 156.839 45.132 154.928C45.241 151.082 45.2682 145.766 45.586 139.9C45.7722 136.967 46.04 134.175 46.3941 131.655C46.7122 129.42 47.1671 127.207 47.7561 125.027L48.1193 123.701L48.5143 122.539C48.6369 122.176 48.7504 121.84 48.8594 121.531C48.9683 121.223 49.0954 120.95 49.1953 120.7C49.4011 120.219 49.5646 119.838 49.6856 119.556L49.8173 119.266C49.8289 119.231 49.8441 119.198 49.8627 119.166Z" fill="#263238"/>
<path d="M50.4848 119.17C50.8323 119.583 51.1085 120.051 51.302 120.555C51.8132 121.937 52.0207 123.413 51.9103 124.882C51.7333 128.573 51.4018 133.667 50.9615 139.287C50.5211 144.908 50.0535 149.993 49.6358 153.665C49.436 155.481 49.268 156.989 49.1409 158.01L48.9911 159.191C48.9911 159.313 48.9548 159.413 48.9457 159.499C48.9366 159.586 48.9457 159.604 48.9457 159.604C48.941 159.568 48.941 159.531 48.9457 159.495C48.9457 159.413 48.9457 159.309 48.9457 159.186C48.9729 158.883 49.0092 158.488 49.0546 158.001C49.1545 156.952 49.2953 155.468 49.4723 153.647C49.8219 149.97 50.285 144.89 50.7299 139.269C51.1748 133.649 51.5244 128.559 51.7469 124.873C51.8703 123.425 51.6909 121.967 51.2202 120.591C51.0153 120.098 50.7693 119.623 50.4848 119.17Z" fill="#263238"/>
<path d="M55.1202 136.477C54.6818 136.445 54.2527 136.334 53.8535 136.15C53.4267 136.039 53.0236 135.852 52.6641 135.596C53.1039 135.629 53.5344 135.739 53.9353 135.923C54.3605 136.034 54.762 136.222 55.1202 136.477Z" fill="#263238"/>
<path d="M55.9236 129.662C55.5627 129.952 55.1561 130.179 54.7205 130.334C54.3161 130.561 53.875 130.714 53.4175 130.788C53.7779 130.499 54.1847 130.274 54.6206 130.121C55.0254 129.894 55.4661 129.739 55.9236 129.662Z" fill="#263238"/>
<path d="M55.5059 124.101C55.1826 124.193 54.8426 124.21 54.5116 124.151C54.1747 124.166 53.839 124.102 53.531 123.965C53.8534 123.867 54.1947 123.85 54.5253 123.915C55.0746 123.942 55.5104 124.033 55.5059 124.101Z" fill="#263238"/>
<path d="M48.6051 120.537C48.5506 120.573 48.26 120.206 47.9513 119.724C47.7316 119.447 47.5764 119.125 47.4973 118.78C47.5518 118.744 47.8469 119.111 48.1511 119.597C48.4553 120.083 48.6641 120.501 48.6051 120.537Z" fill="#263238"/>
<path d="M46.308 123.901C45.6836 124.048 45.0322 124.034 44.4148 123.86C44.4148 123.792 44.8416 123.747 45.3637 123.76C45.8857 123.774 46.3307 123.833 46.308 123.901Z" fill="#263238"/>
<path d="M44.6915 130.629C44.3422 130.612 44.0011 130.518 43.6927 130.352C43.1616 130.144 42.7575 129.921 42.7847 129.858C43.1341 129.875 43.4752 129.969 43.7835 130.135C44.3056 130.348 44.7142 130.566 44.6915 130.629Z" fill="#263238"/>
<path d="M44.5148 136.286C44.5148 136.354 44.147 136.486 43.6658 136.59C43.1846 136.695 42.7578 136.718 42.7578 136.654C42.7578 136.59 43.1256 136.454 43.6068 136.354C44.088 136.255 44.4921 136.223 44.5148 136.286Z" fill="#263238"/>
<path d="M43.7475 145.543C43.7475 145.611 43.3525 145.734 42.8395 145.829C42.3265 145.925 41.9042 145.943 41.8906 145.875C42.1662 145.709 42.4777 145.613 42.7986 145.593C43.1064 145.501 43.4318 145.484 43.7475 145.543Z" fill="#263238"/>
<path d="M43.2344 150.655C43.2662 150.714 42.9257 150.95 42.4808 151.187C42.0358 151.423 41.6454 151.568 41.6136 151.509C41.5818 151.45 41.9223 151.214 42.3673 150.978C42.8122 150.742 43.2026 150.596 43.2344 150.655Z" fill="#263238"/>
<path d="M47.4067 156.453C47.3477 156.485 47.0572 156.081 46.7484 155.545C46.5295 155.237 46.375 154.888 46.2944 154.519C46.3535 154.487 46.6486 154.891 46.9527 155.427C47.1736 155.734 47.3282 156.083 47.4067 156.453Z" fill="#263238"/>
<path d="M48.6096 146.815C48.655 146.864 48.3281 147.269 47.8786 147.7C47.4292 148.131 47.0251 148.463 46.9706 148.413C46.9162 148.363 47.2521 147.959 47.7016 147.527C48.151 147.096 48.5778 146.769 48.6096 146.815Z" fill="#263238"/>
<path d="M48.3418 141.757C48.2964 141.802 47.9922 141.553 47.6653 141.203C47.3385 140.854 47.116 140.527 47.1614 140.486C47.2068 140.445 47.5155 140.69 47.8424 141.04C48.1693 141.389 48.3917 141.716 48.3418 141.757Z" fill="#263238"/>
<path d="M49.1728 135.292C49.2182 135.337 48.9458 135.723 48.5599 136.15C48.174 136.577 47.8244 136.895 47.7745 136.854C47.7245 136.813 47.9969 136.422 48.3828 135.991C48.7687 135.56 49.1228 135.256 49.1728 135.292Z" fill="#263238"/>
<path d="M49.6359 130.607C49.5905 130.657 49.2091 130.357 48.7869 129.939C48.3647 129.522 48.0559 129.149 48.1059 129.099C48.1558 129.05 48.5326 129.354 48.9549 129.771C49.3771 130.189 49.6858 130.561 49.6359 130.607Z" fill="#263238"/>
<path d="M50.5529 124.269C50.4819 124.613 50.3362 124.937 50.1261 125.218C49.831 125.708 49.5495 126.08 49.495 126.044C49.4406 126.008 49.6267 125.59 49.9218 125.095C50.2169 124.6 50.4938 124.237 50.5529 124.269Z" fill="#263238"/>
<path d="M52.2735 118.394C52.3325 118.426 52.1645 118.848 51.8966 119.343C51.6288 119.838 51.3655 120.215 51.311 120.183C51.2565 120.151 51.4199 119.729 51.6878 119.229C51.9557 118.73 52.2099 118.362 52.2735 118.394Z" fill="#263238"/>
<path d="M54.2303 121.064C54.2575 121.123 53.9897 121.309 53.631 121.481C53.2724 121.654 52.9591 121.745 52.9319 121.686C52.9046 121.627 53.168 121.436 53.5266 121.268C53.8853 121.1 54.1985 121.005 54.2303 121.064Z" fill="#263238"/>
<path d="M54.2758 142.161C53.8204 142.165 53.3711 142.056 52.9683 141.843C52.5351 141.7 52.1448 141.45 51.8333 141.117C52.2588 141.246 52.6708 141.417 53.0636 141.625C53.4845 141.763 53.8905 141.943 54.2758 142.161Z" fill="#263238"/>
<path d="M53.4766 146.642C53.4766 146.706 53.0861 146.837 52.5686 146.937C52.051 147.037 51.6605 147.064 51.6242 146.996C51.5879 146.928 52.0147 146.801 52.5322 146.701C52.8377 146.606 53.1616 146.586 53.4766 146.642Z" fill="#263238"/>
<path d="M52.496 154.287C51.7076 153.816 51.1183 153.074 50.8389 152.199C51.1438 152.524 51.4202 152.875 51.6651 153.248C51.9699 153.571 52.2478 153.919 52.496 154.287Z" fill="#263238"/>
<path d="M41.7679 157.792C41.7225 157.742 41.9949 157.438 42.3717 157.116C42.7485 156.793 43.0936 156.571 43.1344 156.621C43.1753 156.671 42.9074 156.975 42.5261 157.297C42.1447 157.62 41.7906 157.842 41.7679 157.792Z" fill="#263238"/>
<path d="M38.6579 141.071C38.2039 139.709 37.4049 138.13 35.9793 138.107C35.5534 138.133 35.1424 138.273 34.7894 138.513C34.4363 138.753 34.1542 139.083 33.9726 139.469C33.5815 140.228 33.3953 141.076 33.4324 141.93C33.6082 147.981 34.6399 153.978 36.4969 159.74H41.7179C41.6566 153.397 40.6246 147.102 38.6579 141.071Z" fill="#455A64"/>
<path d="M29.215 132.518C28.4886 129.599 26.3094 128.023 23.767 127.878C21.4606 128.282 20.5663 130.552 20.2893 132.872C20.0124 135.192 20.7433 137.512 21.4516 139.746C23.7427 146.91 26.0339 154.074 28.3251 161.238L34.8219 160.53C32.7789 150.937 31.5985 142.043 29.215 132.518Z" fill="#455A64"/>
<path d="M35.9795 138.107C35.8095 138.342 35.6577 138.589 35.5255 138.847C35.2588 139.585 35.1747 140.376 35.2804 141.153C35.3802 142.147 35.4938 143.341 35.6617 144.654C35.8297 145.966 36.0658 147.4 36.3609 148.898C36.9511 151.899 37.6139 154.592 38.0361 156.553C38.2495 157.533 38.413 158.328 38.4901 158.882C38.5355 159.132 38.5719 159.336 38.5991 159.517C38.6178 159.59 38.6254 159.665 38.6218 159.74C38.5879 159.673 38.5649 159.601 38.5537 159.527C38.5128 159.354 38.4629 159.15 38.3994 158.9C38.2632 158.319 38.077 157.538 37.85 156.589C37.396 154.637 36.6968 151.954 36.1021 148.944C35.807 147.441 35.58 145.997 35.4211 144.681C35.3348 144.018 35.2804 143.391 35.2259 142.801C35.1714 142.211 35.1169 141.671 35.0897 141.167C34.9946 140.365 35.1071 139.552 35.4166 138.806C35.551 138.535 35.7431 138.296 35.9795 138.107Z" fill="#263238"/>
<path d="M23.8759 127.692C23.5873 128.022 23.3247 128.374 23.0905 128.745C22.4922 129.783 22.1527 130.949 22.1008 132.146C22.0744 133.92 22.346 135.687 22.9043 137.371L24.7612 143.655C26.0551 148.104 27.2264 152.135 28.0845 155.077C28.4931 156.526 28.8245 157.706 29.0651 158.55L29.3194 159.495C29.3539 159.604 29.3782 159.717 29.392 159.831C29.3432 159.727 29.3037 159.619 29.274 159.508C29.1968 159.277 29.1014 158.964 28.9743 158.6C28.7201 157.76 28.3614 156.589 27.921 155.15C27.0448 152.208 25.8508 148.186 24.5297 143.745C23.8804 141.512 23.2585 139.392 22.7137 137.458C22.1436 135.736 21.8793 133.927 21.9328 132.114C21.9986 130.896 22.3702 129.714 23.0133 128.677C23.2448 128.304 23.5362 127.971 23.8759 127.692Z" fill="#263238"/>
<path d="M33.4189 159.844C33.3594 159.745 33.3092 159.64 33.269 159.531C33.1873 159.322 33.0466 159.023 32.9013 158.623C32.5926 157.824 32.1931 156.648 31.7845 155.173C31.3759 153.697 30.9673 151.922 30.5723 149.938C30.1773 147.954 29.7823 145.761 29.351 143.464C28.9197 141.167 28.3976 139.01 27.812 137.081C27.3074 135.371 26.6745 133.701 25.9188 132.087C25.4078 130.997 24.8223 129.945 24.1663 128.936C23.9439 128.573 23.7396 128.309 23.6215 128.119C23.5504 128.029 23.4895 127.932 23.4399 127.828C23.5197 127.91 23.5926 127.998 23.6579 128.092C23.7941 128.273 24.0074 128.546 24.2435 128.886C24.9288 129.882 25.5359 130.929 26.0595 132.019C26.8435 133.628 27.4964 135.298 28.0117 137.013C28.6431 139.116 29.1644 141.252 29.5735 143.41C30.0275 145.68 30.4088 147.886 30.7811 149.874C31.1534 151.863 31.5484 153.638 31.9388 155.114C32.3293 156.589 32.697 157.77 32.9785 158.573C33.1101 158.977 33.2373 159.286 33.3054 159.481C33.3544 159.598 33.3924 159.72 33.4189 159.844Z" fill="#263238"/>
<path d="M21.5833 138.679C21.5833 138.742 21.2473 138.888 20.7933 138.997C20.3393 139.106 19.9625 139.142 19.9489 139.078C19.9353 139.015 20.2848 138.874 20.7388 138.761C21.1928 138.647 21.5697 138.615 21.5833 138.679Z" fill="#263238"/>
<path d="M20.884 134.248C20.5292 134.352 20.1587 134.392 19.7898 134.366C19.4246 134.42 19.0527 134.409 18.6912 134.334C19.0319 134.177 19.4063 134.107 19.7808 134.13C20.1526 134.076 20.532 134.116 20.884 134.248Z" fill="#263238"/>
<path d="M21.6284 130.198C21.583 130.248 21.2289 130.021 20.8384 129.69C20.448 129.358 20.162 129.045 20.2074 128.995C20.2528 128.945 20.6024 129.172 20.9928 129.504C21.3832 129.835 21.6693 130.148 21.6284 130.198Z" fill="#263238"/>
<path d="M23.6081 126.453C23.6716 126.453 23.6535 126.784 23.6444 127.165C23.6353 127.547 23.6444 127.86 23.5672 127.874C23.49 127.887 23.3947 127.565 23.4083 127.156C23.4219 126.748 23.5445 126.434 23.6081 126.453Z" fill="#263238"/>
<path d="M27.6577 128.219C27.7122 128.255 27.5533 128.577 27.3036 128.931C27.0539 129.286 26.8042 129.549 26.7542 129.508C26.7043 129.467 26.8587 129.154 27.1084 128.795C27.3581 128.437 27.6032 128.178 27.6577 128.219Z" fill="#263238"/>
<path d="M30.282 132.781C30.3092 132.845 29.9733 133.04 29.5329 133.235C29.0925 133.431 28.7157 133.512 28.693 133.449C28.6703 133.385 29.0017 133.195 29.4421 132.995C29.8825 132.795 30.2593 132.722 30.282 132.781Z" fill="#263238"/>
<path d="M31.8799 137.48C31.5857 137.725 31.2286 137.882 30.8493 137.934C30.4859 138.057 30.0947 138.071 29.7234 137.975C30.0677 137.84 30.4277 137.748 30.7948 137.703C31.1448 137.58 31.5098 137.505 31.8799 137.48Z" fill="#263238"/>
<path d="M24.5614 136.146C24.4978 136.123 24.5614 135.801 24.6613 135.419C24.7611 135.038 24.9291 134.747 24.9927 134.765C25.0562 134.784 24.9927 135.11 24.8883 135.492C24.7838 135.873 24.6204 136.164 24.5614 136.146Z" fill="#263238"/>
<path d="M25.5829 142.038C25.5193 142.016 25.651 141.584 25.8735 141.062C26.0959 140.54 26.3275 140.154 26.3865 140.182C26.4455 140.209 26.3184 140.636 26.0914 141.158C25.8644 141.68 25.6419 142.066 25.5829 142.038Z" fill="#263238"/>
<path d="M23.0587 143.655C23.0315 143.718 22.6047 143.605 22.1235 143.45C21.6422 143.296 21.2155 143.151 21.2382 143.083C21.5639 143.038 21.8956 143.086 22.1961 143.219C22.7 143.378 23.086 143.596 23.0587 143.655Z" fill="#263238"/>
<path d="M24.5162 148.458C24.557 148.513 24.2756 148.776 23.8942 149.048C23.5128 149.321 23.1723 149.502 23.136 149.443C23.0997 149.384 23.3766 149.125 23.758 148.853C24.1394 148.581 24.4753 148.408 24.5162 148.458Z" fill="#263238"/>
<path d="M25.6784 153.252C25.6784 153.316 25.3515 153.457 24.9111 153.566C24.4708 153.674 24.0985 153.706 24.0849 153.643C24.0712 153.579 24.4117 153.438 24.8521 153.329C25.2925 153.22 25.6648 153.189 25.6784 153.252Z" fill="#263238"/>
<path d="M32.0069 141.48C32.0387 141.539 31.7436 141.771 31.3169 141.934C30.8901 142.097 30.5133 142.111 30.4997 142.048C30.486 141.984 30.8265 141.861 31.2306 141.707C31.6347 141.553 31.9706 141.426 32.0069 141.48Z" fill="#263238"/>
<path d="M32.9103 148.939C32.883 148.998 32.5335 148.894 32.1249 148.703C31.7163 148.512 31.4166 148.308 31.4439 148.249C31.4711 148.19 31.8252 148.295 32.2293 148.485C32.6333 148.676 32.9375 148.88 32.9103 148.939Z" fill="#263238"/>
<path d="M34.504 154.274C34.1442 154.259 33.7923 154.164 33.4734 153.997C32.9241 153.783 32.5019 153.543 32.5246 153.497C32.8857 153.513 33.2391 153.607 33.5597 153.774C34.1045 153.988 34.5312 154.21 34.504 154.274Z" fill="#263238"/>
<path d="M25.9326 158.446C25.9008 158.387 26.3276 158.096 26.8406 157.711C27.3536 157.325 27.7168 156.98 27.7486 157.025C27.7804 157.07 27.4853 157.479 26.9722 157.897C26.6828 158.172 26.3231 158.362 25.9326 158.446Z" fill="#263238"/>
<path d="M30.1548 155.722C30.0867 155.722 29.9959 155.372 29.8325 154.955C29.669 154.537 29.4965 154.21 29.5555 154.169C29.6146 154.128 29.8824 154.419 30.0549 154.868C30.2275 155.318 30.2184 155.722 30.1548 155.722Z" fill="#263238"/>
<path d="M29.0561 149.325C29.0198 149.375 28.7474 149.248 28.4478 149.035C28.1481 148.821 27.9393 148.603 27.9938 148.549C28.0482 148.494 28.3025 148.626 28.6021 148.839C28.9018 149.053 29.0561 149.271 29.0561 149.325Z" fill="#263238"/>
<path d="M38.8669 139.269C38.9078 139.319 38.6444 139.582 38.2767 139.855C37.909 140.127 37.5821 140.309 37.5412 140.245C37.5004 140.182 37.7682 139.932 38.136 139.66C38.5037 139.387 38.8306 139.215 38.8669 139.269Z" fill="#263238"/>
<path d="M40.3516 143.319C40.3516 143.382 39.943 143.469 39.4436 143.414C38.9442 143.36 38.5356 143.187 38.5628 143.124C38.5901 143.06 38.9805 143.124 39.4708 143.178C39.9611 143.232 40.347 143.251 40.3516 143.319Z" fill="#263238"/>
<path d="M33.9819 144.227C33.9819 144.29 33.6096 144.427 33.1148 144.463C32.6199 144.499 32.2068 144.408 32.2068 144.345C32.2068 144.281 32.6063 144.254 33.083 144.222C33.5597 144.19 33.9683 144.163 33.9819 144.227Z" fill="#263238"/>
<path d="M34.5266 140.395C34.5266 140.459 34.1317 140.472 33.7094 140.272C33.2872 140.073 33.0375 139.778 33.0829 139.732C33.1283 139.687 33.4189 139.882 33.8093 140.054C34.1998 140.227 34.5357 140.331 34.5266 140.395Z" fill="#263238"/>
<path d="M40.8961 147.668C40.8644 147.727 40.4421 147.536 39.9881 147.25C39.5341 146.964 39.1936 146.687 39.23 146.628C39.2663 146.569 39.684 146.76 40.138 147.046C40.592 147.332 40.9325 147.614 40.8961 147.668Z" fill="#263238"/>
<path d="M56.4458 159.041H22.4548V165.065H56.4458V159.041Z" fill="#7D5CD7"/>
<path d="M24.9927 163.867L29.1241 181.872H49.3816L53.9034 163.867H24.9927Z" fill="#7D5CD7"/>
<path d="M56.423 165.07C56.423 165.138 48.7594 165.192 39.3026 165.192C29.8458 165.192 22.1777 165.138 22.1777 165.07C22.1777 165.002 29.8413 164.952 39.3026 164.952C48.764 164.952 56.423 165.006 56.423 165.07Z" fill="#263238"/>
<path d="M37.5231 144.372C37.4641 144.408 37.2326 144.136 37.001 143.768C36.7695 143.4 36.6287 143.074 36.6878 143.037C36.7468 143.001 36.9738 143.273 37.2053 143.641C37.4369 144.009 37.5776 144.327 37.5231 144.372Z" fill="#263238"/>
<path d="M37.5321 149.207C37.5186 148.894 37.5809 148.583 37.7137 148.299C37.8726 147.818 38.0542 147.441 38.1177 147.459C38.1813 147.477 38.1177 147.913 37.9407 148.367C37.7636 148.821 37.5956 149.225 37.5321 149.207Z" fill="#263238"/>
<path d="M39.1938 154.296C39.1348 154.324 38.8806 153.915 38.6263 153.388C38.4367 153.08 38.316 152.735 38.2722 152.376C38.3358 152.344 38.5855 152.753 38.8397 153.284C39.0298 153.592 39.1507 153.937 39.1938 154.296Z" fill="#263238"/>
<path d="M35.6027 158.387C35.5528 158.346 35.7571 158.028 36.0567 157.683C36.3564 157.338 36.6378 157.093 36.6878 157.139C36.7377 157.184 36.538 157.497 36.2338 157.842C35.9296 158.187 35.6527 158.446 35.6027 158.387Z" fill="#263238"/>
<path d="M34.8492 150.955C34.8492 151.019 34.5132 151.019 34.1183 150.955C33.7233 150.891 33.4191 150.778 33.4282 150.714C33.4373 150.651 33.7687 150.651 34.1591 150.714C34.5496 150.778 34.8628 150.891 34.8492 150.955Z" fill="#263238"/>
<path d="M188.001 70.4835C188.001 70.4835 187.979 70.5698 187.929 70.7287C187.879 70.8876 187.792 71.1327 187.688 71.4415C187.475 72.068 187.166 72.9896 186.739 74.1655C185.899 76.5308 184.651 79.9403 182.989 84.1126C179.657 92.4344 174.735 103.866 167.762 115.666C166.1 118.547 164.645 121.544 163.408 124.632C162.293 127.522 161.514 130.531 161.084 133.599C160.702 136.375 160.539 139.177 160.598 141.979C160.643 144.613 160.816 147.064 161.052 149.293C161.538 153.747 162.187 157.325 162.604 159.794C162.822 161.025 162.99 161.983 163.108 162.641C163.163 162.959 163.204 163.204 163.236 163.381C163.267 163.558 163.272 163.635 163.272 163.635C163.247 163.553 163.228 163.47 163.213 163.386C163.177 163.213 163.127 162.968 163.063 162.65C162.936 161.992 162.75 161.038 162.514 159.813C162.06 157.343 161.392 153.774 160.884 149.312C160.621 147.082 160.43 144.626 160.384 141.984C160.313 139.171 160.465 136.356 160.838 133.567C161.262 130.482 162.042 127.456 163.163 124.55C164.399 121.448 165.857 118.44 167.526 115.548C174.495 103.744 179.43 92.3527 182.803 84.049C184.483 79.8904 185.754 76.4899 186.621 74.1337C187.048 72.9624 187.384 72.0498 187.611 71.4097L187.874 70.7014C187.956 70.5607 188.001 70.4835 188.001 70.4835Z" fill="#263238"/>
<path d="M181.659 109.913C181.659 109.913 181.659 109.95 181.609 110.013L181.437 110.295L180.756 111.362C180.165 112.292 179.289 113.632 178.2 115.257C176.034 118.539 172.96 123.02 169.869 128.155C168.33 130.734 166.968 133.244 165.814 135.569L164.988 137.281C164.725 137.834 164.493 138.384 164.257 138.91C163.776 139.959 163.39 140.967 163.018 141.875C162.645 142.783 162.364 143.627 162.087 144.358C161.81 145.089 161.606 145.72 161.433 146.247C161.261 146.774 161.129 147.155 161.029 147.45C160.988 147.573 160.952 147.677 160.92 147.759C160.909 147.795 160.894 147.83 160.875 147.863C160.87 147.827 160.87 147.79 160.875 147.754C160.898 147.668 160.929 147.564 160.961 147.437C161.052 147.137 161.17 146.733 161.324 146.22C161.479 145.707 161.674 145.048 161.937 144.313C162.201 143.578 162.468 142.724 162.845 141.816C163.222 140.908 163.585 139.887 164.062 138.833C164.293 138.302 164.516 137.748 164.784 137.19C165.052 136.631 165.32 136.059 165.601 135.474C166.745 133.136 168.107 130.616 169.646 128.037C172.742 122.889 175.843 118.421 178.045 115.166L180.66 111.312L181.378 110.268L181.568 110C181.597 109.969 181.627 109.94 181.659 109.913Z" fill="#263238"/>
<path d="M194.598 119.647C192.224 114.553 186.14 111.23 180.524 111.684C181.773 112.188 182.544 113.5 182.853 114.789C183.162 116.079 183.107 117.459 183.216 118.798C183.72 125.231 187.861 130.725 191.842 135.805C194.639 139.378 197.449 142.969 200.791 146.034C200.377 136.881 199.801 127.188 194.598 119.647Z" fill="#455A64"/>
<path d="M180.524 111.757C184.079 109.033 188.673 107.884 193.159 107.834C197.644 107.784 202.08 108.742 206.434 109.859C209.044 110.522 211.7 111.257 213.934 112.765C216.168 114.272 217.947 116.705 217.993 119.397C214.302 115.343 208.354 114.562 203.092 113.041C199.524 112.006 196.083 110.522 192.442 109.764C188.8 109.005 183.743 109.904 180.524 111.766" fill="#455A64"/>
<path d="M181.146 111.03C179.584 109.396 180.447 105.582 181.804 103.766C183.162 101.95 185.318 100.947 187.448 100.193C190.253 99.1949 193.162 98.5172 196.119 98.173C195.749 100.03 194.795 101.72 193.395 102.994C191.996 104.253 190.466 105.358 188.832 106.29L181.146 111.03Z" fill="#455A64"/>
<path d="M166.509 108.833C162.078 110.776 158.6 114.431 155.268 117.981C160.208 116.777 164.933 114.82 169.278 112.179C170.999 111.13 172.711 109.954 174.681 109.514C176.651 109.074 178.867 109.968 180.51 111.33C177.736 107.208 170.963 106.881 166.509 108.833Z" fill="#455A64"/>
<path d="M105.587 106.981C100.048 114.031 98.2048 123.443 98.8268 132.405C102.124 120.464 108.985 109.813 118.494 101.873C122.126 98.8721 126.721 96.4932 131.206 96.4932C121.972 95.676 111.298 99.712 105.587 106.981Z" fill="#455A64"/>
<path d="M118.444 92.8248C115.357 93.0518 112.542 94.6181 109.977 96.3706C106.068 99.0537 102.404 102.441 100.697 106.863C104.156 102.79 108.565 99.633 113.535 97.6714C118.505 95.7099 123.882 95.0042 129.19 95.6169C125.826 93.9417 122.194 92.5524 118.444 92.8248Z" fill="#455A64"/>
<path d="M127.12 82.2421C125.331 83.4815 123.942 85.52 124.051 87.6901C124.177 89.1914 124.802 90.6074 125.826 91.7125C126.957 93.0205 128.212 94.217 129.572 95.2855C130.707 90.2643 132.069 85.016 133.204 79.9903C131.052 80.4306 128.891 80.9981 127.12 82.2421Z" fill="#455A64"/>
<path d="M137.562 81.7563C135.147 83.309 132.99 85.3883 131.814 88.0079C130.638 90.6275 130.148 93.9326 131.633 96.3887C135.87 90.0481 140.443 83.9391 145.334 78.088C142.665 79.1413 139.977 80.2082 137.562 81.7563Z" fill="#455A64"/>
<path d="M146.438 90.3869C143.655 90.1904 140.866 90.6728 138.311 91.7927C135.756 92.9125 133.511 94.6362 131.769 96.8155C134.2 95.5823 136.933 95.0703 139.646 95.34C146.457 96.2214 153.215 97.4732 159.89 99.09C158.519 96.6596 156.578 94.598 154.235 93.0822C151.892 91.5663 149.217 90.6414 146.438 90.3869Z" fill="#455A64"/>
<path d="M187.956 70.4835C188.119 68.8764 186.385 67.2783 184.869 66.7153C183.352 66.1523 181.691 66.334 180.097 66.6835C170.958 68.7129 163.404 76.5989 161.774 85.8151C165.993 83.727 170.334 81.8926 174.772 80.3217L174.023 80.5351C176.171 80.1013 178.2 79.207 179.97 77.9138C181.74 76.6206 183.208 74.9592 184.274 73.0441C184.616 72.2769 185.076 71.5677 185.636 70.942C186.249 70.3655 187.216 70.0567 187.942 70.488" fill="#455A64"/>
<path d="M187.956 70.4653C192.155 67.568 197.313 66.411 202.348 67.2374C204.834 67.6795 207.193 68.6636 209.257 70.1199C211.32 71.5762 213.038 73.4689 214.288 75.6636C216.703 80.0901 216.821 85.7561 214.36 90.1553C212.031 85.3248 209.544 80.2899 205.212 77.1255C204.2 76.381 203.051 75.7045 202.488 74.5877C201.826 73.2892 202.098 71.6866 201.53 70.3428C200.836 68.6902 198.911 68.209 197.118 68.1182C195.324 68.0274 190.131 69.6708 187.947 70.4653" fill="#455A64"/>
<path d="M187.833 70.37C192.137 69.0943 197 71.1963 199.928 74.4197C202.856 77.6431 204.345 81.9697 204.849 86.2963C205.353 90.6229 204.949 94.995 204.509 99.3307C201.139 94.3058 198.635 88.7523 197.1 82.9004C196.409 80.2581 195.905 77.5296 194.662 75.1007C193.418 72.6718 190.535 70.765 187.852 70.37" fill="#455A64"/>
<path d="M187.688 70.4835C191.129 68.89 193.064 65.2988 193.508 61.5352C193.711 59.6447 193.436 57.7337 192.708 55.9774C191.979 54.2211 190.822 52.6759 189.341 51.4836C187.648 53.0752 186.447 55.1179 185.878 57.3705C185.309 59.6231 185.397 61.9913 186.131 64.1956C186.857 66.2658 188.183 68.3406 187.688 70.479" fill="#455A64"/>
<path d="M160.48 141.23C160.48 141.23 160.457 141.189 160.421 141.099L160.271 140.704C160.135 140.354 159.967 139.832 159.699 139.174C159.2 137.853 158.405 135.959 157.325 133.671C154.452 127.731 151.177 121.995 147.523 116.501C143.942 110.958 139.973 105.675 135.646 100.693C134.339 99.18 132.914 97.7742 131.383 96.4886C130.962 96.1476 130.518 95.8365 130.053 95.5579L129.681 95.3672C129.635 95.3471 129.592 95.3211 129.553 95.2901L129.69 95.3445L130.076 95.5171C130.554 95.7817 131.009 96.0854 131.438 96.4251C132.995 97.6862 134.442 99.0774 135.764 100.584C139.183 104.338 143.482 109.909 147.718 116.374C151.379 121.875 154.638 127.633 157.47 133.603C158.532 135.909 159.286 137.812 159.781 139.146C160.035 139.809 160.189 140.34 160.312 140.69C160.366 140.858 160.407 140.994 160.439 141.094C160.457 141.138 160.471 141.184 160.48 141.23Z" fill="#263238"/>
<path d="M172.661 182.29H149.166L145.416 152.299H176.951L172.661 182.29Z" fill="#7D5CD7"/>
<path d="M164.416 137.966C166.904 132.25 165.855 125.313 169.02 119.938C171.44 115.824 175.916 113.377 180.37 111.643C181.405 114.744 180.914 118.199 179.602 121.177C178.29 124.155 176.22 126.761 174.027 129.181C170.999 132.532 167.703 135.628 164.416 138.715" fill="#455A64"/>
<path d="M178.399 152.299H143.255V158.423H178.399V152.299Z" fill="#7D5CD7"/>
<path d="M178.422 158.446C178.422 158.51 170.554 158.564 160.852 158.564C151.15 158.564 143.278 158.51 143.278 158.446C143.278 158.382 151.146 158.328 160.852 158.328C170.559 158.328 178.422 158.36 178.422 158.446Z" fill="#263238"/>
<path d="M189.554 70.7242C188.389 68.5508 187.021 66.4925 185.468 64.577C183.852 62.7156 181.836 61.1357 179.462 60.4456C176.284 59.5376 172.892 60.2504 169.732 61.1947C166.033 62.2932 162.421 63.6681 158.927 65.3079C163.543 67.0472 168.618 67.137 173.292 65.5622C175.707 64.7404 178.054 64.8449 180.592 65.1354C183.684 65.485 187.552 68.3452 189.554 70.7242Z" fill="#455A64"/>
<path d="M132.409 96.3887C127.193 96.6748 122.625 100.693 120.805 105.587C118.984 110.481 119.606 116.029 121.577 120.882C123.547 125.735 126.77 129.962 130.18 133.898C131.896 127.996 133.617 122.094 134.37 116.002C135.124 109.909 134.552 102.15 132.409 96.3887Z" fill="#455A64"/>
<path d="M121.817 176.66L108.892 187.075L103.248 188.864C101.106 189.531 102.054 191.134 102.722 193.281L110.894 219.414C110.894 219.414 113.904 219.827 114.117 217.643C114.331 215.459 117.831 198.33 117.831 198.33L130.357 189.504L121.817 176.66Z" fill="#E0E0E0"/>
<path d="M122.194 174.835L119.129 177.618C118.903 177.824 118.761 178.106 118.73 178.411C118.7 178.715 118.784 179.02 118.966 179.266L127.483 190.825C127.664 191.071 127.93 191.241 128.23 191.302C128.529 191.364 128.84 191.312 129.104 191.157L132.572 189.114C132.72 189.026 132.849 188.909 132.949 188.769C133.049 188.629 133.119 188.47 133.154 188.302C133.189 188.133 133.188 187.959 133.152 187.791C133.116 187.623 133.046 187.464 132.945 187.325L124.023 175.026C123.922 174.885 123.791 174.768 123.641 174.681C123.491 174.594 123.324 174.54 123.151 174.522C122.979 174.504 122.804 174.523 122.639 174.577C122.474 174.631 122.322 174.719 122.194 174.835Z" fill="#E0E0E0"/>
<path d="M127.787 191.288C127.234 190.793 126.723 190.25 126.262 189.668C125.354 188.632 124.146 187.166 122.898 185.482C121.649 183.797 120.605 182.199 119.901 181.019C119.547 180.429 119.27 179.947 119.093 179.602C118.981 179.435 118.897 179.251 118.844 179.058C119.297 179.638 119.717 180.244 120.101 180.874C120.859 182.018 121.917 183.598 123.17 185.259C124.423 186.921 125.59 188.437 126.443 189.495C126.932 190.062 127.381 190.661 127.787 191.288Z" fill="#263238"/>
<path d="M120.31 180.624C120.233 180.601 120.918 179.198 122.48 178.19C124.042 177.183 125.594 177.096 125.585 177.183C125.576 177.269 124.142 177.491 122.666 178.472C121.191 179.453 120.387 180.692 120.31 180.624Z" fill="#263238"/>
<path d="M122.893 185.264C122.834 185.196 123.96 184.12 125.49 182.962C127.02 181.804 128.355 181.001 128.405 181.078C128.455 181.155 127.211 182.072 125.681 183.23C124.151 184.388 122.957 185.336 122.893 185.264Z" fill="#263238"/>
<path d="M126.779 189.54C126.734 189.445 128.205 188.982 129.449 187.638C130.693 186.294 131.088 184.819 131.188 184.855C131.193 185.193 131.12 185.527 130.974 185.831C130.388 187.358 129.225 188.594 127.737 189.273C127.445 189.44 127.116 189.532 126.779 189.54Z" fill="#263238"/>
<path d="M103.466 195.102C103.444 195.052 103.92 194.843 104.61 194.353C105.496 193.721 106.235 192.905 106.776 191.96C107.304 191.01 107.623 189.957 107.711 188.873C107.779 188.042 107.711 187.511 107.766 187.511C107.925 187.946 107.987 188.411 107.947 188.873C107.929 190.01 107.625 191.124 107.066 192.114C106.506 193.103 105.707 193.937 104.742 194.539C104.365 194.821 103.929 195.013 103.466 195.102Z" fill="#263238"/>
<path d="M108.479 211.677C108.723 211.427 109.026 211.242 109.359 211.137C110.146 210.811 111.011 210.723 111.847 210.883C112.663 211.055 113.436 211.391 114.117 211.873C114.639 212.24 114.916 212.522 114.889 212.554C114.568 212.433 114.263 212.273 113.981 212.077C113.289 211.674 112.539 211.383 111.756 211.214C110.974 211.074 110.169 211.124 109.409 211.36C109.109 211.493 108.797 211.599 108.479 211.677Z" fill="#263238"/>
<path d="M80.1808 151.768C77.0845 153.756 74.3786 155.813 72.599 158.046C72.599 158.046 46.5893 144.858 38.8441 152.462C31.0988 160.067 34.6945 167.231 37.8226 171.857C43.0572 179.602 92.7565 196.968 92.7565 196.968L100.243 185.868L93.551 181.936L101.387 182.717V152.544L80.1808 151.768Z" fill="#263238"/>
<g opacity="0.3">
<path opacity="0.3" d="M89.3742 166.822C86.7637 164.121 83.7128 161.883 80.6846 159.663C79.8869 159.005 78.9845 158.487 78.0151 158.128C77.4577 157.99 76.8768 157.976 76.3134 158.087C75.7501 158.199 75.2181 158.433 74.7554 158.773C76.526 159.599 78.51 160.276 80.2034 161.243C83.5604 163.18 86.6125 165.604 89.2607 168.434C91.5307 170.827 93.3467 173.6 95.1218 176.361C94.1639 172.747 91.9847 169.524 89.3742 166.822Z" fill="black"/>
</g>
<path d="M146.401 149.257C146.401 149.257 163.122 140.445 169.66 150.728C176.633 161.701 166.196 172.198 152.085 179.875C144.871 183.797 121.54 196.968 121.54 196.968L113.178 181.986L101.374 182.694L99.8799 152.998L125.163 152.09L132.881 156.058L146.401 149.257Z" fill="#263238"/>
<g opacity="0.3">
<path opacity="0.3" d="M127.351 153.42C127.13 153.2 126.857 153.039 126.557 152.95C126.258 152.861 125.941 152.848 125.635 152.912C125.027 153.046 124.447 153.287 123.924 153.625C122.457 154.455 121.023 155.35 119.624 156.294C115.538 159.063 111.688 162.35 107.008 163.899C100.742 165.978 95.1219 164.067 89.1382 162.046C92.92 164.87 97.3919 166.872 102.095 167.285C106.799 167.699 111.716 166.423 115.32 163.381C117.84 161.256 119.86 158.242 123.016 157.334C123.774 157.116 124.568 157.03 125.331 156.821C126.111 156.653 126.811 156.227 127.32 155.613C127.563 155.301 127.698 154.918 127.704 154.522C127.71 154.126 127.586 153.739 127.351 153.42Z" fill="black"/>
</g>
<path d="M97.5783 182.376C97.5139 182.271 97.4592 182.16 97.4148 182.045C97.3149 181.804 97.1742 181.477 96.9971 181.073C96.8201 180.669 96.6022 180.129 96.3525 179.539C96.1028 178.949 95.7396 178.29 95.3854 177.555C93.4826 173.737 90.9829 170.247 87.9807 167.217C84.9513 164.217 81.4165 161.775 77.5387 160.003C76.0586 159.309 74.8147 158.859 73.9521 158.537L72.9578 158.183C72.8392 158.147 72.7238 158.101 72.6128 158.046C72.7351 158.064 72.8553 158.095 72.9715 158.137C73.203 158.21 73.5435 158.305 73.9793 158.451C75.2128 158.857 76.425 159.325 77.6113 159.853C81.5349 161.596 85.1062 164.043 88.1487 167.072C91.1695 170.121 93.6639 173.649 95.5307 177.514C95.8803 178.259 96.2299 178.917 96.475 179.521C96.7202 180.124 96.929 180.642 97.0834 181.078L97.4602 182.063C97.5091 182.164 97.5486 182.268 97.5783 182.376Z" fill="#455A64"/>
<path d="M95.7484 199.787C95.7484 199.787 95.7484 199.696 95.8346 199.524L96.1206 198.77C96.384 198.103 96.7608 197.136 97.2375 195.91C98.2136 193.431 99.6119 189.899 101.296 185.631L101.355 185.759C98.4259 184.638 95.6079 183.246 92.9381 181.6C89.9043 179.689 87.0289 177.538 84.3393 175.167C80.6392 171.989 77.3387 168.697 73.9972 166.119C72.4324 164.879 70.7273 163.827 68.917 162.986C67.3244 162.289 65.6689 161.746 63.9729 161.365C61.5093 160.832 59.0128 160.463 56.5001 160.262L54.4525 160.076L53.9168 160.026L53.7397 159.999H53.9213L54.4571 160.026L56.5091 160.167C59.0322 160.337 61.5401 160.686 64.0138 161.211C65.7257 161.585 67.398 162.121 69.0078 162.813C70.8342 163.652 72.5561 164.702 74.138 165.942C77.5021 168.525 80.8118 171.803 84.5028 174.981C87.1852 177.344 90.0497 179.492 93.0698 181.405C95.7243 183.05 98.5253 184.447 101.437 185.577L101.528 185.613L101.491 185.704C99.7708 189.958 98.3498 193.481 97.3555 195.951L96.1887 198.793C96.0571 199.111 95.9527 199.356 95.8755 199.538C95.8378 199.623 95.7953 199.706 95.7484 199.787Z" fill="#455A64"/>
<path d="M121.54 196.968C121.54 196.968 121.54 196.968 121.495 196.904L121.372 196.705L120.918 195.91L119.193 192.882L113.087 182.054L113.055 181.99L113.1 181.936C116.915 177.632 121.038 173.611 125.436 169.905C131.635 164.661 138.377 160.095 145.548 156.285C146.229 155.908 146.91 155.599 147.523 155.277C148.135 154.955 148.735 154.655 149.302 154.405C150.428 153.892 151.386 153.429 152.19 153.093L154.037 152.322L154.519 152.126L154.687 152.067C154.638 152.101 154.584 152.129 154.528 152.149L154.074 152.367L152.258 153.18C151.459 153.529 150.51 154.001 149.393 154.542C148.83 154.8 148.249 155.118 147.622 155.45C146.996 155.781 146.333 156.09 145.657 156.471C138.525 160.309 131.81 164.873 125.617 170.091C121.231 173.794 117.111 177.8 113.286 182.081V181.963L119.311 192.832L120.986 195.883L121.44 196.691C121.481 196.777 121.517 196.845 121.545 196.9C121.572 196.954 121.545 196.968 121.54 196.968Z" fill="#455A64"/>
<path d="M110.953 177.764C110.991 177.662 111.036 177.563 111.089 177.469L111.507 176.642C111.688 176.284 111.92 175.848 112.215 175.353C112.51 174.858 112.814 174.286 113.214 173.687C113.613 173.087 114.026 172.411 114.521 171.721C115.016 171.031 115.556 170.304 116.138 169.546C118.703 166.292 121.672 163.377 124.972 160.87C125.74 160.307 126.462 159.758 127.174 159.295C127.887 158.832 128.536 158.387 129.158 158.024C129.78 157.661 130.348 157.334 130.847 157.052C131.347 156.771 131.782 156.544 132.146 156.371L132.981 155.963C133.076 155.913 133.175 155.87 133.276 155.835C133.192 155.903 133.101 155.961 133.004 156.008L132.186 156.462C131.832 156.648 131.401 156.88 130.911 157.175C130.42 157.47 129.848 157.779 129.249 158.174C128.65 158.569 127.973 158.977 127.283 159.467C126.593 159.958 125.862 160.484 125.104 161.052C121.833 163.561 118.879 166.458 116.306 169.678C115.724 170.432 115.161 171.135 114.685 171.83C114.208 172.525 113.75 173.169 113.355 173.773C112.96 174.377 112.628 174.931 112.328 175.417C112.029 175.902 111.784 176.325 111.588 176.683L111.134 177.487C111.084 177.585 111.023 177.678 110.953 177.764Z" fill="#455A64"/>
<path d="M95.3398 174.309C95.2134 174.17 95.1023 174.018 95.0084 173.855L94.1731 172.593C93.4648 171.526 92.4706 170.068 91.3174 168.507C90.1642 166.945 89.0474 165.551 88.262 164.557L87.3086 163.376C87.1809 163.239 87.0711 163.087 86.9817 162.922C87.1281 163.038 87.262 163.169 87.3812 163.313C87.6264 163.572 87.9714 163.958 88.3891 164.443C89.229 165.415 90.3458 166.786 91.5081 168.366C92.6703 169.946 93.6373 171.421 94.3138 172.511C94.6498 173.056 94.9131 173.501 95.0901 173.814C95.1905 173.97 95.2742 174.135 95.3398 174.309Z" fill="#455A64"/>
<path d="M92.1617 180.238L107.144 188.628L113.2 189.454C115.502 189.767 114.812 191.57 114.498 193.872L110.676 221.915C110.676 221.915 107.679 222.855 107.08 220.667C106.481 218.478 99.9659 201.599 99.9659 201.599L85.6604 194.766L92.1617 180.238Z" fill="#EBEBEB"/>
<path d="M91.4581 178.445L95.0583 180.751C95.3257 180.921 95.5202 181.184 95.6041 181.49C95.6881 181.795 95.6553 182.121 95.5123 182.404L88.8204 195.674C88.6781 195.957 88.4358 196.177 88.1404 196.291C87.845 196.405 87.5178 196.405 87.2223 196.291L83.3361 194.807C83.1698 194.743 83.0186 194.646 82.8924 194.52C82.7661 194.394 82.6675 194.244 82.603 194.078C82.5384 193.912 82.5093 193.734 82.5175 193.557C82.5257 193.379 82.571 193.205 82.6505 193.045L89.624 178.971C89.7023 178.809 89.814 178.665 89.9518 178.549C90.0895 178.433 90.2502 178.348 90.4233 178.298C90.5964 178.248 90.778 178.236 90.9564 178.261C91.1347 178.286 91.3056 178.349 91.4581 178.445Z" fill="#EBEBEB"/>
<path d="M88.5889 196.182C89.0674 195.581 89.4942 194.94 89.8646 194.267C90.6046 193.054 91.5898 191.352 92.5886 189.418C93.5874 187.484 94.3592 185.677 94.8586 184.351C95.1128 183.688 95.3126 183.148 95.4352 182.771C95.5194 182.581 95.573 182.379 95.5941 182.172C95.2314 182.847 94.9085 183.543 94.6271 184.256C94.055 185.554 93.2378 187.329 92.2572 189.25C91.2765 191.17 90.3322 192.882 89.6467 194.135C89.247 194.792 88.8935 195.476 88.5889 196.182Z" fill="#263238"/>
<path d="M94.3819 184.02C94.4591 183.983 93.5193 182.658 91.7487 181.913C89.9781 181.169 88.3891 181.337 88.4164 181.418C88.4436 181.5 89.9373 181.487 91.5944 182.231C93.2515 182.976 94.3047 184.097 94.3819 184.02Z" fill="#263238"/>
<path d="M92.5387 189.195C92.5887 189.118 91.2539 188.215 89.4969 187.293C87.7399 186.372 86.2372 185.79 86.2009 185.877C86.1646 185.963 87.5901 186.689 89.338 187.602C91.0859 188.514 92.4888 189.282 92.5387 189.195Z" fill="#263238"/>
<path d="M89.3153 194.226C89.3425 194.117 87.7626 193.903 86.2644 192.746C84.7662 191.588 84.1124 190.153 84.0171 190.208C84.0638 190.554 84.1948 190.883 84.3984 191.166C85.2608 192.621 86.6592 193.681 88.2938 194.117C88.6208 194.234 88.971 194.271 89.3153 194.226Z" fill="#263238"/>
<path d="M114.036 195.883C114.036 195.824 113.523 195.692 112.742 195.315C111.732 194.823 110.843 194.116 110.137 193.243C109.431 192.37 108.925 191.352 108.656 190.262C108.442 189.422 108.424 188.878 108.365 188.878C108.28 189.355 108.297 189.846 108.415 190.317C108.63 191.472 109.131 192.556 109.873 193.468C110.614 194.38 111.572 195.092 112.66 195.538C113.089 195.749 113.558 195.867 114.036 195.883Z" fill="#263238"/>
<path d="M111.784 213.639C111.49 213.429 111.151 213.292 110.794 213.239C109.936 213.047 109.041 213.105 108.215 213.407C107.405 213.723 106.667 214.202 106.05 214.815C105.596 215.269 105.35 215.614 105.382 215.641C105.414 215.668 105.718 215.405 106.213 215.001C106.848 214.47 107.564 214.044 108.333 213.739C109.107 213.457 109.937 213.369 110.753 213.48C111.091 213.564 111.436 213.617 111.784 213.639Z" fill="#263238"/>
<path d="M71.1872 107.811C71.1872 107.811 73.8567 98.4136 78.0653 96.1572C82.2739 93.9008 92.1892 92.162 92.1892 92.162L112.978 90.8C112.978 90.8 125.486 90.2824 130.366 95.399C134.597 99.8391 137.389 111.012 137.389 111.012L114.117 122.303L76.8622 136.786L70.2292 127.383L71.1872 107.811Z" fill="#D79581"/>
<path d="M71.7727 105.328C71.7727 105.328 80.3352 124.609 85.0477 126.666C97.9912 132.377 122.126 101.787 122.126 101.787C122.126 101.787 129.921 94.1278 130.062 94.5455C130.203 94.9632 134.933 97.4692 136.745 102.622C138.556 107.775 142.193 120.437 142.193 120.437L128.641 122.253L122.307 154.551C108.052 166.523 93.71 171.29 78.9959 152.544L77.1799 153.824C76.4172 152.916 78.2105 152.203 78.442 151.032L82.6914 143.01L74.5558 122.439L67.3145 120.623L71.7727 105.328Z" fill="#7D5CD7"/>
<g opacity="0.3">
<path opacity="0.3" d="M127.261 118.53C126.398 116.333 125.581 114.444 125.658 112.088L125.563 110.93C125.408 114.758 124.814 119.298 124.328 123.093C125.49 123.865 126.761 124.909 127.928 125.672C129.222 120.151 128.119 120.728 127.261 118.53Z" fill="black"/>
</g>
<g opacity="0.3">
<path opacity="0.3" d="M119.697 154.074C118.721 151.327 117.718 148.526 115.92 146.233C114.446 144.469 112.697 142.954 110.74 141.748C108.444 140.157 105.915 138.932 103.244 138.116C98.6086 136.817 93.5511 137.389 89.1246 139.292C86.2008 140.549 84.1306 142.315 81.8606 144.572L81.1296 145.934C82.3282 146.96 84.1215 146.433 85.5198 145.702C86.9181 144.971 88.2438 143.932 89.8192 143.8L92.9972 146.292C92.5659 146.215 92.2072 146.706 92.239 147.141C92.322 147.574 92.5322 147.973 92.8428 148.285C96.207 152.371 99.8708 156.635 104.928 158.151C109.328 159.472 114.081 158.464 118.426 156.984C118.969 156.858 119.45 156.547 119.788 156.103C120.155 155.495 119.928 154.732 119.697 154.074Z" fill="black"/>
</g>
<path d="M99.3623 50.2396C100.87 48.6824 100.665 45.9629 99.2533 44.3376C97.8414 42.7123 95.5214 42.0676 93.3513 42.2174C91.7854 42.353 90.2736 42.8562 88.9388 43.6861C87.604 44.516 86.4839 45.6492 85.6696 46.9935C84.807 48.4509 84.2486 50.2124 82.8231 51.1295C81.57 51.933 79.9583 51.8695 78.5645 52.4007C76.7031 53.1134 75.3865 54.875 74.7963 56.7863C74.2061 58.6976 74.2742 60.7361 74.5103 62.7201C74.7282 64.5361 75.0551 66.511 74.1426 68.1C73.23 69.689 71.4186 70.37 70.1474 71.6185C67.7548 73.9793 67.8774 78.3695 70.3471 80.6168C71.1462 81.3341 72.1631 81.9197 72.4991 82.9412C72.7897 83.8765 72.3765 84.8707 72.3084 85.8423C72.1314 88.3575 74.7101 90.6683 77.1889 90.2234C78.4374 89.9964 79.6451 89.1974 80.8845 89.4834C82.1239 89.7694 82.8412 90.9907 83.7855 91.8306C84.7417 92.6295 85.9428 93.0766 87.1886 93.0973C88.4345 93.1179 89.6498 92.7109 90.6319 91.9441C91.4309 91.2767 92.1119 90.3369 93.1379 90.1644C94.164 89.9919 95.1582 90.6547 96.1934 90.6184C97.5554 90.5594 98.5542 89.3063 99.0672 88.0487C99.5802 86.7912 99.8117 85.3974 100.588 84.2851C101.605 82.8232 103.348 82.1013 104.851 81.1434C106.512 80.0838 107.927 78.6797 108.998 77.0261C110.07 75.3726 110.774 73.508 111.062 71.5588C111.351 69.6096 111.217 67.6212 110.67 65.7281C110.123 63.8351 109.176 62.0815 107.893 60.5863" fill="#263238"/>
<path d="M86.1554 78.0017C85.6547 77.67 85.0818 77.463 84.4847 77.3979L84.5891 77.3661C84.4827 77.3646 84.3764 77.3722 84.2713 77.3888C84.0707 77.3789 83.8702 77.41 83.6821 77.4802C83.494 77.5505 83.3222 77.6584 83.1772 77.7974C82.6022 78.173 82.1904 78.7519 82.024 79.4182C81.9057 80.0032 81.9512 80.6094 82.1555 81.1702C82.3598 81.7309 82.7149 82.2244 83.1817 82.5962C83.5381 82.9489 83.9928 83.1855 84.4862 83.2748C84.9796 83.3641 85.4884 83.302 85.9458 83.0966C86.4032 82.8913 86.7877 82.5523 87.0488 82.1242C87.3099 81.6962 87.4352 81.1991 87.4085 80.6985C87.444 80.1798 87.3477 79.6605 87.1286 79.189C86.9095 78.7175 86.5748 78.3091 86.1554 78.0017Z" fill="#455A64"/>
<path d="M114.154 91.8487L107.698 56.1371C107.555 55.392 107.139 54.7274 106.53 54.2744C105.922 53.8214 105.165 53.6129 104.411 53.69L87.858 53.0317C82.7142 53.5629 80.6712 60.4637 81.4203 65.5848C82.2511 71.2689 83.486 78.1788 85.0523 82.2285C88.1667 90.3687 94.845 90.0781 94.845 90.0781L95.8847 94.886L98.2818 105.328L114.154 91.8487Z" fill="#D79581"/>
<path d="M85.352 72.3313C85.4082 72.6138 85.5726 72.8631 85.8101 73.0259C86.0477 73.1888 86.3395 73.2523 86.6232 73.203C86.7627 73.1846 86.8971 73.1386 87.0187 73.0677C87.1402 72.9968 87.2463 72.9023 87.3309 72.7899C87.4154 72.6774 87.4767 72.5492 87.5111 72.4128C87.5455 72.2763 87.5523 72.1344 87.5312 71.9953C87.475 71.7128 87.3106 71.4635 87.0731 71.3007C86.8355 71.1378 86.5437 71.0743 86.26 71.1236C86.1202 71.1414 85.9855 71.187 85.8636 71.2577C85.7418 71.3285 85.6354 71.423 85.5508 71.5356C85.4661 71.6482 85.4049 71.7766 85.3708 71.9133C85.3366 72.05 85.3302 72.1921 85.352 72.3313Z" fill="#263238"/>
<path d="M83.663 68.84C83.8264 68.9535 84.5165 68.1772 85.6787 67.932C86.841 67.6868 87.8171 68.0909 87.9124 67.932C87.9623 67.8548 87.7717 67.6278 87.3404 67.4371C86.7671 67.1941 86.1325 67.1354 85.5244 67.2692C84.9181 67.3985 84.3682 67.7163 83.9535 68.1772C83.6493 68.5131 83.5812 68.7946 83.663 68.84Z" fill="#263238"/>
<path d="M95.998 69.7662C96.0552 70.0478 96.2201 70.296 96.4575 70.458C96.6949 70.6199 96.9861 70.6828 97.2692 70.6333C97.409 70.6156 97.5438 70.57 97.6656 70.4992C97.7874 70.4285 97.8938 70.334 97.9785 70.2214C98.0631 70.1088 98.1244 69.9804 98.1585 69.8437C98.1926 69.707 98.199 69.5649 98.1772 69.4257C98.12 69.1438 97.9553 68.8952 97.7181 68.7325C97.4809 68.5698 97.1896 68.5058 96.906 68.554C96.7661 68.5723 96.6312 68.6184 96.5094 68.6896C96.3875 68.7609 96.2812 68.8557 96.1965 68.9687C96.1119 69.0817 96.0508 69.2104 96.0167 69.3474C95.9826 69.4843 95.9762 69.6267 95.998 69.7662Z" fill="#263238"/>
<path d="M95.131 66.6517C95.2944 66.7607 95.9845 65.9843 97.1467 65.7437C98.309 65.5031 99.2851 65.9026 99.3804 65.7437C99.4304 65.6665 99.2397 65.4396 98.8084 65.2489C98.2345 65.0082 97.6006 64.9495 96.9924 65.0809C96.3861 65.2102 95.8362 65.528 95.4215 65.9889C95.1174 66.3203 95.0493 66.6018 95.131 66.6517Z" fill="#263238"/>
<path d="M92.7293 76.1585C92.7293 76.0904 91.9711 76.1176 90.7725 76.213C90.4684 76.2447 90.1733 76.2447 90.0825 76.0541C89.9894 75.7585 89.9894 75.4416 90.0825 75.1461C90.2096 74.3712 90.3427 73.5571 90.482 72.7035C91.0222 69.2304 91.3446 66.3975 91.2084 66.3748C91.0722 66.3521 90.5137 69.1578 89.9735 72.6309C89.8464 73.4844 89.7268 74.3001 89.6148 75.078C89.5036 75.4758 89.5358 75.9 89.7056 76.2765C89.7707 76.3715 89.8563 76.4506 89.9561 76.5079C90.056 76.5653 90.1674 76.5995 90.2822 76.6079C90.4571 76.6182 90.6325 76.606 90.8043 76.5716C92.0074 76.3719 92.7383 76.222 92.7293 76.1585Z" fill="#263238"/>
<path d="M94.8269 90.0781C98.8047 89.3017 102.489 87.4361 105.469 84.6891C105.469 84.6891 103.907 91.2903 95.3127 92.28L94.8269 90.0781Z" fill="#A36456"/>
<path d="M93.4829 78.8825C93.6641 78.4438 93.9493 78.0559 94.314 77.7522C94.6786 77.4484 95.1117 77.238 95.5759 77.1391C95.8796 77.0789 96.1934 77.0938 96.4901 77.1824C96.7868 77.271 97.0574 77.4307 97.2784 77.6476C97.5095 77.8959 97.6665 78.2041 97.7315 78.5371C97.7965 78.8701 97.7669 79.2146 97.6461 79.5317C97.4978 79.8649 97.2527 80.1458 96.9425 80.3377C96.6324 80.5296 96.2716 80.6237 95.9073 80.6077C95.2168 80.5322 94.5547 80.2908 93.9778 79.904C93.8019 79.8213 93.6468 79.7003 93.5238 79.5499C93.4594 79.4655 93.4184 79.3658 93.4048 79.2606C93.3913 79.1554 93.4057 79.0484 93.4466 78.9506" fill="#A36456"/>
<path d="M96.3205 76.2402C96.1298 76.2675 96.3932 77.5296 95.4988 78.6555C94.6044 79.7814 93.2288 79.9222 93.2651 80.0992C93.2651 80.1809 93.6147 80.2808 94.1731 80.1764C94.9134 80.0304 95.5788 79.6286 96.0527 79.0414C96.5072 78.4763 96.7252 77.7571 96.661 77.0347C96.6111 76.499 96.4022 76.213 96.3205 76.2402Z" fill="#263238"/>
<path d="M93.6101 61.9755C93.7871 62.2661 94.9176 61.8711 96.3341 61.7485C97.7506 61.626 98.9128 61.7485 99.0354 61.4444C99.0853 61.29 98.8311 61.0358 98.3226 60.8224C97.6505 60.573 96.9305 60.4798 96.2171 60.5498C95.5037 60.6198 94.8156 60.8512 94.2048 61.2264C93.7281 61.5352 93.5238 61.8348 93.6101 61.9755Z" fill="#263238"/>
<path d="M83.2271 64.7585C83.4859 64.9765 84.2304 64.5361 85.1884 64.3045C86.1463 64.073 87.0044 64.1093 87.136 63.7915C87.1905 63.6417 87.0044 63.4011 86.5958 63.2286C86.0544 63.0298 85.4661 62.9966 84.9059 63.1332C84.3456 63.2699 83.8386 63.5701 83.4496 63.9958C83.1635 64.3499 83.1091 64.645 83.2271 64.7585Z" fill="#263238"/>
<path d="M75.3637 65.1853C75.4041 63.8238 75.9142 62.5181 76.8075 61.4898C77.3159 60.9495 77.9561 60.5454 78.4101 59.9552C79.3816 58.6886 79.2545 56.9271 79.6722 55.3835C79.9517 54.3896 80.464 53.4767 81.1667 52.7203C81.8693 51.9639 82.7422 51.3859 83.7128 51.0341C85.3336 50.4666 87.1587 50.5529 88.675 49.7539C89.7964 49.1682 90.6545 48.1376 91.8076 47.6201C94.0549 46.6031 96.6518 47.7653 98.7674 49.0411C99.1806 50.7254 98.1091 52.1737 97.074 53.5811C96.5519 54.2772 95.8849 54.8516 95.1191 55.2647C94.3533 55.6778 93.5069 55.9197 92.6384 55.9737C91.2764 56.0463 89.7283 55.7376 88.7794 56.691C87.8306 57.6444 88.1575 59.4695 87.3357 60.6226C86.1599 62.2706 83.5085 61.6305 81.7561 62.6429C80.3941 63.4238 79.8311 65.0355 79.1456 66.4384C78.46 67.8412 77.2796 69.3031 75.7224 69.2214C75.4462 67.8946 75.3258 66.54 75.3637 65.1853Z" fill="#263238"/>
<path d="M91.0769 53.3859C92.103 52.8093 94.1868 51.5699 94.5455 50.453C95.3309 48.0695 97.2695 46.1082 99.594 45.6769C100.812 45.4823 102.061 45.6865 103.154 46.2591C104.247 46.8318 105.126 47.7423 105.659 48.8549C107.108 48.5613 108.61 48.6635 110.005 49.1509C111.401 49.6382 112.64 50.4927 113.591 51.6243C113.839 51.9114 114.068 52.2147 114.276 52.5323C114.895 53.1963 115.361 53.9869 115.644 54.8493C115.926 55.7117 116.017 56.6252 115.911 57.5263C115.77 58.6114 115.384 59.8781 116.124 60.7043C116.864 61.5306 118.199 61.2446 119.302 61.349C120.268 61.4709 121.161 61.928 121.825 62.6407C122.489 63.3534 122.881 64.2764 122.934 65.2489C122.934 65.9435 122.793 66.6835 123.088 67.31C123.384 67.9366 124.105 68.3134 124.691 68.7447C125.421 69.2814 125.997 70.0006 126.361 70.8301C126.725 71.6596 126.865 72.5702 126.766 73.4707C126.667 74.3712 126.333 75.2299 125.798 75.9606C125.262 76.6913 124.544 77.2684 123.715 77.634C122.966 77.9654 122.108 78.1379 121.531 78.7191C120.868 79.3864 120.755 80.4034 120.378 81.266C120.004 82.0888 119.389 82.7783 118.613 83.243C117.838 83.7076 116.94 83.9254 116.038 83.8674C115.676 83.8323 115.32 83.7483 114.98 83.6177C114.63 84.4758 113.922 85.1659 112.515 85.5064L108.429 67.0286C108.381 67.2785 108.274 67.5133 108.116 67.7125C107.958 67.9118 107.753 68.0697 107.521 68.1726C104.729 69.5346 102.831 63.5691 103.094 61.7621C101.761 61.1197 100.513 60.3129 99.3806 59.3605C98.2728 58.3481 96.7655 55.2382 96.5839 53.7173C95.5216 54.0487 90.6275 53.6446 91.0769 53.3859Z" fill="#263238"/>
<path d="M107.512 68.5086C107.171 66.6926 109.269 65.7846 111.039 66.3067C112.011 66.5973 112.905 67.4281 113.282 69.353C114.294 74.456 108.96 74.456 108.905 74.288C108.851 74.12 107.911 70.6333 107.512 68.5086Z" fill="#D79581"/>
<path d="M110.086 72.0407C110.086 72.018 110.186 72.0861 110.349 72.1224C110.58 72.1719 110.821 72.1296 111.021 72.0044C111.525 71.7002 111.811 70.7513 111.652 69.8206C111.58 69.3788 111.408 68.9594 111.148 68.5949C111.07 68.4441 110.955 68.3148 110.815 68.2183C110.675 68.1217 110.514 68.0609 110.345 68.041C110.236 68.0316 110.127 68.0618 110.039 68.126C109.95 68.1902 109.888 68.2841 109.863 68.3906C109.823 68.5449 109.863 68.6403 109.863 68.6539C109.863 68.6675 109.736 68.5903 109.736 68.3724C109.739 68.2385 109.789 68.1099 109.877 68.0092C109.994 67.8782 110.156 67.797 110.331 67.7822C110.55 67.7836 110.765 67.8405 110.955 67.9478C111.146 68.055 111.306 68.2089 111.421 68.3951C111.724 68.795 111.927 69.2622 112.011 69.7571C112.183 70.7967 111.843 71.8636 111.144 72.2268C111.014 72.2927 110.872 72.3293 110.727 72.334C110.582 72.3387 110.437 72.3114 110.304 72.2541C110.118 72.186 110.068 72.0543 110.086 72.0407Z" fill="#A36456"/>
<path d="M97.9912 50.7481C98.4344 50.8587 98.8481 51.0648 99.2034 51.3519C99.8753 51.9194 100.384 53.1997 100.425 54.7705V54.9067H100.561C101.337 54.9265 102.099 55.1258 102.786 55.4889C103.473 55.8519 104.066 56.369 104.52 56.9997C104.774 57.3563 104.964 57.7541 105.083 58.1755C105.177 58.6238 105.232 59.0796 105.246 59.5375C105.261 60.0385 105.313 60.5378 105.4 61.0312C105.494 61.5685 105.762 62.06 106.163 62.4295C107.026 63.2376 108.156 63.4646 109.137 63.7143C110.092 63.8886 111.012 64.2183 111.861 64.6904C113.279 65.54 114.321 66.8968 114.776 68.4859C115.076 69.5606 115.105 70.6929 114.862 71.7819C114.694 72.5583 114.49 72.9578 114.526 72.9714C114.591 72.8847 114.644 72.7901 114.685 72.6899C114.815 72.4089 114.922 72.1173 115.003 71.8182C115.385 70.4271 115.302 68.9491 114.766 67.6096C114.23 66.2702 113.27 65.143 112.033 64.3999C111.159 63.8986 110.205 63.5487 109.214 63.3648C108.233 63.1151 107.167 62.879 106.413 62.1617C105.664 61.5261 105.673 60.4592 105.605 59.5148C105.588 59.0289 105.526 58.5455 105.419 58.0711C105.288 57.6099 105.077 57.1751 104.797 56.7863C104.309 56.1182 103.671 55.5741 102.935 55.1979C102.198 54.8217 101.383 54.624 100.556 54.6207L100.693 54.7569C100.615 53.118 100.048 51.8014 99.2987 51.2203C99.0239 50.9943 98.6983 50.8385 98.3499 50.7663C98.232 50.7417 98.111 50.7355 97.9912 50.7481Z" fill="#455A64"/>
<path d="M112.438 73.4844C111.937 73.1521 111.364 72.945 110.767 72.8806L110.876 72.8488C110.769 72.8398 110.661 72.8398 110.553 72.8488C110.353 72.8386 110.152 72.8696 109.964 72.9399C109.776 73.0102 109.604 73.1182 109.459 73.2574C108.886 73.635 108.475 74.213 108.306 74.8782C108.187 75.4627 108.232 76.0687 108.436 76.6295C108.639 77.1902 108.993 77.6839 109.459 78.0562C109.814 78.411 110.269 78.6496 110.763 78.7404C111.257 78.8312 111.766 78.7699 112.224 78.5647C112.683 78.3595 113.068 78.02 113.329 77.5911C113.59 77.1623 113.714 76.6643 113.686 76.163C113.72 75.6476 113.624 75.1318 113.405 74.6636C113.187 74.1953 112.854 73.7897 112.438 73.4844Z" fill="#455A64"/>
<path d="M98.0321 104.506C97.9681 104.33 97.9224 104.147 97.8959 103.961C97.8142 103.562 97.7143 103.053 97.5917 102.468C97.342 101.206 96.9788 99.4668 96.5294 97.5555C96.0799 95.6442 95.6214 93.9235 95.3036 92.6795C95.1447 92.0939 95.013 91.599 94.9086 91.204C94.8504 91.027 94.8108 90.8445 94.7905 90.6592C94.8782 90.825 94.9467 91.0001 94.9948 91.1813C95.1174 91.5218 95.2763 92.0167 95.4488 92.6341C95.8257 93.8645 96.2978 95.5851 96.7473 97.501C97.1967 99.4169 97.5327 101.165 97.7415 102.436C97.8505 103.072 97.9277 103.589 97.9731 103.948C98.0152 104.131 98.035 104.318 98.0321 104.506Z" fill="#A36456"/>
<path d="M81.6834 106.49C81.7424 106.531 81.0297 107.612 80.4168 109.083C79.8038 110.554 79.3816 111.784 79.3044 111.757C79.336 111.472 79.4047 111.193 79.5087 110.926C79.6631 110.426 79.8901 109.736 80.1988 108.992C80.5419 108.077 81.0446 107.23 81.6834 106.49Z" fill="#A36456"/>
<path d="M104.606 119.702C104.407 119.248 104.255 118.774 104.152 118.29C103.977 117.826 103.847 117.347 103.761 116.86C104.064 117.263 104.275 117.728 104.379 118.222C104.56 118.693 104.638 119.198 104.606 119.702Z" fill="#A36456"/>
<path d="M125.562 110.027L125.903 122.485L142.152 120.437" fill="#7D5CD7"/>
<path d="M142.152 120.437C142.058 120.47 141.96 120.491 141.861 120.501L141.03 120.628L137.97 121.05L127.86 122.358L125.917 122.598H125.79V122.471C125.708 118.962 125.64 115.861 125.585 113.6C125.585 112.501 125.558 111.611 125.549 110.967V110.277C125.538 110.194 125.538 110.11 125.549 110.027C125.564 110.108 125.573 110.19 125.576 110.272C125.576 110.46 125.59 110.696 125.617 110.98C125.644 111.63 125.681 112.519 125.722 113.613C125.794 115.883 125.894 118.975 126.003 122.48L125.871 122.367L127.814 122.121L137.934 120.882L141.008 120.537L141.843 120.451C141.946 120.439 142.049 120.435 142.152 120.437Z" fill="#263238"/>
<path d="M104.683 161.415C104.61 161.44 104.533 161.454 104.456 161.456C104.306 161.456 104.084 161.506 103.798 161.515C102.987 161.557 102.174 161.528 101.369 161.429C98.7073 161.061 96.1464 160.164 93.837 158.791C91.5418 157.42 89.387 155.826 87.4038 154.033C86.632 153.357 86.0191 152.798 85.5878 152.412L85.1111 151.958C85.0022 151.849 84.9477 151.79 84.9568 151.786C85.0239 151.824 85.0863 151.87 85.1429 151.922L85.6514 152.34L87.4992 153.906C89.5167 155.654 91.6846 157.22 93.9778 158.587C96.2638 159.943 98.7879 160.851 101.414 161.261C102.21 161.376 103.012 161.431 103.816 161.424C104.365 161.415 104.679 161.397 104.683 161.415Z" fill="#263238"/>
<path d="M128.082 122.126C128.082 122.126 131.301 135.841 131.201 136.772C131.101 137.703 122.198 145.925 120.854 146.855C119.511 147.786 114.912 148.217 114.912 148.217L119.265 157.343L121.295 157.079C121.295 157.079 139.6 148.717 143.645 145.198C146.787 142.474 145.584 136.827 144.444 133.163C143.305 129.499 140.939 120.596 140.939 120.596L128.082 122.126Z" fill="#D79581"/>
<g opacity="0.3">
<path opacity="0.3" d="M115.407 141.961C114.952 141.919 114.494 141.938 114.045 142.02C112.879 142.05 111.734 141.712 110.771 141.053C109.782 140.449 108.901 139.691 107.934 139.051C105.6 137.526 102.831 136.809 100.05 137.008C97.2698 137.207 94.6312 138.313 92.5387 140.154L92.3525 140.79C93.9688 139.578 96.2115 139.623 98.1774 140.1C101.124 140.817 103.793 142.37 106.635 143.4C109.477 144.431 112.755 144.958 115.47 143.614C115.788 143.459 116.124 143.237 116.188 142.892C116.283 142.447 115.852 142.052 115.407 141.961Z" fill="black"/>
</g>
<path d="M84.2714 132.659C84.2714 132.659 70.0385 130.421 72.6082 119.397C75.1778 108.374 86.714 110.69 89.2881 113.128C91.8623 115.566 91.4446 115.879 92.7522 116.347C94.0597 116.814 97.2331 118.617 97.5918 121.123C97.8157 122.357 97.8616 123.616 97.728 124.864L84.2714 132.659Z" fill="#D79581"/>
<path d="M84.2713 132.659C84.2713 132.659 84.353 132.6 84.5119 132.5L85.2202 132.073L87.9442 130.475L97.6961 124.777L97.6462 124.845C97.7213 124.106 97.7213 123.36 97.6462 122.621C97.6235 122.239 97.5781 121.854 97.5281 121.468C97.4902 121.079 97.3985 120.697 97.2557 120.333C96.6383 118.871 95.2672 117.758 93.7735 116.941C93.4017 116.734 93.0147 116.555 92.6158 116.406C92.3975 116.328 92.1901 116.223 91.9984 116.092C91.8109 115.954 91.6403 115.794 91.4899 115.616C90.9105 114.917 90.2952 114.249 89.6467 113.613C89.3332 113.283 88.9828 112.989 88.6025 112.737C88.2105 112.492 87.7972 112.282 87.3676 112.111C86.4909 111.762 85.5768 111.515 84.6436 111.375C82.2512 110.95 79.7854 111.317 77.6202 112.419C76.6129 112.967 75.7204 113.704 74.9916 114.59C74.304 115.449 73.7527 116.409 73.3572 117.436C72.9792 118.416 72.7053 119.432 72.54 120.469C72.3947 121.444 72.3947 122.436 72.54 123.411C72.6785 124.322 72.9734 125.202 73.4116 126.012C73.8227 126.758 74.3327 127.446 74.928 128.055C75.4646 128.615 76.058 129.117 76.6986 129.553C77.2645 129.952 77.8576 130.31 78.4737 130.625C79.4616 131.134 80.4878 131.565 81.5428 131.914C82.4145 132.2 83.1045 132.368 83.5722 132.491L84.1079 132.613L84.2895 132.659L84.1033 132.636C83.9808 132.636 83.7992 132.586 83.5631 132.536C82.8719 132.392 82.1885 132.214 81.5155 132C80.4494 131.667 79.4123 131.246 78.4147 130.743C77.7847 130.431 77.1778 130.075 76.5987 129.676C75.9438 129.238 75.3353 128.735 74.7827 128.173C74.1745 127.556 73.6522 126.86 73.23 126.103C72.7778 125.275 72.4707 124.375 72.322 123.443C72.1697 122.447 72.1697 121.433 72.322 120.437C72.4876 119.386 72.7614 118.354 73.1392 117.359C73.539 116.308 74.1012 115.326 74.8054 114.449C75.5503 113.539 76.4626 112.781 77.4931 112.215C78.5657 111.64 79.7328 111.261 80.939 111.098C82.1769 110.933 83.4323 110.946 84.6663 111.139C85.6199 111.283 86.5537 111.535 87.4493 111.893C87.891 112.07 88.3164 112.286 88.7205 112.537C89.1141 112.798 89.4767 113.103 89.801 113.445C90.453 114.085 91.0712 114.758 91.6534 115.461C91.9199 115.8 92.2796 116.055 92.6885 116.192C93.1043 116.345 93.508 116.528 93.8961 116.742C94.6605 117.148 95.3699 117.65 96.0072 118.235C96.6353 118.796 97.1355 119.485 97.4736 120.255C97.6203 120.636 97.7136 121.035 97.7506 121.44C97.8005 121.831 97.8414 122.221 97.8686 122.607C97.9355 123.363 97.9248 124.124 97.8368 124.877V124.923H97.796L87.976 130.561L85.252 132.109L84.5346 132.509L84.2713 132.659Z" fill="#A36456"/>
<path d="M84.2712 132.659L98.0638 124.242L119.011 134.139L123.551 144.395C123.551 144.395 119.238 149.643 111.075 149.643C106.753 149.643 99.9297 147.073 94.7813 142.788C91.085 139.617 87.5757 136.236 84.2712 132.659Z" fill="#FAFAFA"/>
<path d="M133.163 133.844C131.601 131.574 129.985 128.441 128.459 126.375C126.934 124.31 122.88 123.833 120.369 124.355C117.695 124.909 116.156 127.837 115.883 130.557C115.611 133.276 116.219 136.005 115.997 138.729L118.04 148.222C118.04 148.222 125.036 145.902 126.171 140C126.644 137.692 126.215 135.291 124.972 133.29L128.091 138.043L133.163 133.844Z" fill="#FAFAFA"/>
<path d="M109.064 124.655L108.983 121.681C108.983 121.681 107.539 119.334 108.075 118.562C108.61 117.79 108.955 118.526 109.4 119.093C109.845 119.661 110.272 118.912 110.272 118.912C110.272 118.912 110.172 116.465 110.358 116.188C110.446 116.079 110.56 115.994 110.689 115.94C110.818 115.886 110.959 115.865 111.098 115.879C111.098 115.879 111.434 115.234 111.874 115.425C112.002 115.482 112.112 115.572 112.192 115.686C112.272 115.801 112.319 115.935 112.328 116.074C112.328 116.074 112.982 115.734 113.155 116.324C113.243 116.577 113.305 116.839 113.341 117.105C113.341 117.105 114.076 117.046 114.158 117.622C114.24 118.199 114.09 121.023 112.896 122.616L113.182 125.999L109.064 124.655Z" fill="#D79581"/>
<path d="M109.064 124.655C109.168 124.673 109.269 124.699 109.369 124.732L110.195 124.977L113.196 125.912L113.087 125.999C113.001 125.009 112.896 123.869 112.783 122.621V122.58L112.805 122.544C113.354 121.725 113.715 120.794 113.863 119.82C113.964 119.294 114.024 118.761 114.045 118.226C114.045 118.09 114.045 117.954 114.045 117.818C114.053 117.696 114.03 117.574 113.977 117.463C113.902 117.369 113.804 117.296 113.693 117.252C113.581 117.207 113.46 117.193 113.341 117.209H113.228V117.091C113.2 116.9 113.157 116.712 113.101 116.528C113.046 116.315 113.001 116.147 112.851 116.097C112.696 116.064 112.535 116.089 112.397 116.165L112.238 116.238V116.065C112.23 115.936 112.183 115.812 112.101 115.711C112.02 115.61 111.909 115.537 111.784 115.502C111.571 115.457 111.33 115.706 111.216 115.956L111.171 116.033H111.085C110.959 116.01 110.828 116.032 110.717 116.097C110.658 116.13 110.602 116.168 110.549 116.21L110.476 116.283C110.454 116.306 110.476 116.315 110.449 116.337C110.399 116.624 110.375 116.914 110.377 117.205C110.377 117.795 110.377 118.371 110.377 118.93V118.948C110.29 119.104 110.165 119.235 110.013 119.329C109.929 119.38 109.83 119.404 109.732 119.397C109.633 119.39 109.538 119.35 109.464 119.284C109.261 119.055 109.07 118.816 108.892 118.567C108.542 117.963 107.984 118.612 108.066 119.084C108.127 119.57 108.266 120.042 108.479 120.482C108.653 120.876 108.85 121.26 109.069 121.631C109.069 122.539 109.069 123.279 109.069 123.81V124.396C109.077 124.467 109.077 124.538 109.069 124.609C109.063 124.546 109.063 124.482 109.069 124.419C109.069 124.269 109.046 124.078 109.033 123.847C109.01 123.306 108.978 122.562 108.937 121.636V121.672C108.711 121.299 108.505 120.914 108.32 120.519C108.089 120.061 107.936 119.569 107.866 119.061C107.855 118.909 107.87 118.755 107.911 118.607C107.969 118.465 108.055 118.337 108.166 118.231C108.223 118.162 108.301 118.111 108.387 118.086C108.474 118.061 108.566 118.063 108.651 118.09C108.801 118.156 108.931 118.257 109.033 118.385C109.228 118.607 109.391 118.898 109.582 119.071C109.773 119.243 110.036 119.034 110.177 118.794V118.853C110.177 118.29 110.14 117.713 110.15 117.114C110.148 116.809 110.175 116.505 110.231 116.206C110.246 116.152 110.272 116.103 110.308 116.061C110.336 116.028 110.367 115.998 110.399 115.97C110.463 115.914 110.533 115.865 110.608 115.824C110.769 115.732 110.958 115.701 111.139 115.738L111.008 115.797C111.087 115.652 111.189 115.522 111.312 115.411C111.38 115.347 111.461 115.299 111.55 115.27C111.638 115.241 111.732 115.232 111.825 115.243C112 115.289 112.156 115.389 112.271 115.529C112.385 115.67 112.452 115.843 112.46 116.024L112.288 115.924C112.488 115.818 112.722 115.79 112.942 115.847C113.069 115.897 113.172 115.992 113.232 116.115C113.277 116.219 113.312 116.327 113.337 116.437C113.397 116.639 113.443 116.846 113.473 117.055L113.346 116.941C113.5 116.936 113.654 116.96 113.8 117.009C113.962 117.062 114.099 117.171 114.186 117.318C114.255 117.459 114.289 117.615 114.285 117.772C114.285 117.917 114.285 118.058 114.285 118.199C114.262 118.745 114.198 119.288 114.095 119.824C113.933 120.829 113.551 121.785 112.978 122.625L113.001 122.553C113.096 123.806 113.187 124.945 113.264 125.935V126.058L113.146 126.021L110.131 124.995L109.332 124.709C109.242 124.699 109.152 124.68 109.064 124.655Z" fill="#A36456"/>
<path d="M95.031 129.122C95.031 129.122 94.9901 123.093 100.956 124.437C106.921 125.781 108.052 126.666 108.052 126.666L108.315 124.237H114.217C114.217 124.237 115.438 130.648 114.244 133.344C112.637 136.954 105.35 134.488 105.35 134.488C105.35 134.488 95.031 132.659 95.031 129.122Z" fill="#FAFAFA"/>
<path d="M114.195 124.242C114.225 124.323 114.248 124.406 114.263 124.491C114.308 124.677 114.363 124.918 114.431 125.218C114.499 125.517 114.594 125.921 114.68 126.375C114.767 126.829 114.817 127.365 114.903 127.946C115.072 129.337 115.014 130.746 114.73 132.119C114.539 132.95 114.139 133.718 113.568 134.352C113.244 134.693 112.852 134.961 112.417 135.139C111.982 135.317 111.514 135.4 111.044 135.383C110.079 135.378 109.116 135.306 108.161 135.169C105.959 134.852 103.921 134.293 102.046 133.925C101.145 133.777 100.257 133.568 99.3851 133.299C98.619 133.058 97.9068 132.671 97.2876 132.159C96.8428 131.783 96.477 131.321 96.2113 130.802C95.9456 130.283 95.7852 129.717 95.7395 129.136C95.7262 128.822 95.7552 128.507 95.8257 128.201C95.8522 128.094 95.8887 127.991 95.9347 127.892C95.8423 128.296 95.8086 128.712 95.8348 129.127C95.9548 130.261 96.5137 131.304 97.392 132.032C98.0037 132.518 98.7014 132.885 99.4486 133.113C100.314 133.369 101.195 133.568 102.086 133.708C103.975 134.071 106.013 134.616 108.193 134.933C109.137 135.072 110.09 135.145 111.044 135.151C111.485 135.166 111.925 135.087 112.333 134.92C112.534 134.837 112.724 134.732 112.901 134.606C113.079 134.492 113.243 134.354 113.386 134.198C113.936 133.596 114.322 132.863 114.508 132.069C114.798 130.727 114.871 129.348 114.726 127.983C114.658 127.406 114.594 126.879 114.54 126.416C114.485 125.953 114.385 125.572 114.326 125.254C114.267 124.936 114.235 124.709 114.199 124.523C114.183 124.43 114.181 124.335 114.195 124.242Z" fill="#263238"/>
<path d="M111.23 119.093C111.169 118.563 111.148 118.029 111.166 117.495C111.111 116.964 111.085 116.431 111.089 115.897C111.316 116.395 111.423 116.939 111.402 117.486C111.46 118.028 111.401 118.576 111.23 119.093Z" fill="#A36456"/>
<path d="M112.338 119.366C112.285 118.82 112.267 118.271 112.283 117.722C112.226 117.174 112.237 116.62 112.315 116.074C112.469 116.608 112.538 117.162 112.519 117.718C112.582 118.274 112.52 118.837 112.338 119.366Z" fill="#A36456"/>
<path d="M113.323 119.288C113.278 118.901 113.269 118.511 113.295 118.122C113.247 117.733 113.247 117.339 113.295 116.95C113.475 117.312 113.553 117.715 113.522 118.117C113.576 118.519 113.506 118.927 113.323 119.288Z" fill="#A36456"/>
<path d="M108.052 129.671C107.945 128.768 107.917 127.856 107.965 126.947C107.936 126.037 107.988 125.125 108.12 124.223C108.223 125.128 108.25 126.039 108.201 126.947C108.229 127.858 108.178 128.769 108.052 129.671Z" fill="#263238"/>
<path d="M92.3663 119.288C92.3663 119.288 92.4888 119.316 92.6432 119.47C92.7516 119.585 92.8341 119.722 92.885 119.872C92.9359 120.021 92.9541 120.18 92.9383 120.337C92.9165 120.553 92.8614 120.765 92.7749 120.964C92.6751 121.198 92.5191 121.404 92.3209 121.563C92.0702 121.723 91.79 121.831 91.4968 121.881C91.2036 121.931 90.9033 121.922 90.6138 121.854H90.6456C90.3235 121.866 90.0016 121.826 89.6922 121.736C89.0161 121.541 88.4257 121.123 88.0169 120.551C87.6919 120.082 87.5062 119.531 87.4812 118.962C87.465 118.582 87.522 118.203 87.6492 117.845C87.6855 117.712 87.7488 117.588 87.8353 117.482C87.6793 117.954 87.6071 118.45 87.6219 118.948C87.6671 119.479 87.8554 119.987 88.1667 120.419C88.5571 120.941 89.1069 121.322 89.733 121.504C90.0172 121.588 90.313 121.626 90.6093 121.618H90.641C91.1611 121.744 91.7102 121.663 92.171 121.391C92.5076 121.126 92.7262 120.739 92.7794 120.315C92.8176 120.032 92.7444 119.745 92.5751 119.515C92.4571 119.366 92.3572 119.302 92.3663 119.288Z" fill="#A36456"/>
<path d="M122.825 124.16C122.589 124.193 122.351 124.205 122.112 124.196C121.885 124.196 121.613 124.246 121.291 124.273C121.121 124.297 120.953 124.331 120.787 124.373C120.597 124.405 120.412 124.455 120.233 124.523C119.333 124.817 118.526 125.339 117.89 126.039C117.527 126.458 117.21 126.914 116.946 127.401C116.671 127.935 116.444 128.491 116.265 129.063C116.078 129.635 115.948 130.223 115.874 130.82C115.821 131.377 115.806 131.937 115.829 132.495C115.87 133.571 116.001 134.538 116.092 135.351C116.183 136.164 116.265 136.822 116.292 137.281C116.292 137.508 116.292 137.685 116.315 137.807C116.337 137.93 116.315 137.993 116.315 137.993C116.264 137.762 116.231 137.526 116.215 137.29C116.156 136.836 116.06 136.182 115.942 135.369C115.824 134.557 115.679 133.594 115.625 132.504C115.596 131.934 115.609 131.362 115.661 130.793C115.727 130.175 115.858 129.567 116.051 128.977C116.233 128.389 116.469 127.819 116.755 127.274C117.027 126.768 117.358 126.296 117.74 125.867C118.41 125.149 119.257 124.621 120.196 124.337C120.383 124.274 120.574 124.227 120.768 124.196C120.939 124.16 121.112 124.132 121.286 124.114C121.613 124.114 121.894 124.06 122.126 124.078C122.361 124.086 122.595 124.114 122.825 124.16Z" fill="#263238"/>
<path d="M122.934 129.013C123.034 129.108 123.118 129.219 123.184 129.34C123.333 129.558 123.542 129.876 123.783 130.284C124.418 131.338 124.972 132.438 125.44 133.576C125.92 134.715 126.236 135.917 126.38 137.144C126.404 137.357 126.416 137.571 126.416 137.784C126.428 137.945 126.428 138.106 126.416 138.266C126.417 138.404 126.399 138.541 126.362 138.674C126.316 138.674 126.362 138.089 126.23 137.162C126.039 135.96 125.704 134.784 125.231 133.662C124.765 132.535 124.238 131.435 123.651 130.366C123.382 129.932 123.142 129.48 122.934 129.013Z" fill="#263238"/>
<path d="M138.828 135.8C138.311 135.418 137.73 135.129 137.112 134.947C134.447 133.98 132.4 133.499 131.21 131.56L127.601 137.303C128.423 138.497 128.119 139.655 129.145 140.381C129.953 140.953 131.047 140.785 132.014 140.581C133.782 140.203 135.531 139.765 137.262 139.269C138.256 138.988 139.414 138.502 139.578 137.48C139.604 137.16 139.55 136.838 139.419 136.544C139.288 136.25 139.085 135.995 138.828 135.8Z" fill="#FAFAFA"/>
<g opacity="0.3">
<path opacity="0.3" d="M123.066 129.267C124.487 131.651 125.436 134.193 127.015 136.386C127.148 134.94 126.842 133.488 126.137 132.218C125.433 130.949 124.363 129.92 123.066 129.267Z" fill="black"/>
</g>
<path d="M68.613 120.937C68.613 120.937 65.948 139.251 66.293 141.889C66.6381 144.526 69.067 147.523 71.8318 147.831C74.5967 148.14 74.9871 147.718 77.7338 146.692C80.4805 145.666 95.4398 139.373 95.4398 139.373L94.6998 128.527L77.5068 134.116L76.272 122.467L68.613 120.937Z" fill="#D79581"/>
<path d="M109.073 123.488C109.073 123.102 106.463 123.393 105.01 123.488C103.557 123.583 99.1079 125.908 99.1079 125.908L94.7041 128.509L82.6958 132.477L87.6217 142.592L96.5791 138.838C96.5791 138.838 102.481 140.726 105.695 141.707C108.724 142.615 108.724 143.219 112.36 142.965C114.385 142.824 116.219 142.738 116.219 142.738C116.219 142.738 116.896 140.799 115.252 140.608C114.098 140.493 112.937 140.472 111.779 140.545L108.96 138.838C108.96 138.838 111.125 137.961 112.174 138.039L113.886 138.166C114.1 138.186 114.316 138.157 114.518 138.082C114.719 138.006 114.901 137.886 115.049 137.73C115.197 137.573 115.308 137.386 115.373 137.18C115.438 136.975 115.456 136.758 115.425 136.545C115.395 136.373 115.319 136.212 115.203 136.08C115.088 135.949 114.938 135.852 114.771 135.8C113.737 135.47 112.672 135.244 111.593 135.124C111.593 135.124 114.453 135.092 114.553 134.03C114.58 133.846 114.565 133.658 114.51 133.48C114.455 133.303 114.361 133.14 114.235 133.003C114.108 132.866 113.953 132.76 113.781 132.691C113.608 132.622 113.422 132.592 113.236 132.604C112.946 132.604 110.562 132.409 110.562 132.409C110.583 132.165 110.687 131.935 110.857 131.759C111.028 131.582 111.254 131.471 111.498 131.442C112.369 131.347 115.261 130.906 115.32 129.626C115.375 128.496 114.966 128.396 114.19 128.396C113.413 128.396 109.85 128.645 108.206 128.355C106.563 128.064 104.624 127.774 104.719 126.993C104.815 126.212 106.653 125.731 106.653 125.731C106.653 125.731 109.173 126.212 109.073 123.488Z" fill="#D79581"/>
<path d="M107.493 135.119C108.22 134.993 108.958 134.944 109.695 134.974C110.432 134.928 111.171 134.958 111.902 135.065C111.175 135.194 110.437 135.243 109.7 135.21C108.963 135.257 108.224 135.226 107.493 135.119Z" fill="#A36456"/>
<path d="M94.359 128.636C94.293 128.679 94.2211 128.711 94.1456 128.732L93.5191 128.959L91.1991 129.758L83.5356 132.359L75.8812 134.97L73.5658 135.778L72.9393 136C72.8686 136.032 72.7937 136.054 72.7168 136.064C72.7789 136.017 72.8478 135.98 72.9211 135.955C73.0618 135.896 73.2661 135.8 73.534 135.692C74.0743 135.474 74.8551 135.174 75.8267 134.815C77.7698 134.098 80.4666 133.149 83.463 132.137C86.4594 131.124 89.1698 130.23 91.1447 129.599C92.1298 129.286 92.9289 129.036 93.4873 128.872L94.1274 128.686C94.2025 128.661 94.2802 128.644 94.359 128.636Z" fill="#A36456"/>
<path d="M103.512 141.053C103.512 141.053 111.434 145.466 113.386 146.311C114.524 146.785 115.458 147.645 116.024 148.739L119.248 157.365C119.248 157.365 109.11 158.687 108.106 158.273C107.103 157.86 102.722 155.095 101.505 154.187C100.289 153.279 97.7052 151.55 97.7052 151.177V150.546L94.7134 148.004C94.7134 148.004 94.7134 147.16 95.9301 147.423C97.1468 147.686 100.733 149.43 100.733 149.43L95.1356 145.203C95.1356 145.203 95.9301 143.618 97.1968 144.15C98.4634 144.681 104.061 148.004 104.374 148.267C104.688 148.531 107.099 148.426 107.648 147.632C108.197 146.837 105.909 145.521 104.166 144.413C102.422 143.305 101.927 142.247 102.35 141.457C102.397 141.352 102.465 141.257 102.55 141.18C102.635 141.102 102.735 141.042 102.843 141.004C102.952 140.966 103.068 140.951 103.183 140.959C103.298 140.968 103.41 141 103.512 141.053Z" fill="#D79581"/>
<path d="M104.733 152.376C104.206 152.116 103.71 151.797 103.253 151.427C102.372 150.796 101.174 149.893 99.8616 148.885L96.5157 146.288L95.5032 145.502C95.3686 145.418 95.245 145.318 95.1355 145.203C95.6613 145.465 96.1574 145.784 96.6155 146.152C97.5008 146.783 98.6949 147.686 100.007 148.699L103.353 151.296L104.365 152.076C104.497 152.164 104.621 152.264 104.733 152.376Z" fill="#A36456"/>
<path d="M104.27 155.182C104.124 155.124 103.986 155.046 103.861 154.95C103.607 154.782 103.244 154.542 102.795 154.233C101.887 153.62 100.683 152.757 99.3533 151.777C98.023 150.796 96.8426 149.879 96.0073 149.189C95.5896 148.844 95.2582 148.553 95.0403 148.344C94.9182 148.244 94.8085 148.13 94.7134 148.004C94.8548 148.075 94.9849 148.167 95.0993 148.276L96.1117 149.057C96.9698 149.711 98.1683 150.605 99.494 151.586L102.894 154.097L103.916 154.873C104.047 154.96 104.166 155.064 104.27 155.182Z" fill="#A36456"/>
</svg>
