<svg width="255" height="255" viewBox="0 0 255 255" fill="none" xmlns="http://www.w3.org/2000/svg">
<path d="M127.26 236.854C185.942 236.854 233.514 209.388 233.514 175.506C233.514 141.625 185.942 114.158 127.26 114.158C68.5781 114.158 21.0068 141.625 21.0068 175.506C21.0068 209.388 68.5781 236.854 127.26 236.854Z" fill="#CC7E9A"/>
<path opacity="0.1" d="M88.7399 173.104C87.0977 174.078 85.328 175.2 84.7211 177.011C84.3878 178.137 84.438 179.343 84.8639 180.438C86.5826 185.375 92.7383 187.537 94.8293 192.326C95.936 194.876 95.7269 197.742 95.8493 200.486C95.9717 203.23 96.5939 206.269 98.7818 207.963C99.8631 208.718 101.098 209.227 102.398 209.452C107.105 210.462 112.012 209.916 116.382 207.896C123.292 204.678 128.03 198.176 134.181 193.678C137.691 191.107 141.645 189.206 145.845 188.068C149.567 187.125 153.388 186.622 157.228 186.568C159.268 186.512 161.655 186.334 162.71 184.6C164.189 182.167 161.69 179.29 159.477 177.526C161.466 176.47 163.863 176.791 166.107 176.873C168.351 176.955 170.937 176.587 172.227 174.731C173.308 173.155 173.043 170.947 172.038 169.325C171.033 167.703 169.417 166.561 167.785 165.577C154.897 157.794 139.016 157.156 123.976 157.768C120.37 157.916 116.724 158.131 113.266 159.207C104.121 162.098 96.8999 168.3 88.7399 173.104Z" fill="black"/>
<path d="M208.181 51.5143C209.671 42.3366 203.438 33.689 194.261 32.1993C185.083 30.7095 176.435 36.9418 174.946 46.1195C173.456 55.2971 179.688 63.9447 188.866 65.4345C198.044 66.9242 206.691 60.6919 208.181 51.5143Z" fill="#F0C17A"/>
<path d="M47.8892 141.78L51.5306 139.679C51.5306 139.679 53.6981 130.667 52.8362 122.558C51.6224 111.165 44.1203 106.876 41.2643 107.855C38.4083 108.834 37.5872 112.154 42.2843 118.942C45.0944 122.935 48.5114 131.279 47.8892 141.78Z" fill="#CC7E9A"/>
<path opacity="0.25" d="M47.8892 141.78L51.5306 139.679C51.5306 139.679 53.6981 130.667 52.8362 122.558C51.6224 111.165 44.1203 106.876 41.2643 107.855C38.4083 108.834 37.5872 112.154 42.2843 118.942C45.0944 122.935 48.5114 131.279 47.8892 141.78Z" fill="black"/>
<path d="M49.3985 137.343H49.3628C49.3302 137.337 49.2991 137.324 49.2714 137.306C49.2437 137.288 49.2199 137.264 49.2014 137.237C49.1829 137.209 49.17 137.178 49.1636 137.146C49.1572 137.113 49.1573 137.08 49.1639 137.047C51.158 126.531 47.486 114.719 42.9368 109.803C42.9088 109.78 42.8861 109.751 42.8703 109.718C42.8544 109.685 42.8457 109.65 42.8448 109.613C42.8439 109.577 42.8508 109.541 42.865 109.507C42.8793 109.474 42.9005 109.444 42.9273 109.419C42.9541 109.394 42.9859 109.376 43.0205 109.364C43.0551 109.353 43.0917 109.349 43.1278 109.353C43.164 109.357 43.1989 109.369 43.2302 109.388C43.2614 109.406 43.2884 109.431 43.3091 109.461C47.9399 114.459 51.6833 126.48 49.6586 137.134C49.6476 137.194 49.6153 137.248 49.5675 137.287C49.5198 137.325 49.4598 137.345 49.3985 137.343Z" fill="white"/>
<path d="M38.347 147.278C37.7707 147.574 36.2407 146.258 35.797 145.942C35.0736 145.386 34.5033 144.656 34.1395 143.82C33.7311 142.866 33.6295 141.81 33.8488 140.796C33.9636 140.258 34.117 139.73 34.3078 139.215C34.4812 138.705 34.6546 138.195 34.8178 137.685C35.0196 137.2 35.1236 136.68 35.1238 136.155C35.0422 135.089 34.1344 134.298 33.3133 133.605C32.4004 132.845 31.462 131.86 31.5334 130.585C31.654 129.599 32.0968 128.679 32.7931 127.969C33.4408 127.225 34.2007 126.582 34.7923 125.791C35.2572 125.245 35.5202 124.555 35.5369 123.838C35.5011 123.398 35.3762 122.969 35.1697 122.579C34.6883 121.764 34.2755 120.911 33.9355 120.029C33.6703 119.121 33.7723 118.014 34.5016 117.407C34.8247 117.19 35.1878 117.041 35.5697 116.966C35.9515 116.892 36.3443 116.894 36.7252 116.974C37.4546 117.086 38.1498 117.359 38.7601 117.774C40.7338 119.003 41.7691 121.462 43.8601 122.436C44.6929 122.746 45.5446 123.003 46.4101 123.206C46.8465 123.31 47.2564 123.504 47.6137 123.775C47.9711 124.047 48.2681 124.389 48.4858 124.782C49.1947 126.404 47.629 128.27 48.1033 129.974C48.5164 131.504 49.9291 132.121 50.6533 133.493C50.9542 134.098 51.0525 134.785 50.9338 135.451C50.8161 136.58 50.4928 137.677 49.9801 138.689C49.3938 139.724 48.7449 140.722 48.037 141.678L38.347 147.278Z" fill="#CC7E9A"/>
<path opacity="0.1" d="M38.347 147.278C37.7707 147.574 36.2407 146.258 35.797 145.942C35.0736 145.386 34.5033 144.656 34.1395 143.82C33.7311 142.866 33.6295 141.81 33.8488 140.796C33.9636 140.258 34.117 139.73 34.3078 139.215C34.4812 138.705 34.6546 138.195 34.8178 137.685C35.0196 137.2 35.1236 136.68 35.1238 136.155C35.0422 135.089 34.1344 134.298 33.3133 133.605C32.4004 132.845 31.462 131.86 31.5334 130.585C31.654 129.599 32.0968 128.679 32.7931 127.969C33.4408 127.225 34.2007 126.582 34.7923 125.791C35.2572 125.245 35.5202 124.555 35.5369 123.838C35.5011 123.398 35.3762 122.969 35.1697 122.579C34.6883 121.764 34.2755 120.911 33.9355 120.029C33.6703 119.121 33.7723 118.014 34.5016 117.407C34.8247 117.19 35.1878 117.041 35.5697 116.966C35.9515 116.892 36.3443 116.894 36.7252 116.974C37.4546 117.086 38.1498 117.359 38.7601 117.774C40.7338 119.003 41.7691 121.462 43.8601 122.436C44.6929 122.746 45.5446 123.003 46.4101 123.206C46.8465 123.31 47.2564 123.504 47.6137 123.775C47.9711 124.047 48.2681 124.389 48.4858 124.782C49.1947 126.404 47.629 128.27 48.1033 129.974C48.5164 131.504 49.9291 132.121 50.6533 133.493C50.9542 134.098 51.0525 134.785 50.9338 135.451C50.8161 136.58 50.4928 137.677 49.9801 138.689C49.3938 139.724 48.7449 140.722 48.037 141.678L38.347 147.278Z" fill="black"/>
<path d="M43.9213 144.371C43.8878 144.368 43.8551 144.359 43.8252 144.344C43.7952 144.329 43.7685 144.307 43.7467 144.282C43.7249 144.256 43.7084 144.227 43.6981 144.195C43.6878 144.163 43.6839 144.129 43.6867 144.095C44.6098 134.099 40.4482 122.798 37.174 119.411C37.1331 119.362 37.1124 119.298 37.1162 119.234C37.1199 119.17 37.1478 119.11 37.1943 119.065C37.2407 119.02 37.3023 118.995 37.3667 118.994C37.431 118.993 37.4934 119.016 37.5412 119.059C40.8766 122.512 45.1249 134.002 44.1712 144.141C44.165 144.204 44.1361 144.261 44.09 144.304C44.0439 144.346 43.9839 144.37 43.9213 144.371Z" fill="white"/>
<path d="M42.9268 132.044H42.8554C40.5138 131.276 38.0959 130.763 35.644 130.514C35.6106 130.512 35.5782 130.502 35.5484 130.487C35.5187 130.472 35.4924 130.451 35.471 130.425C35.4496 130.399 35.4336 130.37 35.4239 130.338C35.4142 130.306 35.411 130.272 35.4145 130.239C35.4163 130.205 35.425 130.172 35.4401 130.142C35.4552 130.112 35.4763 130.086 35.5022 130.064C35.528 130.042 35.558 130.026 35.5903 130.017C35.6226 130.008 35.6565 130.005 35.6899 130.009C38.186 130.265 40.6468 130.791 43.0288 131.58C43.0596 131.591 43.0879 131.609 43.112 131.631C43.1361 131.653 43.1556 131.68 43.1693 131.71C43.1831 131.74 43.1908 131.772 43.192 131.805C43.1933 131.838 43.1881 131.87 43.1767 131.901C43.1542 131.947 43.1184 131.986 43.0738 132.011C43.0292 132.037 42.978 132.048 42.9268 132.044Z" fill="white"/>
<path d="M210.508 143.254L205.943 140.617C205.943 140.617 204.827 130.84 205.566 123.277C206.612 112.633 213.486 99.8172 221.682 102.836C229.878 105.856 217.923 116.683 215.261 125.71C212.599 134.737 210.508 143.254 210.508 143.254Z" fill="#CC7E9A"/>
<path opacity="0.2" d="M210.508 143.254L205.943 140.617C205.943 140.617 204.827 130.84 205.566 123.277C206.612 112.633 213.486 99.8172 221.682 102.836C229.878 105.856 217.923 116.683 215.261 125.71C212.599 134.737 210.508 143.254 210.508 143.254Z" fill="black"/>
<path d="M208.106 142.142C208.142 142.141 208.178 142.132 208.21 142.117C208.243 142.102 208.273 142.081 208.298 142.054C208.322 142.028 208.341 141.997 208.354 141.963C208.367 141.929 208.372 141.893 208.371 141.856C207.57 118.213 219.341 106.32 219.458 106.202C219.484 106.177 219.505 106.146 219.519 106.112C219.533 106.079 219.541 106.043 219.541 106.006C219.541 105.969 219.533 105.933 219.519 105.9C219.505 105.866 219.484 105.835 219.458 105.81C219.406 105.758 219.335 105.729 219.262 105.729C219.189 105.729 219.118 105.758 219.066 105.81C218.948 105.927 207.004 117.994 207.815 141.877C207.816 141.914 207.825 141.95 207.84 141.983C207.856 142.016 207.878 142.046 207.905 142.071C207.932 142.095 207.964 142.114 207.998 142.127C208.033 142.139 208.069 142.144 208.106 142.142Z" fill="white"/>
<path d="M213.379 144.896L210.12 143.019C210.12 143.019 209.57 136.313 212.859 128.158C215.72 121.064 222.824 115.178 226.4 116.428C229.975 117.677 229.888 120.202 228.144 122.859C226.4 125.516 215.812 131.84 213.379 144.896Z" fill="#CC7E9A"/>
<path opacity="0.1" d="M213.379 144.896L210.12 143.019C210.12 143.019 209.57 136.313 212.859 128.158C215.72 121.064 222.824 115.178 226.4 116.428C229.975 117.677 229.888 120.202 228.144 122.859C226.4 125.516 215.812 131.84 213.379 144.896Z" fill="black"/>
<path d="M211.65 144.182C211.723 144.182 211.793 144.153 211.845 144.101C211.897 144.05 211.926 143.98 211.926 143.907C211.859 128.959 225.9 118.85 226.042 118.753C226.092 118.707 226.124 118.644 226.131 118.577C226.138 118.509 226.12 118.441 226.08 118.386C226.041 118.33 225.983 118.291 225.917 118.275C225.851 118.259 225.781 118.268 225.721 118.3C225.578 118.402 211.308 128.673 211.375 143.907C211.375 143.98 211.404 144.05 211.455 144.101C211.507 144.153 211.577 144.182 211.65 144.182Z" fill="white"/>
<path d="M71.1195 174.359C71.1195 174.359 70.8033 164.975 72.0324 162.165C72.8314 160.404 73.9922 158.831 75.4392 157.549C75.4392 157.549 73.0422 161.078 72.8892 164.47C72.7362 167.861 73.2513 174.359 73.2513 174.359C73.2513 174.359 71.9763 175.394 71.1195 174.359Z" fill="#CC7E9A"/>
<path opacity="0.1" d="M71.1195 174.359C71.1195 174.359 70.8033 164.975 72.0324 162.165C72.8314 160.404 73.9922 158.831 75.4392 157.549C75.4392 157.549 73.0422 161.078 72.8892 164.47C72.7362 167.861 73.2513 174.359 73.2513 174.359C73.2513 174.359 71.9763 175.394 71.1195 174.359Z" fill="black"/>
<path d="M70.8341 176.659C70.8341 176.659 71.3441 176.689 71.8235 175.889C71.8847 175.578 71.2064 166.199 68.3708 162.746C65.5352 159.293 60.0425 158.426 60.0425 158.426C60.0425 158.426 65.5403 160.415 67.8149 165.031C69.5897 168.631 69.911 176.251 69.911 176.251L70.8341 176.659Z" fill="#CC7E9A"/>
<path opacity="0.15" d="M70.8341 176.659C70.8341 176.659 71.3441 176.689 71.8235 175.889C71.8847 175.578 71.2064 166.199 68.3708 162.746C65.5352 159.293 60.0425 158.426 60.0425 158.426C60.0425 158.426 65.5403 160.415 67.8149 165.031C69.5897 168.631 69.911 176.251 69.911 176.251L70.8341 176.659Z" fill="black"/>
<path d="M69.1509 176.271C69.1509 176.271 65.5809 165.954 57.9309 164.143C57.9309 164.143 62.2404 163.97 65.3157 166.928C68.391 169.886 70.5279 174.491 70.8543 176.659C70.8339 176.659 69.7425 177.822 69.1509 176.271Z" fill="#CC7E9A"/>
<path opacity="0.1" d="M69.1509 176.271C69.1509 176.271 65.5809 165.954 57.9309 164.143C57.9309 164.143 62.2404 163.97 65.3157 166.928C68.391 169.886 70.5279 174.491 70.8543 176.659C70.8339 176.659 69.7425 177.822 69.1509 176.271Z" fill="black"/>
<path d="M190.551 172.304C190.551 172.304 189.577 162.144 187.864 159.288C186.755 157.503 185.283 155.97 183.544 154.79C183.544 154.79 186.604 158.263 187.247 161.894C187.889 165.526 188.267 172.604 188.267 172.604C188.267 172.604 189.771 173.543 190.551 172.304Z" fill="#CC7E9A"/>
<path opacity="0.15" d="M190.551 172.304C190.551 172.304 189.577 162.144 187.864 159.288C186.755 157.503 185.283 155.97 183.544 154.79C183.544 154.79 186.604 158.263 187.247 161.894C187.889 165.526 188.267 172.604 188.267 172.604C188.267 172.604 189.771 173.543 190.551 172.304Z" fill="black"/>
<path d="M191.179 174.741C191.179 174.741 190.669 174.843 190.006 174.048C189.893 173.726 189.312 163.526 191.888 159.406C194.463 155.285 200.262 153.586 200.262 153.586C200.262 153.586 194.611 156.499 192.806 161.787C191.398 165.918 192.117 174.196 192.117 174.196L191.179 174.741Z" fill="#CC7E9A"/>
<path opacity="0.2" d="M191.179 174.741C191.179 174.741 190.669 174.843 190.006 174.048C189.893 173.726 189.312 163.526 191.888 159.406C194.463 155.285 200.262 153.586 200.262 153.586C200.262 153.586 194.611 156.499 192.806 161.787C191.398 165.918 192.117 174.196 192.117 174.196L191.179 174.741Z" fill="black"/>
<path d="M192.938 174.089C192.938 174.089 195.33 162.471 203.357 159.446C203.357 159.446 198.691 159.859 195.789 163.48C192.887 167.102 191.23 172.36 191.199 174.741C191.179 174.741 192.52 175.843 192.938 174.089Z" fill="#CC7E9A"/>
<path opacity="0.15" d="M192.938 174.089C192.938 174.089 195.33 162.471 203.357 159.446C203.357 159.446 198.691 159.859 195.789 163.48C192.887 167.102 191.23 172.36 191.199 174.741C191.179 174.741 192.52 175.843 192.938 174.089Z" fill="black"/>
<path d="M123.644 106.503C119.458 106.504 115.365 105.264 111.884 102.938C108.402 100.613 105.689 97.3077 104.086 93.4401C102.484 89.5725 102.064 85.3165 102.881 81.2105C103.697 77.1044 105.713 73.3327 108.673 70.3724C111.634 67.4121 115.405 65.3962 119.511 64.5797C123.617 63.7632 127.873 64.1828 131.741 65.7854C135.609 67.3879 138.914 70.1015 141.239 73.5828C143.565 77.0642 144.805 81.1569 144.804 85.3434C144.797 90.9533 142.566 96.3314 138.599 100.298C134.632 104.265 129.254 106.497 123.644 106.503ZM123.644 64.6119C119.544 64.6119 115.536 65.8278 112.126 68.1058C108.717 70.3838 106.06 73.6216 104.491 77.4098C102.922 81.198 102.511 85.3664 103.311 89.3879C104.111 93.4094 106.085 97.1034 108.985 100.003C111.884 102.902 115.578 104.877 119.6 105.677C123.621 106.476 127.79 106.066 131.578 104.497C135.366 102.928 138.604 100.27 140.882 96.8612C143.16 93.4519 144.376 89.4437 144.376 85.3434C144.37 79.8467 142.184 74.5767 138.298 70.69C134.411 66.8032 129.141 64.6173 123.644 64.6119Z" fill="#CC7E9A"/>
<g opacity="0.15">
<path opacity="0.15" d="M123.644 117.387C117.305 117.388 111.108 115.509 105.837 111.988C100.566 108.467 96.4576 103.461 94.0313 97.605C91.605 91.7488 90.97 85.3045 92.2064 79.0872C93.4428 72.87 96.4952 67.159 100.978 62.6767C105.46 58.1943 111.171 55.1419 117.388 53.9055C123.605 52.669 130.05 53.3041 135.906 55.7304C141.762 58.1567 146.767 62.2652 150.289 67.5363C153.81 72.8075 155.689 79.0044 155.688 85.3434C155.677 93.8385 152.297 101.983 146.29 107.99C140.283 113.996 132.139 117.376 123.644 117.387ZM123.644 53.7234C117.39 53.7234 111.277 55.5779 106.077 59.0523C100.877 62.5268 96.8245 67.4652 94.4313 73.243C92.038 79.0208 91.4118 85.3785 92.6319 91.5121C93.852 97.6458 96.8635 103.28 101.286 107.702C105.708 112.124 111.342 115.136 117.476 116.356C123.609 117.576 129.967 116.95 135.745 114.556C141.523 112.163 146.461 108.11 149.935 102.911C153.41 97.7106 155.264 91.5972 155.264 85.3434C155.256 76.9597 151.922 68.9218 145.994 62.9936C140.066 57.0655 132.028 53.7315 123.644 53.7234Z" fill="#CC7E9A"/>
</g>
<g opacity="0.3">
<path opacity="0.3" d="M123.644 113.495C118.075 113.495 112.631 111.844 108.001 108.75C103.37 105.656 99.7612 101.258 97.6302 96.1124C95.4992 90.967 94.9419 85.3053 96.0287 79.8432C97.1156 74.3812 99.7978 69.364 103.736 65.4264C107.674 61.4888 112.692 58.8075 118.154 57.7216C123.617 56.6357 129.278 57.1941 134.423 59.326C139.568 61.4579 143.965 65.0677 147.059 69.6988C150.152 74.3298 151.803 79.7742 151.801 85.3434C151.792 92.8077 148.822 99.9636 143.544 105.241C138.265 110.519 131.109 113.487 123.644 113.495ZM123.644 57.6147C118.16 57.6147 112.799 59.241 108.239 62.2878C103.679 65.3347 100.125 69.6653 98.0264 74.7321C95.9277 79.7988 95.3786 85.3742 96.4485 90.753C97.5184 96.1318 100.159 101.073 104.037 104.951C107.915 108.828 112.856 111.469 118.235 112.539C123.614 113.609 129.189 113.06 134.256 110.961C139.322 108.863 143.653 105.309 146.7 100.749C149.747 96.1887 151.373 90.8276 151.373 85.3434C151.361 77.9944 148.435 70.9501 143.237 65.7551C138.039 60.56 130.993 57.6381 123.644 57.63V57.6147Z" fill="#CC7E9A"/>
</g>
<g opacity="0.6">
<path opacity="0.6" d="M123.644 110.084C118.751 110.079 113.968 108.625 109.902 105.903C105.835 103.181 102.666 99.3148 100.797 94.7926C98.9271 90.2703 98.4403 85.2953 99.3978 80.4964C100.355 75.6975 102.714 71.2902 106.176 67.8318C109.638 64.3734 114.048 62.0191 118.848 61.0665C123.648 60.1139 128.622 60.6059 133.142 62.4802C137.663 64.3544 141.526 67.5269 144.243 71.5965C146.961 75.666 148.411 80.4499 148.41 85.3434C148.402 91.9068 145.789 98.1987 141.146 102.837C136.502 107.476 130.208 110.082 123.644 110.084ZM123.644 61.0266C118.835 61.0256 114.133 62.4509 110.133 65.1223C106.134 67.7936 103.016 71.591 101.175 76.0342C99.3335 80.4775 98.8513 85.3669 99.789 90.0843C100.727 94.8016 103.042 99.1349 106.443 102.536C109.843 105.937 114.176 108.254 118.893 109.193C123.61 110.131 128.5 109.65 132.944 107.81C137.387 105.969 141.185 102.853 143.857 98.8536C146.53 94.8546 147.956 90.153 147.956 85.3434C147.949 78.8971 145.386 72.7168 140.828 68.1581C136.27 63.5994 130.091 61.0347 123.644 61.0266Z" fill="#CC7E9A"/>
</g>
<path d="M140.709 84.3234C139.975 74.1744 133.11 68.2125 123.644 68.2125C120.106 68.213 116.655 69.3077 113.763 71.3465C110.872 73.3853 108.682 76.2685 107.493 79.6008V79.6467C107.437 79.7997 107.386 79.9578 107.335 80.1159C106.559 82.2919 105.226 84.2263 103.469 85.7259C100.878 87.8169 97.6447 87.1692 94.5184 86.8122C93.5602 86.6828 92.5933 86.6282 91.6267 86.649C87.4804 86.8071 83.3749 89.5356 84.247 94.1919C84.4918 95.5026 85.2007 96.7878 84.9304 98.0883C84.6601 99.3888 83.6146 100.215 82.5079 100.796C81.4012 101.378 80.1772 101.771 79.1674 102.515C78.4937 103.022 77.9347 103.666 77.5269 104.405C77.1191 105.143 76.8717 105.959 76.801 106.799C76.6021 109.109 77.8465 111.659 79.4581 113.251C82.735 116.398 86.8789 118.492 91.3564 119.264C96.2932 120.197 101.48 119.957 106.483 119.488C108.383 119.31 110.272 119.023 112.139 118.626C120.635 116.81 130.861 111.593 134.778 106.452C137.834 102.604 139.815 98.0147 140.52 93.1515C140.928 90.2263 140.992 87.2634 140.709 84.3234Z" fill="#263238"/>
<path d="M105.203 150.113C102.444 155.688 95.6354 172.451 92.9324 184.049C90.4079 194.907 92.8406 200.088 94.9724 201.776C98.3282 204.413 106.498 206.086 112.873 192.515C114.867 188.272 122.375 175.175 122.375 175.175C122.375 175.175 127.934 173.17 129.846 171.671C129.846 171.671 148.385 172.212 157.386 170.365C166.388 168.519 171.921 158.375 168.045 156.672C161.731 153.887 151.47 151.419 136.527 150.45L105.203 150.113Z" fill="#37474F"/>
<path d="M146.819 161.012C142.764 161.95 138.536 164.536 135.119 166.734C135.323 165.54 135.284 164.318 135.007 163.139C134.877 164.058 134.59 164.948 134.161 165.77C133.753 166.755 132.967 167.265 132.024 167.749C132.024 167.749 124.261 171.217 121.987 169.677C120.171 168.224 117.936 167.394 115.612 167.311C117.55 168.616 123.17 172.64 121.176 177.307L122.395 175.165C122.395 175.165 127.954 173.16 129.866 171.661C129.866 171.661 140.23 171.962 149.221 171.345L155.79 161.231C155.79 161.231 152.459 159.701 146.819 161.012Z" fill="#263238"/>
<path d="M131.07 177.868C134.196 177.001 136.762 176.134 137.787 174.267C138.812 172.4 141.204 170.391 145.115 172.227C149.558 174.267 154.53 172.905 158.044 172.778C161.558 172.65 164.006 175.761 165.24 178.444C167.316 182.968 163.577 180.749 160.298 180.163C157.019 179.576 149.303 180.499 146.227 181.111C141.194 182.131 132.488 188.032 123.221 194.82C123.221 194.82 118.213 183.722 117.581 181.759C117.586 181.739 127.954 178.74 131.07 177.868Z" fill="#B16668"/>
<path d="M164.031 176.302C162.659 174.338 160.645 172.66 158.049 172.757C154.535 172.885 149.563 174.287 145.121 172.207C141.209 170.391 138.812 172.4 137.792 174.247C136.772 176.093 134.222 176.98 131.075 177.847C127.928 178.714 117.586 181.718 117.586 181.718C117.785 182.33 117.989 182.845 118.81 184.753C123.818 182.906 135.757 179.061 145.452 177.286C156.305 175.318 161.282 173.629 164.031 176.302Z" fill="#9A4A4D"/>
<path d="M94.9926 201.776C96.5226 203.883 102.699 205.78 108.671 203.883C115.301 201.776 122.181 196.044 125.384 193.229C125.384 193.229 125.108 188.731 119.264 182.289C115.786 183.614 112.381 185.123 109.064 186.808C104.754 194.825 98.7207 192.739 97.0785 195.58C94.35 200.318 94.9926 201.776 94.9926 201.776Z" fill="#37474F"/>
<path d="M110.67 190.011C111.652 188.841 112.789 187.811 114.051 186.951C116.126 185.673 118.354 184.662 120.681 183.942C120.25 183.401 119.779 182.847 119.269 182.279C116.889 183.187 114.531 184.187 112.195 185.278C111.012 185.829 109.88 186.15 108.875 187.012C107.969 187.788 107.202 188.712 106.605 189.746C106.319 190.169 106.165 190.668 106.162 191.179C106.208 191.558 106.354 191.919 106.585 192.224C106.72 192.469 106.922 192.67 107.168 192.803C107.414 192.936 107.693 192.996 107.972 192.974C108.343 192.835 108.657 192.577 108.865 192.239C109.446 191.5 110.048 190.74 110.67 190.011Z" fill="#263238"/>
<path d="M139.796 165.276C131.442 170.437 125.664 172.416 122.635 171.646C120.595 171.136 117.081 169.473 114.985 173.237C113.763 175.333 112.12 177.152 110.16 178.582C108.727 179.673 107.003 180.622 105.902 182.095C104.8 183.569 104.596 185.207 104.616 186.935C104.616 188.022 104.708 189.169 105.32 190.067C105.493 190.342 105.728 190.572 106.008 190.738C106.287 190.904 106.602 191.001 106.927 191.02C108.263 191.02 108.936 189.164 109.65 188.292C110.556 187.225 111.633 186.317 112.838 185.604C115.275 184.12 118.019 183.263 120.681 182.289C123.491 181.269 134.14 178.209 142.831 176.225L139.796 165.276Z" fill="#B16668"/>
<path d="M164.098 155.468C175.537 157.743 174.094 165.383 169.708 168.917C165.694 172.13 159.849 173.155 153.204 174.318C146.559 175.481 142.494 176.307 142.494 176.307C142.494 176.307 139.526 171.258 139.832 165.276C143.657 162.593 148.849 160.135 155.912 161.17L164.098 155.468Z" fill="#37474F"/>
<path d="M131.942 106.59C137.766 107.238 139.964 108.87 141.816 114.872C143.856 121.411 149.889 142.132 149.889 142.132C151.929 143.295 168.866 152.521 170.335 151.603C170.952 151.215 171.722 149.297 172.003 148.624C172.412 147.629 172.753 146.606 173.023 145.564C173.267 144.631 173.471 143.647 174.206 142.953C174.375 142.788 174.575 142.657 174.795 142.57C175.015 142.482 175.249 142.439 175.486 142.443C176.542 142.494 177.041 143.524 177.312 144.452C177.649 145.767 177.863 147.111 177.949 148.466C178.169 150.659 178.352 154.112 177.863 155.249C177.449 156.213 174.803 159.304 172.584 159.936C170.366 160.568 156.264 154.994 147.41 152.362C142.596 150.929 141.851 149.812 140.78 147.375C139.378 144.146 132.401 126.567 132.401 126.567L131.942 106.59Z" fill="#B16668"/>
<path d="M135.757 143.269L137.797 150.542C136.364 155.361 132.661 158.839 122.221 159.589C114.26 160.16 106.411 158.131 103.938 152.862C105.172 147.936 107.085 143.269 108.859 138.582C108.859 138.582 105.096 128.382 105.096 128.321C106.116 127.582 107.911 123.083 108.666 117.611C109.028 115.03 108.808 110.721 107.503 108.089L116.683 106.473L127.531 106.156C130.126 106.299 131.973 106.549 131.973 106.549C133.452 108.477 135.415 112.276 137.96 116.749C139.449 119.36 142.479 125.791 136.16 131.835C136.226 132.692 135.66 141.887 135.757 143.269Z" fill="#CC7E9A"/>
<g opacity="0.8">
<path opacity="0.8" d="M135.757 143.269L137.797 150.542C136.364 155.361 132.661 158.839 122.221 159.589C114.26 160.16 106.411 158.131 103.938 152.862C105.172 147.936 107.085 143.269 108.859 138.582C108.859 138.582 105.096 128.382 105.096 128.321C106.116 127.582 107.911 123.083 108.666 117.611C109.028 115.03 108.808 110.721 107.503 108.089L116.683 106.473L127.531 106.156C130.126 106.299 131.973 106.549 131.973 106.549C133.452 108.477 135.415 112.276 137.96 116.749C139.449 119.36 142.479 125.791 136.16 131.835C136.226 132.692 135.66 141.887 135.757 143.269Z" fill="white"/>
</g>
<g opacity="0.05">
<path opacity="0.05" d="M131.932 157.396C129.612 158.523 126.47 159.283 122.201 159.594C114.245 160.166 106.391 158.131 103.923 152.862C105.152 147.936 107.064 143.274 108.839 138.582C108.839 138.582 105.075 128.382 105.075 128.321C105.148 128.267 105.215 128.206 105.274 128.137L105.366 128.035C105.518 127.844 105.655 127.641 105.774 127.429C105.805 127.378 105.835 127.316 105.871 127.26C105.963 127.087 106.065 126.893 106.167 126.684C106.269 126.475 106.305 126.388 106.371 126.235C106.575 125.771 106.784 125.241 106.988 124.659C107.054 124.46 107.126 124.261 107.192 124.057V124.001C107.233 123.874 107.279 123.741 107.314 123.609C107.396 123.343 107.478 123.099 107.559 122.793C107.722 122.216 107.88 121.594 108.023 120.957C108.054 120.829 108.084 120.707 108.11 120.579L108.809 122.992C108.809 122.992 108.12 128.092 108.809 130.422C109.497 132.753 113.909 138.99 114.255 140.225C114.602 141.459 111.782 141.443 110.14 144.784C108.498 148.124 108.906 153.561 114.286 156.514C121.38 160.405 131.529 157.514 131.932 157.396Z" fill="black"/>
</g>
<path opacity="0.05" d="M115.112 127.714C115.112 127.714 115.806 130.494 119.814 132.223C121.421 132.966 123.217 133.194 124.958 132.876C126.699 132.558 128.3 131.71 129.54 130.448C129.54 130.448 126.516 136.507 119.263 133.763C114.464 131.937 115.112 127.714 115.112 127.714Z" fill="black"/>
<path d="M106.911 127.78C108.439 124.554 109.531 121.14 110.16 117.626C111.236 111.471 109.344 107.778 109.344 107.778C102.683 108.436 100.113 110.395 95.8087 123.456C92.8048 132.564 88.6993 143.677 87.3121 151.429C86.644 155.178 90.1324 172.497 92.0704 178.857C92.5804 180.545 94.8703 183.61 97.8844 184.773C99.9244 185.196 104.463 181.234 105.126 179.877C105.937 177.358 107.503 170.08 106.61 168.111C105.784 166.296 104.127 166.153 102.5 167.749C101.034 169.164 99.874 170.865 99.0931 172.747C98.4097 166.117 97.8844 152.597 97.8844 152.597L106.911 127.78Z" fill="#B16668"/>
<path d="M134.196 77.2191C136.007 78.2901 138.128 81.2532 137.909 90.7953C137.72 98.889 135.099 100.888 133.783 101.464C132.467 102.041 129.928 101.689 127.459 101.276V106.136C127.459 106.136 130.871 110.099 130.657 112.322C130.443 114.546 125.73 115.076 122.533 112.904C119.335 110.731 116.652 106.488 116.652 106.488L116.708 95.319C116.708 95.319 115.255 96.7317 112.792 94.5795C110.752 92.7996 110.073 89.8008 111.654 88.1943C113.235 86.5878 116.173 87.0213 117.295 89.3163L119.605 88.6788C119.596 87.6436 119.882 86.6271 120.429 85.7484C120.977 84.8696 121.763 84.1648 122.696 83.7165C123.15 83.5122 123.619 83.3417 124.098 83.2065C129.474 81.6 132.167 81.4929 134.196 77.2191Z" fill="#B16668"/>
<path d="M119.605 87.5568L117.3 88.1943V91.9887C117.913 91.9887 118.5 91.7453 118.934 91.312C119.367 90.8788 119.61 90.2911 119.61 89.6784L119.605 87.5568Z" fill="#263238"/>
<path d="M127.459 101.276C124.858 100.934 119.503 99.399 118.667 97.2825C119.002 98.3537 119.657 99.2968 120.544 99.9855C122.145 101.352 127.459 102.898 127.459 102.898V101.276Z" fill="#9A4A4D"/>
<path d="M128.148 87.7506C128.095 88.1415 127.912 88.5033 127.629 88.7778C127.345 89.0523 126.978 89.2236 126.585 89.2642C126.193 89.3048 125.798 89.2123 125.465 89.0017C125.131 88.791 124.878 88.4743 124.746 88.1025C125.256 88.4757 125.886 88.6464 126.515 88.5813C127.143 88.5163 127.725 88.2203 128.148 87.7506Z" fill="#263238"/>
<path d="M137.159 87.5925C137.05 87.974 136.815 88.3073 136.492 88.5383C136.169 88.7693 135.778 88.8844 135.382 88.8649C134.985 88.8454 134.607 88.6924 134.309 88.4309C134.01 88.1694 133.809 87.8146 133.737 87.4242C134.185 87.8672 134.781 88.1288 135.41 88.1586C136.043 88.1887 136.664 87.9875 137.159 87.5925Z" fill="#263238"/>
<path d="M126.108 84.4458L123.798 85.7208C123.633 85.4042 123.598 85.0363 123.699 84.6941C123.799 84.3519 124.029 84.0619 124.338 83.8848C124.49 83.8016 124.658 83.7501 124.83 83.7334C125.003 83.7167 125.177 83.7351 125.343 83.7875C125.508 83.8399 125.661 83.9253 125.793 84.0384C125.924 84.1515 126.031 84.2901 126.108 84.4458Z" fill="#263238"/>
<path d="M128.138 95.319L130.601 96.2472C130.548 96.4126 130.461 96.5656 130.348 96.697C130.234 96.8283 130.094 96.9353 129.938 97.0116C129.782 97.0878 129.612 97.1316 129.438 97.1405C129.265 97.1494 129.091 97.1231 128.928 97.0632C128.596 96.9318 128.327 96.6765 128.18 96.351C128.032 96.0255 128.017 95.6554 128.138 95.319Z" fill="#9A4A4D"/>
<path d="M137.287 84.7212L134.778 83.8338C134.828 83.6679 134.912 83.5139 135.024 83.3813C135.136 83.2486 135.273 83.1399 135.428 83.0617C135.583 82.9836 135.752 82.9376 135.925 82.9265C136.098 82.9155 136.272 82.9396 136.435 82.9974C136.77 83.1222 137.045 83.37 137.203 83.6904C137.361 84.0107 137.391 84.3794 137.287 84.7212Z" fill="#263238"/>
<path d="M130.601 86.5266L130.958 93.024L134.349 91.8663L130.601 86.5266Z" fill="#9A4A4D"/>
</svg>
