<svg width="227" height="227" viewBox="0 0 227 227" fill="none" xmlns="http://www.w3.org/2000/svg">
<path d="M113.096 103.739V103.743L113.105 103.748L113.096 103.739Z" fill="#F5F5F5"/>
<path d="M113.15 103.816L113.128 103.838H113.181L113.15 103.816Z" fill="#F5F5F5"/>
<path d="M113.223 103.834V103.839H113.235L113.223 103.834Z" fill="#F5F5F5"/>
<path d="M113.187 103.838H113.217L113.195 103.825L113.187 103.838Z" fill="#F5F5F5"/>
<path d="M113.081 103.82L113.076 103.793L112.932 103.748L113.063 103.834L113.081 103.82Z" fill="#F5F5F5"/>
<path d="M113.087 103.798V103.82L113.105 103.811L113.087 103.798Z" fill="#F5F5F5"/>
<path d="M113.214 103.807L113.209 103.816L113.218 103.82L113.214 103.807Z" fill="#F5F5F5"/>
<path d="M113.191 103.825H113.182L113.187 103.834L113.191 103.825Z" fill="#F5F5F5"/>
<path d="M113.105 103.806L113.113 103.802L113.1 103.798L113.105 103.806Z" fill="#F5F5F5"/>
<path d="M113.204 103.793L113.187 103.802L113.195 103.807L113.204 103.793Z" fill="#F5F5F5"/>
<path d="M107.144 61.29L113.146 103.367L119.098 61.29H119.193L127.147 4.59449C117.754 3.30203 108.225 3.34942 98.8447 4.73523L106.976 61.29H107.144Z" fill="#F5F5F5"/>
<path d="M130.965 64.7586L113.259 103.707L178.554 27.8892C171.342 21.643 163.269 16.4673 154.582 12.5213L130.888 64.7313L130.965 64.7586Z" fill="#F5F5F5"/>
<path d="M72.0362 91.7761L112.828 103.721H112.669L113.064 103.834H113.091V103.812L113.123 103.834H113.069L113.1 103.857H113.123H113.1L113.264 103.93L113.128 103.843L154.16 115.856C154.155 115.887 154.147 115.917 154.138 115.947L208.545 131.937C211.355 122.791 212.83 113.288 212.926 103.721H156.008V103.793L113.255 103.839V103.803L113.441 103.744L113.287 103.843L113.668 103.734H113.482L209.022 75.4139C206.355 66.2108 202.37 57.4423 197.19 49.3816L113.436 103.721H113.291L113.35 103.648L113.241 103.721L113.282 103.489L113.205 103.662V103.721L113.155 103.757V103.721H113.123V103.662L113.046 103.512L113.073 103.703L112.987 103.648L113.032 103.698H112.892L29.4328 49.9809C24.3412 58.0216 20.4345 66.754 17.8331 75.9088L72.0362 91.7988V91.7761ZM113.128 103.825V103.853L112.996 103.766L113.128 103.825Z" fill="#F5F5F5"/>
<path d="M85.0568 71.3824L113.046 103.685L95.2854 64.7767L71.5684 12.9118C62.9513 16.9304 54.9539 22.1621 47.8197 28.4477L85.0477 71.387L85.0568 71.3824Z" fill="#F5F5F5"/>
<path d="M196.614 157.661L149.212 127.056C149.202 127.069 149.195 127.083 149.189 127.097L113.323 104.007L141.285 136.241L141.217 136.3L177.968 178.785C185.149 172.659 191.426 165.547 196.614 157.661Z" fill="#F5F5F5"/>
<path d="M113.209 103.934V103.93L113.205 103.925L113.209 103.934Z" fill="#F5F5F5"/>
<path d="M113.109 103.848L113.105 103.861L113.087 103.852L113.091 103.884L113.096 103.879L113.123 103.875L113.109 103.866L113.118 103.852H113.127L113.123 103.848L113.127 103.839H113.087L113.109 103.848Z" fill="#F5F5F5"/>
<path d="M112.905 103.938L113.072 103.888L113.081 103.848L113.067 103.839L112.905 103.938Z" fill="#F5F5F5"/>
<path d="M112.973 104.021L77.2027 127.229L77.121 127.097L30.241 157.434C35.3805 165.292 41.6025 172.387 48.7233 178.508L90.5231 130.094L112.973 104.021Z" fill="#F5F5F5"/>
<path d="M72.0589 115.983L113.046 103.839L14.074 103.966C14.1445 113.422 15.5647 122.819 18.2916 131.873L72.0498 116.011L72.0589 115.983Z" fill="#F5F5F5"/>
<path d="M72.3358 193.613C80.8952 197.507 89.9669 200.16 99.2762 201.49L113.046 104.166L72.3358 193.613Z" fill="#F5F5F5"/>
<path d="M113.218 103.879V103.862L113.209 103.866L113.218 103.879Z" fill="#F5F5F5"/>
<path d="M127.161 201.576C136.493 200.297 145.594 197.688 154.187 193.831L113.264 104.157L127.161 201.576Z" fill="#F5F5F5"/>
<path d="M113.109 104.002L113.155 104.325L113.2 104.011L113.15 103.912L113.109 104.002Z" fill="#F5F5F5"/>
<path d="M113.205 103.871L113.196 103.875L113.205 103.88V103.871Z" fill="#F5F5F5"/>
<path d="M212.926 217.625C212.926 217.693 168.407 217.743 113.5 217.743C58.5932 217.743 14.074 217.693 14.074 217.625C14.074 217.557 58.566 217.507 113.5 217.507C168.434 217.507 212.926 217.561 212.926 217.625Z" fill="#263238"/>
<path d="M139.523 53.3586C139.523 53.3586 153.933 84.2306 143.087 112.987C132.241 141.743 92.4026 182.962 87.9852 185.159C87.9852 185.159 98.2047 169.101 79.5453 169.233C60.8859 169.365 51.5154 164.82 49.5087 158.278C47.502 151.736 58.5887 130.607 48.3919 125.531C38.195 120.455 25.8008 121.976 17.479 114.935C17.479 114.935 36.8875 113.318 51.2157 111.857C66.2568 110.322 111.457 78.8417 115.107 55.6831" fill="#79C990"/>
<g opacity="0.4">
<path opacity="0.4" d="M139.523 53.3586C139.523 53.3586 153.933 84.2306 143.087 112.987C132.241 141.743 92.4026 182.962 87.9852 185.159C87.9852 185.159 98.2047 169.101 79.5453 169.233C60.8859 169.365 51.5154 164.82 49.5087 158.278C47.502 151.736 58.5887 130.607 48.3919 125.531C38.195 120.455 25.8008 121.976 17.479 114.935C17.479 114.935 36.8875 113.318 51.2157 111.857C66.2568 110.322 111.457 78.8417 115.107 55.6831" fill="black"/>
</g>
<path d="M87.0908 106.517C87.0111 106.588 86.9261 106.651 86.8365 106.708L86.0783 107.221C85.4246 107.675 84.4576 108.284 83.2499 109.037C80.8346 110.517 77.416 112.447 73.5162 114.317C70.1853 115.914 66.776 117.341 63.3011 118.594C61.9664 119.071 60.8813 119.438 60.1231 119.67L59.2515 119.938C59.1517 119.975 59.0482 120.001 58.9427 120.015C59.0355 119.965 59.1328 119.924 59.2333 119.892L60.0914 119.584C60.8405 119.325 61.9074 118.934 63.2421 118.435C65.8935 117.445 69.5164 115.97 73.4163 114.104C77.3161 112.238 80.7257 110.336 83.1637 108.892C84.3804 108.175 85.361 107.575 86.0284 107.158L86.8093 106.681C86.897 106.617 86.9913 106.562 87.0908 106.517Z" fill="#263238"/>
<path d="M99.3533 123.633C99.2557 123.721 99.1526 123.803 99.0446 123.878L98.1366 124.541C97.3421 125.109 96.2071 125.944 94.8179 126.993C92.0303 129.081 88.2485 132.06 84.2442 135.555C80.2399 139.051 76.7805 142.402 74.3334 144.88C73.1121 146.12 72.1315 147.15 71.4596 147.841L70.6832 148.649C70.5937 148.745 70.4982 148.836 70.3972 148.921C70.4741 148.815 70.5575 148.713 70.6469 148.617L71.3915 147.777C72.0452 147.051 73.0077 146.02 74.2154 144.767C76.6306 142.252 80.081 138.865 84.0853 135.378C88.0896 131.892 91.9032 128.913 94.718 126.857C96.1209 125.826 97.274 125.013 98.0821 124.464L98.9901 123.838C99.103 123.756 99.2248 123.687 99.3533 123.633Z" fill="#263238"/>
<path d="M97.6963 128.691C97.6581 128.754 97.6123 128.812 97.5601 128.863L97.1379 129.317C96.7656 129.712 96.2299 130.271 95.5307 130.947C94.1687 132.309 92.2165 134.125 89.9783 136.055C87.7401 137.984 85.6381 139.614 84.0763 140.767C83.3 141.339 82.6644 141.798 82.2194 142.102L81.7064 142.452C81.6478 142.496 81.5837 142.533 81.5157 142.561C81.5157 142.561 81.5702 142.502 81.6792 142.411L82.165 142.029L83.981 140.631C85.5019 139.451 87.5857 137.789 89.8149 135.873C92.044 133.957 94.0098 132.155 95.4082 130.829L97.0607 129.254L97.5147 128.827C97.6328 128.732 97.6872 128.686 97.6963 128.691Z" fill="#263238"/>
<path d="M95.2674 201.576L92.9429 212.091L88.7071 219.872C88.6341 220.005 88.5894 220.151 88.5756 220.302C88.5618 220.453 88.5794 220.605 88.6271 220.748C88.6749 220.892 88.7518 221.024 88.853 221.137C88.9543 221.249 89.0777 221.34 89.2156 221.402C89.375 221.476 89.5497 221.51 89.725 221.502C89.9004 221.494 90.0713 221.444 90.2235 221.357C92.1938 220.217 99.426 215.991 99.5532 215.214C99.6984 214.306 102.731 204.286 102.731 204.286L95.2674 201.576Z" fill="#263238"/>
<path d="M99.8799 214.179C99.7601 214.299 99.6259 214.405 99.4804 214.492L98.3408 215.264L94.5681 217.793L90.7999 220.326C90.3459 220.621 89.9645 220.876 89.6513 221.084C89.511 221.186 89.3584 221.27 89.1973 221.334C89.3138 221.212 89.4432 221.102 89.5832 221.007C89.8419 220.807 90.2188 220.531 90.6909 220.185C91.6307 219.504 92.9609 218.583 94.4228 217.593C95.8847 216.603 97.2467 215.736 98.2364 215.128C98.7313 214.819 99.1444 214.574 99.4168 214.415C99.5613 214.319 99.7168 214.239 99.8799 214.179Z" fill="#455A64"/>
<path d="M141.884 204.091L141.253 212.472C141.253 212.472 149.579 215.932 149.616 217.493H133.272L133.726 203.733L141.884 204.091Z" fill="#263238"/>
<path d="M149.103 216.953C148.895 216.976 148.684 216.976 148.476 216.953L146.769 216.898C145.33 216.853 143.341 216.79 141.14 216.762C138.938 216.735 136.954 216.735 135.51 216.762H133.803C133.594 216.776 133.384 216.767 133.176 216.735C133.383 216.693 133.592 216.672 133.803 216.671C134.202 216.644 134.788 216.617 135.51 216.59C136.949 216.54 138.942 216.508 141.144 216.54C143.346 216.572 145.339 216.653 146.778 216.744C147.496 216.79 148.077 216.835 148.481 216.871C148.69 216.882 148.898 216.91 149.103 216.953Z" fill="#455A64"/>
<path d="M105.287 119.543L90.8544 208.667L104.111 209.467L124.568 119.543H105.287Z" fill="#79C990"/>
<path d="M124.809 115.657L131.469 209.467H143.941V110.14L124.809 115.657Z" fill="#79C990"/>
<path d="M139.428 203.601C139.36 203.601 138.356 185.028 137.181 162.11C136.005 139.192 135.101 120.605 135.169 120.601C135.237 120.596 136.241 139.174 137.417 162.096C138.593 185.019 139.491 203.601 139.428 203.601Z" fill="#263238"/>
<path d="M143.941 203.601L143.845 203.633C143.764 203.633 143.636 203.678 143.478 203.701C143.155 203.755 142.683 203.819 142.116 203.891C140.958 204.032 139.351 204.2 137.576 204.345C134.03 204.668 131.133 204.799 131.138 204.636C131.138 204.636 131.183 204.636 131.265 204.636H131.642L133.004 204.527L137.544 204.132L142.084 203.733C143.237 203.646 143.991 203.592 143.941 203.601Z" fill="#263238"/>
<path d="M113.146 121.64C113.146 121.64 113.146 121.713 113.123 121.854C113.101 121.994 113.073 122.203 113.037 122.467C112.955 123.016 112.833 123.806 112.678 124.818C112.365 126.861 111.893 129.812 111.289 133.444C110.086 140.735 108.334 150.796 106.209 161.874C104.084 172.951 101.978 182.944 100.398 190.167C99.6076 193.776 98.9493 196.696 98.4863 198.707C98.2547 199.706 98.0731 200.486 97.946 201.027L97.8007 201.626C97.7644 201.762 97.7417 201.83 97.7417 201.83C97.7417 201.83 97.7417 201.758 97.778 201.621C97.8143 201.485 97.8461 201.272 97.9006 201.013C98.0141 200.473 98.1821 199.692 98.3955 198.689C98.8495 196.655 99.4578 193.735 100.234 190.131C101.773 182.903 103.866 172.906 105.977 161.828C108.088 150.751 109.868 140.74 111.126 133.431C111.743 129.799 112.242 126.852 112.588 124.805C112.76 123.792 112.896 122.989 112.992 122.457C113.037 122.199 113.073 122.003 113.101 121.849C113.128 121.695 113.146 121.64 113.146 121.64Z" fill="#263238"/>
<path d="M105.446 203.601C105.267 203.629 105.086 203.637 104.906 203.624L103.439 203.587L98.5997 203.392L93.7646 203.165L92.2982 203.097C92.1191 203.096 91.9403 203.086 91.7625 203.065C92.4271 202.973 93.0997 202.95 93.7691 202.997C95.0085 202.997 96.7201 203.074 98.6088 203.156C100.497 203.238 102.209 203.338 103.444 203.419C104.066 203.46 104.565 203.496 104.91 203.528C105.091 203.534 105.27 203.559 105.446 203.601Z" fill="#263238"/>
<g opacity="0.3">
<path opacity="0.3" d="M104.588 123.878L104.874 122.108L124.223 121.014L123.492 124.242L104.588 123.878Z" fill="black"/>
</g>
<g opacity="0.3">
<path opacity="0.3" d="M125.358 124.242L124.809 121L143.941 120.056L143.936 124.641L125.358 124.242Z" fill="black"/>
</g>
<path d="M106.531 53.6537L120.038 50.6483L131.388 51.1159L141.285 54.2621L135.655 82.4918L114.108 84.4032L106.531 53.6537Z" fill="#263238"/>
<path d="M117.985 51.1159L103.775 54.2621L110.88 92.3209C110.88 92.3209 104.524 107.757 103.775 122.108L124.809 121C124.809 121 126.257 102.086 125.763 94.8043C125.268 87.5221 124.936 74.7829 124.936 74.7829L117.985 51.1159Z" fill="#79C990"/>
<path d="M77.3525 72.9533C77.3525 72.9533 82.1739 68.0637 87.2043 65.435C90.9134 63.4964 98.1774 61.063 101.065 57.9395C102.121 56.8304 103.036 55.5953 103.789 54.2621L107.144 72.186L92.8838 74.456C92.8838 74.456 95.004 75.6137 93.6828 76.44L102.618 86.882L96.4931 98.4317C96.4931 98.4317 76.5262 81.2297 77.3525 72.9533Z" fill="#79C990"/>
<path d="M131.388 51.1159C133.115 51.3314 134.821 51.6867 136.491 52.1782C139.514 53.177 144.626 54.2621 144.626 54.2621L137.362 92.8203C137.362 92.8203 147.237 105.024 144.626 119.956C144.626 119.956 130.984 121.032 124.809 121L124.728 74.0837C124.728 74.0837 129.899 67.5007 130.561 61.0449C131.224 54.589 131.388 51.1159 131.388 51.1159Z" fill="#79C990"/>
<path d="M144.626 54.2621C144.626 54.2621 152.766 62.6929 157.247 65.8754C161.728 69.0579 167.367 73.8204 167.367 76.3537C167.277 77.9389 166.954 79.5022 166.409 80.9936C166.096 81.9302 165.636 82.8113 165.047 83.6041C162.991 86.3281 157.543 93.4377 153.942 96.811L144.862 87.2452L153.488 77.7112C153.488 77.7112 141.911 72.9351 141.339 71.6367C140.767 70.3382 144.626 54.2621 144.626 54.2621Z" fill="#79C990"/>
<path d="M124.641 79.1685C124.566 79.1133 124.496 79.051 124.432 78.9824L123.865 78.4149L121.781 76.272L114.717 68.8945L114.676 68.8491V68.7855L115.611 64.863C115.752 64.2773 115.888 63.7007 116.024 63.1287L116.138 63.274H111.498L111.543 63.1287C112.642 59.8009 113.582 56.9498 114.267 54.9068C114.603 53.9125 114.871 53.118 115.066 52.546C115.157 52.2872 115.23 52.092 115.289 51.924C115.31 51.85 115.339 51.7785 115.375 51.7106C115.363 51.7862 115.345 51.8606 115.321 51.9331C115.275 52.0965 115.212 52.3053 115.134 52.5687L114.408 54.934C113.75 56.9861 112.837 59.8463 111.775 63.1832L111.67 63.0379H116.17H116.319L116.288 63.1832C116.151 63.7552 116.011 64.3318 115.874 64.9175C115.548 66.2795 115.234 67.587 114.935 68.84L114.903 68.7356L121.908 76.1721L123.942 78.3649L124.482 78.9642C124.541 79.0273 124.595 79.0957 124.641 79.1685Z" fill="#263238"/>
<path d="M124.809 121C124.746 121 124.659 110.417 124.618 97.3649C124.578 84.3124 124.596 73.7251 124.659 73.7206C124.723 73.716 124.809 84.3033 124.855 97.3649C124.9 110.426 124.877 121 124.809 121Z" fill="#263238"/>
<path d="M133.567 51.4609C133.597 51.5431 133.618 51.6284 133.63 51.7151C133.662 51.9058 133.707 52.1691 133.766 52.4597C133.88 53.1362 134.039 54.0759 134.22 55.2427L135.755 64.7449L135.778 64.8993H135.623L133.117 64.5633L133.24 64.3954L133.753 65.4396C134.098 66.1433 134.438 66.8379 134.765 67.4962L134.797 67.5643L134.752 67.6188L128.151 75.8634L126.171 78.3014L125.626 78.9551C125.569 79.0346 125.502 79.1063 125.427 79.1685C125.477 79.0843 125.533 79.0039 125.595 78.9279L126.103 78.2514L128.028 75.7681L134.579 67.4508V67.5779C134.257 66.9196 133.916 66.2159 133.567 65.5213L133.022 64.468L132.922 64.2682L133.145 64.2955L135.651 64.6405L135.523 64.7722C134.942 60.9722 134.434 57.6535 134.071 55.2382C133.903 54.0669 133.766 53.1225 133.667 52.4461C133.627 52.1434 133.595 51.8937 133.571 51.697C133.563 51.6186 133.562 51.5396 133.567 51.4609Z" fill="#263238"/>
<path d="M122.834 105.664C122.353 105.078 121.413 104.756 120.959 105.346C120.73 105.535 120.563 105.789 120.482 106.074C120.401 106.36 120.409 106.663 120.505 106.944C120.583 107.116 120.694 107.27 120.832 107.398C120.97 107.525 121.132 107.624 121.309 107.689C121.486 107.753 121.673 107.781 121.861 107.772C122.049 107.763 122.233 107.716 122.403 107.634C122.568 107.54 122.711 107.412 122.823 107.258C122.935 107.105 123.014 106.93 123.055 106.745C123.095 106.559 123.097 106.367 123.059 106.181C123.021 105.995 122.944 105.819 122.834 105.664Z" fill="#263238"/>
<path d="M123.089 93.4105C122.607 92.8203 121.668 92.4798 121.214 93.0927C120.985 93.2819 120.819 93.536 120.738 93.8213C120.657 94.1066 120.665 94.4098 120.76 94.6908C120.837 94.8626 120.947 95.0171 121.085 95.1453C121.223 95.2735 121.386 95.3727 121.563 95.437C121.739 95.5014 121.928 95.5296 122.116 95.5199C122.304 95.5103 122.488 95.463 122.657 95.3809C122.822 95.2863 122.965 95.1582 123.077 95.005C123.19 94.8518 123.269 94.6768 123.309 94.4912C123.35 94.3056 123.351 94.1136 123.313 93.9275C123.275 93.7414 123.199 93.5653 123.089 93.4105Z" fill="#263238"/>
<path d="M155.513 92.3981C155.032 91.8125 154.092 91.4901 153.638 92.0803C153.409 92.2691 153.243 92.5232 153.162 92.8086C153.081 93.0941 153.089 93.3974 153.184 93.6784C153.261 93.8502 153.372 94.0047 153.51 94.1329C153.648 94.2611 153.81 94.3603 153.987 94.4246C154.164 94.489 154.352 94.5172 154.54 94.5075C154.728 94.4979 154.912 94.4506 155.082 94.3685C155.247 94.2738 155.39 94.1458 155.502 93.9926C155.614 93.8394 155.693 93.6644 155.734 93.4788C155.774 93.2932 155.776 93.1012 155.738 92.9151C155.7 92.729 155.623 92.5529 155.513 92.3981Z" fill="#263238"/>
<path d="M96.3888 93.524C95.9075 92.9338 94.9678 92.5933 94.5138 93.2062C94.2848 93.395 94.1188 93.649 94.0377 93.9345C93.9566 94.22 93.9643 94.5233 94.0598 94.8043C94.1369 94.9761 94.2477 95.1306 94.3856 95.2588C94.5235 95.387 94.6858 95.4862 94.8627 95.5505C95.0397 95.6149 95.2278 95.6431 95.4158 95.6334C95.6038 95.6238 95.788 95.5765 95.9575 95.4944C96.1222 95.3997 96.2653 95.2717 96.3775 95.1185C96.4898 94.9653 96.5688 94.7902 96.6094 94.6047C96.65 94.4191 96.6514 94.2271 96.6134 94.041C96.5754 93.8549 96.4989 93.6788 96.3888 93.524Z" fill="#263238"/>
<path d="M93.7964 76.608C92.6609 76.0807 91.4487 75.7374 90.2053 75.591C88.9565 75.5236 87.705 75.6522 86.4961 75.9724C86.8183 75.783 87.1696 75.648 87.5358 75.5729C89.3038 75.1204 91.1731 75.2804 92.8385 76.0269C93.1881 76.1654 93.512 76.3619 93.7964 76.608Z" fill="#263238"/>
<path d="M86.4961 74.456C86.773 74.2726 87.0805 74.1404 87.4041 74.0656C88.1801 73.833 88.9866 73.7182 89.7967 73.7251C90.6084 73.7323 91.4146 73.8592 92.1893 74.1019C92.5112 74.1881 92.8177 74.3245 93.0973 74.5059C92.0192 74.1953 90.9083 74.0125 89.7876 73.9611C88.6744 73.9918 87.5691 74.158 86.4961 74.456Z" fill="#263238"/>
<path d="M107.553 74.5014C107.47 74.2536 107.405 74.0002 107.357 73.7432L106.903 71.6639C106.477 69.8797 105.905 67.478 105.274 64.8221C104.643 62.1662 104.134 59.7101 103.853 57.9259C103.707 57.0179 103.607 56.3142 103.557 55.8148C103.515 55.5567 103.496 55.2954 103.498 55.0339C103.567 55.2857 103.617 55.5421 103.648 55.8012C103.725 56.296 103.853 57.0133 104.016 57.8986C104.338 59.6692 104.87 62.0981 105.505 64.7677C106.141 67.4372 106.708 69.8661 107.067 71.6321C107.248 72.5129 107.385 73.2302 107.462 73.7251C107.513 73.981 107.543 74.2406 107.553 74.5014Z" fill="#263238"/>
<path d="M144.122 55.1338C144.112 55.4025 144.079 55.6699 144.022 55.9328C143.936 56.4822 143.818 57.2086 143.673 58.0939C143.369 59.9507 142.96 62.4568 142.511 65.2217C142.061 67.9865 141.603 70.5199 141.276 72.3359C141.103 73.2439 140.958 73.9793 140.849 74.4878C140.808 74.7531 140.744 75.0144 140.658 75.2687C140.668 74.9963 140.695 74.7248 140.74 74.456C140.831 73.9067 140.949 73.1803 141.09 72.295C141.394 70.4336 141.807 67.932 142.256 65.1672C142.706 62.4023 143.164 59.869 143.491 58.0485C143.664 57.1405 143.809 56.4095 143.914 55.901C143.966 55.6409 144.036 55.3846 144.122 55.1338Z" fill="#263238"/>
<path d="M159.608 73.0305C159.608 73.0713 159.104 73.0305 158.305 73.0713C157.267 73.0804 156.262 73.4368 155.45 74.0837C154.708 74.8111 154.159 75.7112 153.852 76.7033C153.725 77.1206 153.573 77.5299 153.398 77.9291C153.448 77.4922 153.548 77.0626 153.697 76.6488C153.971 75.6043 154.525 74.6546 155.3 73.9021C155.754 73.5105 156.293 73.2306 156.875 73.0849C157.342 72.9647 157.823 72.9037 158.305 72.9033C158.627 72.9002 158.949 72.9184 159.268 72.9578C159.385 72.9598 159.501 72.9845 159.608 73.0305Z" fill="#263238"/>
<path d="M161.774 75.1506C161.774 75.1915 161.274 75.1506 160.475 75.2051C158.388 75.3263 156.371 75.9983 154.628 77.1528C153.956 77.6068 153.579 77.9155 153.552 77.8837C153.525 77.8519 153.625 77.7793 153.788 77.6249C154.023 77.4048 154.271 77.2001 154.533 77.012C156.262 75.76 158.336 75.0705 160.471 75.0371C160.791 75.0318 161.111 75.047 161.429 75.0825C161.547 75.0835 161.664 75.1066 161.774 75.1506Z" fill="#263238"/>
<path d="M114.281 93.4105C113.754 93.2788 113.241 93.0995 112.746 92.8748C112.226 92.7219 111.722 92.5213 111.239 92.2755C111.788 92.2955 112.328 92.4235 112.828 92.6523C113.356 92.8099 113.849 93.0673 114.281 93.4105Z" fill="#263238"/>
<path d="M114.862 88.8478C114.898 88.9023 113.836 89.6287 112.642 90.6638C111.448 91.6989 110.567 92.6342 110.517 92.5842C111.068 91.7916 111.732 91.0835 112.487 90.4822C113.194 89.8232 113.994 89.2724 114.862 88.8478Z" fill="#263238"/>
<path d="M144.626 119.956C144.626 120.024 135.487 120.555 124.196 121.15C112.905 121.745 103.766 122.176 103.766 122.108C103.766 122.04 112.905 121.509 124.196 120.914C135.487 120.319 144.622 119.892 144.626 119.956Z" fill="#263238"/>
<g opacity="0.3">
<path opacity="0.3" d="M153.052 77.466C152.767 76.5889 152.767 75.6436 153.055 74.7669C153.342 73.8903 153.901 73.1279 154.65 72.5901C154.959 72.339 155.353 72.2199 155.749 72.2586C155.845 72.2726 155.937 72.3068 156.019 72.3589C156.101 72.411 156.17 72.4799 156.224 72.561C156.277 72.6421 156.312 72.7336 156.327 72.8294C156.343 72.9251 156.337 73.0231 156.312 73.1167C156.179 73.3292 155.986 73.4981 155.758 73.6025C155.068 74.074 154.547 74.753 154.269 75.5411C153.994 76.3234 153.803 77.1332 153.702 77.9563" fill="black"/>
</g>
<g opacity="0.3">
<path opacity="0.3" d="M111.652 63.1469C111.734 63.392 113.359 63.5782 113.668 64.2501C113.907 64.9538 113.907 65.7165 113.668 66.4202C113.433 67.1221 113.32 67.8593 113.336 68.5994C113.473 69.916 114.553 70.9103 115.561 71.7774C118.376 74.1791 121.804 76.7714 124.641 79.1776C122.126 76.1812 118.848 73.094 116.079 70.37C115.64 69.9974 115.29 69.5322 115.053 69.008C114.889 68.2963 114.933 67.5525 115.18 66.8651C115.416 65.9359 115.655 65.0053 115.897 64.073C115.956 63.8324 116.097 63.4284 116.129 63.2967C115.793 63.238 115.452 63.2092 115.112 63.2104C113.96 63.1228 112.805 63.1137 111.652 63.1832" fill="black"/>
</g>
<path d="M96.0164 94.6182C96.0489 94.4884 96.0977 94.3633 96.1616 94.2459C96.2706 94.0143 96.4386 93.6829 96.6565 93.2789C97.236 92.2311 97.8884 91.2253 98.6087 90.2688C99.3255 89.3063 100.11 88.396 100.956 87.5448C101.283 87.2225 101.555 86.9683 101.75 86.8003C101.946 86.6323 102.055 86.546 102.068 86.5597C101.759 86.9453 101.428 87.3136 101.078 87.6629C100.461 88.3348 99.6347 89.2837 98.8085 90.3869C97.9822 91.4901 97.2876 92.5615 96.8154 93.3379C96.5749 93.7803 96.3081 94.2078 96.0164 94.6182Z" fill="#263238"/>
<path d="M99.3805 83.3726C99.4078 83.4043 98.8857 83.9083 98.1048 84.78C96.0646 87.0533 94.4127 89.647 93.2152 92.4571C92.7612 93.5331 92.5161 94.2186 92.4797 94.2095C92.5036 94.0394 92.5447 93.872 92.6023 93.7101C92.6931 93.3923 92.8475 92.9429 93.0563 92.3935C94.1794 89.5254 95.8511 86.9038 97.9777 84.6755C98.3863 84.2488 98.7268 83.9219 98.9765 83.704C99.0999 83.5804 99.2353 83.4694 99.3805 83.3726Z" fill="#263238"/>
<path d="M157.897 92.5524C157.762 92.4429 157.64 92.3179 157.534 92.1802L156.594 91.136C155.795 90.2597 154.664 89.0657 153.384 87.7854C152.104 86.5052 150.905 85.3792 150.024 84.5847L148.976 83.645C148.838 83.5388 148.713 83.4169 148.603 83.2818C148.759 83.3595 148.904 83.4572 149.035 83.5723C149.303 83.7721 149.679 84.0717 150.133 84.4576C151.041 85.2249 152.263 86.3372 153.547 87.6356C154.832 88.9341 155.949 90.1326 156.725 91.0452C157.111 91.4992 157.411 91.876 157.633 92.1393C157.737 92.2665 157.825 92.4051 157.897 92.5524Z" fill="#263238"/>
<path d="M101.324 89.2927L104.297 90.8954L110.894 92.7658C110.894 92.7658 109.532 101.791 108.674 102.563C107.816 103.335 98.1775 95.2265 98.1775 95.2265L101.324 89.2927Z" fill="#FFD59D"/>
<path d="M146.292 88.7525L144.145 90.4232L137.957 93.3697C137.957 93.3697 140.817 102.037 141.78 102.654C142.742 103.271 150.905 93.6738 150.905 93.6738L146.292 88.7525Z" fill="#FFD59D"/>
<path d="M115.829 23.608C115.743 25.9325 112.651 27.3399 112.687 29.6644C112.687 30.6586 113.323 31.5575 113.445 32.5473C113.609 33.8775 112.864 35.1305 112.587 36.4426C112.024 39.1666 113.595 41.9995 115.929 43.4796C118.262 44.9596 121.186 45.2411 123.924 44.8688" fill="#263238"/>
<path d="M134.525 23.0541C134.434 24.3026 135.256 25.4149 136.087 26.3502C136.917 27.2854 137.839 28.2615 138.016 29.51C138.334 31.7028 136.2 33.7368 136.631 35.9114C136.867 37.0737 137.821 38.0089 137.993 39.1848C138.166 40.3606 137.539 41.4548 136.795 42.2992C136.05 43.1436 135.165 43.0347 134.498 43.9699C133.721 45.0195 132.735 45.8961 131.601 46.5441C129.195 47.8652 126.307 45.9584 125.145 45.6361" fill="#263238"/>
<path d="M115.361 24.97C115.33 23.8396 116.374 22.9633 117.427 22.5502C118.48 22.1371 119.652 21.9827 120.605 21.3471C121.436 20.7887 121.994 19.917 122.698 19.2042C123.565 18.3256 124.651 17.6932 125.843 17.3717C127.035 17.0502 128.291 17.0511 129.482 17.3744C130.674 17.6977 131.758 18.3317 132.624 19.2116C133.49 20.0915 134.107 21.1857 134.411 22.3822C134.815 23.9894 134.538 25.8962 133.267 26.9631C131.796 28.207 129.612 27.9301 127.724 27.5442C125.835 27.1583 123.683 26.786 122.126 27.8938C121.177 28.5657 120.632 29.6508 120.051 30.6586C119.47 31.6665 118.739 32.6926 117.641 33.0694C116.542 33.4462 115.053 32.797 115.007 31.6347" fill="#263238"/>
<path d="M119.82 25.1925C119.348 25.2435 118.913 25.4696 118.601 25.8261C118.288 26.1825 118.12 26.6434 118.131 27.1174L119.261 52.664C119.307 55.6786 123.72 57.3765 126.952 57.2994C130.212 57.2267 130.321 55.6241 130.357 52.7594C130.425 47.9606 130.421 46.1627 130.425 46.19C130.43 46.2172 134.543 45.4954 135.388 40.1155C135.805 37.4369 135.66 33.0512 135.428 29.4646C135.22 26.2412 133.072 22.2869 129.858 22.6319L119.82 25.1925Z" fill="#FFD59D"/>
<path d="M133.721 32.5427C133.724 32.7223 133.656 32.8956 133.532 33.0255C133.408 33.1554 133.238 33.2314 133.058 33.2374C132.971 33.2448 132.883 33.2346 132.799 33.2074C132.716 33.1802 132.638 33.1365 132.572 33.079C132.505 33.0214 132.451 32.9512 132.412 32.8723C132.373 32.7935 132.351 32.7077 132.346 32.6199C132.343 32.4377 132.413 32.2619 132.54 32.1309C132.666 31.9999 132.84 31.9243 133.022 31.9208C133.109 31.9152 133.196 31.927 133.278 31.9553C133.361 31.9837 133.436 32.0281 133.501 32.0859C133.566 32.1437 133.619 32.2139 133.657 32.2923C133.695 32.3707 133.717 32.4558 133.721 32.5427Z" fill="#263238"/>
<path d="M134.484 31.7528C134.398 31.839 133.871 31.4531 133.122 31.4577C132.373 31.4622 131.837 31.8345 131.76 31.7437C131.683 31.6529 131.805 31.5394 132.046 31.3669C132.365 31.1431 132.746 31.0242 133.135 31.0264C133.521 31.0259 133.898 31.1466 134.211 31.3714C134.447 31.5485 134.525 31.7119 134.484 31.7528Z" fill="#263238"/>
<path d="M126.516 32.5427C126.519 32.7223 126.451 32.8956 126.327 33.0255C126.203 33.1553 126.033 33.2314 125.853 33.2374C125.766 33.2448 125.678 33.2346 125.594 33.2074C125.511 33.1802 125.433 33.1365 125.367 33.079C125.3 33.0214 125.246 32.9512 125.207 32.8723C125.168 32.7935 125.146 32.7077 125.141 32.6199C125.138 32.44 125.206 32.2661 125.33 32.1355C125.454 32.0049 125.624 31.9278 125.804 31.9208C125.891 31.9133 125.98 31.9237 126.064 31.9512C126.148 31.9786 126.225 32.0227 126.292 32.0807C126.358 32.1387 126.412 32.2095 126.451 32.2889C126.49 32.3683 126.512 32.4546 126.516 32.5427Z" fill="#263238"/>
<path d="M127.184 31.9071C127.097 31.9934 126.575 31.612 125.822 31.612C125.068 31.612 124.532 31.9888 124.46 31.898C124.387 31.8072 124.505 31.6983 124.741 31.5212C125.062 31.2979 125.444 31.1805 125.835 31.1853C126.221 31.1816 126.598 31.3009 126.911 31.5258C127.147 31.7028 127.224 31.8663 127.184 31.9071Z" fill="#263238"/>
<path d="M129.889 37.4051C130.282 37.283 130.687 37.2083 131.097 37.1826C131.288 37.1826 131.465 37.1281 131.497 36.9965C131.512 36.8003 131.468 36.6041 131.369 36.4335C131.188 35.9795 131.002 35.4983 130.807 34.9943C130.021 32.9377 129.445 31.2534 129.54 31.2216C129.635 31.1898 130.325 32.8287 131.106 34.8808C131.292 35.3893 131.474 35.8705 131.646 36.3336C131.766 36.5624 131.802 36.826 131.746 37.0782C131.72 37.1461 131.678 37.2067 131.623 37.2549C131.569 37.3031 131.504 37.3374 131.433 37.3551C131.33 37.3839 131.223 37.3992 131.115 37.4005C130.708 37.452 130.297 37.4535 129.889 37.4051Z" fill="#263238"/>
<path d="M130.425 46.19C127.892 46.2336 125.396 45.5736 123.216 44.2832C123.275 44.2832 125.2 48.0241 130.352 47.4612L130.425 46.19Z" fill="#EB996E"/>
<path d="M129.581 39.1938C129.438 39.0182 129.253 38.881 129.044 38.7946C128.835 38.7082 128.607 38.6753 128.382 38.699C128.218 38.715 128.059 38.7634 127.914 38.8413C127.769 38.9193 127.641 39.0252 127.538 39.153C127.433 39.2787 127.371 39.4347 127.361 39.598C127.351 39.7614 127.394 39.9236 127.483 40.061C127.603 40.1926 127.759 40.2861 127.932 40.3297C128.105 40.3733 128.286 40.3651 128.455 40.3061C128.802 40.173 129.12 39.9724 129.39 39.7159C129.473 39.6556 129.544 39.5801 129.599 39.4935C129.626 39.4534 129.641 39.4059 129.641 39.3573C129.641 39.3086 129.626 39.2612 129.599 39.2211" fill="#C97979"/>
<path d="M127.706 37.9226C127.828 37.9226 127.833 38.7217 128.523 39.2846C129.213 39.8476 130.071 39.7386 130.076 39.8748C130.08 40.011 129.885 40.0337 129.526 40.0428C129.053 40.0504 128.593 39.8894 128.228 39.5888C127.876 39.3029 127.649 38.8907 127.597 38.4402C127.574 38.136 127.651 37.9181 127.706 37.9226Z" fill="#263238"/>
<path d="M127.515 30.6042C127.442 30.8085 126.702 30.7131 125.831 30.8175C124.959 30.922 124.255 31.1671 124.142 30.9855C124.087 30.8993 124.21 30.7086 124.496 30.5315C124.873 30.289 125.301 30.1366 125.747 30.0862C126.192 30.0358 126.644 30.0887 127.066 30.241C127.388 30.3499 127.547 30.5088 127.515 30.6042Z" fill="#263238"/>
<path d="M134.202 29.6008C134.075 29.7733 133.562 29.6008 132.949 29.6008C132.336 29.6008 131.81 29.7143 131.692 29.5418C131.637 29.4555 131.719 29.283 131.946 29.1241C132.251 28.9317 132.607 28.8346 132.967 28.8451C133.328 28.8556 133.677 28.9733 133.971 29.1831C134.189 29.3466 134.261 29.51 134.202 29.6008Z" fill="#263238"/>
<path d="M117.545 43.189C119.025 43.4887 119.157 42.735 120.269 41.709C120.817 41.19 121.237 40.5507 121.496 39.8416C121.754 39.1324 121.844 38.3729 121.758 37.623C121.59 36.3019 120.878 34.958 121.336 33.705C121.94 32.0524 124.26 31.5439 124.873 29.8959C125.231 28.9334 124.909 27.8121 125.327 26.8723C125.744 25.9325 126.639 25.483 127.542 25.1562C128.446 24.8293 129.417 24.6023 130.18 24.0121C130.943 23.4219 131.41 22.305 130.92 21.4788C126.903 21.9602 122.957 22.9188 119.166 24.3344C118.29 24.6613 117.35 25.0563 116.851 25.8372C116.351 26.618 116.324 27.7303 116.374 28.7201C116.598 33.5627 116.822 38.3933 117.046 43.2117" fill="#263238"/>
<path d="M114.158 32.234C114.074 31.339 113.699 30.4961 113.092 29.8334C112.484 29.1707 111.677 28.7245 110.793 28.5627C109.908 28.4008 108.995 28.5321 108.193 28.9367C107.39 29.3412 106.741 29.9969 106.345 30.8039C105.6 32.3248 105.859 34.1726 106.558 35.7162C107.385 37.5322 109.083 39.2211 111.098 39.1303C112.991 39.044 114.512 37.3869 115.057 35.5709C115.602 33.7549 115.384 31.8163 115.157 29.9368" fill="#263238"/>
<path d="M113.105 39.5843C112.991 39.4998 112.895 39.3932 112.824 39.271C112.612 38.9464 112.476 38.5788 112.424 38.195C112.345 37.6288 112.362 37.0532 112.474 36.4925C112.583 35.8615 112.796 35.1986 112.928 34.4949C113.1 33.8451 113.14 33.1674 113.046 32.5019C112.937 31.9026 112.651 31.3941 112.528 30.9219C112.408 30.5501 112.397 30.1513 112.497 29.7733C112.583 29.5055 112.696 29.3965 112.706 29.4056C112.715 29.4147 112.637 29.5418 112.588 29.796C112.528 30.1573 112.563 30.5278 112.687 30.872C112.909 31.3899 113.1 31.9205 113.259 32.461C113.372 33.155 113.338 33.8649 113.16 34.5449C113.001 35.2622 112.783 35.9069 112.665 36.5334C112.548 37.0713 112.514 37.6241 112.565 38.1723C112.641 38.6763 112.826 39.1579 113.105 39.5843Z" fill="#455A64"/>
<path d="M113.046 33.142C112.833 33.4689 112.551 33.7448 112.22 33.9501C111.445 34.4963 110.524 34.7969 109.576 34.8131C108.628 34.8293 107.697 34.5603 106.903 34.0409C106.567 33.8473 106.277 33.5823 106.054 33.2646C106.082 33.2328 106.39 33.5506 106.994 33.9002C107.776 34.3588 108.668 34.5929 109.574 34.5769C110.48 34.5609 111.364 34.2953 112.129 33.8094C112.701 33.4235 113.001 33.0921 113.046 33.142Z" fill="#455A64"/>
<path d="M112.76 33.9638C112.666 34.2726 112.512 34.5596 112.306 34.8082C111.845 35.4395 111.263 35.9724 110.593 36.3755C109.923 36.7786 109.18 37.0437 108.406 37.1554C108.09 37.2198 107.764 37.2198 107.448 37.1554C107.755 37.0809 108.066 37.0233 108.379 36.9829C109.117 36.8289 109.825 36.5527 110.472 36.1657C111.116 35.7754 111.691 35.2814 112.174 34.7038C112.542 34.2634 112.728 33.9456 112.76 33.9638Z" fill="#455A64"/>
<path d="M114.117 41.3821C114.117 41.3821 114.095 41.3821 114.058 41.3186C114.003 41.2499 113.953 41.177 113.909 41.1006C113.735 40.8111 113.615 40.4928 113.555 40.1609C113.453 39.6321 113.483 39.0865 113.641 38.5719C113.845 37.8791 114.289 37.2819 114.894 36.8875C115.529 36.4335 116.36 36.1248 116.891 35.4075C117.024 35.2285 117.119 35.024 117.169 34.8068C117.219 34.5896 117.223 34.3644 117.182 34.1454C117.079 33.6663 116.927 33.1992 116.728 32.7516C116.517 32.2401 116.414 31.6905 116.426 31.1373C116.437 30.5841 116.564 30.0393 116.796 29.5373C117.04 28.9981 117.416 28.5295 117.89 28.1753C118.384 27.831 118.946 27.5972 119.538 27.4897C120.119 27.3581 120.7 27.2809 121.241 27.1174C121.769 26.9752 122.253 26.7055 122.653 26.332C123.013 25.9447 123.232 25.4473 123.275 24.9201C123.323 24.3945 123.407 23.8728 123.524 23.3583C123.763 22.391 124.266 21.5092 124.977 20.8114C125.601 20.2118 126.393 19.816 127.247 19.6764C127.867 19.5711 128.504 19.6431 129.085 19.8841C129.666 20.125 130.166 20.5252 130.53 21.0384C130.723 21.3133 130.864 21.621 130.947 21.9464C130.981 22.0585 130.999 22.1745 131.002 22.2914C130.899 21.8583 130.712 21.4496 130.452 21.0883C130.141 20.6726 129.735 20.3379 129.267 20.1122C128.646 19.8163 127.947 19.7226 127.27 19.8444C126.45 19.9854 125.692 20.3716 125.095 20.9521C124.426 21.6332 123.955 22.4839 123.733 23.4128C123.618 23.926 123.536 24.4462 123.488 24.97C123.439 25.5451 123.201 26.0878 122.812 26.5136C122.38 26.9148 121.856 27.2033 121.286 27.3535C120.723 27.526 120.138 27.6032 119.57 27.7349C119.009 27.8366 118.475 28.0547 118.004 28.375C117.563 28.7051 117.211 29.1406 116.982 29.6417C116.762 30.1159 116.642 30.6302 116.63 31.1528C116.617 31.6753 116.713 32.1948 116.91 32.6789C117.112 33.1409 117.264 33.6235 117.364 34.1181C117.408 34.3639 117.401 34.6162 117.343 34.8591C117.285 35.1021 117.178 35.3305 117.028 35.5301C116.437 36.3019 115.584 36.6015 114.966 37.0328C114.384 37.3995 113.952 37.961 113.745 38.6173C113.582 39.1099 113.54 39.6348 113.623 40.1472C113.708 40.5865 113.876 41.0056 114.117 41.3821Z" fill="#455A64"/>
<path d="M114.476 26.3638C114.436 26.2864 114.413 26.2012 114.408 26.1141C114.389 25.8631 114.453 25.6128 114.59 25.4013C114.801 25.0594 115.121 24.7975 115.498 24.6568C115.998 24.4975 116.532 24.4802 117.041 24.6068C117.604 24.7158 118.19 24.9382 118.83 25.0608C119.157 25.1523 119.501 25.1724 119.837 25.1199C120.173 25.0675 120.494 24.9436 120.778 24.7566C121.35 24.3026 121.636 23.5672 121.926 22.8226C122.221 22.0231 122.641 21.2754 123.17 20.6071C124.199 19.2969 125.638 18.3698 127.256 17.9739C127.965 17.8066 128.704 17.8254 129.404 18.0283C130.009 18.2213 130.547 18.5818 130.956 19.068C131.301 19.4677 131.51 19.9672 131.551 20.4936C131.588 20.8867 131.527 21.2829 131.374 21.6467C131.282 21.8764 131.145 22.085 130.97 22.2596C130.914 22.3258 130.846 22.3812 130.77 22.4231C130.992 22.1885 131.167 21.9144 131.288 21.615C131.418 21.2613 131.463 20.8817 131.419 20.5072C131.369 20.0124 131.162 19.5465 130.829 19.177C130.426 18.7298 129.905 18.4043 129.326 18.2372C128.657 18.0557 127.953 18.0448 127.279 18.2054C125.721 18.6064 124.34 19.5095 123.347 20.775C122.83 21.4159 122.418 22.1346 122.126 22.9043C121.826 23.6489 121.531 24.4434 120.891 24.9292C120.582 25.1607 120.214 25.2993 119.829 25.3287C119.476 25.3556 119.121 25.3311 118.775 25.256C118.113 25.1153 117.536 24.8838 116.991 24.7703C116.511 24.6374 116.005 24.6374 115.525 24.7703C115.172 24.8939 114.868 25.1279 114.658 25.4376C114.521 25.6317 114.448 25.8633 114.449 26.1005C114.458 26.2775 114.49 26.3593 114.476 26.3638Z" fill="#455A64"/>
<path d="M189.268 206.084C189.289 206.02 189.315 205.958 189.345 205.898C189.404 205.766 189.491 205.594 189.595 205.367C189.897 204.682 190.141 203.972 190.326 203.247C190.908 200.542 190.886 197.743 190.262 195.047C189.876 193.182 189.368 191.344 188.741 189.545C188.097 187.588 187.352 185.513 186.739 183.275C186.049 180.936 185.717 178.505 185.754 176.066C185.845 173.519 186.599 170.972 187.429 168.439C188.26 165.905 189.114 163.422 189.373 160.929C189.663 158.531 189.186 156.103 188.011 153.992C186.912 151.967 185.532 150.233 184.497 148.44C183.53 146.777 182.819 144.979 182.385 143.105C181.761 140.391 181.714 137.576 182.249 134.843C182.44 133.843 182.729 132.866 183.112 131.923C183.101 131.99 183.084 132.055 183.062 132.119C183.017 132.255 182.962 132.441 182.885 132.677C182.735 133.172 182.54 133.903 182.349 134.861C181.858 137.581 181.933 140.374 182.567 143.064C183.009 144.915 183.723 146.69 184.687 148.331C185.718 150.101 187.107 151.827 188.224 153.874C189.435 156.024 189.933 158.502 189.645 160.952C189.386 163.49 188.524 165.987 187.697 168.52C186.871 171.054 186.122 173.569 186.027 176.075C185.992 178.489 186.318 180.894 186.994 183.212C187.593 185.441 188.356 187.516 188.968 189.472C189.587 191.284 190.086 193.134 190.462 195.011C191.157 198.466 190.962 201.367 190.462 203.274C190.265 204.002 190.002 204.71 189.677 205.39C189.563 205.612 189.472 205.785 189.404 205.912C189.366 205.974 189.32 206.032 189.268 206.084Z" fill="#263238"/>
<path d="M185.886 150.21C185.886 150.21 183.784 143.491 187.552 139.56C187.581 139.527 187.619 139.504 187.661 139.493C187.703 139.481 187.747 139.481 187.789 139.494C187.83 139.506 187.868 139.53 187.896 139.562C187.925 139.595 187.944 139.635 187.951 139.678C188.151 140.785 188.41 144.163 185.886 150.21Z" fill="#79C990"/>
<path d="M187.143 141.798C187.137 142.215 187.09 142.63 187.003 143.037C186.862 143.891 186.698 144.894 186.521 146.002L186.067 148.962C186.034 149.377 185.959 149.787 185.845 150.188C185.811 149.771 185.825 149.353 185.886 148.939C185.954 148.172 186.09 147.123 186.281 145.956C186.471 144.79 186.671 143.755 186.835 143.005C186.891 142.592 186.995 142.187 187.143 141.798Z" fill="#263238"/>
<path d="M188.351 166.055C188.351 166.055 189.636 159.132 194.807 157.429C194.847 157.415 194.891 157.412 194.933 157.42C194.975 157.429 195.014 157.45 195.045 157.479C195.076 157.509 195.099 157.547 195.109 157.589C195.12 157.63 195.119 157.674 195.107 157.715C194.766 158.782 193.404 161.887 188.351 166.055Z" fill="#79C990"/>
<path d="M193.404 159.209C193.201 159.572 192.964 159.916 192.696 160.235L190.88 162.632L189.064 165.029C188.838 165.378 188.581 165.706 188.297 166.01C188.454 165.623 188.66 165.259 188.909 164.925C189.332 164.275 189.945 163.408 190.657 162.473C191.37 161.538 192.019 160.707 192.528 160.121C192.781 159.782 193.075 159.476 193.404 159.209Z" fill="#263238"/>
<path d="M186.953 183.416C186.953 183.416 186.172 176.424 190.621 173.283C190.655 173.256 190.697 173.24 190.74 173.236C190.783 173.232 190.826 173.24 190.865 173.259C190.904 173.279 190.937 173.309 190.959 173.346C190.982 173.383 190.994 173.425 190.993 173.469C190.98 174.595 190.58 177.968 186.953 183.416Z" fill="#79C990"/>
<path d="M189.795 175.394C189.708 175.801 189.581 176.2 189.418 176.583C189.123 177.396 188.769 178.349 188.383 179.403C187.997 180.456 187.652 181.409 187.357 182.222C187.245 182.622 187.093 183.01 186.903 183.38C186.948 182.965 187.041 182.556 187.18 182.163C187.393 181.423 187.729 180.411 188.138 179.312C188.546 178.213 188.941 177.223 189.245 176.515C189.388 176.123 189.572 175.747 189.795 175.394Z" fill="#263238"/>
<path d="M190.848 200.877C190.848 200.877 190.317 193.858 194.879 190.889C194.915 190.866 194.957 190.853 195 190.852C195.043 190.851 195.085 190.861 195.122 190.882C195.16 190.903 195.191 190.934 195.212 190.971C195.233 191.008 195.244 191.05 195.243 191.093C195.188 192.205 194.671 195.551 190.848 200.877Z" fill="#79C990"/>
<path d="M193.976 192.95C193.874 193.354 193.734 193.748 193.558 194.126C193.227 194.925 192.846 195.865 192.419 196.904C191.992 197.944 191.62 198.884 191.293 199.683C191.168 200.08 191.002 200.464 190.798 200.827C190.859 200.413 190.967 200.008 191.12 199.619C191.361 198.888 191.729 197.89 192.178 196.804C192.628 195.719 193.054 194.748 193.386 194.053C193.54 193.664 193.738 193.294 193.976 192.95Z" fill="#263238"/>
<path d="M182.867 144.308C182.867 144.308 176.624 141.049 176.511 135.605C176.51 135.562 176.521 135.52 176.543 135.482C176.565 135.445 176.596 135.415 176.634 135.394C176.672 135.373 176.715 135.364 176.758 135.366C176.801 135.368 176.843 135.381 176.879 135.406C177.796 136.046 180.365 138.252 182.867 144.308Z" fill="#79C990"/>
<path d="M177.8 137.476C178.09 137.775 178.35 138.102 178.576 138.452C179.085 139.151 179.68 139.973 180.333 140.885C180.987 141.798 181.591 142.61 182.099 143.31C182.367 143.628 182.605 143.97 182.812 144.331C182.49 144.065 182.202 143.76 181.954 143.423C181.459 142.833 180.806 141.993 180.138 141.035C179.471 140.077 178.858 139.219 178.44 138.556C178.187 138.221 177.972 137.859 177.8 137.476Z" fill="#263238"/>
<path d="M189.563 158.737C189.563 158.737 183.139 155.863 182.685 150.433C182.681 150.39 182.688 150.347 182.707 150.308C182.726 150.269 182.755 150.237 182.791 150.214C182.827 150.19 182.869 150.178 182.912 150.177C182.955 150.177 182.998 150.188 183.035 150.21C184.002 150.796 186.698 152.844 189.563 158.737Z" fill="#79C990"/>
<path d="M184.093 152.222C184.401 152.496 184.681 152.8 184.928 153.13L186.83 155.45L188.742 157.765C189.027 158.068 189.286 158.397 189.513 158.746C189.177 158.498 188.872 158.21 188.605 157.888C188.074 157.329 187.375 156.526 186.63 155.618C185.886 154.71 185.232 153.906 184.778 153.261C184.51 152.942 184.28 152.593 184.093 152.222Z" fill="#263238"/>
<path d="M185.868 174.826C185.868 174.826 181.455 169.342 183.525 164.303C183.541 164.262 183.567 164.228 183.602 164.202C183.636 164.176 183.677 164.16 183.72 164.156C183.763 164.153 183.806 164.161 183.845 164.18C183.883 164.2 183.916 164.23 183.938 164.266C184.533 165.224 185.999 168.275 185.868 174.826Z" fill="#79C990"/>
<path d="M183.961 166.536C184.11 166.927 184.218 167.331 184.283 167.744C184.469 168.588 184.683 169.56 184.923 170.677L185.568 173.605C185.684 174.004 185.764 174.413 185.809 174.826C185.622 174.452 185.48 174.058 185.386 173.65C185.169 172.91 184.932 171.88 184.665 170.731C184.397 169.583 184.211 168.538 184.102 167.776C184.009 167.369 183.962 166.953 183.961 166.536Z" fill="#263238"/>
<path d="M190.226 193.763C190.226 193.763 183.87 190.78 183.489 185.346C183.485 185.303 183.494 185.26 183.514 185.222C183.534 185.184 183.563 185.152 183.6 185.13C183.637 185.108 183.679 185.096 183.722 185.097C183.765 185.097 183.807 185.109 183.843 185.132C184.81 185.731 187.47 187.824 190.226 193.763Z" fill="#79C990"/>
<path d="M184.873 187.157C185.178 187.444 185.453 187.76 185.695 188.101L187.561 190.453L189.427 192.796C189.71 193.103 189.964 193.436 190.185 193.79C189.848 193.537 189.544 193.244 189.277 192.918C188.76 192.351 188.069 191.556 187.343 190.616C186.617 189.677 185.981 188.841 185.527 188.21C185.271 187.884 185.052 187.531 184.873 187.157Z" fill="#263238"/>
<path d="M202.938 166.091C202.943 166.143 202.943 166.194 202.938 166.246C202.938 166.368 202.938 166.518 202.938 166.7C202.938 167.122 202.893 167.694 202.861 168.407L202.529 174.499C202.075 177.046 200.777 179.866 199.038 182.608C197.758 184.628 196.418 186.462 195.265 188.169C194.213 189.659 193.268 191.222 192.437 192.846C191.889 193.946 191.446 195.095 191.111 196.278C190.998 196.696 190.916 197.027 190.866 197.249C190.847 197.366 190.817 197.48 190.775 197.59C190.776 197.472 190.79 197.355 190.816 197.24C190.848 197.009 190.916 196.677 191.011 196.251C191.309 195.048 191.73 193.879 192.269 192.764C193.082 191.121 194.015 189.539 195.061 188.033C196.21 186.313 197.544 184.478 198.816 182.467C200.545 179.743 201.835 176.96 202.307 174.454C202.484 171.957 202.629 169.864 202.734 168.366C202.793 167.658 202.838 167.086 202.874 166.663C202.874 166.486 202.906 166.337 202.92 166.209C202.933 166.082 202.938 166.091 202.938 166.091Z" fill="#263238"/>
<path d="M199.138 182.099C199.138 182.099 201.839 175.598 198.444 171.34C198.418 171.305 198.382 171.278 198.342 171.263C198.302 171.247 198.258 171.243 198.215 171.251C198.173 171.259 198.133 171.279 198.101 171.308C198.069 171.337 198.046 171.375 198.035 171.417C197.735 172.52 197.177 175.848 199.138 182.099Z" fill="#79C990"/>
<path d="M198.648 173.605C198.764 174.006 198.836 174.419 198.861 174.835C198.957 175.598 199.065 176.651 199.147 177.827C199.229 179.003 199.274 180.066 199.274 180.833C199.296 181.251 199.27 181.669 199.197 182.081C199.122 181.673 199.085 181.258 199.088 180.842C199.029 179.979 198.961 178.967 198.884 177.845C198.807 176.724 198.739 175.716 198.675 174.854C198.625 174.439 198.616 174.021 198.648 173.605Z" fill="#263238"/>
<g opacity="0.3">
<path opacity="0.3" d="M199.138 182.099C199.138 182.099 201.839 175.598 198.444 171.34C198.418 171.305 198.382 171.278 198.342 171.263C198.302 171.247 198.258 171.243 198.215 171.251C198.173 171.259 198.133 171.279 198.101 171.308C198.069 171.337 198.046 171.375 198.035 171.417C197.735 172.52 197.177 175.848 199.138 182.099Z" fill="black"/>
</g>
<path d="M190.775 197.762C190.775 197.762 192.941 191.061 189.209 187.093C189.18 187.061 189.143 187.038 189.101 187.026C189.06 187.014 189.016 187.014 188.974 187.026C188.932 187.038 188.895 187.061 188.866 187.093C188.837 187.125 188.817 187.164 188.809 187.207C188.596 188.315 188.315 191.688 190.775 197.762Z" fill="#79C990"/>
<path d="M189.6 189.318C189.745 189.709 189.85 190.113 189.913 190.526C190.067 191.279 190.262 192.342 190.439 193.486C190.616 194.63 190.744 195.706 190.807 196.473C190.866 196.887 190.874 197.306 190.83 197.722C190.725 197.318 190.655 196.907 190.621 196.491C190.494 195.638 190.344 194.634 190.167 193.527C189.99 192.419 189.845 191.415 189.713 190.557C189.633 190.149 189.595 189.734 189.6 189.318Z" fill="#263238"/>
<g opacity="0.3">
<path opacity="0.3" d="M190.775 197.762C190.775 197.762 192.941 191.061 189.209 187.093C189.18 187.061 189.143 187.038 189.101 187.026C189.06 187.014 189.016 187.014 188.974 187.026C188.932 187.038 188.895 187.061 188.866 187.093C188.837 187.125 188.817 187.164 188.809 187.207C188.596 188.315 188.315 191.688 190.775 197.762Z" fill="black"/>
</g>
<path d="M202.579 174.154C202.579 174.154 208.345 170.118 207.764 164.702C207.76 164.659 207.744 164.619 207.718 164.584C207.692 164.55 207.657 164.524 207.617 164.508C207.577 164.493 207.534 164.488 207.491 164.496C207.449 164.504 207.41 164.523 207.378 164.552C206.538 165.306 204.3 167.826 202.579 174.154Z" fill="#79C990"/>
<g opacity="0.3">
<path opacity="0.3" d="M202.579 174.154C202.579 174.154 208.345 170.118 207.764 164.702C207.76 164.659 207.744 164.619 207.718 164.584C207.692 164.55 207.657 164.524 207.617 164.508C207.577 164.493 207.534 164.488 207.491 164.496C207.449 164.504 207.41 164.523 207.378 164.552C206.538 165.306 204.3 167.826 202.579 174.154Z" fill="black"/>
</g>
<path d="M206.72 166.727C206.602 167.126 206.441 167.511 206.239 167.876C205.912 168.575 205.435 169.524 204.877 170.559C204.318 171.594 203.783 172.511 203.369 173.16C203.166 173.526 202.919 173.866 202.634 174.173C202.79 173.786 202.981 173.415 203.206 173.065C203.624 172.307 204.114 171.417 204.645 170.432L206.075 167.794C206.253 167.417 206.469 167.059 206.72 166.727Z" fill="#263238"/>
<path d="M193.1 191.134C193.1 191.134 200.055 190.049 201.917 184.932C201.933 184.892 201.937 184.849 201.929 184.806C201.922 184.764 201.903 184.724 201.874 184.692C201.845 184.66 201.808 184.637 201.767 184.625C201.725 184.612 201.681 184.612 201.64 184.624C200.555 184.919 197.413 186.19 193.1 191.134Z" fill="#79C990"/>
<g opacity="0.3">
<path opacity="0.3" d="M193.1 191.134C193.1 191.134 200.055 190.049 201.917 184.932C201.933 184.892 201.937 184.849 201.929 184.806C201.922 184.764 201.903 184.724 201.874 184.692C201.845 184.66 201.808 184.637 201.767 184.625C201.725 184.612 201.681 184.612 201.64 184.624C200.555 184.919 197.413 186.19 193.1 191.134Z" fill="black"/>
</g>
<path d="M200.091 186.276C199.809 186.583 199.494 186.859 199.152 187.098C198.552 187.579 197.703 188.219 196.75 188.914C195.797 189.609 194.907 190.181 194.248 190.585C193.905 190.822 193.535 191.019 193.145 191.17C193.455 190.894 193.79 190.646 194.144 190.43L196.596 188.696L199.043 186.957C199.367 186.694 199.719 186.465 200.091 186.276Z" fill="#263238"/>
<path d="M186.467 203.919L184.438 217.57H197.081L195.442 203.919H186.467Z" fill="#455A64"/>
<path d="M195.946 208.15C194.25 208.281 192.549 208.325 190.848 208.282C189.147 208.325 187.446 208.281 185.75 208.15C187.446 208.018 189.147 207.975 190.848 208.018C192.549 207.975 194.25 208.018 195.946 208.15Z" fill="#263238"/>
<path d="M196.196 209.235C196.196 209.308 193.84 209.367 190.934 209.367C188.029 209.367 185.686 209.294 185.686 209.235C185.686 209.176 188.042 209.103 190.952 209.103C193.862 209.103 196.196 209.162 196.196 209.235Z" fill="#263238"/>
<path d="M35.9022 192.65C36.5414 192.759 37.1522 192.994 37.6982 193.344C38.2443 193.693 38.7143 194.149 39.0802 194.684C39.8035 195.765 40.2694 196.996 40.4422 198.285C40.8554 200.754 40.188 203.56 39.2709 205.894C36.7512 204.709 35.4074 201.776 34.8217 200.241C33.9137 197.821 33.6867 192.877 35.8841 192.65" fill="#79C990"/>
<path d="M43.0028 209.371C42.6234 208.752 42.4147 208.044 42.3979 207.318C42.3812 206.593 42.557 205.875 42.9075 205.24C43.2674 204.61 43.7496 204.058 44.3257 203.616C44.9019 203.175 45.5604 202.853 46.2625 202.67C46.5754 202.551 46.9105 202.501 47.2446 202.524C47.5787 202.548 47.9036 202.644 48.1966 202.806C48.4424 203.002 48.6314 203.259 48.744 203.552C48.8566 203.845 48.8886 204.163 48.8367 204.473C48.7233 205.091 48.4493 205.669 48.0422 206.148C46.7302 207.846 45.1457 209.244 43.0028 209.371Z" fill="#79C990"/>
<path d="M42.3674 217.198C42.3147 217.031 42.2872 216.856 42.2857 216.681C42.2493 216.345 42.2085 215.854 42.1722 215.25C42.0574 213.671 42.1551 212.083 42.4627 210.529C42.7853 208.959 43.5256 207.505 44.6056 206.32C44.9399 205.974 45.3149 205.669 45.7224 205.412C45.8603 205.31 46.0135 205.23 46.1764 205.176C45.6613 205.563 45.1799 205.993 44.7373 206.461C43.7278 207.649 43.0331 209.071 42.717 210.597C42.4185 212.129 42.2966 213.691 42.3538 215.25C42.3974 215.899 42.4019 216.549 42.3674 217.198Z" fill="#263238"/>
<path d="M36.488 196.4C36.6179 196.66 36.7242 196.93 36.8058 197.209C36.992 197.735 37.2598 198.498 37.564 199.447C38.1815 201.344 38.9941 203.987 39.834 206.915C40.6739 209.843 41.3458 212.522 41.8044 214.465C42.0359 215.437 42.213 216.222 42.331 216.771C42.4041 217.051 42.4542 217.337 42.4808 217.625C42.3725 217.357 42.286 217.081 42.2221 216.799C42.0677 216.208 41.8589 215.437 41.6137 214.529C41.1007 212.599 40.3879 209.934 39.5662 207.006C38.7444 204.078 37.959 201.431 37.387 199.519L36.715 197.249C36.6159 196.973 36.54 196.689 36.488 196.4Z" fill="#263238"/>
<path d="M39.6478 211.723C39.0193 210.327 38.067 209.102 36.8701 208.148C35.6731 207.194 34.2658 206.54 32.7652 206.239C32.0025 206.093 31.0627 206.111 30.6359 206.765C30.2092 207.419 30.5769 208.291 31.0355 208.917C32.0139 210.217 33.3557 211.197 34.8911 211.733C36.4266 212.27 38.0867 212.339 39.6615 211.932" fill="#79C990"/>
<path d="M33.5959 208.436C33.7641 208.423 33.9331 208.44 34.0953 208.486C34.2917 208.513 34.4859 208.554 34.6765 208.608C34.9309 208.667 35.1812 208.743 35.4256 208.835C36.0728 209.058 36.6951 209.347 37.2824 209.698C38.7298 210.557 39.9552 211.743 40.8599 213.162C41.2209 213.736 41.525 214.345 41.7679 214.978C41.864 215.222 41.9474 215.47 42.0176 215.723C42.0787 215.911 42.1257 216.104 42.1584 216.299C42.2057 216.461 42.2287 216.63 42.2265 216.799C42.172 216.799 42.0358 216.104 41.5818 215.055C41.3166 214.443 40.9976 213.855 40.6284 213.298C40.1686 212.622 39.644 211.993 39.0621 211.419C38.4698 210.856 37.8236 210.352 37.1326 209.916C36.5664 209.558 35.9674 209.253 35.3438 209.008C34.3042 208.604 33.5959 208.486 33.5959 208.436Z" fill="#263238"/>
<path d="M164.711 43.3252C164.711 43.4614 165.696 43.5704 166.909 43.5704C168.121 43.5704 169.106 43.4614 169.106 43.3252C169.106 43.189 168.125 43.0846 166.909 43.0846C165.692 43.0846 164.711 43.1936 164.711 43.3252Z" fill="#79C990"/>
<path d="M162.378 37.346C162.241 37.346 162.132 38.3448 162.132 39.5752C162.132 40.8055 162.241 41.8089 162.378 41.8089C162.514 41.8089 162.618 40.8101 162.618 39.5752C162.618 38.3403 162.532 37.346 162.378 37.346Z" fill="#79C990"/>
<path d="M159.89 43.1845C159.89 43.0483 158.905 42.9393 157.692 42.9393C156.48 42.9393 155.495 43.0483 155.495 43.1845C155.495 43.3207 156.476 43.4251 157.692 43.4251C158.909 43.4251 159.89 43.3162 159.89 43.1845Z" fill="#79C990"/>
<path d="M162.223 49.1637C162.359 49.1637 162.468 48.1649 162.468 46.9345C162.468 45.7042 162.359 44.7008 162.223 44.7008C162.087 44.7008 161.983 45.6996 161.983 46.9345C161.983 48.1694 162.078 49.1637 162.223 49.1637Z" fill="#79C990"/>
<path d="M158.673 46.5986C158.773 46.6848 159.209 46.3352 159.64 45.8177C160.071 45.3001 160.339 44.8143 160.235 44.7281C160.13 44.6418 159.699 44.9914 159.268 45.5044C158.836 46.0174 158.569 46.5123 158.673 46.5986Z" fill="#79C990"/>
<path d="M158.9 39.8158C158.805 39.9111 159.091 40.3561 159.54 40.8055C159.99 41.255 160.425 41.5501 160.521 41.4547C160.616 41.3594 160.33 40.9145 159.885 40.465C159.44 40.0156 158.973 39.7205 158.9 39.8158Z" fill="#79C990"/>
<path d="M163.917 41.5456C164.003 41.6454 164.416 41.4411 164.825 41.0916C165.233 40.742 165.529 40.3652 165.442 40.2653C165.356 40.1654 164.943 40.3652 164.534 40.7193C164.126 41.0734 163.831 41.4411 163.917 41.5456Z" fill="#79C990"/>
<path d="M164.112 44.5329C164.017 44.6237 164.262 45.0595 164.671 45.5044C165.079 45.9494 165.488 46.2399 165.579 46.1491C165.669 46.0583 165.429 45.6225 165.02 45.1776C164.611 44.7326 164.212 44.4421 164.112 44.5329Z" fill="#79C990"/>
<path d="M56.0646 95.7577C56.4654 95.8954 56.8916 95.9434 57.3131 95.8984C57.7345 95.9434 58.1607 95.8954 58.5616 95.7577C58.1601 95.623 57.7342 95.5765 57.3131 95.6215C56.892 95.5765 56.4661 95.623 56.0646 95.7577Z" fill="#79C990"/>
<path d="M54.7387 92.3618C54.557 93.1964 54.557 94.0604 54.7387 94.8951C54.9263 94.0611 54.9263 93.1958 54.7387 92.3618Z" fill="#79C990"/>
<path d="M53.3268 95.676C52.9253 95.5412 52.4995 95.4948 52.0783 95.5398C51.6572 95.4948 51.2313 95.5412 50.8298 95.676C51.2307 95.8137 51.6569 95.8617 52.0783 95.8167C52.4998 95.8617 52.926 95.8137 53.3268 95.676Z" fill="#79C990"/>
<path d="M54.6525 99.0719C54.8401 98.2379 54.8401 97.3726 54.6525 96.5386C54.4708 97.3732 54.4708 98.2372 54.6525 99.0719Z" fill="#79C990"/>
<path d="M52.6368 97.61C52.6958 97.66 52.9409 97.4602 53.1861 97.156C53.4313 96.8518 53.5811 96.584 53.5221 96.534C53.463 96.4841 53.2179 96.6839 52.9727 96.988C52.7276 97.2922 52.5777 97.5692 52.6368 97.61Z" fill="#79C990"/>
<path d="M52.7501 93.7646C52.7002 93.8191 52.8591 94.0688 53.1133 94.3276C53.3676 94.5864 53.6173 94.7498 53.6717 94.6953C53.7262 94.6408 53.5673 94.3911 53.3131 94.1324C53.0588 93.8736 52.8046 93.7101 52.7501 93.7646Z" fill="#79C990"/>
<path d="M55.6151 94.7453C55.6605 94.8043 55.8966 94.6908 56.1418 94.4865C56.3869 94.2822 56.5413 94.0734 56.4914 94.0325C56.4414 93.9916 56.2053 94.0915 55.9647 94.2913C55.7241 94.491 55.5652 94.6863 55.6151 94.7453Z" fill="#79C990"/>
<path d="M55.7239 96.4432C55.6694 96.4932 55.8101 96.7429 56.0417 96.9971C56.2732 97.2513 56.4957 97.4148 56.5638 97.3603C56.6319 97.3058 56.4775 97.0607 56.246 96.811C56.0144 96.5613 55.7829 96.3933 55.7239 96.4432Z" fill="#79C990"/>
<path d="M166.977 122.671C167.799 122.852 168.651 122.852 169.474 122.671C168.652 122.483 167.798 122.483 166.977 122.671Z" fill="#79C990"/>
<path d="M165.651 119.275C165.469 120.11 165.469 120.974 165.651 121.808C165.839 120.974 165.839 120.109 165.651 119.275Z" fill="#79C990"/>
<path d="M164.239 122.58C163.417 122.392 162.564 122.392 161.742 122.58C162.565 122.762 163.417 122.762 164.239 122.58Z" fill="#79C990"/>
<path d="M165.565 125.985C165.752 125.151 165.752 124.286 165.565 123.452C165.383 124.286 165.383 125.15 165.565 125.985Z" fill="#79C990"/>
<path d="M163.549 124.528C163.608 124.578 163.853 124.378 164.098 124.074C164.343 123.769 164.493 123.506 164.434 123.456C164.375 123.406 164.13 123.606 163.885 123.91C163.64 124.214 163.49 124.478 163.549 124.528Z" fill="#79C990"/>
<path d="M163.667 120.678C163.612 120.732 163.771 120.982 164.026 121.241C164.28 121.5 164.534 121.658 164.584 121.608C164.634 121.559 164.48 121.3 164.225 121.045C163.971 120.791 163.717 120.623 163.667 120.678Z" fill="#79C990"/>
<path d="M166.527 121.672C166.573 121.731 166.809 121.613 167.054 121.413C167.299 121.213 167.453 121 167.403 120.959C167.353 120.918 167.117 121.018 166.877 121.218C166.636 121.418 166.477 121.599 166.527 121.672Z" fill="#79C990"/>
<path d="M166.618 123.356C166.564 123.406 166.704 123.651 166.936 123.906C167.167 124.16 167.39 124.323 167.458 124.273C167.526 124.224 167.372 123.974 167.14 123.72C166.909 123.465 166.695 123.302 166.618 123.356Z" fill="#79C990"/>
<path d="M75.1598 192.973C75.9807 193.154 76.8314 193.154 77.6523 192.973C76.8314 192.791 75.9807 192.791 75.1598 192.973Z" fill="#79C990"/>
<path d="M73.8341 189.577C73.6464 190.411 73.6464 191.276 73.8341 192.11C74.0157 191.275 74.0157 190.411 73.8341 189.577Z" fill="#79C990"/>
<path d="M72.422 192.891C71.5996 192.709 70.7475 192.709 69.925 192.891C70.7468 193.079 71.6003 193.079 72.422 192.891Z" fill="#79C990"/>
<path d="M73.7478 196.287C73.9294 195.452 73.9294 194.588 73.7478 193.754C73.5601 194.588 73.5601 195.453 73.7478 196.287Z" fill="#79C990"/>
<path d="M71.7318 194.83C71.7908 194.88 72.036 194.68 72.2812 194.376C72.5263 194.071 72.6807 193.804 72.6217 193.754C72.5626 193.704 72.3175 193.903 72.0723 194.208C71.8272 194.512 71.6683 194.766 71.7318 194.83Z" fill="#79C990"/>
<path d="M71.8454 190.98C71.791 191.034 71.9544 191.284 72.2086 191.543C72.4629 191.801 72.7126 191.965 72.7671 191.91C72.8215 191.856 72.6581 191.606 72.4039 191.347C72.1496 191.089 71.8999 190.925 71.8454 190.98Z" fill="#79C990"/>
<path d="M74.7057 191.96C74.7556 192.019 74.9917 191.906 75.2323 191.702C75.4729 191.497 75.6318 191.288 75.5819 191.248C75.5319 191.207 75.3004 191.307 75.0552 191.506C74.8101 191.706 74.6557 191.901 74.7057 191.96Z" fill="#79C990"/>
<path d="M74.8192 193.658C74.7602 193.708 74.9055 193.958 75.1325 194.212C75.3595 194.466 75.5865 194.625 75.6546 194.575C75.7227 194.525 75.5683 194.276 75.3368 194.026C75.1052 193.776 74.8737 193.608 74.8192 193.658Z" fill="#79C990"/>
<path d="M73.3438 77.3571L73.1985 77.7021C73.0745 77.9989 72.8932 78.2684 72.6649 78.4951C72.4367 78.7218 72.166 78.9013 71.8683 79.0232L71.4915 79.1731L71.8501 79.3183C72.1579 79.4407 72.4374 79.6247 72.6716 79.8588C72.9058 80.093 73.0897 80.3726 73.2121 80.6803L73.3165 80.93L73.4664 80.6168C73.7422 80.0435 74.2309 79.6004 74.8284 79.3819L75.1507 79.2639L74.7285 79.055C74.1926 78.7962 73.7696 78.3506 73.539 77.802L73.3438 77.3571Z" fill="#79C990"/>
<path d="M57.3265 71.3506L57.2539 71.5232C57.1927 71.672 57.1027 71.8072 56.9889 71.921C56.8751 72.0348 56.7399 72.1248 56.5911 72.186L56.4004 72.2586L56.582 72.3313C56.7335 72.3934 56.871 72.4853 56.9864 72.6015C57.1018 72.7177 57.1928 72.8558 57.2539 73.0077L57.3039 73.1303L57.381 72.976C57.5182 72.6887 57.7628 72.4669 58.062 72.3585L58.2255 72.2995L58.0121 72.1951C57.7446 72.065 57.5334 71.8424 57.4174 71.5686L57.3265 71.3506Z" fill="#79C990"/>
<path d="M181.541 46.6848L181.468 46.8574C181.406 47.0058 181.315 47.1404 181.201 47.2534C181.086 47.3664 180.95 47.4555 180.801 47.5157L180.615 47.5928L180.792 47.6655C180.943 47.7262 181.081 47.8171 181.197 47.9326C181.312 48.0481 181.403 48.1858 181.464 48.3374L181.518 48.4645L181.591 48.3056C181.73 48.0196 181.974 47.7983 182.272 47.6882L182.435 47.6292L182.222 47.5293C181.954 47.3974 181.743 47.1733 181.627 46.8982L181.541 46.6848Z" fill="#79C990"/>
<path d="M174.708 139.115L174.64 139.287C174.513 139.586 174.273 139.823 173.973 139.946L173.787 140.023L173.964 140.095C174.115 140.156 174.253 140.247 174.369 140.362C174.484 140.478 174.575 140.616 174.636 140.767L174.686 140.894L174.763 140.735C174.9 140.448 175.144 140.226 175.444 140.118L175.607 140.059L175.394 139.955C175.125 139.827 174.913 139.604 174.799 139.328L174.708 139.115Z" fill="#79C990"/>
<path d="M78.996 179.602L78.9233 179.775C78.8612 179.924 78.7703 180.059 78.6558 180.173C78.5412 180.287 78.4054 180.377 78.256 180.438L78.0698 180.515L78.2469 180.588C78.3989 180.648 78.537 180.738 78.6526 180.854C78.7681 180.969 78.8588 181.107 78.9188 181.26L78.9687 181.387L79.0459 181.228C79.1831 180.94 79.4277 180.719 79.7269 180.61L79.8904 180.551L79.677 180.447C79.4085 180.318 79.1968 180.095 79.0822 179.82L78.996 179.602Z" fill="#79C990"/>
<path d="M150.928 28.7745L150.855 28.9471C150.794 29.0963 150.704 29.2316 150.589 29.3447C150.474 29.4579 150.338 29.5466 150.188 29.6054L150.002 29.6825L150.183 29.7552C150.333 29.8158 150.47 29.9056 150.585 30.0193C150.701 30.1331 150.792 30.2686 150.855 30.418L150.905 30.5406L150.982 30.3862C151.117 30.0993 151.361 29.8774 151.659 29.7688L151.822 29.7052L151.609 29.6054C151.341 29.4746 151.131 29.25 151.019 28.9743L150.928 28.7745Z" fill="#79C990"/>
<path d="M161.774 149.57L161.629 149.915C161.505 150.212 161.323 150.482 161.095 150.708C160.867 150.935 160.596 151.115 160.298 151.236L159.922 151.386L160.28 151.532C160.588 151.654 160.867 151.838 161.102 152.072C161.336 152.306 161.52 152.586 161.642 152.894L161.747 153.143L161.896 152.83C162.171 152.256 162.66 151.812 163.258 151.595L163.585 151.477L163.159 151.268C162.622 151.008 162.199 150.561 161.969 150.011L161.774 149.57Z" fill="#79C990"/>
</svg>
