<svg width="239" height="239" viewBox="0 0 239 239" fill="none" xmlns="http://www.w3.org/2000/svg">
<path d="M132.588 159.843L122.946 198.666H126.852L136.856 159.843H132.588Z" fill="#F5F5F5"/>
<path d="M160.517 159.843L170.154 198.666H166.253L156.249 159.843H160.517Z" fill="#F5F5F5"/>
<path d="M148.357 149.284H143.811V198.662H148.357V149.284Z" fill="#F5F5F5"/>
<path d="M178.036 109.687H113.917V150.766H178.036V109.687Z" fill="#E0E0E0"/>
<path d="M162.085 159.212H129.901V163.18H162.085V159.212Z" fill="#F5F5F5"/>
<path d="M118.176 145.408C118.21 145.656 118.225 145.907 118.219 146.158H118.133C118.066 144.15 118.018 137.492 118.018 129.605C118.018 124.825 118.052 120.523 118.066 117.368C118.066 115.834 118.104 114.577 118.114 113.659C118.114 113.248 118.138 112.918 118.143 112.65C118.143 112.532 118.154 112.413 118.176 112.297C118.201 112.413 118.212 112.531 118.21 112.65C118.21 112.918 118.21 113.248 118.238 113.659C118.238 114.577 118.267 115.834 118.291 117.368C118.291 120.537 118.315 124.844 118.334 129.605C118.334 137.492 118.286 144.15 118.219 146.158H118.133C118.127 145.907 118.142 145.656 118.176 145.408Z" fill="#F5F5F5"/>
<path d="M122.951 145.408C122.986 145.656 123 145.907 122.994 146.158H122.903C122.841 144.15 122.789 137.492 122.789 129.605C122.789 124.825 122.827 120.523 122.837 117.368C122.837 115.834 122.875 114.577 122.889 113.659C122.889 113.248 122.889 112.918 122.918 112.65C122.912 112.531 122.923 112.412 122.951 112.297C122.973 112.413 122.982 112.532 122.98 112.65C122.98 112.918 122.98 113.248 123.009 113.659C123.009 114.577 123.042 115.834 123.061 117.368C123.061 120.537 123.09 124.844 123.109 129.605C123.109 137.492 123.056 144.15 122.994 146.158H122.903C122.894 145.907 122.91 145.655 122.951 145.408Z" fill="#F5F5F5"/>
<path d="M127.722 145.408C127.756 145.656 127.771 145.907 127.765 146.158H127.679C127.612 144.15 127.564 137.492 127.564 129.605C127.564 124.825 127.597 120.523 127.612 117.368C127.612 115.834 127.645 114.577 127.66 113.659C127.66 113.248 127.684 112.918 127.688 112.65C127.685 112.531 127.697 112.413 127.722 112.297C127.744 112.413 127.755 112.532 127.755 112.65C127.755 112.918 127.755 113.248 127.784 113.659C127.784 114.577 127.813 115.834 127.832 117.368C127.832 120.537 127.86 124.844 127.88 129.605C127.88 137.492 127.832 144.15 127.765 146.158H127.679C127.673 145.907 127.687 145.656 127.722 145.408Z" fill="#F5F5F5"/>
<path d="M132.492 145.408C132.53 145.656 132.544 145.907 132.535 146.158H132.449C132.382 144.15 132.334 137.492 132.334 129.605C132.334 124.825 132.368 120.523 132.382 117.368C132.382 115.834 132.421 114.577 132.43 113.659C132.43 113.248 132.454 112.918 132.464 112.65C132.461 112.532 132.471 112.413 132.492 112.297C132.52 112.412 132.532 112.531 132.526 112.65C132.526 112.918 132.526 113.248 132.554 113.659C132.554 114.577 132.583 115.834 132.607 117.368C132.607 120.537 132.636 124.844 132.65 129.605C132.65 137.492 132.602 144.15 132.535 146.158H132.449C132.443 145.907 132.458 145.656 132.492 145.408Z" fill="#F5F5F5"/>
<path d="M137.267 145.408C137.302 145.656 137.316 145.907 137.31 146.158H137.22C137.157 144.15 137.11 137.492 137.11 129.605C137.11 124.825 137.143 120.523 137.153 117.368C137.177 115.834 137.191 114.577 137.205 113.659C137.205 113.248 137.205 112.918 137.234 112.65C137.228 112.531 137.239 112.412 137.267 112.297C137.289 112.413 137.299 112.532 137.296 112.65C137.296 112.918 137.296 113.248 137.329 113.659C137.329 114.577 137.358 115.834 137.377 117.368C137.377 120.537 137.406 124.844 137.425 129.605C137.425 137.492 137.377 144.15 137.31 146.158H137.22C137.21 145.907 137.226 145.655 137.267 145.408Z" fill="#F5F5F5"/>
<path d="M142.038 145.408C142.072 145.656 142.087 145.907 142.081 146.158H141.995C141.928 144.15 141.88 137.492 141.88 129.605C141.88 124.825 141.914 120.523 141.928 117.368C141.928 115.834 141.966 114.577 141.976 113.659C141.976 113.248 142 112.918 142.004 112.65C142.004 112.532 142.016 112.413 142.038 112.297C142.063 112.413 142.074 112.531 142.071 112.65C142.071 112.918 142.071 113.248 142.1 113.659C142.1 114.577 142.129 115.834 142.148 117.368C142.148 120.537 142.176 124.844 142.196 129.605C142.196 137.492 142.148 144.15 142.081 146.158H141.995C141.989 145.907 142.003 145.656 142.038 145.408Z" fill="#F5F5F5"/>
<path d="M146.808 145.408C146.85 145.655 146.866 145.907 146.856 146.158H146.746C146.679 144.15 146.631 137.492 146.631 129.605C146.631 124.825 146.67 120.523 146.679 117.368C146.679 115.834 146.717 114.577 146.732 113.659C146.732 113.248 146.732 112.918 146.76 112.65C146.758 112.532 146.768 112.413 146.789 112.297C146.817 112.412 146.829 112.531 146.823 112.65C146.823 112.918 146.823 113.248 146.851 113.659C146.851 114.577 146.88 115.834 146.904 117.368C146.904 120.537 146.933 124.844 146.947 129.605C146.947 137.492 146.899 144.15 146.837 146.158H146.746C146.747 145.907 146.768 145.656 146.808 145.408Z" fill="#F5F5F5"/>
<path d="M151.583 145.408C151.618 145.656 151.632 145.907 151.626 146.158H151.526C151.459 144.15 151.411 137.492 151.411 129.605C151.411 124.825 151.445 120.523 151.454 117.368C151.478 115.834 151.493 114.577 151.507 113.659C151.507 113.248 151.507 112.918 151.536 112.65C151.533 112.531 151.544 112.413 151.569 112.297C151.591 112.413 151.6 112.532 151.598 112.65C151.598 112.918 151.598 113.248 151.631 113.659C151.631 114.577 151.66 115.834 151.679 117.368C151.679 120.537 151.708 124.844 151.727 129.605C151.727 137.492 151.679 144.15 151.612 146.158H151.526C151.525 145.907 151.544 145.656 151.583 145.408Z" fill="#F5F5F5"/>
<path d="M156.354 145.408C156.388 145.656 156.403 145.907 156.397 146.158H156.306C156.239 144.15 156.191 137.492 156.191 129.605C156.191 124.825 156.225 120.523 156.239 117.368C156.239 115.834 156.277 114.577 156.287 113.659C156.287 113.248 156.287 112.918 156.32 112.65C156.318 112.532 156.328 112.413 156.349 112.297C156.374 112.413 156.386 112.531 156.383 112.65C156.383 112.918 156.383 113.248 156.411 113.659C156.411 114.577 156.44 115.834 156.464 117.368C156.464 120.537 156.488 124.844 156.507 129.605C156.507 137.492 156.459 144.15 156.392 146.158H156.306C156.302 145.907 156.318 145.656 156.354 145.408Z" fill="#F5F5F5"/>
<path d="M161.129 145.408C161.164 145.656 161.178 145.907 161.172 146.158H161.086C161.024 144.15 160.976 137.492 160.976 129.605C160.976 124.825 161.01 120.523 161.019 117.368C161.019 115.834 161.058 114.577 161.072 113.659C161.072 113.248 161.072 112.918 161.101 112.65C161.095 112.531 161.106 112.412 161.134 112.297C161.156 112.413 161.165 112.532 161.163 112.65C161.163 112.918 161.163 113.248 161.191 113.659C161.191 114.577 161.225 115.834 161.244 117.368C161.244 120.537 161.273 124.844 161.292 129.605C161.292 137.492 161.244 144.15 161.177 146.158H161.086C161.075 145.907 161.089 145.656 161.129 145.408Z" fill="#F5F5F5"/>
<path d="M165.9 145.408C165.934 145.656 165.948 145.907 165.943 146.158H165.866C165.799 144.15 165.751 137.492 165.751 129.605C165.751 124.825 165.785 120.523 165.799 117.368C165.799 115.834 165.833 114.577 165.847 113.659C165.847 113.248 165.871 112.918 165.876 112.65C165.873 112.531 165.884 112.413 165.909 112.297C165.931 112.413 165.942 112.532 165.943 112.65C165.943 112.918 165.943 113.248 165.971 113.659C165.971 114.577 166 115.834 166.019 117.368C166.019 120.537 166.048 124.844 166.067 129.605C166.067 137.492 166.019 144.15 165.952 146.158H165.866C165.857 145.907 165.868 145.656 165.9 145.408Z" fill="#F5F5F5"/>
<path d="M170.67 145.408C170.708 145.656 170.722 145.907 170.713 146.158H170.646C170.579 144.15 170.531 137.492 170.531 129.605C170.531 124.825 170.565 120.523 170.579 117.368C170.579 115.834 170.617 114.577 170.627 113.659C170.627 113.248 170.651 112.918 170.66 112.65C170.658 112.532 170.668 112.413 170.689 112.297C170.717 112.412 170.729 112.531 170.723 112.65C170.723 112.918 170.723 113.248 170.751 113.659C170.751 114.577 170.78 115.834 170.804 117.368C170.804 120.537 170.833 124.844 170.847 129.605C170.847 137.492 170.799 144.15 170.732 146.158H170.646C170.634 145.908 170.642 145.657 170.67 145.408Z" fill="#F5F5F5"/>
<path d="M175.426 145.408C175.46 145.656 175.475 145.907 175.469 146.158H175.426C175.359 144.15 175.311 137.492 175.311 129.605C175.311 124.825 175.345 120.523 175.354 117.368C175.378 115.834 175.393 114.577 175.407 113.659C175.407 113.248 175.407 112.918 175.436 112.65C175.43 112.531 175.441 112.412 175.469 112.297C175.491 112.413 175.5 112.532 175.498 112.65C175.498 112.918 175.498 113.248 175.531 113.659C175.531 114.577 175.56 115.834 175.579 117.368C175.579 120.537 175.608 124.844 175.627 129.605C175.627 137.492 175.579 144.15 175.512 146.158H175.426C175.403 145.908 175.403 145.657 175.426 145.408Z" fill="#F5F5F5"/>
<path d="M212.538 14.9805C212.624 15.0426 211.396 16.7969 209.751 18.8619C208.107 20.9268 206.611 22.4755 206.53 22.4038C206.448 22.3321 207.796 20.6735 209.436 18.6133C211.075 16.5531 212.447 14.9088 212.538 14.9805Z" fill="#E0E0E0"/>
<path d="M212.404 83.5257C212.318 83.5974 210.932 81.9913 209.312 79.9407C207.691 77.8901 206.444 76.1693 206.53 76.1167C206.616 76.0641 208.002 77.6559 209.627 79.7065C211.252 81.7571 212.49 83.4588 212.404 83.5257Z" fill="#E0E0E0"/>
<path d="M165.106 83.4731L171.32 75.8251L165.106 83.4731Z" fill="white"/>
<path d="M171.301 75.8299C171.387 75.9016 170.068 77.6654 168.361 79.7782C166.655 81.8909 165.192 83.5448 165.106 83.4731C165.02 83.4014 166.339 81.6376 168.051 79.5248C169.762 77.4121 171.215 75.763 171.301 75.8299Z" fill="#E0E0E0"/>
<path d="M165.111 14.9805C165.202 14.9088 166.569 16.5006 168.175 18.5273C169.781 20.554 171.009 22.2605 170.923 22.3513C170.837 22.4421 169.465 20.8312 167.864 18.7997C166.263 16.7682 165.025 15.0474 165.111 14.9805Z" fill="#E0E0E0"/>
<path d="M94.147 54.253H106.757V32.5231H94.147V54.253Z" fill="#EBEBEB"/>
<path d="M58.9757 54.6019H68.9325V27.4754H58.9757V54.6019Z" fill="#EBEBEB"/>
<path d="M58.8611 29.4352C58.8611 29.354 61.1411 29.2823 63.947 29.2823C66.7529 29.2823 69.0329 29.354 69.0329 29.4352C69.0329 29.5165 66.7576 29.5882 63.947 29.5882C61.1364 29.5882 58.8611 29.5213 58.8611 29.4352Z" fill="#FAFAFA"/>
<path d="M59.4155 30.7211C59.4155 30.6398 61.5665 30.5729 64.2242 30.5729C66.8819 30.5729 69.0329 30.6398 69.0329 30.7211C69.0329 30.8023 66.8819 30.874 64.2242 30.874C61.5665 30.874 59.4155 30.8071 59.4155 30.7211Z" fill="#FAFAFA"/>
<path d="M63.6745 49.234C63.5885 49.234 63.5216 45.6394 63.5216 41.2084C63.5216 36.7773 63.5885 33.1827 63.6745 33.1827C63.7606 33.1827 63.8227 36.7773 63.8227 41.2084C63.8227 45.6394 63.7558 49.234 63.6745 49.234Z" fill="#FAFAFA"/>
<path d="M58.9806 51.7339C58.9806 51.6527 61.1602 51.581 63.8514 51.581C66.5425 51.581 68.727 51.6527 68.727 51.7339C68.727 51.8152 66.5425 51.8869 63.8514 51.8869C61.1602 51.8869 58.9806 51.8152 58.9806 51.7339Z" fill="#FAFAFA"/>
<path d="M58.9806 52.9002C58.9806 52.8142 61.2176 52.7473 63.9757 52.7473C66.7337 52.7473 68.9708 52.8142 68.9708 52.9002C68.9708 52.9863 66.7337 53.0484 63.9757 53.0484C61.2176 53.0484 58.9806 52.9815 58.9806 52.9002Z" fill="#FAFAFA"/>
<path d="M68.9278 54.5971H76.9247V24.5405H68.9278V54.5971Z" fill="#E0E0E0"/>
<path d="M68.88 38.3499C69.318 38.5905 69.7311 38.8739 70.1132 39.196L72.9812 41.3852L75.8493 43.5792C76.2658 43.8585 76.6533 44.1788 77.006 44.5352C76.5518 44.3175 76.1223 44.0515 75.725 43.7418C74.9554 43.2207 73.9134 42.4751 72.7853 41.6147C71.6572 40.7543 70.6582 39.9512 69.9507 39.3537C69.5604 39.0566 69.2016 38.7203 68.88 38.3499Z" fill="#FAFAFA"/>
<path d="M68.8321 33.6416C68.8895 33.5795 70.7202 35.0756 72.9238 36.9494C75.1274 38.8232 76.8769 40.4245 76.8243 40.4866C76.7717 40.5487 74.9123 39.0526 72.7278 37.1788C70.5434 35.3051 68.7891 33.7038 68.8321 33.6416Z" fill="#FAFAFA"/>
<path d="M34.1724 54.621H37.9964V25.9841H34.1724V54.621Z" fill="#EBEBEB"/>
<path d="M34.33 29.8893C34.33 29.9897 35.1283 30.071 36.1178 30.071C37.1072 30.071 37.9103 29.9897 37.9103 29.8893C37.9103 29.789 37.112 29.7077 36.1178 29.7077C35.1235 29.7077 34.33 29.789 34.33 29.8893Z" fill="#FAFAFA"/>
<path d="M34.2487 29.2679C34.2487 29.3635 35.0518 29.4448 36.0412 29.4448C37.0307 29.4448 37.8337 29.3635 37.8337 29.2679C37.8337 29.1723 37.0307 29.0863 36.0412 29.0863C35.0518 29.0863 34.2487 29.158 34.2487 29.2679Z" fill="#FAFAFA"/>
<path d="M34.33 52.4079C34.33 52.5083 35.1283 52.5895 36.1178 52.5895C37.1072 52.5895 37.9103 52.5083 37.9103 52.4079C37.9103 52.3075 37.112 52.2263 36.1178 52.2263C35.1235 52.2263 34.33 52.3075 34.33 52.4079Z" fill="#FAFAFA"/>
<path d="M34.2487 51.7865C34.2487 51.8869 35.0518 51.9634 36.0412 51.9634C37.0307 51.9634 37.8337 51.8869 37.8337 51.7865C37.8337 51.6861 37.0307 51.624 36.0412 51.624C35.0518 51.624 34.2487 51.6861 34.2487 51.7865Z" fill="#FAFAFA"/>
<path d="M36.1992 48.0438C36.2995 48.0438 36.3808 44.7647 36.3808 40.7208C36.3808 36.6769 36.2995 33.3979 36.1992 33.3979C36.0988 33.3979 36.0175 36.6769 36.0175 40.7208C36.0175 44.7647 36.0988 48.0438 36.1992 48.0438Z" fill="#FAFAFA"/>
<path d="M51.3087 54.4394H58.9615V25.8024H51.3087V54.4394Z" fill="#E0E0E0"/>
<path d="M56.8105 54.8075C56.8468 54.7586 56.8773 54.7057 56.9013 54.6497C56.9539 54.5446 57.0304 54.3868 57.1164 54.1717C57.3815 53.5501 57.5693 52.8984 57.6757 52.231C57.866 51.16 57.7085 50.0561 57.2263 49.081C56.9027 48.479 56.4366 47.9653 55.8688 47.5849C55.2246 47.1432 54.439 46.9575 53.6652 47.0639C53.2454 47.1328 52.8521 47.3145 52.5276 47.5897C52.3496 47.7358 52.2075 47.9208 52.1122 48.1304C52.0169 48.3401 51.9709 48.5688 51.9779 48.799C51.9988 49.0353 52.0676 49.2648 52.1802 49.4735C52.2928 49.6823 52.4468 49.8659 52.6328 50.0131C53.0016 50.3257 53.4566 50.519 53.9377 50.5676C54.434 50.607 54.933 50.5391 55.4007 50.3683C55.8684 50.1976 56.2938 49.9281 56.648 49.5781C57.4131 48.8597 57.892 47.8884 57.9959 46.844C58.1019 45.7618 57.9664 44.6696 57.5992 43.6462C57.2573 42.553 56.6046 41.583 55.7206 40.8546C55.2466 40.4809 54.6731 40.2549 54.0715 40.2046C53.7574 40.1737 53.4402 40.2126 53.1428 40.3183C52.8454 40.4241 52.5749 40.5941 52.3507 40.8164C52.1175 41.058 51.9784 41.375 51.9588 41.7103C51.9478 42.0482 52.0395 42.3815 52.2217 42.6663C52.5795 43.2057 53.1332 43.5845 53.7656 43.7226C54.3737 43.8369 55.0009 43.7927 55.5869 43.5943C56.1729 43.3959 56.698 43.0499 57.1116 42.5898C57.8801 41.6823 58.3404 40.5541 58.4261 39.3681C58.5565 38.242 58.444 37.101 58.0963 36.0221C57.7743 34.9606 57.0801 34.0508 56.1413 33.46C55.6959 33.1722 55.1891 32.9933 54.6618 32.9377C54.1345 32.882 53.6016 32.9512 53.106 33.1397C52.8545 33.2334 52.6307 33.3889 52.4553 33.5919C52.2798 33.7949 52.1584 34.0389 52.1022 34.3013C52.0573 34.5514 52.0652 34.8082 52.1253 35.0551C52.1854 35.302 52.2964 35.5337 52.4511 35.7353C52.7641 36.0922 53.1763 36.3478 53.6352 36.4696C54.094 36.5913 54.5788 36.5736 55.0275 36.4188C55.8282 36.1455 56.5334 35.6477 57.059 34.9848C57.9924 33.8869 58.5339 32.5096 58.5982 31.07C58.6235 30.1912 58.4667 29.3167 58.1377 28.5015C57.8086 27.6863 57.3144 26.948 56.6862 26.333C56.5616 26.2113 56.429 26.0979 56.2895 25.9936C56.2439 25.9534 56.1943 25.9182 56.1413 25.8885C56.8063 26.4949 57.3553 27.2173 57.7617 28.0203C58.2291 28.9664 58.4479 30.0159 58.3974 31.07C58.316 32.4499 57.7836 33.7648 56.8822 34.8127C56.3861 35.4338 55.7227 35.8999 54.9702 36.1559C54.5769 36.2912 54.1523 36.3071 53.75 36.2016C53.3477 36.0961 52.9856 35.874 52.7092 35.5632C52.583 35.392 52.4929 35.197 52.4444 34.9899C52.3959 34.7828 52.3901 34.568 52.4272 34.3586C52.4693 34.143 52.5661 33.9417 52.7085 33.7743C52.8508 33.6069 53.0337 33.4789 53.2398 33.4026C53.6896 33.2364 54.1721 33.178 54.6486 33.2319C55.1251 33.2859 55.5823 33.4508 55.9835 33.7133C56.8581 34.2652 57.5047 35.1137 57.8047 36.1033C58.1311 37.1341 58.2337 38.2227 58.1059 39.2964C58.026 40.407 57.5978 41.4642 56.8822 42.3173C56.5075 42.7322 56.0323 43.0438 55.5025 43.2221C54.9726 43.4004 54.4057 43.4394 53.8564 43.3355C53.3171 43.2207 52.8437 42.9 52.5372 42.4416C52.3864 42.2354 52.3125 41.9831 52.3282 41.7282C52.3439 41.4733 52.4483 41.2319 52.6232 41.0458C52.8128 40.8663 53.0394 40.7304 53.2872 40.6478C53.5349 40.5652 53.7978 40.5379 54.0572 40.5678C54.5906 40.6107 55.0995 40.8103 55.5199 41.1414C56.3466 41.8296 56.9587 42.7403 57.2837 43.7657C57.6382 44.7374 57.7721 45.7759 57.6757 46.8057C57.5891 47.7811 57.1508 48.6918 56.4424 49.3678C56.1218 49.6885 55.7362 49.9368 55.3116 50.0959C54.8869 50.2551 54.4331 50.3214 53.9807 50.2904C53.1394 50.2187 52.3173 49.5781 52.2647 48.8038C52.2587 48.6147 52.296 48.4268 52.3739 48.2545C52.4518 48.0821 52.5681 47.9299 52.714 47.8095C52.9978 47.5602 53.3453 47.3947 53.7178 47.3315C54.4323 47.2345 55.1574 47.4047 55.7541 47.8095C56.2977 48.1639 56.7458 48.6465 57.059 49.2149C57.5364 50.1485 57.7039 51.2101 57.537 52.2454C57.447 52.8981 57.2867 53.5391 57.059 54.1574C56.9651 54.3697 56.8822 54.5867 56.8105 54.8075Z" fill="#FAFAFA"/>
<path d="M37.9342 54.449H51.2082V28.3693H37.9342V54.449Z" fill="#FAFAFA"/>
<path d="M38.3884 32.7048C38.3884 32.8051 41.2564 32.8864 44.8127 32.8864C48.369 32.8864 51.237 32.8051 51.237 32.7048C51.237 32.6044 48.369 32.5279 44.8127 32.5279C41.2564 32.5279 38.3884 32.6092 38.3884 32.7048Z" fill="#E0E0E0"/>
<path d="M38.2401 34.6837C38.2401 34.7841 41.0794 34.8653 44.5831 34.8653C48.0868 34.8653 50.9214 34.7841 50.9214 34.6837C50.9214 34.5833 48.0821 34.502 44.5831 34.502C41.0841 34.502 38.2401 34.5833 38.2401 34.6837Z" fill="#E0E0E0"/>
<path d="M37.8004 51.5045C37.8004 51.6049 40.7879 51.6814 44.4924 51.6814C48.1969 51.6814 51.1844 51.6049 51.1844 51.5045C51.1844 51.4041 48.1969 51.3229 44.4924 51.3229C40.7879 51.3229 37.8004 51.4041 37.8004 51.5045Z" fill="#E0E0E0"/>
<path d="M37.9772 49.1814C37.9772 49.277 40.893 49.3583 44.4828 49.3583C48.0726 49.3583 50.9931 49.277 50.9931 49.1814C50.9931 49.0858 48.0773 48.9998 44.4828 48.9998C40.8882 48.9998 37.9772 49.081 37.9772 49.1814Z" fill="#E0E0E0"/>
<path d="M76.9199 54.2578H84.5727V25.6208H76.9199V54.2578Z" fill="#EBEBEB"/>
<path d="M82.4168 54.6211C82.4168 54.6211 82.4551 54.5733 82.5076 54.4681C82.5602 54.3629 82.6367 54.2004 82.7275 53.9901C82.9906 53.3682 83.1768 52.7165 83.282 52.0494C83.4754 50.9784 83.3178 49.8736 82.8327 48.8994C82.5122 48.2967 82.0474 47.7827 81.4799 47.4033C80.8354 46.9625 80.0501 46.7768 79.2764 46.8822C78.8547 46.9499 78.4596 47.1317 78.1339 47.408C77.9568 47.5549 77.8152 47.74 77.72 47.9495C77.6248 48.159 77.5783 48.3873 77.5842 48.6174C77.6062 48.8534 77.6755 49.0825 77.7881 49.2911C77.9006 49.4997 78.054 49.6835 78.2391 49.8315C78.6086 50.1423 79.0635 50.334 79.544 50.3812C80.0408 50.4216 80.5404 50.3546 81.0089 50.1847C81.4774 50.0148 81.9038 49.746 82.2591 49.3965C83.0234 48.6702 83.5002 47.6927 83.6023 46.6432C83.7082 45.5626 83.5727 44.472 83.2055 43.4502C82.865 42.3576 82.2139 41.3877 81.3318 40.6587C80.8559 40.2849 80.2809 40.0588 79.6779 40.0086C79.3638 39.9804 79.0474 40.0214 78.7509 40.1288C78.4544 40.2361 78.185 40.4072 77.9619 40.63C77.7247 40.8713 77.5837 41.1908 77.5651 41.5286C77.5541 41.8666 77.6458 42.1999 77.828 42.4846C78.1874 43.0215 78.7408 43.3984 79.372 43.5362C79.9796 43.6515 80.6067 43.6083 81.1928 43.4107C81.7789 43.2131 82.3042 42.8678 82.718 42.4082C83.4856 41.5001 83.9457 40.3723 84.0325 39.1864C84.1623 38.0604 84.0499 36.9195 83.7026 35.8404C83.3801 34.7727 82.6823 33.8577 81.7381 33.264C81.291 32.9781 80.7833 32.8006 80.2554 32.7458C79.7276 32.691 79.1942 32.7605 78.698 32.9485C78.4484 33.0442 78.2269 33.2012 78.054 33.4051C77.8811 33.6089 77.7623 33.853 77.7085 34.1149C77.6654 34.365 77.6742 34.6214 77.7342 34.8681C77.7942 35.1147 77.9043 35.3464 78.0575 35.5489C78.3705 35.9058 78.7827 36.1614 79.2415 36.2832C79.7004 36.4049 80.1851 36.3872 80.6339 36.2324C81.4328 35.9557 82.1371 35.4586 82.6654 34.7984C83.597 33.6946 84.1351 32.3124 84.195 30.8692C84.2229 29.9909 84.0672 29.1163 83.738 28.3015C83.4088 27.4867 82.9132 26.7495 82.283 26.137C82.1569 26.0154 82.0244 25.9005 81.8862 25.7929C81.8417 25.7528 81.7918 25.719 81.7381 25.6925C82.4066 26.295 82.9577 27.0162 83.3633 27.8196C83.9011 28.9166 84.1036 30.1479 83.9455 31.3594C83.7874 32.5709 83.2756 33.7089 82.4742 34.6311C81.9763 35.2502 81.3135 35.7159 80.5622 35.9743C80.1693 36.1064 79.7461 36.1197 79.3457 36.0126C78.9452 35.9054 78.5853 35.6826 78.3108 35.372C78.1822 35.202 78.0903 35.0072 78.0409 34.7998C77.9916 34.5925 77.9858 34.3771 78.024 34.1674C78.0702 33.9563 78.1689 33.7602 78.3109 33.5973C78.4529 33.4344 78.6337 33.3099 78.8366 33.2353C79.2864 33.0692 79.7689 33.0107 80.2454 33.0647C80.7219 33.1186 81.1791 33.2835 81.5803 33.546C82.457 34.0957 83.1042 34.945 83.4015 35.936C83.728 36.9668 83.8323 38.0551 83.7074 39.1291C83.6249 40.24 83.1952 41.2968 82.479 42.15C82.1042 42.565 81.6291 42.8765 81.0992 43.0548C80.5694 43.2331 80.0025 43.2722 79.4532 43.1682C78.9146 43.0515 78.442 42.7313 78.1339 42.2743C77.9832 42.0682 77.9093 41.8158 77.925 41.5609C77.9407 41.306 78.0451 41.0646 78.22 40.8786C78.4103 40.7001 78.637 40.5649 78.8846 40.4824C79.1321 40.3999 79.3946 40.372 79.654 40.4006C80.1879 40.4451 80.6967 40.6463 81.1167 40.9789C81.9457 41.663 82.5584 42.573 82.8805 43.5984C83.2349 44.5718 83.3688 45.6118 83.2724 46.6432C83.1865 47.6174 82.748 48.5267 82.0392 49.2005C81.7188 49.5215 81.3332 49.77 80.9085 49.9291C80.4838 50.0883 80.0299 50.1544 79.5775 50.1231C78.7362 50.0562 77.9141 49.4156 77.8663 48.6413C77.8578 48.4524 77.8936 48.2641 77.9708 48.0915C78.048 47.9189 78.1644 47.7667 78.3108 47.647C78.5966 47.4008 78.9432 47.2357 79.3146 47.169C80.0291 47.072 80.7542 47.2422 81.3509 47.647C81.8932 48.001 82.341 48.4817 82.6558 49.0476C83.133 49.9831 83.3003 51.046 83.1338 52.0829C83.0471 52.744 82.8868 53.3933 82.6558 54.0188C82.5029 54.3964 82.4025 54.6163 82.4168 54.6211Z" fill="#FAFAFA"/>
<path d="M23.5416 54.253H34.1724L34.1724 24.1724H23.5416L23.5416 54.253Z" fill="#E0E0E0"/>
<path d="M84.5679 54.2578H94.5103V27.4802H84.5679V54.2578Z" fill="#E0E0E0"/>
<path d="M94.7635 40.8307C95.2456 41.2652 95.7766 41.6422 96.3457 41.954C96.9698 42.2658 97.6482 42.4541 98.3437 42.5085C99.1952 42.5745 100.05 42.4266 100.829 42.0783C101.666 41.7198 102.435 41.2609 103.219 40.9885C103.906 40.7126 104.659 40.6444 105.385 40.7925C105.875 40.9025 106.316 41.1693 106.642 41.5525C106.767 41.6859 106.853 41.8513 106.89 42.0305C106.862 42.0305 106.79 41.868 106.556 41.6338C106.221 41.3074 105.797 41.0878 105.337 41.0028C104.653 40.8925 103.952 40.9787 103.315 41.2514C102.574 41.5238 101.819 41.9827 100.949 42.3556C100.126 42.7233 99.2218 42.8715 98.3246 42.7858C97.5968 42.7153 96.891 42.4973 96.2501 42.1452C95.818 41.9149 95.4271 41.6145 95.0933 41.2562C94.9554 41.1384 94.8432 40.9936 94.7635 40.8307Z" fill="#FAFAFA"/>
<path d="M94.5389 43.498C95.024 43.9288 95.5545 44.3054 96.1211 44.6213C96.7471 44.9281 97.4246 45.1161 98.1192 45.1758C98.9703 45.2362 99.8234 45.0885 100.605 44.7456C101.441 44.3823 102.211 43.9234 102.995 43.6557C103.682 43.3749 104.438 43.3066 105.165 43.4597C105.654 43.5691 106.094 43.8361 106.417 44.2198C106.546 44.3508 106.632 44.5172 106.666 44.6978C106.637 44.6978 106.565 44.5305 106.331 44.2962C105.997 43.9721 105.575 43.7528 105.117 43.6653C104.431 43.5568 103.729 43.6447 103.09 43.9186C102.349 44.1863 101.594 44.65 100.724 45.0228C99.9008 45.3887 98.9972 45.5368 98.1 45.453C97.3719 45.381 96.666 45.1614 96.0255 44.8077C95.5956 44.5759 95.2052 44.2774 94.8688 43.9234C94.734 43.8027 94.6223 43.6586 94.5389 43.498Z" fill="#FAFAFA"/>
<path d="M94.7062 34.894C94.7062 34.8127 97.4404 34.7458 100.82 34.7458C104.199 34.7458 106.933 34.8127 106.933 34.894C106.933 34.9753 104.195 35.047 100.82 35.047C97.4452 35.047 94.7062 34.9896 94.7062 34.894Z" fill="#FAFAFA"/>
<path d="M90.1987 31.7918C89.9247 31.679 89.6224 31.654 89.3336 31.7201C89.1883 31.758 89.0531 31.8273 88.9375 31.9231C88.8218 32.0189 88.7286 32.1389 88.6644 32.2745C88.6114 32.4441 88.6068 32.6251 88.651 32.7971C88.6951 32.9692 88.7864 33.1255 88.9144 33.2486C89.0425 33.3717 89.2023 33.4567 89.376 33.494C89.5496 33.5313 89.7303 33.5196 89.8976 33.46C90.0311 33.39 90.1477 33.2917 90.2393 33.172C90.331 33.0523 90.3954 32.914 90.4282 32.7669C90.4809 32.4745 90.4443 32.173 90.323 31.9017C90.323 31.9017 90.4186 31.9399 90.5142 32.0881C90.6351 32.3063 90.6789 32.559 90.6385 32.8051C90.6128 32.9932 90.5438 33.1728 90.4367 33.3296C90.3297 33.4864 90.1877 33.6161 90.0219 33.7086C89.8043 33.7914 89.5676 33.8104 89.3395 33.7635C89.1115 33.7165 88.9016 33.6054 88.7345 33.4433C88.5674 33.2812 88.45 33.0748 88.396 32.8483C88.3421 32.6218 88.354 32.3846 88.4301 32.1646C88.5166 31.9952 88.6409 31.8481 88.7934 31.7345C88.946 31.6209 89.1226 31.544 89.3097 31.5097C89.5545 31.4565 89.8104 31.4921 90.0314 31.6101C90.1605 31.6962 90.2083 31.7822 90.1987 31.7918Z" fill="#FAFAFA"/>
<path d="M89.5582 51.5762C89.4722 51.5762 89.4053 47.8191 89.4053 43.1921C89.4053 38.565 89.4722 34.808 89.5582 34.808C89.6443 34.808 89.7064 38.5603 89.7064 43.1921C89.7064 47.8239 89.6395 51.5762 89.5582 51.5762Z" fill="#FAFAFA"/>
<path d="M117.144 54.1048H14.235V59.9794H117.144V54.1048Z" fill="#EBEBEB"/>
<path d="M117.148 54.1048H108.162V59.9794H117.148V54.1048Z" fill="#E0E0E0"/>
<path d="M130.246 69.4311L134.988 61.0757C132.056 56.3169 131.01 50.6335 132.056 45.1427C133.102 39.6519 136.163 34.7508 140.639 31.4029C145.115 28.0549 150.681 26.5021 156.244 27.0498C161.807 27.5975 166.963 30.206 170.7 34.3626C174.437 38.5193 176.484 43.9233 176.439 49.5126C176.394 55.1019 174.26 60.4722 170.456 64.5678C166.652 68.6635 161.454 71.1883 155.883 71.6459C150.313 72.1036 144.772 70.461 140.351 67.0411L130.246 69.4311Z" fill="#FAFAFA"/>
<path d="M130.246 69.4295L140.37 67.1112C140.386 67.1077 140.401 67.0978 140.411 67.0835C140.421 67.0693 140.425 67.0518 140.422 67.0347V67.0108L140.336 67.0969C141.753 68.1983 143.295 69.1289 144.93 69.8693C146.876 70.7381 148.936 71.3241 151.048 71.6092C152.22 71.7727 153.403 71.8319 154.585 71.786C155.197 71.7526 155.814 71.7382 156.44 71.6857L158.328 71.3989C162.692 70.5415 166.705 68.4134 169.863 65.2819C173.021 62.1505 175.182 58.1554 176.076 53.7989C176.72 50.5038 176.628 47.1074 175.808 43.8517C174.97 40.4507 173.331 37.2993 171.028 34.6598L170.115 33.656C169.814 33.3166 169.461 33.0394 169.136 32.7287C168.811 32.418 168.486 32.1073 168.122 31.8491L167.028 31.07C166.675 30.8 166.304 30.5541 165.919 30.3339L164.781 29.636L163.596 29.0576C163.207 28.8565 162.806 28.6793 162.396 28.527C159.208 27.2654 155.777 26.7393 152.358 26.9879C149.13 27.2084 145.991 28.1352 143.161 29.7029C138.083 32.5369 134.284 37.2109 132.549 42.7619C131.863 45.1226 131.54 47.5743 131.593 50.0323C131.654 52.1661 132.023 54.2799 132.688 56.3084C133.245 57.9933 133.997 59.6072 134.93 61.1171V61.0549L130.241 69.4438L135.021 61.1171C135.025 61.1074 135.028 61.0968 135.028 61.086C135.028 61.0752 135.025 61.0646 135.021 61.0549C134.102 59.553 133.363 57.9487 132.817 56.2749C132.169 54.2649 131.811 52.1723 131.756 50.0609C131.717 47.6218 132.05 45.191 132.745 42.8527C134.469 37.3627 138.233 32.7433 143.261 29.9467C146.056 28.4 149.157 27.4846 152.343 27.2651C155.719 27.0309 159.104 27.5535 162.252 28.7947C162.67 28.9308 163.078 29.092 163.476 29.2775L164.652 29.8463L165.77 30.5299C166.155 30.744 166.522 30.9869 166.87 31.2564L167.941 32.026C168.304 32.2841 168.605 32.6139 168.94 32.9007C169.274 33.1875 169.618 33.4839 169.896 33.8185L170.794 34.8127C173.074 37.4206 174.699 40.5339 175.536 43.8947C176.346 47.1128 176.438 50.4698 175.804 53.7272C175.183 56.8088 173.912 59.7224 172.075 62.2738C168.781 66.9011 163.849 70.1005 158.28 71.222L156.411 71.5088C155.79 71.5614 155.178 71.5805 154.571 71.614C153.399 71.6627 152.225 71.6067 151.062 71.4467C148.961 71.1687 146.911 70.5925 144.973 69.7354C143.344 69.007 141.805 68.091 140.389 67.006C140.376 66.9991 140.361 66.9965 140.347 66.9985C140.333 67.0006 140.319 67.0072 140.309 67.0174C140.299 67.0277 140.292 67.0409 140.29 67.0553C140.288 67.0696 140.291 67.0842 140.298 67.0969L140.331 66.9965L130.246 69.4295Z" fill="#263238"/>
<path d="M144.543 48.235C144.641 47.0594 145.096 45.942 145.848 45.0324C146.554 44.1219 147.526 43.4537 148.629 43.1204C149.574 42.858 150.579 42.9139 151.488 43.2793C152.398 43.6447 153.162 44.2994 153.663 45.1423C154.091 44.2977 154.776 43.6109 155.62 43.1813C156.464 42.7517 157.422 42.6015 158.357 42.7523C159.493 42.9658 160.533 43.531 161.33 44.368C162.185 45.1837 162.768 46.2438 162.998 47.4032C163.26 48.8833 163.039 50.4084 162.367 51.753C161.573 53.1209 160.463 54.2795 159.131 55.1325C156.975 56.5952 154.136 58.4355 154.136 58.4355C154.136 58.4355 151.555 56.7195 149.256 55.4958C147.837 54.7946 146.608 53.7636 145.671 52.4892C144.848 51.2288 144.453 49.7373 144.543 48.235Z" fill="#7D5CD7"/>
<path d="M65.9161 152.324C65.9161 152.802 60.3044 161.832 60.835 175.827C61.3656 189.823 72.0202 226.309 72.0202 226.309H120.236C120.236 226.309 121.412 221.314 124.404 208.977C127.396 196.64 133.305 187.032 133.486 177.367C133.668 167.701 131.096 153.624 131.096 153.624L65.9161 152.324Z" fill="#263238"/>
<path d="M100.543 182.682C100.478 182.634 100.419 182.58 100.366 182.52L99.8877 182.042L99.5435 181.678L99.1086 181.277C98.7657 180.939 98.4051 180.62 98.0283 180.321L97.3782 179.785L96.6421 179.25C96.1402 178.863 95.557 178.528 94.9643 178.141C93.6391 177.366 92.2606 176.685 90.8392 176.105C89.4119 175.533 87.9494 175.054 86.4607 174.671C85.7724 174.513 85.1175 174.346 84.4961 174.241L83.5975 174.078L82.7657 173.959C82.2352 173.873 81.7524 173.834 81.3317 173.791C80.9111 173.748 80.543 173.715 80.2467 173.7L79.5536 173.653C79.4724 173.653 79.3916 173.64 79.3146 173.614H79.5536H80.2515C80.5526 173.614 80.9207 173.614 81.3461 173.662C81.7715 173.71 82.2591 173.72 82.7801 173.796L83.6166 173.896L84.5248 174.049C85.151 174.145 85.8106 174.303 86.5037 174.456C88.0086 174.822 89.486 175.293 90.9252 175.866C92.3583 176.45 93.7452 177.142 95.0742 177.936C95.667 178.332 96.2549 178.676 96.752 179.073L97.4881 179.618L98.1334 180.173C98.5493 180.512 98.8935 180.861 99.1994 181.162L99.62 181.583L99.9498 181.965L100.394 182.496C100.504 182.596 100.552 182.677 100.543 182.682Z" fill="#455A64"/>
<path d="M109.605 174.977C109.605 175.02 108.979 175.24 108.014 175.746C107.449 176.04 106.903 176.369 106.379 176.731C105.743 177.176 105.132 177.654 104.548 178.165C103.5 179.122 102.532 180.163 101.651 181.277C100.973 182.132 100.576 182.711 100.542 182.663C100.603 182.513 100.681 182.372 100.777 182.242C100.934 181.984 101.188 181.616 101.513 181.172C102.359 180.014 103.32 178.944 104.381 177.979C104.972 177.46 105.596 176.981 106.25 176.544C106.787 176.186 107.35 175.867 107.932 175.588C108.325 175.403 108.729 175.244 109.142 175.11C109.29 175.047 109.446 175.002 109.605 174.977Z" fill="#455A64"/>
<path d="M118.066 173.366C117.217 173.029 116.339 172.775 115.442 172.606C113.257 172.283 111.026 172.48 108.931 173.179C106.842 173.898 104.837 174.84 102.952 175.99L101.216 177.013C101.01 177.149 100.793 177.268 100.566 177.367C100.753 177.203 100.954 177.057 101.169 176.932C101.561 176.664 102.125 176.286 102.865 175.842C104.738 174.634 106.751 173.659 108.86 172.94C110.987 172.226 113.258 172.05 115.47 172.429C116.136 172.555 116.785 172.753 117.406 173.022C117.631 173.112 117.789 173.208 117.884 173.261C117.98 173.313 118.066 173.356 118.066 173.366Z" fill="#455A64"/>
<path d="M100.299 225.501C100.295 225.465 100.295 225.428 100.299 225.391C100.299 225.301 100.299 225.195 100.299 225.066C100.318 224.748 100.342 224.332 100.37 223.819C100.437 222.715 100.528 221.151 100.643 219.235C100.853 215.363 101.063 210.009 101.121 204.096C101.178 198.184 101.006 192.825 100.839 188.953C100.748 187.041 100.671 185.469 100.619 184.365C100.593 183.839 100.574 183.423 100.561 183.117V182.792C100.559 182.755 100.559 182.719 100.561 182.682C100.568 182.718 100.568 182.756 100.561 182.792L100.595 183.112C100.595 183.418 100.652 183.834 100.7 184.36C100.786 185.44 100.891 187.008 100.996 188.944C101.207 192.816 101.384 198.174 101.35 204.096C101.317 210.019 101.078 215.372 100.82 219.244C100.695 221.18 100.576 222.743 100.475 223.823C100.423 224.349 100.385 224.779 100.356 225.071C100.356 225.2 100.327 225.305 100.318 225.391C100.318 225.429 100.312 225.466 100.299 225.501Z" fill="#455A64"/>
<path d="M121.202 87.0247C118.334 85.9157 114.988 84.2523 114.796 81.3699C114.615 78.8987 116.919 76.8003 117.11 74.3338C117.358 71.0643 114.032 68.6838 111.976 66.0166C111.411 65.2834 110.921 64.4956 110.514 63.6648C110.389 63.1868 110.279 62.6849 110.193 62.1878C109.715 59.3198 109.997 56.404 110.074 53.5073C110.15 50.6106 108.114 47.7379 106.799 45.1089C105.093 41.7007 103.281 39.0908 99.2614 38.6176C90.122 48.4931 84.735 61.9679 87.7607 74.6779C88.8314 79.1759 90.7387 83.5592 93.8026 87.1872C96.9287 90.9507 101.213 93.5728 105.987 94.644C106.073 93.9461 106.159 93.2482 106.24 92.5504C108.417 93.9775 111.038 94.5653 113.616 94.2042L111.579 91.7856C112.722 92.3982 114.008 92.6938 115.303 92.6417C116.598 92.5896 117.856 92.1917 118.945 91.4892C118.525 91.3697 118.132 91.1662 117.792 90.891C117.452 90.6158 117.171 90.2746 116.967 89.8879C118.883 90.1508 120.877 88.7933 121.202 87.0247Z" fill="#263238"/>
<path d="M62.1686 86.4367C63.1246 84.3144 64.4009 82.0582 63.8321 80.022C63.5835 79.1185 62.9765 78.3346 62.8761 77.393C62.6275 74.9695 65.7441 72.7229 65.9735 70.223C66.2508 67.1016 61.8914 64.855 63.2489 61.8245C63.899 60.3666 65.6389 59.4345 66.7527 58.1582C69.5729 54.9078 66.6857 50.1996 73.7267 43.1634L77.5124 54.492C78.3792 64.9463 79.891 75.3371 82.0391 85.605L62.5558 92.493C60.7585 91.188 61.2318 88.559 62.1686 86.4367Z" fill="#263238"/>
<path d="M94.2041 35.0374C91.1162 33.9714 87.6651 34.3299 84.6154 35.5154C81.5658 36.7008 78.8794 38.608 76.3508 40.6921C74.9168 41.8632 73.5497 43.1204 72.6654 44.7264C71.0498 47.6566 71.3653 51.2225 71.7094 54.5493C72.001 57.2357 72.3356 60.0511 73.87 62.2738C74.5838 63.2935 75.5175 64.1398 76.6021 64.7504C77.6867 65.3609 78.8946 65.7201 80.1366 65.8015L100.628 40.869C99.9982 39.5193 99.1056 38.3085 98.0026 37.3073C96.8996 36.3061 95.6084 35.5344 94.2041 35.0374Z" fill="#263238"/>
<path d="M103.09 48.4548C101.862 43.2733 97.2873 37.4608 92.1632 38.8948L80.6051 44.019C78.8267 44.8065 77.3481 46.1442 76.3869 47.835C75.4257 49.5259 75.0328 51.4807 75.2659 53.4117C75.2659 53.6124 75.2229 53.3734 75.2659 53.5216L81.4799 85.0171C81.971 87.4992 83.4261 89.6855 85.5263 91.0967C87.6265 92.5079 90.2005 93.0289 92.6842 92.5456C95.145 92.08 97.3248 90.6674 98.755 88.6115C100.185 86.5556 100.752 84.0206 100.332 81.5516C99.902 78.999 99.5961 77.1683 99.5961 77.1826C99.5961 77.197 105.901 73.7458 105.786 64.7546C105.734 60.314 104.457 54.2099 103.09 48.4548Z" fill="#FFBE9D"/>
<path d="M90.9729 47.757C91.8391 47.9096 92.7224 47.9402 93.5971 47.8478C94.4756 47.8247 95.3463 47.6766 96.1831 47.408C96.1831 47.3459 95.0168 47.5371 93.5828 47.6327C92.1488 47.7283 90.9777 47.69 90.9729 47.757Z" fill="#EB996E"/>
<path d="M92.8705 47.1117C93.9531 47.2687 95.0579 47.1436 96.0779 46.7484C95.5421 46.7643 95.0083 46.8218 94.4814 46.9205C93.9407 46.9474 93.4025 47.0113 92.8705 47.1117Z" fill="#EB996E"/>
<path d="M92.1678 65.008C92.2252 65.008 92.2395 64.6352 92.555 64.3531C92.8705 64.0711 93.229 64.0616 93.2338 64.0042C93.2385 63.9468 93.1429 63.9277 92.9804 63.9373C92.7657 63.9554 92.5635 64.0456 92.4064 64.1931C92.2494 64.3405 92.1468 64.5368 92.1152 64.7499C92.0961 64.9315 92.1391 65.008 92.1678 65.008Z" fill="#EB996E"/>
<path d="M98.468 55.5388C98.5636 55.3571 99.5626 55.7443 100.743 55.4145C101.924 55.0847 102.622 54.2625 102.789 54.3677C102.87 54.4155 102.789 54.7118 102.502 55.0895C102.09 55.5851 101.534 55.9394 100.911 56.1028C100.298 56.2765 99.6461 56.248 99.0511 56.0216C98.6162 55.8447 98.425 55.62 98.468 55.5388Z" fill="#263238"/>
<path d="M86.6565 56.8294C86.8047 56.686 87.6459 57.3504 88.8648 57.3839C90.0837 57.4173 91.0015 56.8342 91.1306 56.9871C91.1927 57.0588 91.0445 57.3217 90.6526 57.5942C90.1105 57.9362 89.4763 58.1031 88.8362 58.0722C88.1999 58.0544 87.5856 57.8352 87.0819 57.446C86.7091 57.164 86.5848 56.882 86.6565 56.8294Z" fill="#263238"/>
<path d="M96.6325 62.8665C96.6325 62.7996 97.3447 62.5415 98.5445 62.1782C98.8456 62.0922 99.1277 61.9822 99.142 61.7624C99.1169 61.4405 98.9915 61.1345 98.7835 60.8876L97.469 58.6984C95.6335 55.5818 94.2473 52.9958 94.3715 52.9241C94.4958 52.8524 96.0923 55.3141 97.9279 58.4355C98.3724 59.2098 98.7978 59.9412 99.2041 60.6438C99.4611 60.9822 99.5914 61.4 99.5722 61.8245C99.5458 61.9405 99.4934 62.049 99.4188 62.1418C99.3443 62.2345 99.2496 62.3091 99.142 62.3599C98.9798 62.4373 98.8077 62.492 98.6305 62.5224C97.4068 62.7996 96.6516 62.9335 96.6325 62.8665Z" fill="#263238"/>
<path d="M87.6365 74.8596C87.6365 74.8596 89.2426 80.261 99.8924 78.9321L99.5961 77.1826C95.5012 77.1447 91.4478 76.3574 87.6365 74.8596Z" fill="#EB996E"/>
<path d="M96.6229 65.8588C96.3446 65.6088 96.0073 65.4337 95.6427 65.3501C95.2781 65.2665 94.8982 65.2771 94.5388 65.3808C94.278 65.4484 94.0335 65.5679 93.82 65.7322C93.6064 65.8964 93.4282 66.1021 93.296 66.3368C93.1733 66.5629 93.1218 66.8209 93.1482 67.0768C93.1747 67.3327 93.2778 67.5746 93.4442 67.7708C93.6748 67.9545 93.9551 68.0649 94.249 68.0879C94.5429 68.1109 94.8369 68.0454 95.0933 67.8999C95.6289 67.6018 96.0988 67.1986 96.4747 66.7145C96.5967 66.596 96.6941 66.4547 96.7615 66.2986C96.7939 66.224 96.8035 66.1416 96.789 66.0616C96.7745 65.9816 96.7367 65.9077 96.6803 65.8493" fill="#EB996E"/>
<path d="M93.2099 64.3101C93.4059 64.2623 93.6353 65.572 94.9116 66.3081C96.1878 67.0443 97.5597 66.6619 97.5979 66.8435C97.6314 66.92 97.335 67.1494 96.7471 67.2689C95.9823 67.4077 95.193 67.2759 94.5148 66.8961C93.8655 66.5277 93.3853 65.9207 93.1764 65.204C93.0522 64.6686 93.1382 64.3197 93.2099 64.3101Z" fill="#263238"/>
<path d="M85.5619 52.8285C85.5284 52.4748 86.6948 52.0877 87.9089 51.3037C89.123 50.5198 89.9977 49.669 90.2989 49.8697C90.4375 49.9606 90.3945 50.3477 90.1125 50.8257C89.7197 51.4442 89.1926 51.9661 88.5702 52.3526C87.9479 52.7391 87.2463 52.9802 86.5179 53.058C85.9586 53.1106 85.6049 52.9911 85.5619 52.8285Z" fill="#263238"/>
<path d="M97.4115 48.3545C97.7365 48.125 98.8121 48.5743 100.155 48.7894C101.498 49.0045 102.67 48.9759 102.889 49.3057C102.98 49.4586 102.76 49.7072 102.225 49.8936C101.478 50.1178 100.687 50.1572 99.921 50.0083C99.1564 49.8942 98.4321 49.5919 97.813 49.1288C97.3781 48.7799 97.2633 48.4692 97.4115 48.3545Z" fill="#263238"/>
<path d="M97.2346 37.5612C94.7747 36.1048 91.888 35.541 89.0608 35.9647C86.2327 36.3881 83.5638 37.5414 81.3172 39.3107C77.9139 41.9588 75.5239 45.6729 74.0038 49.5925C73.6488 50.3372 73.4846 51.1585 73.5258 51.9825C73.6214 52.7712 74.0755 53.5121 74.0038 54.3056C73.9226 55.209 73.1912 55.9355 72.8566 56.7864C72.5479 57.635 72.5632 58.5678 72.8996 59.4058C72.76 59.7356 72.6418 60.0741 72.5459 60.4192C72.5125 60.5435 72.4838 60.6295 72.4551 60.7729C72.4243 60.9052 72.4019 61.0393 72.3882 61.1744C72.3645 61.4224 72.3645 61.6721 72.3882 61.9201C72.4635 62.657 72.7143 63.365 73.1195 63.9851C73.7505 64.9411 74.3241 65.2518 74.4914 65.1227C74.6587 64.9936 74.4914 64.4248 74.2906 63.4927C74.1768 62.9797 74.1526 62.4509 74.2189 61.9297C74.239 61.8078 74.2694 61.6879 74.3097 61.5712C74.7399 62.0492 75.2132 62.4794 75.6816 62.9143C75.0076 61.9344 75.151 60.6438 75.7103 59.5683H75.7437C75.8346 59.5205 75.8632 59.5683 75.8202 59.5683H76.1357H76.4799C76.9278 59.6053 77.3703 59.6919 77.7991 59.8265C78.0238 59.8982 78.2771 59.9794 78.4875 60.0798L78.6643 60.1563L78.9607 60.2662C79.1565 60.3346 79.356 60.392 79.5582 60.4383H79.5821C80.2394 60.5683 80.9216 60.4641 81.5101 60.1436C82.0986 59.8232 82.5563 59.3068 82.8038 58.684L84.5724 54.382C85.7722 51.8152 87.7798 49.5351 88.9365 47.5801C89.9694 45.8439 91.2085 44.2389 92.6267 42.8001C93.5367 41.8042 94.5827 40.9417 95.7337 40.238C96.5081 39.7935 97.0386 39.6071 97.0864 39.3824C97.6056 39.4422 98.1064 39.6101 98.5567 39.8752C99.0071 40.1403 99.3969 40.4967 99.7011 40.9216C100.088 39.3203 98.6304 38.4264 97.2346 37.5612Z" fill="#263238"/>
<path d="M77.6318 59.8743C77.498 59.6401 72.6606 58.7653 73.4207 63.617C74.1616 68.3349 78.7504 66.6045 78.736 66.485C78.7217 66.3655 77.6318 59.8743 77.6318 59.8743Z" fill="#FFBE9D"/>
<path d="M76.9961 64.9124C76.9961 64.9124 76.9244 64.9841 76.7953 65.0701C76.6138 65.1859 76.394 65.2254 76.1835 65.1801C75.6577 65.0797 75.1128 64.3531 74.955 63.5071C74.8772 63.1059 74.8919 62.6923 74.9981 62.2977C75.0189 62.142 75.0777 61.9938 75.1694 61.8663C75.2611 61.7387 75.3829 61.6357 75.5239 61.5664C75.6144 61.5267 75.7159 61.5198 75.811 61.5468C75.9061 61.5739 75.9888 61.6332 76.0449 61.7146C76.1261 61.8388 76.1118 61.9344 76.1405 61.9392C76.1692 61.944 76.2265 61.8436 76.1405 61.6572C76.0925 61.5456 76.0105 61.4519 75.9063 61.3895C75.7586 61.3141 75.5879 61.297 75.4283 61.3417C75.2415 61.4126 75.0756 61.5294 74.9461 61.6815C74.8165 61.8336 74.7276 62.016 74.6874 62.2117C74.5504 62.651 74.5241 63.1173 74.6109 63.5692C74.7925 64.5252 75.4235 65.3235 76.1357 65.4143C76.2681 65.4308 76.4025 65.4175 76.529 65.3753C76.6555 65.3331 76.7711 65.2631 76.867 65.1705C77.0057 65.008 77.0152 64.9219 76.9961 64.9124Z" fill="#EB996E"/>
<path d="M79.2715 79.979L82.6032 79.5679L100.413 82.1825L105.839 84.6203L93.1622 93.841L78.717 83.5114L79.2715 79.979Z" fill="#FFBE9D"/>
<path d="M65.6723 133.309C65.333 133.52 64.2383 142.616 63.2441 146.215C62.2498 149.815 58.3685 155.436 61.4898 165.79L132.277 161.488C132.277 161.488 133.544 158.113 131.737 152.855C129.93 147.597 122.143 136.421 122.143 136.421L123.467 106.345L116.594 88.6594L102.201 82.8374C102.201 82.8374 99.9736 88.822 93.2577 88.0619C86.5418 87.3019 79.3097 79.8929 79.3097 79.8929L71.069 80.8489L65.6723 133.309Z" fill="#7D5CD7"/>
<g opacity="0.3">
<path opacity="0.3" d="M114.93 113.869C113.544 109.763 111.685 105.576 108.238 102.952C105.71 101.04 102.536 100.136 99.381 99.7251C96.7472 99.3857 94.013 99.3666 91.5035 100.227C88.2531 101.331 85.6528 103.788 83.3775 106.355C79.4866 110.743 76.2075 115.638 72.9619 120.513C70.309 124.481 68.1245 129.49 65.4716 133.458C75.8012 128.979 84.9167 122.244 90.5189 112.473C91.6407 110.412 93.2528 108.659 95.2128 107.368C98.2577 105.523 100.863 106.479 103.43 108.946C105.996 111.412 108.119 113.726 109.558 116.981C112.134 122.81 115.078 128.47 118.372 133.926C119.4 135.628 120.714 137.478 122.674 137.726C119.07 130.174 117.588 121.799 114.93 113.869Z" fill="black"/>
</g>
<path d="M71.5709 80.8059C71.1502 80.9445 69.5824 80.9636 65.9257 81.6663C62.269 82.3689 60.2566 85.1509 57.5846 90.4949C54.9126 95.839 50.2712 108.63 49.5685 117.067C48.8659 125.504 50.2712 136.33 55.3332 137.033C60.3952 137.736 69.243 130.9 72.8949 127.387C74.7113 125.642 80.8154 119.988 85.1508 113.96C87.9869 109.945 90.5209 105.726 92.7319 101.336L84.5725 92.4786L73.4685 102.741L71.5709 80.8059Z" fill="#7D5CD7"/>
<path d="M73.4733 102.727C73.4197 102.807 73.3589 102.882 73.2917 102.952C73.1674 103.095 72.981 103.305 72.7372 103.563C72.2592 104.084 71.4992 104.816 70.5289 105.652C69.3876 106.634 68.1906 107.548 66.9439 108.391C65.5481 109.347 63.9563 110.332 62.2881 111.35C59.4402 113.086 57.0696 115.504 55.3906 118.386C54.8851 119.259 54.4595 120.176 54.1191 121.125C53.8801 121.794 53.7749 122.177 53.7558 122.172C53.7614 122.076 53.7791 121.981 53.8084 121.89C53.861 121.708 53.9088 121.412 54.0283 121.092C54.3357 120.123 54.7409 119.187 55.2376 118.3C56.8886 115.361 59.2649 112.895 62.1399 111.135C63.8082 110.117 65.3999 109.151 66.7957 108.2C68.0432 107.372 69.2448 106.477 70.395 105.518C71.3797 104.701 72.1301 103.994 72.6464 103.497L73.2343 102.918C73.3046 102.844 73.3851 102.779 73.4733 102.727Z" fill="#263238"/>
<path d="M96.9001 100.719C96.9671 100.987 96.6325 102.397 100.724 103.138C104.816 103.879 105.829 103.616 105.829 103.616L114.166 96.4461C114.166 96.4461 111.474 94.2664 109.73 93.5064C107.985 92.7463 98.2242 93.2196 98.2242 93.2196L96.9001 100.719Z" fill="#FFBE9D"/>
<path d="M119.237 129.983C119.099 130.014 118.957 130.025 118.816 130.016C118.433 130.016 118.05 129.995 117.669 129.954C116.41 129.816 115.178 129.493 114.012 128.998C112.847 128.496 111.763 127.824 110.795 127.005C110.503 126.759 110.225 126.495 109.964 126.216C109.782 126.015 109.687 125.9 109.701 125.886C109.715 125.872 110.15 126.278 110.905 126.871C112.881 128.409 115.218 129.416 117.693 129.796C118.639 129.92 119.237 129.94 119.237 129.983Z" fill="#263238"/>
<path d="M84.9979 92.9184C86.262 91.64 87.9802 90.9132 89.7779 90.8965C92.9088 90.8104 93.0809 91.1594 96.0349 90.8965C98.989 90.6336 100.896 88.0285 101.503 88.8124C102.11 89.5963 101.503 90.7913 101.503 90.7913C101.503 90.7913 105.241 89.1613 105.585 90.1126C105.93 91.0638 105.585 91.3315 105.585 91.3315C105.704 91.2695 105.836 91.2394 105.97 91.2439C106.104 91.2484 106.234 91.2875 106.348 91.3573C106.462 91.4271 106.556 91.5252 106.621 91.6421C106.686 91.7591 106.719 91.8908 106.718 92.0245V92.058C106.783 92.5152 106.681 92.9806 106.43 93.3681C106.178 93.7555 105.795 94.039 105.351 94.166L102.048 96.0445C102.048 96.0445 100.198 99.5817 98.8934 100.973C97.5884 102.364 92.7319 101.336 92.7319 101.336L84.9979 92.9184Z" fill="#FFBE9D"/>
<path d="M90.5045 91.0399C91.5342 90.7749 92.481 90.2555 93.2577 89.5294C93.4314 89.3538 93.6201 89.1939 93.8218 89.0514C94.0273 88.9066 94.2801 88.8452 94.5292 88.8793C94.7456 88.9459 94.9297 89.0901 95.0461 89.2842C95.1626 89.4784 95.2032 89.7087 95.1602 89.9309C95.0513 90.3748 94.7824 90.763 94.4049 91.0208" fill="#FFBE9D"/>
<path d="M101.814 90.7913C101.504 90.9949 101.153 91.1287 100.786 91.1833C99.92 91.3471 99.0429 91.4461 98.162 91.4796C97.2953 91.5185 96.4402 91.6943 95.6286 92.0006C95.0167 92.2587 94.706 92.5408 94.6726 92.5073C94.9016 92.2117 95.2052 91.9824 95.5521 91.8429C96.3674 91.4767 97.2451 91.269 98.1381 91.2311C99.1658 91.1594 100.088 91.1259 100.748 91.0112C101.408 90.8965 101.814 90.7578 101.814 90.7913Z" fill="#EB996E"/>
<path d="M105.547 91.4175C105.269 91.7137 104.923 91.9383 104.539 92.0723C103.86 92.3878 102.842 92.5838 101.8 92.9471C101.313 93.1156 100.858 93.3626 100.452 93.6784C100.129 93.9537 99.8377 94.263 99.5817 94.601C99.3623 94.9376 99.1179 95.2571 98.8504 95.557C98.9997 95.1853 99.1974 94.8349 99.4383 94.5149C99.6845 94.149 99.9769 93.8164 100.308 93.5255C100.725 93.1785 101.201 92.9097 101.714 92.732C102.794 92.3544 103.798 92.1918 104.476 91.9289C105.155 91.666 105.523 91.384 105.547 91.4175Z" fill="#EB996E"/>
<path d="M98.5445 90.1125C98.3826 90.2009 98.211 90.2699 98.033 90.3181C97.6984 90.428 97.2061 90.5714 96.599 90.71C94.9824 91.0475 93.3307 91.1872 91.6804 91.1259C90.0531 91.0494 88.4271 91.3031 86.9004 91.8716C86.2856 92.1496 85.705 92.4977 85.17 92.9088C85.2781 92.7592 85.4068 92.6256 85.5524 92.5121C85.9397 92.1882 86.369 91.9181 86.8287 91.7091C87.9807 91.145 89.7588 90.8487 91.6899 90.8773C93.3241 90.9354 94.9599 90.8217 96.5703 90.538C97.7844 90.3037 98.5301 90.0743 98.5445 90.1125Z" fill="#EB996E"/>
<path d="M106.799 93.0953C106.663 93.2087 106.513 93.3065 106.355 93.3869L105.093 94.0895C104.469 94.4316 103.864 94.8082 103.281 95.2176C102.569 95.7063 101.937 96.303 101.408 96.9862C100.867 97.7223 100.499 98.5349 100.079 99.2328C99.7302 99.8728 99.2649 100.442 98.7068 100.911C98.3274 101.227 97.8787 101.45 97.3971 101.561C97.2227 101.608 97.0402 101.618 96.8618 101.589C96.8618 101.565 97.0482 101.556 97.3732 101.465C97.8257 101.326 98.243 101.091 98.5969 100.777C99.1188 100.303 99.554 99.7416 99.8827 99.1181C100.279 98.333 100.722 97.5717 101.207 96.838C101.751 96.1324 102.406 95.5205 103.147 95.0264C103.742 94.6221 104.363 94.258 105.007 93.9366C105.552 93.6593 106.001 93.4586 106.307 93.3008C106.462 93.2123 106.627 93.1432 106.799 93.0953Z" fill="#EB996E"/>
<path d="M73.4733 102.727C73.5316 102.658 73.5938 102.593 73.6597 102.531L74.2381 101.976L76.4799 99.902L84.5294 92.4069L84.6059 92.3352L84.6728 92.4117L92.8466 101.527L92.8992 101.589L92.861 101.661C91.7377 103.879 90.4949 106.178 89.0704 108.453C86.6555 112.326 83.9384 116.002 80.9444 119.447C78.4806 122.247 75.8551 124.899 73.0813 127.392C70.525 129.705 67.8288 131.858 65.0079 133.84C65.0504 133.796 65.0968 133.756 65.1465 133.72L65.5624 133.386L67.178 132.129C68.5547 131.005 70.5718 129.409 72.914 127.258C75.6666 124.757 78.2728 122.1 80.7198 119.299C83.7084 115.85 86.4251 112.174 88.8458 108.305C90.2798 106.04 91.5082 103.745 92.6315 101.537V101.675L84.5055 92.536H84.6489L76.5229 99.9689L74.2668 102.02L73.6693 102.55L73.4733 102.727Z" fill="#263238"/>
<path d="M73.4733 102.727C73.4255 102.727 73.588 101.91 73.6502 100.586C73.6932 99.9259 73.6789 99.1515 73.6502 98.2625C73.6215 97.3734 73.5211 96.4269 73.4016 95.4183C73.1578 93.4107 72.8424 91.5943 72.6416 90.2798C72.5412 89.625 72.4647 89.0896 72.4217 88.7216C72.3881 88.5307 72.3737 88.3369 72.3787 88.1432C72.4487 88.3245 72.4953 88.5141 72.5173 88.7072C72.5986 89.1231 72.699 89.6393 72.8137 90.2512C73.0575 91.5609 73.4016 93.3677 73.6502 95.3897C73.7697 96.3983 73.8462 97.3686 73.8796 98.2577C73.9077 99.0388 73.8901 99.8208 73.827 100.6C73.827 100.934 73.7649 101.236 73.7267 101.499C73.7036 101.724 73.6669 101.947 73.6167 102.168C73.5888 102.359 73.5407 102.546 73.4733 102.727Z" fill="#263238"/>
<path d="M116.594 88.6642C116.594 88.6642 123.233 89.4673 128.09 98.7835C132.946 108.1 141.66 120.293 141.067 127.616C140.475 134.939 140.374 141.584 135.914 142.578C131.455 143.572 122.143 136.431 122.143 136.431C122.143 136.431 116.933 124.089 113.578 117.44C110.862 112.058 105.839 103.606 105.839 103.606L114.175 96.4365L116.594 88.6642Z" fill="#7D5CD7"/>
<path d="M139.868 128.902C139.863 128.866 139.863 128.829 139.868 128.792C139.868 128.706 139.868 128.601 139.834 128.477C139.801 128.353 139.805 128.161 139.777 127.961C139.748 127.76 139.715 127.521 139.657 127.258C139.361 125.781 138.826 124.362 138.075 123.056C136.948 121.124 135.545 119.365 133.912 117.837C132.11 116.068 129.925 114.333 127.76 112.363C125.74 110.492 123.846 108.49 122.091 106.369C120.456 104.433 119.046 102.636 117.889 101.111C116.732 99.5865 115.834 98.315 115.227 97.4355L114.534 96.4126L114.361 96.1449C114.323 96.0828 114.304 96.0493 114.309 96.0445C114.336 96.0701 114.36 96.099 114.381 96.1306L114.577 96.3839L115.303 97.3781C115.939 98.2433 116.857 99.4861 118.028 101.001C119.199 102.517 120.628 104.295 122.268 106.221C124.026 108.326 125.916 110.317 127.927 112.182C130.083 114.142 132.267 115.886 134.074 117.669C135.713 119.222 137.112 121.008 138.228 122.97C138.975 124.298 139.491 125.743 139.753 127.244C139.797 127.478 139.829 127.714 139.848 127.951C139.872 128.157 139.882 128.329 139.887 128.472C139.891 128.615 139.887 128.706 139.887 128.792C139.886 128.83 139.879 128.867 139.868 128.902Z" fill="#263238"/>
<path d="M122.368 136.77C122.303 136.662 122.244 136.55 122.191 136.436L121.713 135.48C121.312 134.633 120.757 133.405 120.045 131.88C118.654 128.84 116.794 124.605 114.629 119.978C113.544 117.669 112.469 115.49 111.455 113.52C110.442 111.551 109.481 109.811 108.649 108.363C107.818 106.914 107.125 105.748 106.632 104.95L106.116 104.013C106.046 103.909 105.987 103.798 105.939 103.683C106.019 103.778 106.093 103.879 106.159 103.984L106.752 104.883C107.268 105.667 107.985 106.819 108.836 108.257C109.687 109.696 110.667 111.441 111.704 113.401C112.741 115.361 113.812 117.545 114.897 119.858C117.067 124.49 118.898 128.735 120.25 131.808C120.915 133.324 121.46 134.557 121.842 135.441C122.024 135.852 122.162 136.182 122.272 136.431C122.314 136.541 122.346 136.655 122.368 136.77Z" fill="#263238"/>
<path d="M86.733 128.3C86.5818 128.381 86.4213 128.444 86.255 128.486C85.8101 128.633 85.3568 128.753 84.8975 128.845C81.8456 129.469 78.6777 129.183 75.7868 128.023C75.3534 127.85 74.9305 127.652 74.5201 127.43C74.3657 127.354 74.2212 127.259 74.0899 127.148C74.0899 127.11 74.7591 127.449 75.8633 127.851C77.3002 128.369 78.7972 128.703 80.3182 128.845C81.8399 128.979 83.3726 128.916 84.8783 128.658C86.0399 128.472 86.7234 128.257 86.733 128.3Z" fill="#263238"/>
<path d="M102.082 125.757C102.082 125.833 100.542 125.58 98.6399 125.594C96.7375 125.609 95.2126 125.867 95.1983 125.79C95.515 125.663 95.8481 125.581 96.1878 125.547C96.9986 125.416 97.8185 125.348 98.6399 125.346C99.4607 125.34 100.281 125.399 101.092 125.523C101.431 125.554 101.764 125.632 102.082 125.757Z" fill="#263238"/>
<path d="M115.523 91.5418C115.59 91.58 115.045 92.4978 114.706 93.7597C114.366 95.0216 114.39 96.0971 114.314 96.0971C114.163 95.3006 114.213 94.4789 114.462 93.7071C114.632 92.9091 114.997 92.1654 115.523 91.5418Z" fill="#263238"/>
<g opacity="0.3">
<path opacity="0.3" d="M89.8926 130.547C89.5389 129.978 89.9404 128.95 91.145 127.922C91.8507 127.34 92.6403 126.868 93.4872 126.522C95.5663 125.671 97.8474 125.44 100.055 125.857C100.954 126.024 101.823 126.327 102.631 126.756C104.017 127.521 104.62 128.448 104.381 129.074C104.142 129.701 103.171 130.03 101.895 130.198C101.255 130.288 100.528 130.37 99.7442 130.432L97.2251 130.666L94.7108 130.943C93.9317 131.039 93.2004 131.106 92.5551 131.149C91.2692 131.225 90.2654 131.139 89.8926 130.547Z" fill="black"/>
</g>
<path d="M132.707 154.055H132.521L131.966 154.112L129.853 154.294L122.067 154.925L96.3743 156.908L70.6723 158.82L62.8809 159.375L60.7633 159.509L60.228 159.556C60.166 159.564 60.1035 159.564 60.0415 159.556C60.1026 159.541 60.165 159.531 60.228 159.528L60.7777 159.475L62.8904 159.289L70.677 158.663L96.3743 156.679L122.072 154.767L129.863 154.217L131.985 154.079L132.535 154.05C132.592 154.046 132.65 154.048 132.707 154.055Z" fill="#263238"/>
<path d="M66.7001 165.594C66.4297 165.375 66.2055 165.106 66.0404 164.8C65.599 164.089 65.3033 163.297 65.1703 162.471C65.0374 161.645 65.0699 160.8 65.2661 159.987C65.3232 159.646 65.4501 159.32 65.6389 159.031C65.6771 159.031 65.5433 159.413 65.4381 160.025C65.3061 160.816 65.3061 161.624 65.4381 162.415C65.57 163.212 65.8316 163.982 66.2125 164.695C66.4897 165.259 66.7287 165.57 66.7001 165.594Z" fill="#263238"/>
<path d="M76.5086 165.087C76.3359 164.789 76.2102 164.467 76.1358 164.131C75.9045 163.339 75.7555 162.525 75.6912 161.703C75.6291 160.881 75.6483 160.054 75.7486 159.236C75.7722 158.894 75.8463 158.557 75.9685 158.237C76.0497 158.237 75.7821 159.786 75.9398 161.683C76.0975 163.581 76.5851 165.063 76.5086 165.087Z" fill="#263238"/>
<path d="M87.3497 163.825C87.2732 163.825 87.407 162.391 87.2254 160.627C87.0438 158.863 86.6375 157.491 86.7092 157.468C86.8656 157.744 86.98 158.042 87.0485 158.352C87.2556 159.09 87.3979 159.845 87.474 160.608C87.5516 161.369 87.5612 162.135 87.5026 162.898C87.5035 163.213 87.4518 163.526 87.3497 163.825Z" fill="#263238"/>
<path d="M99.6342 163.691C99.596 163.691 99.7298 163.27 99.8446 162.596C100.153 160.837 99.9158 159.026 99.1658 157.405C98.9893 157.081 98.8298 156.747 98.6878 156.406C98.951 156.676 99.1675 156.988 99.3283 157.329C99.7552 158.137 100.035 159.014 100.155 159.92C100.275 160.825 100.229 161.745 100.021 162.635C99.9556 163.007 99.8245 163.365 99.6342 163.691Z" fill="#263238"/>
<path d="M113.219 163.213C113.956 160.639 113.688 157.882 112.468 155.498C112.727 155.798 112.934 156.139 113.08 156.507C113.482 157.376 113.735 158.307 113.826 159.26C113.918 160.213 113.85 161.174 113.625 162.104C113.549 162.493 113.412 162.867 113.219 163.213Z" fill="#263238"/>
<path d="M124.653 161.086C124.991 160.004 125.238 158.896 125.394 157.773C125.465 156.642 125.444 155.507 125.332 154.38C125.467 154.682 125.551 155.005 125.58 155.336C125.704 156.144 125.725 156.965 125.642 157.778C125.564 158.595 125.379 159.399 125.093 160.168C124.997 160.496 124.849 160.806 124.653 161.086Z" fill="#263238"/>
<path d="M82.9233 80.7342C82.9759 78.6788 84.3191 76.7142 83.9271 74.6923C83.6021 72.981 82.1298 71.7573 80.7389 70.7057C79.3479 69.6541 78.3489 68.5069 77.8709 66.8244L65.4859 80.1032C66.1073 80.8489 67.2067 80.911 68.1531 81.1405C69.6829 81.5278 71.0056 82.4877 71.8481 83.8221C72.8041 85.3278 73.0526 87.2063 74.1616 88.6021C74.8875 89.4468 75.8661 90.0353 76.9525 90.2807C78.0389 90.526 79.1755 90.4151 80.1939 89.9644C81.1962 89.4756 82.0343 88.7053 82.6056 87.7477C83.177 86.7901 83.4568 85.6867 83.4109 84.5725C83.3679 83.2771 82.8899 82.0248 82.9233 80.7342Z" fill="#263238"/>
<path d="M161.836 159.677C158.738 164.55 158.941 171.306 162.327 175.984C164.584 179.104 167.968 181.196 170.655 183.949C173.342 186.702 175.385 190.766 173.966 194.345C172.522 197.988 168.292 199.469 165.126 201.777C161.633 204.322 159.262 208.12 158.51 212.376C157.758 216.632 158.685 221.013 161.095 224.6H193.995C193.995 224.6 199.775 213.586 192.344 205.191C184.914 196.795 180.923 196.66 181.197 191.154C181.472 185.648 185.325 183.862 187.528 181.797C189.73 179.731 200.462 174.918 194.132 159.675L161.836 159.677Z" fill="#FAFAFA"/>
<path d="M161.836 159.677H162.402H164.07H170.491L194.132 159.66H194.157V159.683C194.641 160.837 195.054 162.02 195.392 163.225C195.748 164.487 195.982 165.78 196.091 167.086C196.205 168.452 196.135 169.826 195.883 171.173C195.606 172.569 195.104 173.911 194.396 175.146C194.03 175.776 193.615 176.377 193.157 176.943C192.689 177.518 192.183 178.059 191.641 178.565C191.093 179.08 190.519 179.567 189.921 180.023C189.323 180.486 188.697 180.922 188.087 181.386C187.782 181.615 187.508 181.874 187.211 182.133C186.914 182.391 186.618 182.633 186.313 182.876C185.705 183.362 185.091 183.841 184.512 184.38C183.303 185.427 182.374 186.76 181.809 188.256C181.538 189.024 181.367 189.823 181.3 190.635C181.282 190.828 181.255 191.04 181.248 191.245C181.24 191.449 181.232 191.654 181.248 191.859C181.252 192.269 181.293 192.679 181.371 193.082C181.524 193.9 181.858 194.673 182.348 195.345C182.852 196.017 183.423 196.636 184.053 197.193C185.302 198.333 186.628 199.424 187.896 200.602C189.165 201.779 190.406 203.007 191.603 204.306C192.213 204.949 192.785 205.629 193.313 206.341C193.845 207.062 194.307 207.832 194.694 208.64C195.475 210.279 195.955 212.044 196.111 213.853C196.268 215.686 196.16 217.533 195.79 219.335C195.61 220.246 195.374 221.145 195.083 222.026C194.798 222.915 194.449 223.783 194.041 224.623L194.027 224.65H161.068L161.055 224.629C159.512 222.306 158.566 219.638 158.3 216.862C158.032 214.196 158.423 211.505 159.439 209.025C160.404 206.654 161.89 204.531 163.786 202.812C164.707 202 165.701 201.275 166.755 200.646C167.782 200.009 168.819 199.418 169.798 198.774C170.778 198.161 171.678 197.43 172.477 196.596C173.241 195.777 173.808 194.795 174.134 193.723C174.419 192.678 174.464 191.582 174.265 190.517C174.075 189.489 173.732 188.495 173.248 187.569C172.785 186.677 172.23 185.836 171.591 185.059C170.975 184.314 170.305 183.616 169.587 182.969C168.195 181.687 166.769 180.565 165.487 179.413C164.844 178.833 164.236 178.254 163.674 177.662C163.13 177.081 162.628 176.463 162.172 175.81C161.349 174.614 160.714 173.298 160.29 171.909C159.919 170.709 159.703 169.467 159.649 168.212C159.622 167.926 159.634 167.644 159.634 167.368C159.634 167.092 159.634 166.824 159.659 166.563C159.684 166.303 159.697 166.048 159.717 165.791C159.736 165.534 159.788 165.305 159.821 165.071C160.034 163.649 160.469 162.269 161.111 160.982C161.197 160.783 161.297 160.59 161.408 160.403L161.645 159.999C161.771 159.785 161.838 159.677 161.838 159.677L161.645 160.005L161.416 160.403C161.307 160.59 161.209 160.784 161.122 160.982C160.487 162.272 160.057 163.654 159.848 165.077C159.815 165.308 159.777 165.548 159.748 165.793C159.719 166.038 159.709 166.295 159.69 166.555C159.67 166.816 159.67 167.084 159.668 167.359C159.667 167.633 159.659 167.915 159.686 168.2C159.742 169.451 159.959 170.689 160.333 171.884C160.756 173.268 161.39 174.579 162.213 175.77C162.667 176.419 163.169 177.035 163.713 177.611C164.273 178.206 164.881 178.785 165.524 179.349C166.806 180.507 168.226 181.617 169.628 182.901C170.352 183.553 171.026 184.257 171.647 185.007C172.289 185.789 172.847 186.636 173.313 187.534C173.802 188.466 174.148 189.467 174.34 190.501C174.542 191.578 174.498 192.686 174.209 193.743C173.882 194.826 173.31 195.82 172.537 196.648C171.733 197.487 170.83 198.223 169.846 198.841C168.863 199.488 167.827 200.079 166.802 200.716C165.751 201.342 164.761 202.065 163.844 202.874C161.959 204.584 160.482 206.695 159.522 209.052C158.513 211.519 158.125 214.196 158.392 216.849C158.658 219.609 159.6 222.261 161.134 224.571L161.095 224.55H193.995L193.95 224.577C194.358 223.739 194.705 222.873 194.989 221.986C195.278 221.108 195.513 220.213 195.692 219.306C196.06 217.513 196.167 215.675 196.01 213.851C195.857 212.052 195.381 210.296 194.603 208.667C194.219 207.865 193.761 207.1 193.234 206.384C192.707 205.675 192.138 204.998 191.531 204.357C190.341 203.061 189.107 201.828 187.831 200.658C186.564 199.482 185.242 198.393 183.989 197.247C183.355 196.685 182.778 196.062 182.269 195.386C181.769 194.705 181.427 193.923 181.267 193.094C181.19 192.685 181.148 192.269 181.141 191.853C181.132 191.646 181.141 191.44 181.141 191.233C181.141 191.026 181.176 190.822 181.192 190.617C181.262 189.801 181.438 188.997 181.713 188.225C182.283 186.716 183.22 185.372 184.441 184.316C185.02 183.779 185.639 183.293 186.248 182.808C186.553 182.565 186.852 182.32 187.143 182.069C187.435 181.818 187.722 181.548 188.024 181.316C188.638 180.853 189.261 180.416 189.858 179.955C190.454 179.501 191.027 179.017 191.574 178.505C192.111 178.002 192.615 177.463 193.082 176.893C193.536 176.329 193.949 175.731 194.315 175.106C195.019 173.879 195.518 172.546 195.794 171.16C196.045 169.824 196.116 168.46 196.004 167.106C195.896 165.8 195.664 164.507 195.311 163.245C194.978 162.036 194.57 160.849 194.091 159.691L194.124 159.712L170.497 159.694H164.072H162.4L161.836 159.677Z" fill="#263238"/>
<path d="M192.819 168.613C197.664 169.411 190.026 177.994 185.699 181.38C183.19 183.339 180.506 185.467 179.317 188.416C177.966 191.764 178.968 195.525 178.315 198.891C178.294 199.007 178.23 199.111 178.136 199.182C178.041 199.253 177.923 199.285 177.806 199.273C177.689 199.26 177.58 199.204 177.503 199.115C177.426 199.026 177.385 198.911 177.388 198.793C177.419 196.582 177.361 194.374 177.002 192.198C176.483 189.11 175.298 186.061 173.141 183.801C171.375 181.953 169.06 180.727 167.178 179.001C164.429 176.482 161.605 173.233 161.329 169.515C161.329 169.515 166.607 165.268 169.537 165.799C172.962 166.426 176.332 171.71 181.638 171.106C185.329 170.683 187.199 167.691 192.819 168.613Z" fill="#7D5CD7"/>
<path d="M193.25 214.55C193.128 213.337 192.804 211.967 191.728 211.395C191.078 211.048 190.284 211.086 189.57 211.274C188.856 211.461 188.186 211.787 187.479 211.997C186.075 212.411 184.575 212.362 183.199 211.86C181.885 211.378 180.757 210.509 179.531 209.818C178.306 209.127 176.883 208.621 175.524 208.959C173.18 209.538 171.96 212.364 169.643 213.046C168.613 213.347 167.506 213.177 166.46 212.941C165.414 212.706 164.362 212.399 163.29 212.44C162.448 212.47 161.574 212.762 160.985 213.337L160.97 213.355C160.872 213.451 160.782 213.555 160.703 213.667C159.985 214.633 159.869 215.913 160.091 217.082C160.338 218.393 160.95 219.604 161.607 220.764C162.379 222.131 163.259 223.49 164.537 224.401C166.116 225.526 168.099 224.75 170.031 224.903C174.535 225.258 179.381 225.499 183.887 225.152C186.267 224.959 188.497 225.225 190.385 223.764C191.713 222.737 192.578 221.189 192.995 219.563C193.412 217.938 193.417 216.219 193.25 214.55Z" fill="#7D5CD7"/>
<g opacity="0.24">
<path opacity="0.24" d="M184.748 212.229C184.495 212.615 184.385 213.14 184.63 213.534C184.875 213.928 185.209 214.289 185.313 214.743C185.481 215.453 185.053 216.148 184.734 216.806C184.145 217.983 183.922 219.31 184.095 220.615C184.278 221.924 184.954 223.114 185.985 223.941C186.443 224.295 187.037 224.569 187.589 224.395C188.109 224.233 188.443 223.706 188.555 223.171C188.667 222.636 188.572 222.086 188.504 221.548C188.19 219.037 188.255 216.494 188.697 214.003C188.771 213.588 188.84 213.113 188.578 212.783C188.388 212.591 188.148 212.457 187.885 212.397C186.881 212.063 185.798 212.434 184.757 212.237" fill="black"/>
</g>
<path d="M158.68 226.094C158.68 226.094 158.589 224.584 160.558 223.743H195.163C195.163 223.743 196.968 224.658 197.19 226.059L158.68 226.094Z" fill="#263238"/>
<path d="M194.427 159.861L194.371 159.886L161.833 159.677C161.833 159.677 161.717 159.604 161.545 159.467C161.342 159.308 161.194 159.089 161.122 158.842C161.049 158.595 161.056 158.331 161.142 158.088C161.227 157.845 161.386 157.634 161.597 157.486C161.808 157.338 162.06 157.26 162.317 157.262L193.9 157.517C195.199 157.528 195.609 159.305 194.427 159.861Z" fill="#263238"/>
<g opacity="0.24">
<path opacity="0.24" d="M189.215 172.274C189.28 172.399 189.035 172.66 188.57 173.084C188.105 173.509 187.412 174.067 186.551 174.768C185.517 175.622 184.42 176.396 183.269 177.084C182.554 177.498 181.802 177.844 181.022 178.117C180.599 178.263 180.168 178.383 179.73 178.474C179.271 178.572 178.804 178.633 178.334 178.656C177.383 178.708 176.431 178.577 175.529 178.27C174.732 177.98 173.975 177.591 173.275 177.111C172.626 176.683 172.068 176.258 171.537 175.851C171.006 175.444 170.533 175.052 170.105 174.681C168.396 173.2 167.497 172.111 167.67 171.901C167.844 171.691 169.06 172.376 170.952 173.534L172.497 174.48C173.051 174.816 173.643 175.189 174.25 175.532C174.851 175.885 175.489 176.173 176.151 176.391C176.829 176.594 177.537 176.678 178.244 176.638C179.726 176.561 181.165 176.04 182.41 175.438C183.655 174.835 184.782 174.133 185.759 173.584C186.532 173.128 187.34 172.734 188.176 172.407C188.788 172.193 189.159 172.152 189.215 172.274Z" fill="black"/>
</g>
<path d="M177.412 202.924C177.548 202.87 177.701 202.871 177.837 202.929C177.972 202.986 178.08 203.095 178.136 203.231C178.192 203.367 178.193 203.519 178.137 203.656C178.081 203.792 177.974 203.901 177.839 203.959C177.704 204.017 177.551 204.019 177.414 203.966C177.277 203.912 177.167 203.806 177.107 203.672C177.047 203.537 177.043 203.384 177.095 203.247C177.147 203.109 177.251 202.997 177.385 202.936" fill="#7D5CD7"/>
<path d="M165.775 177.658C165.732 177.623 165.694 177.584 165.659 177.542L165.344 177.198C165.211 177.046 165.035 176.868 164.856 176.642L164.242 175.87C164.031 175.573 163.794 175.252 163.555 174.905L163.201 174.343C163.141 174.247 163.078 174.15 163.02 174.048L162.85 173.735C162.336 172.824 161.934 171.855 161.651 170.849C161.367 169.843 161.214 168.805 161.195 167.76C161.195 167.519 161.209 167.285 161.213 167.055C161.213 166.942 161.213 166.83 161.228 166.72C161.244 166.61 161.251 166.501 161.263 166.395C161.288 166.183 161.304 165.976 161.333 165.779C161.362 165.582 161.402 165.393 161.435 165.218C161.489 164.857 161.585 164.542 161.653 164.252C161.69 164.113 161.719 163.982 161.755 163.866L161.862 163.544L162.01 163.102C162.024 163.049 162.044 162.998 162.068 162.949C162.06 163.003 162.047 163.056 162.029 163.108C161.997 163.22 161.954 163.368 161.898 163.555L161.802 163.878C161.769 163.996 161.742 164.127 161.707 164.264C161.645 164.544 161.555 164.86 161.514 165.229C161.483 165.407 161.452 165.594 161.419 165.789C161.387 165.984 161.379 166.189 161.356 166.401C161.356 166.507 161.334 166.613 161.323 166.723C161.311 166.833 161.323 166.945 161.311 167.057C161.311 167.285 161.296 167.517 161.298 167.756C161.317 168.795 161.468 169.827 161.748 170.828C162.029 171.827 162.426 172.79 162.931 173.696C162.987 173.801 163.043 173.905 163.097 174.009C163.151 174.113 163.219 174.202 163.277 174.303L163.624 174.864C163.86 175.22 164.093 175.54 164.298 175.83L164.9 176.602C165.074 176.831 165.246 177.011 165.373 177.169L165.674 177.526C165.71 177.568 165.744 177.612 165.775 177.658Z" fill="#263238"/>
<path d="M163.943 206.337C163.952 206.315 163.964 206.294 163.977 206.274L164.093 206.092C164.145 206.011 164.209 205.914 164.286 205.799L164.408 205.606C164.456 205.542 164.512 205.478 164.568 205.413L164.954 204.949C165.103 204.789 165.273 204.623 165.452 204.441C165.869 204.041 166.311 203.668 166.777 203.326C167.802 202.553 169.124 201.781 170.556 200.876C171.31 200.412 172.034 199.902 172.724 199.349C173.465 198.759 174.12 198.067 174.668 197.295C175.673 195.752 176.218 193.956 176.242 192.115C176.266 190.615 176.015 189.123 175.5 187.714C175.16 186.763 174.732 185.845 174.223 184.972C174.043 184.662 173.896 184.426 173.796 184.266L173.682 184.084C173.657 184.044 173.645 184.021 173.645 184.021C173.663 184.038 173.677 184.057 173.69 184.079L173.813 184.256C173.919 184.411 174.072 184.642 174.255 184.953C174.78 185.821 175.22 186.738 175.568 187.691C176.096 189.106 176.358 190.607 176.34 192.117C176.332 192.553 176.297 192.987 176.234 193.418C176.172 193.869 176.077 194.315 175.95 194.752C175.687 195.678 175.277 196.556 174.736 197.353C174.182 198.133 173.52 198.832 172.771 199.428C172.076 199.981 171.348 200.492 170.591 200.957C169.153 201.855 167.829 202.619 166.804 203.386C166.338 203.723 165.894 204.09 165.475 204.484C165.296 204.664 165.124 204.826 164.973 204.984L164.587 205.438C164.529 205.507 164.473 205.571 164.425 205.631L164.3 205.814L164.107 206.102L163.983 206.277C163.971 206.298 163.958 206.318 163.943 206.337Z" fill="#263238"/>
<path d="M162.147 209.748C162.136 209.78 162.121 209.81 162.105 209.839L161.966 210.084C161.904 210.189 161.831 210.32 161.755 210.47C161.68 210.621 161.584 210.799 161.502 211.001C161.46 211.102 161.414 211.206 161.367 211.314C161.321 211.422 161.282 211.542 161.236 211.662C161.143 211.901 161.07 212.164 160.985 212.434C160.649 213.644 160.534 214.905 160.643 216.156C160.676 216.441 160.699 216.716 160.75 216.967C160.771 217.092 160.788 217.216 160.813 217.331C160.838 217.447 160.865 217.559 160.891 217.665C160.933 217.88 160.997 218.067 161.043 218.233C161.089 218.399 161.136 218.542 161.178 218.658L161.269 218.924C161.282 218.954 161.29 218.986 161.294 219.019C161.275 218.992 161.26 218.963 161.25 218.932C161.221 218.86 161.186 218.775 161.141 218.671C161.083 218.534 161.032 218.393 160.989 218.25C160.937 218.084 160.869 217.897 160.821 217.683C160.794 217.577 160.767 217.465 160.738 217.349C160.709 217.233 160.692 217.108 160.667 216.982C160.613 216.727 160.585 216.453 160.551 216.165C160.43 214.907 160.546 213.636 160.894 212.42C160.981 212.142 161.058 211.878 161.157 211.638C161.205 211.519 161.244 211.401 161.294 211.291L161.437 210.976C161.522 210.783 161.63 210.604 161.705 210.449C161.773 210.316 161.849 210.188 161.931 210.063L162.085 209.826C162.124 209.774 162.143 209.747 162.147 209.748Z" fill="#263238"/>
<path d="M186.014 214.389L185.975 214.416L185.856 214.492L185.387 214.774L185.047 214.967C184.919 215.038 184.778 215.104 184.628 215.179C184.323 215.326 183.987 215.513 183.589 215.664L182.972 215.916C182.757 216.001 182.524 216.069 182.288 216.15C181.819 216.322 181.298 216.445 180.755 216.586C178.373 217.144 175.903 217.21 173.495 216.779C172.943 216.667 172.417 216.571 171.939 216.424C171.699 216.355 171.464 216.301 171.244 216.231L170.614 216.001C170.211 215.872 169.863 215.704 169.553 215.573C169.398 215.505 169.253 215.445 169.124 215.38L168.773 215.196L168.29 214.94L168.167 214.87L168.126 214.845C168.126 214.845 168.143 214.845 168.172 214.862L168.3 214.922L168.79 215.162L169.143 215.335C169.275 215.397 169.421 215.453 169.576 215.519C169.887 215.642 170.234 215.806 170.639 215.93L171.261 216.156C171.481 216.229 171.717 216.281 171.956 216.349C172.433 216.492 172.956 216.582 173.5 216.692C175.897 217.108 178.353 217.042 180.724 216.499C181.265 216.36 181.784 216.243 182.253 216.075C182.489 215.996 182.721 215.932 182.935 215.847L183.553 215.602C183.95 215.455 184.288 215.274 184.593 215.133C184.744 215.059 184.887 214.996 185.014 214.94L185.358 214.747L185.834 214.48L185.96 214.414C185.999 214.393 186.014 214.387 186.014 214.389Z" fill="#263238"/>
<path d="M188.027 173.53C188.016 173.544 188.002 173.557 187.987 173.567L187.86 173.671C187.742 173.766 187.578 173.899 187.367 174.057C186.939 174.397 186.317 174.889 185.531 175.476C184.617 176.176 183.658 176.816 182.661 177.391C182.068 177.723 181.449 178.008 180.811 178.243C180.123 178.493 179.405 178.653 178.676 178.718C177.258 178.797 175.844 178.503 174.576 177.864C174.027 177.586 173.498 177.271 172.991 176.922C172.52 176.59 172.089 176.268 171.709 175.957C170.937 175.343 170.346 174.824 169.929 174.469L169.452 174.055L169.331 173.947L169.29 173.907C169.29 173.907 169.307 173.907 169.336 173.938L169.466 174.04L169.954 174.438C170.379 174.785 170.985 175.295 171.753 175.901C172.139 176.204 172.566 176.523 173.039 176.851C173.544 177.194 174.071 177.503 174.616 177.777C175.872 178.403 177.269 178.692 178.67 178.613C179.391 178.549 180.1 178.392 180.78 178.146C181.414 177.915 182.028 177.634 182.618 177.306C183.614 176.741 184.574 176.115 185.493 175.432C186.28 174.853 186.908 174.37 187.346 174.04L187.85 173.654L187.983 173.557C187.996 173.546 188.011 173.537 188.027 173.53Z" fill="#263238"/>
<g opacity="0.24">
<path opacity="0.24" d="M170.616 216.011C171.531 215.304 172.817 215.474 173.948 215.714C175.08 215.953 176.219 216.337 177.363 216.177C178.226 216.055 179.018 215.633 179.873 215.447C180.728 215.262 181.757 215.399 182.23 216.131C178.45 217.349 174.376 217.307 170.622 216.011" fill="black"/>
</g>
</svg>
