<svg width="70" height="70" viewBox="0 0 70 70" fill="none" xmlns="http://www.w3.org/2000/svg">
<rect width="70" height="70" rx="3.6" fill="#B2E0F1"/>
<path fill-rule="evenodd" clip-rule="evenodd" d="M49.6897 18.91C49.1864 18.6755 48.6664 18.4788 48.1339 18.3218L47.9237 18.2598C47.3074 18.078 46.6766 17.9499 46.0382 17.8767L45.054 17.764L44.974 17.7549L44.8935 17.7569L43.8395 17.7841C43.018 17.8053 42.2067 17.9707 41.4426 18.2729C40.902 18.4867 40.3901 18.767 39.9187 19.1071L39.6785 19.2805C39.1503 19.6617 38.6877 20.1265 38.309 20.6565C38.1134 20.9302 37.9412 21.2198 37.7942 21.5224L37.3075 22.5242L37.2768 22.5875L37.254 22.6541L37.0043 23.3829C36.8717 23.7701 36.7729 24.1681 36.709 24.5723L36.6243 25.1076C36.5448 25.6108 36.5584 26.1243 36.6644 26.6226L36.818 27.344C36.8377 27.4366 36.8145 27.5331 36.7549 27.6067C36.7456 27.6182 36.7354 27.629 36.7245 27.6391L36.4246 27.9173C36.2157 28.1111 36.0393 28.3374 35.9024 28.5874L35.7637 28.8404C35.6571 29.0351 35.5972 29.2519 35.5889 29.4736C35.5706 29.9614 35.8014 30.415 36.1851 30.6897C36.0311 31.1454 36.1109 31.6286 36.3624 32.0036C36.3337 32.0723 36.3095 32.1429 36.2898 32.215L36.2787 32.2559C36.1392 32.7673 36.215 33.2928 36.4575 33.7286C36.1836 33.5156 35.9223 33.2865 35.675 33.0425L33.6547 31.0491L31.0584 28.2148L30.9763 28.1183C29.2229 26.0553 25.852 27.3959 25.9943 30.0996L27.1427 30.0392L25.9963 30.1301L26.3536 34.6339L26.3691 34.6327L26.6002 38.1851L20.0067 42.82C19.9542 42.8569 19.8933 42.8797 19.8295 42.8864C19.7714 42.8925 19.7128 42.8849 19.6581 42.8644L18.3159 42.3603L17.2445 41.8074C17.2201 41.7947 17.1972 41.7793 17.1763 41.7614L16.8912 41.5174C16.3878 41.0863 15.7008 40.9385 15.0646 41.1243C14.4716 41.2975 13.9948 41.7398 13.7776 42.318L13.7568 42.3733C13.5266 42.9864 13.5984 43.6722 13.9507 44.2243L14.0134 44.3226C14.1993 44.6139 14.4481 44.8599 14.7414 45.0425L15.2995 45.3898C15.4505 45.4837 15.5926 45.5914 15.7239 45.7113L17.8042 47.61L17.8134 47.6184L17.8228 47.6267L18.6217 48.3247C18.9861 48.643 19.4387 48.8431 19.9195 48.8983C20.7121 48.9893 21.4978 48.6782 22.0132 48.0692L22.2026 47.8453C22.4173 47.5917 22.5867 47.303 22.7036 46.992C22.7586 46.8456 22.8686 46.7265 23.0103 46.6602L25.6142 45.4411C26.1232 45.2028 26.6103 44.9223 27.0704 44.6029L27.4408 48.7918C27.4874 49.319 27.6155 49.8358 27.8206 50.3237L27.9211 50.5627C28.4122 51.731 29.2461 52.7229 30.3126 53.4074L30.5474 53.558C31.0819 53.9011 31.6785 54.1359 32.3034 54.2493C33.2754 54.4256 34.2779 54.3013 35.1774 53.8931L35.7003 53.6557C36.5271 53.2805 37.2688 52.741 37.8805 52.0701L38.0972 51.8324L38.1025 51.8375L40.1557 49.7371L45.1219 45.794L45.1704 45.7556L45.2144 45.7121L46.224 44.7163C46.7689 44.1789 47.257 43.5868 47.6806 42.9494L47.7458 42.8513C48.3017 42.0148 48.7421 41.1069 49.0549 40.1524L49.2514 39.553L49.2729 39.4874L49.2863 39.4198L49.6781 37.4559L49.6861 37.4156L49.6913 37.3749L49.8885 35.8127L50.2258 35.2708C50.6191 34.6387 51.0907 34.059 51.6294 33.5452L51.7634 33.4174C52.4546 32.7582 53.0464 32.0021 53.5204 31.1728C54.0355 30.2716 54.4052 29.2947 54.6158 28.2782L54.7492 27.6344C54.8612 27.0938 54.9109 26.5422 54.8973 25.9903C54.879 25.2458 54.7457 24.5085 54.5021 23.8046L54.4556 23.6702C54.3181 23.2728 54.1447 22.8888 53.9377 22.5228C53.5279 21.7984 52.9912 21.1537 52.3532 20.6193L51.8844 20.2267L51.8476 20.1959L51.8084 20.1683L51.4849 19.9404C50.9447 19.5597 50.3717 19.2279 49.7728 18.9487L49.6897 18.91ZM36.559 50.1262L38.5616 48.0776L38.6122 48.0258L38.6689 47.9808L43.6433 44.0312L44.6089 43.0788C45.0414 42.6523 45.4288 42.1823 45.7651 41.6763L45.8302 41.5783C46.2715 40.9143 46.621 40.1937 46.8693 39.4361L47.0443 38.9022L47.4145 37.0462L47.4416 36.8316L46.8455 36.9403L45.0901 37.3923L45.0444 37.404L44.9979 37.412L43.1879 37.7227L40.8923 38.2687L40.5888 38.3409L40.2904 38.2498L39.5808 38.0332C38.5521 37.7192 37.5743 37.2581 36.6777 36.664L35.7325 36.0378C35.1324 35.6402 34.5721 35.1854 34.0597 34.6798L32.0186 32.6659L31.9979 32.6455L31.9783 32.6241L29.348 29.7526L29.3335 29.7369L29.3197 29.7206L29.2238 29.6078C28.898 29.2245 28.2739 29.4689 28.2906 29.9675L28.5413 33.1274L28.5759 33.1252L29.1646 42.174L29.7318 48.5892C29.7575 48.8794 29.828 49.1639 29.9409 49.4324L30.0414 49.6715C30.3522 50.4109 30.8799 51.0386 31.5549 51.4717L31.7896 51.6224C32.071 51.8029 32.385 51.9265 32.714 51.9862C33.2256 52.079 33.7533 52.0136 34.2268 51.7987L34.7497 51.5614C35.2924 51.315 35.7793 50.9609 36.1809 50.5205L36.5488 50.1169L36.559 50.1262ZM40.2522 35.8334C39.4376 35.5847 38.6632 35.2198 37.9529 34.7499C38.397 34.8346 38.8481 34.8772 39.3002 34.8772L40.2561 34.8772C40.3871 34.8772 40.5163 34.9077 40.6335 34.9663C40.7927 35.0459 40.9227 35.1739 41.0048 35.3319L41.2573 35.8177L40.6635 35.959L40.2522 35.8334ZM44.5623 35.1531L43.5906 35.3199L43.0458 34.2714C42.7398 33.6827 42.2555 33.2058 41.6621 32.9091C41.2255 32.6908 40.7442 32.5772 40.2562 32.5772L39.3002 32.5772C39.1128 32.5772 38.9257 32.5664 38.7397 32.545C39.031 32.0037 38.9493 31.3617 38.5941 30.9094C38.7679 30.3547 38.644 29.7603 38.2898 29.3243C38.38 29.2405 38.4642 29.1505 38.5418 29.0548C39.0386 28.4417 39.2319 27.637 39.0676 26.8652L38.9141 26.1438C38.8667 25.9211 38.8606 25.6916 38.8961 25.4667L38.9807 24.9314C39.0239 24.6585 39.0906 24.3897 39.1802 24.1283L39.4071 23.466L39.863 22.5274C39.9536 22.3409 40.0598 22.1624 40.1803 21.9937C40.4138 21.667 40.6989 21.3805 41.0245 21.1455L41.2647 20.9722C41.5814 20.7436 41.9253 20.5554 42.2885 20.4118C42.8018 20.2087 43.3469 20.0976 43.8988 20.0833L44.8722 20.0582L45.7765 20.1618C46.2832 20.2198 46.7839 20.3216 47.273 20.4658L47.4832 20.5278C47.9059 20.6525 48.3187 20.8086 48.7181 20.9947L48.8012 21.0334C49.2766 21.255 49.7314 21.5184 50.1602 21.8205L50.4444 22.0208L50.8764 22.3826C51.303 22.7399 51.6618 23.1709 51.9358 23.6552C52.0742 23.8999 52.1901 24.1567 52.2821 24.4224L52.3286 24.5568C52.4946 25.0367 52.5855 25.5393 52.598 26.0469C52.6073 26.4232 52.5734 26.7992 52.497 27.1677L52.3636 27.8115C52.2021 28.5911 51.9186 29.3403 51.5235 30.0316C51.16 30.6676 50.7061 31.2474 50.176 31.753L50.042 31.8808C49.3631 32.5283 48.7688 33.259 48.2731 34.0554L48.0718 34.3788L46.3925 34.685L46.3519 34.6924L46.312 34.7027L44.5623 35.1531ZM41.3497 28.2948L41.5115 28.3361L41.7586 27.3671L41.5968 27.3258C40.9997 27.1736 40.3718 27.1941 39.7859 27.385L40.0957 28.3358C40.5014 28.2036 40.9362 28.1894 41.3497 28.2948ZM45.3795 28.5095C45.5731 28.4217 45.7936 28.4143 45.9925 28.489C46.1906 28.5634 46.2793 28.6729 46.302 28.7591C46.3579 28.9711 46.377 29.1708 46.3844 29.2537L46.3843 29.2566C46.3843 29.2625 46.384 29.2775 46.3825 29.3042C46.3802 29.3461 46.3756 29.4016 46.3687 29.4668C46.3548 29.5976 46.3326 29.755 46.3039 29.902C46.2751 30.0492 46.1912 30.2033 46.0505 30.3676L45.9267 30.5122C45.8121 30.6461 45.6654 30.7489 45.5003 30.8109C45.2937 30.8886 45.0677 30.8988 44.8549 30.8402L44.4379 30.7255L44.1725 31.6896L44.5894 31.8044C45.0058 31.919 45.4479 31.8989 45.8521 31.747C46.175 31.6256 46.462 31.4246 46.6864 31.1625L46.8101 31.018C47.016 30.7775 47.212 30.4695 47.2853 30.0937C47.3205 29.9137 47.3467 29.7272 47.3631 29.5726C47.3775 29.4367 47.3903 29.2755 47.3812 29.1727L47.381 29.1708C47.3731 29.0814 47.3488 28.8069 47.2689 28.504C47.1348 27.9955 46.7219 27.6948 46.3442 27.5529C45.8969 27.3849 45.4013 27.4015 44.9662 27.5989L44.2585 27.9201L44.6719 28.8307L45.3795 28.5095ZM26.7751 40.8735L26.836 41.8097L26.7494 41.8945C26.1333 42.4977 25.4198 42.9925 24.639 43.3581L22.0351 44.5771C21.3495 44.8981 20.8166 45.4745 20.5505 46.1832C20.5263 46.2475 20.4913 46.3071 20.447 46.3595L20.2575 46.5834C20.2389 46.6054 20.2105 46.6166 20.1819 46.6133C20.1645 46.6113 20.1481 46.6041 20.135 46.5926L19.3455 45.9028L18.0442 44.7151L18.8493 45.0175C19.2383 45.1636 19.6559 45.2171 20.0691 45.1739C20.5225 45.1264 20.9563 44.9638 21.3293 44.7016L26.7751 40.8735Z" fill="#7D5CD7"/>
</svg>
