<svg width="70" height="70" viewBox="0 0 70 70" fill="none" xmlns="http://www.w3.org/2000/svg">
<rect width="70" height="70" rx="3.6" fill="#B2E0F1"/>
<path fill-rule="evenodd" clip-rule="evenodd" d="M31.3334 25.8337H24.354C26.8482 22.3113 30.6118 20.3337 35.0001 20.3337C43.1003 20.3337 49.6668 26.9001 49.6668 35.0003H53.3334C53.3334 24.8751 45.1253 16.667 35.0001 16.667C29.859 16.667 25.3294 18.8349 22.1667 22.6626V16.667H18.5001V29.5003H31.3334V25.8337ZM38.6667 44.167H45.6461C43.1519 47.6894 39.3884 49.667 35.0001 49.667C26.8999 49.667 20.3334 43.1005 20.3334 35.0003H16.6667C16.6667 45.1255 24.8749 53.3337 35.0001 53.3337C40.1412 53.3337 44.6707 51.1657 47.8334 47.338V53.3337H51.5001V40.5003H38.6667V44.167Z" fill="#7D5CD7"/>
</svg>
