<svg width="70" height="70" viewBox="0 0 70 70" fill="none" xmlns="http://www.w3.org/2000/svg">
<rect width="70" height="70" rx="3.6" fill="#B2E0F1"/>
<path fill-rule="evenodd" clip-rule="evenodd" d="M51.3334 49.667V36.8337H47.6667V49.667H18.3334V20.3337H31.1667V16.667H18.3334C16.3084 16.667 14.6667 18.3086 14.6667 20.3337V49.667C14.6667 51.692 16.3084 53.3337 18.3334 53.3337H47.6667C49.6918 53.3337 51.3334 51.692 51.3334 49.667ZM46.1599 17.9933C45.3196 17.1463 44.1689 16.667 42.9686 16.667C41.7696 16.667 40.6201 17.1452 39.775 17.9955L24.432 33.3383C23.061 34.5463 22.1622 36.3439 22.006 38.277L22.0001 44.1713V46.0046H29.5802C31.6597 45.862 33.475 44.9544 34.7555 43.4772L50.0116 28.2277C50.858 27.3813 51.3335 26.2333 51.3335 25.0363C51.3335 23.8393 50.858 22.6913 50.0116 21.8449L46.1599 17.9933ZM29.4507 42.3425C30.4301 42.2732 31.3418 41.8174 32.0739 40.98L43.1874 29.8664L38.1379 24.8166L26.9429 36.0079C26.2002 36.6649 25.7406 37.5839 25.6667 38.4247V42.3391L29.4507 42.3425ZM40.731 22.2243L45.7801 27.2737L47.4189 25.635C47.5776 25.4762 47.6668 25.2608 47.6668 25.0363C47.6668 24.8118 47.5776 24.5964 47.4189 24.4376L43.5621 20.5809C43.4051 20.4227 43.1915 20.3337 42.9686 20.3337C42.7456 20.3337 42.532 20.4227 42.375 20.5809L40.731 22.2243Z" fill="#7D5CD7"/>
</svg>
