<svg width="70" height="70" viewBox="0 0 70 70" fill="none" xmlns="http://www.w3.org/2000/svg">
<rect width="70" height="70" rx="3.6" fill="#B2E0F1"/>
<path fill-rule="evenodd" clip-rule="evenodd" d="M34.9999 56.1663C23.8622 56.1663 14.8333 47.1374 14.8333 35.9997C14.8333 24.8619 23.8622 15.833 34.9999 15.833C46.1377 15.833 55.1666 24.8619 55.1666 35.9997C55.1666 47.1374 46.1377 56.1663 34.9999 56.1663ZM34.9999 52.4997C44.1126 52.4997 51.4999 45.1124 51.4999 35.9997C51.4999 26.887 44.1126 19.4997 34.9999 19.4997C25.8872 19.4997 18.4999 26.887 18.4999 35.9997C18.4999 45.1124 25.8872 52.4997 34.9999 52.4997ZM44.0025 42.3209L41.0034 40.2116C39.6369 42.1545 37.4189 43.3322 34.9999 43.3322C32.5808 43.3322 30.3628 42.1545 28.9963 40.2116L25.9972 42.3209C28.0432 45.23 31.3743 46.9989 34.9999 46.9989C38.6254 46.9989 41.9565 45.23 44.0025 42.3209ZM38.6666 34.1663V30.4997H42.3333V34.1663H38.6666ZM27.6666 30.4997V34.1663H31.3333V30.4997H27.6666Z" fill="#7D5CD7"/>
</svg>
