<svg width="70" height="70" viewBox="0 0 70 70" fill="none" xmlns="http://www.w3.org/2000/svg">
<rect width="70" height="70" rx="3.6" fill="#B2E0F1"/>
<circle cx="42" cy="23" r="3" fill="#7D5CD7"/>
<path d="M47 15L41.9065 16.5359C40.8893 16.8426 39.9383 17.3364 39.1022 17.9919V17.9919C38.2527 18.6579 37.537 19.479 36.9933 20.4115L35.7755 22.5L32.7143 28.5L30.1032 35M22 54L29.1429 37L30.1032 35M30.1032 35L38.8367 54" stroke="#7D5CD7" stroke-width="4"/>
<rect x="33.8936" y="24.8555" width="4.79876" height="13.2889" transform="rotate(22.5152 33.8936 24.8555)" fill="#7D5CD7"/>
<path d="M35.5 23L42.2231 32.096C43.0697 33.2414 42.4817 34.8796 41.0998 35.225L32 37.5" stroke="#7D5CD7" stroke-width="4"/>
</svg>
