<svg width="70" height="70" viewBox="0 0 70 70" fill="none" xmlns="http://www.w3.org/2000/svg">
<rect width="70" height="70" rx="3.6" fill="#B2E0F1"/>
<path fill-rule="evenodd" clip-rule="evenodd" d="M53.3334 47.8333C53.3334 49.8584 51.6918 51.5 49.6667 51.5H20.3334C18.3084 51.5 16.6667 49.8584 16.6667 47.8333V34.6237L16.815 34.2778L22.3544 21.3586C23.1806 19.6759 24.2227 18.6338 25.8334 18.5H44.1667L44.4066 18.5158C45.7868 18.6979 46.7977 19.7088 47.6852 21.4445L53.3334 34.6237V47.8333ZM20.3334 36.8333V47.8332H49.6667V36.8333H42.3334C42.3334 38.8584 40.6918 40.5 38.6667 40.5H31.3334C29.3084 40.5 27.6667 38.8584 27.6667 36.8333H20.3334ZM21.2804 33.1667H31.3334V36.8333H38.6667V33.1667H48.7208L44.3697 23.0049C44.1643 22.6055 43.9748 22.3252 43.8216 22.1664L26.1559 22.1596C26.0144 22.3122 25.8395 22.5796 25.6852 22.8887L21.2804 33.1667Z" fill="#7D5CD7"/>
</svg>
