<svg width="70" height="70" viewBox="0 0 70 70" fill="none" xmlns="http://www.w3.org/2000/svg">
<rect width="70" height="70" rx="3.6" fill="#93E4F5"/>
<path fill-rule="evenodd" clip-rule="evenodd" d="M14.8333 34.9997C14.8333 46.1374 23.8622 55.1663 34.9999 55.1663C46.1377 55.1663 55.1666 46.1374 55.1666 34.9997C55.1666 23.8619 46.1377 14.833 34.9999 14.833C23.8622 14.833 14.8333 23.8619 14.8333 34.9997ZM51.4999 34.9997C51.4999 44.1124 44.1126 51.4997 34.9999 51.4997C25.8872 51.4997 18.4999 44.1124 18.4999 34.9997C18.4999 25.887 25.8872 18.4997 34.9999 18.4997C44.1126 18.4997 51.4999 25.887 51.4999 34.9997ZM36.8398 38.6631H38.672V42.3297H31.3386V38.6631H33.172V34.9964H31.3386V31.3297H36.8398V38.6631ZM36.8345 27.6631C36.8345 28.6756 36.0134 29.4964 35.0005 29.4964C33.9877 29.4964 33.1666 28.6756 33.1666 27.6631C33.1666 26.6505 33.9877 25.8297 35.0005 25.8297C36.0134 25.8297 36.8345 26.6505 36.8345 27.6631Z" fill="#7D5CD7"/>
</svg>
