<svg width="70" height="70" viewBox="0 0 70 70" fill="none" xmlns="http://www.w3.org/2000/svg">
<rect width="70" height="70" rx="3.6" fill="#B2E0F1"/>
<mask id="path-2-inside-1" fill="white">
<path fill-rule="evenodd" clip-rule="evenodd" d="M31.7937 13C30.1368 13 28.7937 14.3431 28.7937 16V33.6603L15.5392 52.7915C14.1608 54.7811 15.5847 57.5 18.0052 57.5H51.5823C54.0027 57.5 55.4267 54.7811 54.0483 52.7915L40.7937 33.6602V16C40.7937 14.3431 39.4505 13 37.7937 13H31.7937Z"/>
</mask>
<path fill-rule="evenodd" clip-rule="evenodd" d="M31.7937 13C30.1368 13 28.7937 14.3431 28.7937 16V33.6603L15.5392 52.7915C14.1608 54.7811 15.5847 57.5 18.0052 57.5H51.5823C54.0027 57.5 55.4267 54.7811 54.0483 52.7915L40.7937 33.6602V16C40.7937 14.3431 39.4505 13 37.7937 13H31.7937Z" fill="#7D5CD7"/>
<path d="M28.7937 33.6603L30.6021 34.9132L30.9937 34.3479V33.6603H28.7937ZM15.5392 52.7915L17.3476 54.0444L15.5392 52.7915ZM54.0483 52.7915L55.8566 51.5386L54.0483 52.7915ZM40.7937 33.6602H38.5937V34.3479L38.9853 34.9131L40.7937 33.6602ZM30.9937 16C30.9937 15.5582 31.3518 15.2 31.7937 15.2V10.8C28.9218 10.8 26.5937 13.1281 26.5937 16H30.9937ZM30.9937 33.6603V16H26.5937V33.6603H30.9937ZM17.3476 54.0444L30.6021 34.9132L26.9853 32.4074L13.7308 51.5386L17.3476 54.0444ZM18.0052 55.3C17.3597 55.3 16.98 54.575 17.3476 54.0444L13.7308 51.5386C11.3415 54.9873 13.8097 59.7 18.0052 59.7V55.3ZM51.5823 55.3H18.0052V59.7H51.5823V55.3ZM52.2399 54.0444C52.6075 54.575 52.2277 55.3 51.5823 55.3V59.7C55.7777 59.7 58.2459 54.9873 55.8566 51.5386L52.2399 54.0444ZM38.9853 34.9131L52.2399 54.0444L55.8566 51.5386L42.6021 32.4073L38.9853 34.9131ZM38.5937 16V33.6602H42.9937V16H38.5937ZM37.7937 15.2C38.2355 15.2 38.5937 15.5582 38.5937 16H42.9937C42.9937 13.1281 40.6656 10.8 37.7937 10.8V15.2ZM31.7937 15.2H37.7937V10.8H31.7937V15.2Z" fill="black" mask="url(#path-2-inside-1)"/>
<path d="M31 15.8C31 15.3582 31.3582 15 31.8 15H37.8C38.2418 15 38.6 15.3582 38.6 15.8V27H31V15.8Z" fill="#FAFAFA"/>
<line x1="20" y1="48.5" x2="27" y2="48.5" stroke="black"/>
<line x1="21" y1="45.5" x2="28" y2="45.5" stroke="black"/>
<line x1="23" y1="42.5" x2="30" y2="42.5" stroke="black"/>
</svg>
