<svg width="70" height="70" viewBox="0 0 70 70" fill="none" xmlns="http://www.w3.org/2000/svg">
<rect width="70" height="70" rx="3.6" fill="#B2E0F1"/>
<mask id="path-2-inside-1" fill="white">
<path fill-rule="evenodd" clip-rule="evenodd" d="M30.7937 13C29.1368 13 27.7937 14.3431 27.7937 16V33.6603L14.5392 52.7915C13.1608 54.7811 14.5847 57.5 17.0052 57.5H50.5823C53.0027 57.5 54.4267 54.7811 53.0483 52.7915L39.7937 33.6602V16C39.7937 14.3431 38.4505 13 36.7937 13H30.7937Z"/>
</mask>
<path fill-rule="evenodd" clip-rule="evenodd" d="M30.7937 13C29.1368 13 27.7937 14.3431 27.7937 16V33.6603L14.5392 52.7915C13.1608 54.7811 14.5847 57.5 17.0052 57.5H50.5823C53.0027 57.5 54.4267 54.7811 53.0483 52.7915L39.7937 33.6602V16C39.7937 14.3431 38.4505 13 36.7937 13H30.7937Z" fill="#5CD777"/>
<path d="M27.7937 33.6603L29.6021 34.9132L29.9937 34.3479V33.6603H27.7937ZM14.5392 52.7915L16.3476 54.0444L14.5392 52.7915ZM53.0483 52.7915L54.8566 51.5386L53.0483 52.7915ZM39.7937 33.6602H37.5937V34.3479L37.9853 34.9131L39.7937 33.6602ZM29.9937 16C29.9937 15.5582 30.3518 15.2 30.7937 15.2V10.8C27.9218 10.8 25.5937 13.1281 25.5937 16H29.9937ZM29.9937 33.6603V16H25.5937V33.6603H29.9937ZM16.3476 54.0444L29.6021 34.9132L25.9853 32.4074L12.7308 51.5386L16.3476 54.0444ZM17.0052 55.3C16.3597 55.3 15.98 54.575 16.3476 54.0444L12.7308 51.5386C10.3415 54.9873 12.8097 59.7 17.0052 59.7V55.3ZM50.5823 55.3H17.0052V59.7H50.5823V55.3ZM51.2399 54.0444C51.6075 54.575 51.2277 55.3 50.5823 55.3V59.7C54.7777 59.7 57.2459 54.9873 54.8566 51.5386L51.2399 54.0444ZM37.9853 34.9131L51.2399 54.0444L54.8566 51.5386L41.6021 32.4073L37.9853 34.9131ZM37.5937 16V33.6602H41.9937V16H37.5937ZM36.7937 15.2C37.2355 15.2 37.5937 15.5582 37.5937 16H41.9937C41.9937 13.1281 39.6656 10.8 36.7937 10.8V15.2ZM30.7937 15.2H36.7937V10.8H30.7937V15.2Z" fill="black" mask="url(#path-2-inside-1)"/>
<path d="M30 15.8C30 15.3582 30.3582 15 30.8 15H36.8C37.2418 15 37.6 15.3582 37.6 15.8V27H30V15.8Z" fill="#FAFAFA"/>
<line x1="19" y1="48.5" x2="26" y2="48.5" stroke="black"/>
<line x1="20" y1="45.5" x2="27" y2="45.5" stroke="black"/>
<line x1="22" y1="42.5" x2="29" y2="42.5" stroke="black"/>
</svg>
