<svg width="70" height="70" viewBox="0 0 70 70" fill="none" xmlns="http://www.w3.org/2000/svg">
<rect width="70" height="70" rx="3.6" fill="#B2E0F1"/>
<path d="M41.8213 23.6453C41.8213 27.4676 38.7531 30.5406 34.9999 30.5406C31.2467 30.5406 28.1785 27.4676 28.1785 23.6453C28.1785 19.8229 31.2467 16.75 34.9999 16.75C38.7531 16.75 41.8213 19.8229 41.8213 23.6453Z" stroke="#7D5CD7" stroke-width="3.5"/>
<path d="M21.7869 53.25C21.9365 49.7625 22.5738 45.9264 24.2781 42.8437C25.2607 41.0665 26.5837 39.5649 28.3612 38.5001C30.1366 37.4365 32.463 36.75 35.5445 36.75C38.3546 36.75 40.4726 37.3748 42.0901 38.3557C43.7092 39.3376 44.9301 40.7391 45.8467 42.451C47.4673 45.4777 48.0859 49.3784 48.2204 53.25H35.5357H21.7869Z" stroke="#7D5CD7" stroke-width="3.5"/>
</svg>
