<svg width="137" height="137" viewBox="0 0 137 137" fill="none" xmlns="http://www.w3.org/2000/svg">
<path d="M21.1403 114.479L36.2864 111.199C37.5096 110.934 38.4016 109.888 38.4629 108.647L38.9752 98.2777C39.0499 96.7657 40.3413 95.5985 41.8654 95.6654L50.9127 96.0624C52.7077 96.1411 54.102 94.531 53.7535 92.7817L51.9858 83.9067" stroke="#7D5CD7" stroke-width="2.76238"/>
<mask id="path-3-inside-1" fill="white">
<path fill-rule="evenodd" clip-rule="evenodd" d="M65.7025 40.2621C65.7817 40.121 65.861 39.9814 65.9403 39.8432C75.9898 22.3466 95.2158 14.5927 108.883 22.5244C122.55 30.4561 125.483 51.0698 115.433 68.5664C106.479 84.1558 80.8506 108.358 65.7025 107.839C50.5543 108.358 24.9258 84.1558 15.9718 68.5664C5.92236 51.0698 8.85502 30.4561 22.5221 22.5244C36.1892 14.5927 55.4152 22.3466 65.4647 39.8432C65.544 39.9814 65.6233 40.121 65.7025 40.2621Z"/>
</mask>
<path fill-rule="evenodd" clip-rule="evenodd" d="M65.7025 40.2621C65.7817 40.121 65.861 39.9814 65.9403 39.8432C75.9898 22.3466 95.2158 14.5927 108.883 22.5244C122.55 30.4561 125.483 51.0698 115.433 68.5664C106.479 84.1558 80.8506 108.358 65.7025 107.839C50.5543 108.358 24.9258 84.1558 15.9718 68.5664C5.92236 51.0698 8.85502 30.4561 22.5221 22.5244C36.1892 14.5927 55.4152 22.3466 65.4647 39.8432C65.544 39.9814 65.6233 40.121 65.7025 40.2621Z" fill="#EFE9FF"/>
<path d="M65.9403 39.8432L68.3357 41.2191L68.3357 41.2191L65.9403 39.8432ZM65.7025 40.2621L63.2937 41.6142L65.7025 45.9054L68.1113 41.6142L65.7025 40.2621ZM108.883 22.5244L107.496 24.9136V24.9136L108.883 22.5244ZM115.433 68.5664L117.829 69.9422L115.433 68.5664ZM65.7025 107.839L65.7971 105.078L65.7025 105.075L65.6078 105.078L65.7025 107.839ZM15.9718 68.5664L18.3672 67.1906H18.3672L15.9718 68.5664ZM22.5221 22.5244L21.1355 20.1352V20.1352L22.5221 22.5244ZM65.4647 39.8432L63.0693 41.2191L63.0693 41.2191L65.4647 39.8432ZM63.5449 38.4674C63.461 38.6136 63.3772 38.7611 63.2937 38.9099L68.1113 41.6142C68.1861 41.4809 68.2609 41.3492 68.3357 41.2191L63.5449 38.4674ZM110.269 20.1352C94.7644 11.1368 74.0223 20.2258 63.5449 38.4674L68.3357 41.2191C77.9573 24.4674 95.6673 18.0486 107.496 24.9136L110.269 20.1352ZM117.829 69.9422C128.306 51.7013 125.759 29.1248 110.269 20.1352L107.496 24.9136C119.341 31.7874 122.66 50.4383 113.038 67.1906L117.829 69.9422ZM65.6078 110.6C70.0877 110.753 75.032 109.095 79.8828 106.563C84.785 104.003 89.8569 100.411 94.6702 96.3563C104.267 88.2731 113.151 78.0864 117.829 69.9422L113.038 67.1906C108.762 74.6358 100.354 84.3451 91.111 92.1308C86.5044 96.0109 81.7692 99.3456 77.3259 101.665C72.8311 104.012 68.8913 105.184 65.7971 105.078L65.6078 110.6ZM65.6078 105.078C62.5136 105.184 58.5738 104.012 54.079 101.665C49.6357 99.3456 44.9005 96.0108 40.2939 92.1307C31.0506 84.3451 22.6435 74.6358 18.3672 67.1906L13.5765 69.9422C18.2542 78.0864 27.1383 88.2731 36.7348 96.3563C41.5481 100.411 46.6199 104.003 51.5222 106.563C56.3729 109.095 61.3172 110.753 65.7971 110.6L65.6078 105.078ZM18.3672 67.1906C8.74523 50.4382 12.0644 31.7874 23.9087 24.9136L21.1355 20.1352C5.64562 29.1248 3.09949 51.7013 13.5765 69.9422L18.3672 67.1906ZM23.9087 24.9136C35.7377 18.0486 53.4477 24.4674 63.0693 41.2191L67.8601 38.4674C57.3827 20.2258 36.6406 11.1368 21.1355 20.1352L23.9087 24.9136ZM63.0693 41.2191C63.1441 41.3492 63.2189 41.4809 63.2937 41.6142L68.1113 38.9099C68.0278 38.7611 67.944 38.6136 67.8601 38.4674L63.0693 41.2191Z" fill="#7D5CD7" mask="url(#path-3-inside-1)"/>
<path d="M92.2058 38.9819C93.307 37.9421 95.1355 38.0751 96.2898 39.2788L105.869 49.2685C107.024 50.4722 107.067 52.2909 105.966 53.3307C104.864 54.3704 103.036 54.2375 101.882 53.0337L92.3019 43.0441C91.1476 41.8403 91.1045 40.0216 92.2058 38.9819Z" fill="#7D5CD7"/>
<rect width="4.55936" height="19.2219" rx="2.27968" transform="matrix(0.862011 0.50689 -0.437389 0.899272 27.3186 99.0035)" fill="#7D5CD7"/>
<rect width="4.80549" height="18.2374" rx="2.40274" transform="matrix(-0.437389 0.899272 -0.862011 -0.50689 36.7366 121.212)" fill="#7D5CD7"/>
<rect width="5.51192" height="12.7297" rx="2.75596" transform="matrix(1.00529 -0.0121464 0.0626439 0.992938 118.429 17.1609)" fill="#7D5CD7"/>
<rect width="5.93842" height="11.5967" rx="2.96921" transform="matrix(0.0626438 0.992938 -1.00529 0.0121464 130.513 23.7625)" fill="#7D5CD7"/>
<rect width="5.42512" height="41.9026" rx="2.71256" transform="matrix(0.703523 0.703523 -0.748376 0.671343 128.399 16.3416)" fill="#7D5CD7"/>
</svg>
