<svg width="100" height="100" viewBox="0 0 100 100" fill="none" xmlns="http://www.w3.org/2000/svg">
<rect width="100" height="100" rx="3.6" fill="#F5C3CF"/>
<path d="M75.4979 42.4653C73.4702 53.9646 62.5045 61.6428 51.0053 59.6152C39.5061 57.5876 31.8278 46.6219 33.8554 35.1227C34.8378 29.5512 38.6528 25.9276 44.4065 23.773C50.1958 21.6051 57.841 20.9782 66.1566 21.4151C69.0852 21.569 71.1911 22.2512 72.6974 23.2894C74.1913 24.3188 75.1751 25.7528 75.7719 27.565C76.9915 31.2688 76.5617 36.4317 75.4979 42.4653Z" fill="#FAFAFA" stroke="#161026" stroke-width="2"/>
<circle cx="54.6488" cy="39.9937" r="7.51631" transform="rotate(10 54.6488 39.9937)" stroke="#161026" stroke-width="2"/>
<circle cx="54.7581" cy="39.8001" r="2.37009" transform="rotate(10 54.7581 39.8001)" fill="#30D2F5" stroke="#161026" stroke-width="2"/>
<path d="M21.3895 64.3672C15.8775 57.7069 16.79 47.8545 23.4276 42.3614C30.0652 36.8682 39.9144 37.8144 45.4263 44.4747L56.3444 57.6674C61.8564 64.3277 60.9439 74.18 54.3063 79.6732C47.6687 85.1664 37.8195 84.2202 32.3075 77.5599L21.3895 64.3672Z" fill="#30D2F5"/>
<path fill-rule="evenodd" clip-rule="evenodd" d="M55.1583 58.649L44.2402 45.4563C39.2722 39.4533 30.3951 38.6005 24.4126 43.5516C18.4301 48.5026 17.6076 57.3826 22.5756 63.3855L33.4937 76.5783C38.4617 82.5813 47.3388 83.434 53.3213 78.483C59.3038 73.532 60.1262 64.652 55.1583 58.649ZM23.4276 42.3614C16.79 47.8545 15.8775 57.7069 21.3895 64.3672L32.3075 77.5599C37.8195 84.2202 47.6687 85.1664 54.3063 79.6732C60.9439 74.18 61.8564 64.3277 56.3444 57.6674L45.4263 44.4747C39.9144 37.8144 30.0652 36.8682 23.4276 42.3614Z" fill="#161026"/>
<path d="M23.4837 58.347C21.1989 55.5862 21.5771 51.5023 24.3285 49.2253L30.0019 44.53C32.7533 42.253 36.836 42.6452 39.1207 45.406L42.8978 49.97C45.1826 52.7308 44.8043 56.8147 42.0529 59.0917L36.3795 63.787C33.6281 66.064 29.5455 65.6718 27.2607 62.911L23.4837 58.347Z" fill="#FAFAFA"/>
<path fill-rule="evenodd" clip-rule="evenodd" d="M30.9869 45.7202L25.3135 50.4155C23.2172 52.1503 22.929 55.2619 24.6698 57.3654L28.4469 61.9293C30.1876 64.0328 33.2982 64.3316 35.3945 62.5968L41.068 57.9015C43.1642 56.1666 43.4524 53.0551 41.7116 50.9516L37.9346 46.3877C36.1938 44.2842 33.0832 43.9854 30.9869 45.7202ZM24.3285 49.2253C21.5771 51.5023 21.1989 55.5862 23.4837 58.347L27.2607 62.911C29.5455 65.6718 33.6281 66.064 36.3795 63.787L42.0529 59.0917C44.8043 56.8147 45.1826 52.7308 42.8978 49.97L39.1207 45.406C36.836 42.6452 32.7533 42.253 30.0019 44.53L24.3285 49.2253Z" fill="#161026"/>
<path d="M27.4656 42.4886C27.9541 42.3761 28.461 42.5216 28.742 42.9227C29.6142 44.1673 29.7523 45.4247 29.4457 47.5423C29.3574 48.1521 28.8871 48.6468 28.2985 48.7822C27.2352 49.027 26.4105 48.0226 26.5015 46.9169C26.5526 46.2955 26.4937 45.7417 26.3087 45.2039C25.9432 44.1409 26.3605 42.743 27.4656 42.4886Z" fill="#161026"/>
<path d="M32.0168 43.524C32.4444 43.8545 32.6571 44.3826 32.4953 44.8835C31.983 46.4694 30.9995 47.4752 28.9992 48.7477C28.4539 49.0946 27.7331 49.0513 27.2291 48.6617C26.3651 47.994 26.5761 46.7223 27.4989 46.1115C28.2658 45.6039 28.8142 45.0418 29.2173 44.3174C29.7618 43.339 31.1159 42.8278 32.0168 43.524Z" fill="#161026"/>
<path d="M38.4637 52.0353C36.77 49.9886 36.6467 53.539 34.4053 55.394C32.1638 57.249 28.653 56.7061 30.3468 58.7527C32.0405 60.7994 35.2306 60.9547 37.4721 59.0998C39.7135 57.2448 40.1575 54.0819 38.4637 52.0353Z" fill="#FAFAFA"/>
<circle cx="35.6505" cy="56.8154" r="2.24443" transform="rotate(-39.6106 35.6505 56.8154)" fill="#FAFAFA" stroke="#161026" stroke-width="1.4"/>
<path d="M32.7582 50.6496C32.386 50.1998 32.4476 49.5344 32.8959 49.1634C33.3442 48.7924 34.0094 48.8563 34.3816 49.3061C34.7539 49.756 34.6923 50.4214 34.244 50.7924C33.7957 51.1633 33.1305 51.0994 32.7582 50.6496Z" fill="#161026"/>
<path d="M28.1586 54.4563C27.7863 54.0064 27.848 53.341 28.2963 52.97C28.7446 52.599 29.4097 52.6629 29.782 53.1128C30.1543 53.5626 30.0926 54.228 29.6444 54.599C29.1961 54.97 28.5309 54.9061 28.1586 54.4563Z" fill="#161026"/>
<path fill-rule="evenodd" clip-rule="evenodd" d="M50.3198 64.7934C47.8573 70.2491 43.0398 75.6727 35.1198 76.9589L34.8648 75.4403C42.1281 74.2608 46.5893 69.2978 48.9092 64.1582C50.0779 61.5773 50.6795 59.0329 50.8321 56.8749C50.91 55.8077 50.8756 54.9069 50.7367 54.1377C50.6014 53.3776 50.3817 52.884 50.1579 52.6204L51.3371 51.6302C51.8139 52.1919 52.1018 52.9925 52.259 53.8752C52.4127 54.7486 52.4558 55.839 52.3741 56.9909C52.2078 59.271 51.5423 62.0765 50.3198 64.7934Z" fill="#161026"/>
<path fill-rule="evenodd" clip-rule="evenodd" d="M47.4278 76.3377C41.0183 78.5557 33.2841 78.6786 28.0378 72.3394L29.289 71.3301C34.0067 77.0306 40.9566 77.0071 47.0132 74.9112C50.0573 73.8616 52.7754 72.3288 54.8546 70.7446C55.887 69.9604 56.7072 69.2075 57.3281 68.4874C57.9479 67.7707 58.2689 67.1943 58.3614 66.802L59.8854 67.0227C59.705 67.7878 59.1808 68.6095 58.4916 69.4063C57.8035 70.1997 56.8507 71.0757 55.7548 71.9106C53.5773 73.5645 50.6168 75.2305 47.4278 76.3377Z" fill="#161026"/>
</svg>
