<svg width="100" height="100" viewBox="0 0 100 100" fill="none" xmlns="http://www.w3.org/2000/svg">
<rect width="100" height="100" rx="3.6" fill="#F5C3CF"/>
<path d="M28.2407 67.6922C24.8561 65.934 23.5375 61.7648 25.2956 58.3802L29.1019 51.0522C30.86 47.6675 35.029 46.349 38.4136 48.1073L45.7446 51.9156C49.1292 53.6739 50.4478 57.843 48.6897 61.2277L44.8834 68.5556C43.1253 71.9403 38.9563 73.2588 35.5717 71.5006L28.2407 67.6922Z" fill="#FAFAFA" stroke="#161026" stroke-width="2.76238"/>
<path d="M52.5926 57.4483C52.5926 53.6342 55.6845 50.5423 59.4986 50.5423H67.7857C71.5997 50.5423 74.6916 53.6342 74.6916 57.4483V65.7354C74.6916 69.5494 71.5997 72.6413 67.7857 72.6413H59.4986C55.6845 72.6413 52.5926 69.5494 52.5926 65.7354V57.4483Z" fill="#FAFAFA" stroke="#161026" stroke-width="2.76238"/>
<path d="M40.405 34.2566C40.0371 30.4603 42.8163 27.084 46.6125 26.7153L54.7407 25.9259C58.5369 25.5573 61.9125 28.3359 62.2804 32.1322L63.0674 40.2542C63.4353 44.0505 60.6561 47.4268 56.8599 47.7955L48.7317 48.5848C44.9355 48.9535 41.5599 46.1749 41.192 42.3786L40.405 34.2566Z" fill="#30D2F5" stroke="#161026" stroke-width="2.76238"/>
<path d="M59.6267 68.7697L59.6269 68.7697L59.629 68.7643L60.6509 66.0486H66.8155L67.8616 68.7638C67.9377 68.9767 68.0893 69.1409 68.3068 69.2573C68.5172 69.3699 68.7243 69.4291 68.9269 69.4291C69.2426 69.4291 69.5137 69.3514 69.7335 69.1896C69.9575 69.0248 70.0732 68.802 70.0732 68.529C70.0732 68.48 70.0638 68.4216 70.0482 68.3566C70.0473 68.2958 70.0399 68.2336 70.0137 68.1855L65.1587 55.8502L65.1588 55.8502L65.1574 55.8471C65.0212 55.5325 64.8579 55.2691 64.6662 55.0593C64.4578 54.8311 64.1436 54.7267 63.7454 54.7267C63.3616 54.7267 63.0507 54.8322 62.8275 55.0561L62.8275 55.0561L62.8246 55.0593C62.6319 55.2702 62.4765 55.535 62.3567 55.8508C62.3566 55.851 62.3566 55.8512 62.3565 55.8514L57.5022 68.185C57.4792 68.2255 57.4611 68.2818 57.4454 68.3448L57.4425 68.3567V68.369V68.3694V68.3698V68.3701V68.3705V68.3709V68.3713V68.3717V68.3721V68.3725V68.3729V68.3733V68.3736V68.374V68.3744V68.3748V68.3752V68.3756V68.376V68.3763V68.3767V68.3771V68.3775V68.3779V68.3783V68.3786V68.379V68.3794V68.3798V68.3802V68.3806V68.3809V68.3813V68.3817V68.3821V68.3825V68.3828V68.3832V68.3836V68.384V68.3844V68.3847V68.3851V68.3855V68.3859V68.3862V68.3866V68.387V68.3874V68.3878V68.3881V68.3885V68.3889V68.3893V68.3896V68.39V68.3904V68.3907V68.3911V68.3915V68.3919V68.3922V68.3926V68.393V68.3934V68.3937V68.3941V68.3945V68.3948V68.3952V68.3956V68.3959V68.3963V68.3967V68.397V68.3974V68.3978V68.3982V68.3985V68.3989V68.3993V68.3996V68.4V68.4004V68.4007V68.4011V68.4014V68.4018V68.4022V68.4025V68.4029V68.4033V68.4036V68.404V68.4044V68.4047V68.4051V68.4054V68.4058V68.4062V68.4065V68.4069V68.4072V68.4076V68.408V68.4083V68.4087V68.409V68.4094V68.4097V68.4101V68.4105V68.4108V68.4112V68.4115V68.4119V68.4122V68.4126V68.413V68.4133V68.4137V68.414V68.4144V68.4147V68.4151V68.4154V68.4158V68.4161V68.4165V68.4168V68.4172V68.4175V68.4179V68.4182V68.4186V68.4189V68.4193V68.4196V68.42V68.4203V68.4207V68.421V68.4214V68.4217V68.4221V68.4224V68.4228V68.4231V68.4235V68.4238V68.4241V68.4245V68.4248V68.4252V68.4255V68.4259V68.4262V68.4266V68.4269V68.4272V68.4276V68.4279V68.4283V68.4286V68.4289V68.4293V68.4296V68.43V68.4303V68.4306V68.431V68.4313V68.4317V68.432V68.4323V68.4327V68.433V68.4333V68.4337V68.434V68.4344V68.4347V68.435V68.4354V68.4357V68.436V68.4364V68.4367V68.437V68.4374V68.4377V68.438V68.4384V68.4387V68.439V68.4394V68.4397V68.44V68.4403V68.4407V68.441V68.4413V68.4417V68.442V68.4423V68.4427V68.443V68.4433V68.4436V68.444V68.4443V68.4446V68.4449V68.4453V68.4456V68.4459V68.4462V68.4466V68.4469V68.4472V68.4475V68.4479V68.4482V68.4485V68.4488V68.4492V68.4495V68.4498V68.4501V68.4504V68.4508V68.4511V68.4514V68.4517V68.452V68.4524V68.4527V68.453V68.4533V68.4536V68.4539V68.4543V68.4546V68.4549V68.4552V68.4555V68.4558V68.4562V68.4565V68.4568V68.4571V68.4574V68.4577V68.4581V68.4584V68.4587V68.459V68.4593V68.4596V68.4599V68.4602V68.4605V68.4609V68.4612V68.4615V68.4618V68.4621V68.4624V68.4627V68.463V68.4633V68.4636V68.464V68.4643V68.4646V68.4649V68.4652V68.4655V68.4658V68.4661V68.4664V68.4667V68.467V68.4673V68.4676V68.4679V68.4682V68.4685V68.4688V68.4691V68.4694V68.4697V68.47V68.4703V68.4706V68.4709V68.4712V68.4715V68.4718V68.4721V68.4724V68.4727V68.473V68.4733V68.4736V68.4739V68.4742V68.4745V68.4748V68.4751V68.4754V68.4757V68.476V68.4763V68.4766V68.4769V68.4772V68.4775V68.4778V68.4781V68.4784V68.4787V68.479V68.4792V68.4795V68.4798V68.4801V68.4804V68.4807V68.481V68.4813V68.4816V68.4819V68.4822V68.4824V68.4827V68.483V68.4833V68.4836V68.4839V68.4842V68.4845V68.4847V68.485V68.4853V68.4856V68.4859V68.4862V68.4865V68.4867V68.487V68.4873V68.4876V68.4879V68.4882V68.4884V68.4887V68.489V68.4893V68.4896V68.4898V68.4901V68.4904V68.4907V68.491V68.4912V68.4915V68.4918V68.4921V68.4924V68.4926V68.4929V68.4932V68.4935V68.4937V68.494V68.4943V68.4946V68.4949V68.4951V68.4954V68.4957V68.4959V68.4962V68.4965V68.4968V68.497V68.4973V68.4976V68.4979V68.4981V68.4984V68.4987V68.4989V68.4992V68.4995V68.4998V68.5V68.5003V68.5006V68.5008V68.5011V68.5014V68.5016V68.5019V68.5022V68.5024V68.5027V68.503V68.5032V68.5035V68.5038V68.504V68.5043V68.5046V68.5048V68.5051V68.5054V68.5056V68.5059V68.5061V68.5064V68.5067V68.5069V68.5072V68.5075V68.5077V68.508V68.5082V68.5085V68.5088V68.509V68.5093V68.5095V68.5098V68.51V68.5103V68.5106V68.5108V68.5111V68.5113V68.5116V68.5118V68.5121V68.5124V68.5126V68.5129V68.5131V68.5134V68.5136V68.5139V68.5141V68.5144V68.5146V68.5149V68.5151V68.5154V68.5156V68.5159V68.5161V68.5164V68.5167V68.5169V68.5171V68.5174V68.5176V68.5179V68.5181V68.5184V68.5186V68.5189V68.5191V68.5194V68.5196V68.5199V68.5201V68.5204V68.5206V68.5209V68.5211V68.5213V68.5216V68.5218V68.5221V68.5223V68.5226V68.5228V68.523V68.5233V68.5235V68.5238V68.524V68.5243V68.5245V68.5247V68.525V68.5252V68.5255V68.5257V68.5259V68.5262V68.5264V68.5266V68.5269V68.5271V68.5274V68.5276V68.5278V68.5281V68.5283V68.5285V68.5288V68.529C57.4425 68.802 57.5582 69.0248 57.7821 69.1896L57.7821 69.1897L57.7852 69.1918C58.0191 69.3507 58.2881 69.4291 58.5888 69.4291C58.7918 69.4291 58.9917 69.3697 59.1872 69.2555C59.3873 69.1386 59.5349 68.9762 59.6267 68.7697ZM61.3243 64.2883L63.7454 57.8897L66.1665 64.2883H61.3243Z" fill="#161026" stroke="#161026" stroke-width="0.2"/>
<path d="M52.9287 35.7818L52.9287 35.7818L52.9278 35.7821C52.5872 35.8985 52.2441 35.9676 51.8984 35.9897L49.4476 36.1463L49.1671 31.7559L51.9949 31.5752C52.4902 31.5436 52.9031 31.5786 53.2364 31.6766L53.2364 31.6767L53.2399 31.6776C53.5751 31.7631 53.8436 31.8979 54.0496 32.0789L54.0496 32.079L54.0523 32.0812C54.2591 32.2507 54.4114 32.4553 54.5104 32.6958L54.5103 32.6958L54.511 32.6974C54.6108 32.9288 54.6694 33.1766 54.6863 33.4413C54.7117 33.8388 54.6417 34.1916 54.4791 34.5029L54.4791 34.5029L54.4784 34.5043C54.327 34.8056 54.1161 35.0645 53.8445 35.2814L53.8445 35.2814L53.8426 35.2829C53.5855 35.4987 53.2813 35.6653 52.9287 35.7818ZM54.4826 38.3107L54.4825 38.3107L54.4847 38.312C55.1315 38.6927 55.4834 39.2946 55.537 40.134C55.5827 40.85 55.3582 41.445 54.8632 41.9274C54.3693 42.394 53.5832 42.6706 52.4856 42.7407L49.8795 42.9072L49.5634 37.9586L52.0807 37.7977C53.041 37.7364 53.8394 37.9099 54.4826 38.3107ZM57.2752 41.6831L57.2755 41.6822C57.4696 41.1446 57.5474 40.5793 57.5096 39.9872C57.4719 39.3976 57.3348 38.905 57.0926 38.5147C56.8687 38.1294 56.5799 37.818 56.2262 37.5821C55.8907 37.3476 55.514 37.173 55.0969 37.0579C54.7945 36.9605 54.497 36.8748 54.2045 36.8009C54.5141 36.6439 54.8002 36.4795 55.0628 36.3075C55.4127 36.0871 55.7092 35.8339 55.9509 35.5474C56.1936 35.26 56.3797 34.9334 56.5095 34.5684C56.6406 34.1996 56.6904 33.7882 56.6615 33.3359C56.6299 32.8411 56.5086 32.3726 56.2975 31.9313C56.0848 31.4745 55.7767 31.0809 55.3748 30.7512C54.9853 30.4055 54.504 30.1459 53.9336 29.9708C53.3724 29.7795 52.7238 29.7089 51.9901 29.7558L48.2418 29.9953C47.9221 30.0157 47.6528 30.1386 47.4399 30.3641C47.2267 30.5898 47.1278 30.8577 47.1472 31.1619L47.9516 43.7534C47.9711 44.0576 48.1033 44.3107 48.3435 44.5075C48.5833 44.7041 48.8661 44.7917 49.1858 44.7712L52.8453 44.5374C53.6084 44.4887 54.2859 44.3404 54.8764 44.0907L54.8764 44.0907L54.8783 44.0898C55.4653 43.8272 55.9597 43.4921 56.3597 43.0837C56.7743 42.6745 57.0799 42.2075 57.2752 41.6831Z" fill="#161026" stroke="#161026" stroke-width="0.2"/>
<path d="M34.1557 53.5895L34.1556 53.5895L34.1543 53.591C33.6775 54.1075 33.2548 54.7368 32.8855 55.4775L30.8607 59.5384C30.4914 60.2791 30.2432 60.9953 30.1176 61.687L30.1176 61.6869L30.1173 61.689C30.0051 62.3879 30.0222 63.0495 30.1701 63.6727L30.17 63.6727L30.1709 63.6759C30.3393 64.2949 30.6517 64.8629 31.1059 65.3796L31.1064 65.3802C31.5749 65.9045 32.2008 66.3603 32.9805 66.7491C33.4385 66.9774 33.9058 67.1544 34.3823 67.2798C34.8571 67.4047 35.2931 67.4779 35.6899 67.4983L35.6899 67.4983L35.6916 67.4984C36.1074 67.5126 36.4702 67.4739 36.7777 67.3795L36.7777 67.3795L36.7808 67.3785C37.0995 67.2692 37.3307 67.0892 37.4587 66.8325C37.5594 66.6306 37.5696 66.4178 37.4917 66.2011C37.4188 65.9678 37.2605 65.7926 37.027 65.6762C36.8711 65.5985 36.7205 65.5647 36.5808 65.5925C36.4774 65.603 36.3164 65.6157 36.0967 65.6305L36.0967 65.6303L36.0907 65.6311C35.3309 65.7288 34.5882 65.5975 33.8602 65.2345C33.3099 64.9601 32.8874 64.6561 32.5883 64.3243C32.2954 63.9799 32.1082 63.6059 32.0238 63.2017C31.9522 62.8008 31.9648 62.3717 32.0637 61.9133C32.183 61.4454 32.3733 60.9488 32.6353 60.4232L34.6601 56.3623C34.9223 55.8364 35.2014 55.392 35.4968 55.028C35.8099 54.6602 36.1482 54.3857 36.5112 54.2019C36.8844 54.0261 37.2921 53.9569 37.7366 53.9959L37.7366 53.996L37.7394 53.9961C38.1899 54.0229 38.6896 54.1709 39.2398 54.4452C39.9678 54.8081 40.5196 55.3223 40.8988 55.9879L40.8987 55.9879L40.9001 55.9901C41.0086 56.1699 41.0851 56.3083 41.1311 56.4065L41.1348 56.4144L41.1397 56.4214C41.2201 56.5363 41.3424 56.6309 41.4982 56.7085C41.73 56.8241 41.9609 56.8524 42.1854 56.7834L42.1854 56.7836L42.1899 56.7819C42.4142 56.7012 42.5807 56.5598 42.6815 56.3575C42.8096 56.1007 42.8112 55.8135 42.6997 55.5049C42.5962 55.1887 42.4082 54.8751 42.14 54.5638C41.8909 54.246 41.573 53.9353 41.1875 53.6314C40.8006 53.3262 40.378 53.0595 39.92 52.8312C39.1402 52.4424 38.3996 52.2168 37.699 52.1582L37.699 52.1582L37.6981 52.1581C37.0114 52.1063 36.3662 52.2052 35.764 52.4562L35.7637 52.4563C35.1824 52.7007 34.6465 53.0792 34.1557 53.5895Z" fill="#161026" stroke="#161026" stroke-width="0.2"/>
</svg>
