<svg width="100" height="100" viewBox="0 0 100 100" fill="none" xmlns="http://www.w3.org/2000/svg">
<rect width="100" height="100" rx="3.6" fill="#F5C3CF"/>
<mask id="path-3-inside-1" fill="white">
<path fill-rule="evenodd" clip-rule="evenodd" d="M49.9331 38.2455C49.8948 38.1729 49.8565 38.101 49.8182 38.0299C44.9591 29.0122 35.663 25.0158 29.0547 29.1038C22.4464 33.1918 21.0284 43.8161 25.8875 52.8338C30.2169 60.8685 42.6087 73.3424 49.9331 73.0749C57.2575 73.3424 69.6492 60.8685 73.9786 52.8338C78.8378 43.8161 77.4198 33.1918 70.8115 29.1038C64.2032 25.0158 54.907 29.0122 50.0479 38.0299C50.0096 38.101 49.9713 38.1729 49.9331 38.2455Z"/>
</mask>
<path fill-rule="evenodd" clip-rule="evenodd" d="M49.9331 38.2455C49.8948 38.1729 49.8565 38.101 49.8182 38.0299C44.9591 29.0122 35.663 25.0158 29.0547 29.1038C22.4464 33.1918 21.0284 43.8161 25.8875 52.8338C30.2169 60.8685 42.6087 73.3424 49.9331 73.0749C57.2575 73.3424 69.6492 60.8685 73.9786 52.8338C78.8378 43.8161 77.4198 33.1918 70.8115 29.1038C64.2032 25.0158 54.907 29.0122 50.0479 38.0299C50.0096 38.101 49.9713 38.1729 49.9331 38.2455Z" fill="#FAFAFA"/>
<path d="M49.8182 38.0299L47.3864 39.3403L47.3864 39.3403L49.8182 38.0299ZM49.9331 38.2455L47.4889 39.5327L49.9331 44.1737L52.3772 39.5327L49.9331 38.2455ZM29.0547 29.1038L30.5079 31.453L29.0547 29.1038ZM25.8875 52.8338L28.3193 51.5235V51.5235L25.8875 52.8338ZM49.9331 73.0749L50.0339 70.3144L49.9331 70.3107L49.8323 70.3144L49.9331 73.0749ZM73.9786 52.8338L71.5468 51.5235V51.5235L73.9786 52.8338ZM70.8115 29.1038L72.2647 26.7546V26.7546L70.8115 29.1038ZM50.0479 38.0299L52.4797 39.3403L52.4797 39.3403L50.0479 38.0299ZM47.3864 39.3403C47.4205 39.4035 47.4547 39.4677 47.4889 39.5327L52.3772 36.9583C52.335 36.8781 52.2926 36.7985 52.25 36.7196L47.3864 39.3403ZM30.5079 31.453C32.902 29.972 35.9037 29.8584 39.0014 31.19C42.1178 32.5298 45.2151 35.3107 47.3864 39.3403L52.25 36.7196C49.5622 31.7314 45.5819 28.0053 41.1834 26.1144C36.7661 24.2155 31.8157 24.1476 27.6014 26.7546L30.5079 31.453ZM28.3193 51.5235C26.1491 47.496 25.4173 43.169 25.9089 39.4856C26.4021 35.7901 28.0779 32.9563 30.5079 31.453L27.6014 26.7546C23.4232 29.3393 21.0858 33.8617 20.4327 38.7547C19.778 43.6599 20.7667 49.1539 23.4557 54.1442L28.3193 51.5235ZM49.8323 70.3144C48.7399 70.3543 47.1212 69.9005 45.0381 68.7412C43.012 67.6137 40.8094 65.9666 38.6326 64.0122C34.2533 60.0802 30.2981 55.1959 28.3193 51.5235L23.4557 54.1442C25.8063 58.5064 30.2117 63.8763 34.9417 68.1231C37.3195 70.2581 39.8588 72.1815 42.3515 73.5687C44.7871 74.9242 47.464 75.9293 50.0339 75.8355L49.8323 70.3144ZM49.8323 75.8355C52.4021 75.9293 55.0791 74.9242 57.5146 73.5687C60.0073 72.1815 62.5466 70.2581 64.9245 68.1231C69.6545 63.8763 74.0599 58.5065 76.4105 54.1442L71.5468 51.5235C69.568 55.1959 65.6129 60.0802 61.2335 64.0122C59.0567 65.9666 56.8541 67.6137 54.8281 68.7412C52.7449 69.9005 51.1262 70.3543 50.0339 70.3144L49.8323 75.8355ZM76.4105 54.1442C79.0994 49.1539 80.0881 43.6599 79.4334 38.7547C78.7804 33.8617 76.443 29.3393 72.2647 26.7546L69.3582 31.453C71.7882 32.9563 73.464 35.7901 73.9572 39.4856C74.4489 43.169 73.717 47.496 71.5468 51.5235L76.4105 54.1442ZM72.2647 26.7546C68.0505 24.1476 63.1 24.2155 58.6828 26.1144C54.2842 28.0053 50.3039 31.7314 47.6161 36.7196L52.4797 39.3403C54.651 35.3107 57.7483 32.5298 60.8647 31.19C63.9624 29.8584 66.9642 29.972 69.3582 31.453L72.2647 26.7546ZM47.6161 36.7196C47.5735 36.7986 47.5312 36.8782 47.4889 36.9583L52.3772 39.5327C52.4115 39.4677 52.4457 39.4035 52.4797 39.3403L47.6161 36.7196Z" fill="#161026" mask="url(#path-3-inside-1)"/>
</svg>
