<svg width="100" height="100" viewBox="0 0 100 100" fill="none" xmlns="http://www.w3.org/2000/svg">
<rect width="100" height="100" rx="3.6" fill="#F5C3CF"/>
<path d="M76.2426 51.2617C73.7092 65.6291 60.0085 75.2225 45.6411 72.6891C31.2737 70.1558 21.6803 56.455 24.2137 42.0876C25.4427 35.1177 30.2164 30.5876 37.4027 27.8965C44.6319 25.1894 54.1744 24.4077 64.5483 24.9528C68.2066 25.145 70.8423 25.9975 72.7303 27.2986C74.6032 28.5893 75.8358 30.3869 76.5827 32.6552C78.108 37.2871 77.5694 43.7372 76.2426 51.2617Z" fill="#FAFAFA" stroke="#161026" stroke-width="2.4"/>
<circle cx="50.1933" cy="48.1712" r="9.42146" transform="rotate(10 50.1933 48.1712)" stroke="#161026" stroke-width="2.4"/>
<circle cx="50.3293" cy="47.9292" r="3.00314" transform="rotate(10 50.3293 47.9292)" fill="#30D2F5" stroke="#161026" stroke-width="2.4"/>
<path d="M54.7075 73.9291C54.7075 76.2391 54.1216 77.6662 53.3568 78.5057C52.6034 79.3328 51.5353 79.7449 50.2277 79.7449C48.9201 79.7449 47.852 79.3328 47.0985 78.5057C46.3338 77.6662 45.7479 76.2391 45.7479 73.9291C45.7479 69.8845 47.6959 66.3475 50.2 62.4344C52.6259 66.3828 54.7075 69.8881 54.7075 73.9291Z" fill="#FAFAFA" stroke="#161026" stroke-width="2.4"/>
</svg>
