<svg width="100" height="100" viewBox="0 0 100 100" fill="none" xmlns="http://www.w3.org/2000/svg">
<rect width="100" height="100" rx="3.6" fill="#F5C3CF"/>
<mask id="path-3-inside-1" fill="white">
<path fill-rule="evenodd" clip-rule="evenodd" d="M31.2871 27.25C26.7103 27.25 23 30.9603 23 35.5371V60.3985C23 62.4191 23.7231 64.2707 24.9247 65.7088C25.0497 65.8584 25.1569 66.022 25.2608 66.1869L31.0216 75.3335C32.1051 77.0537 34.6129 77.0537 35.6964 75.3335L38.2582 71.2661C39.2697 69.66 41.0349 68.6857 42.933 68.6857H68.5792C73.1561 68.6857 76.8663 64.9754 76.8663 60.3985V35.5371C76.8663 30.9603 73.1561 27.25 68.5792 27.25H31.2871Z"/>
</mask>
<path fill-rule="evenodd" clip-rule="evenodd" d="M31.2871 27.25C26.7103 27.25 23 30.9603 23 35.5371V60.3985C23 62.4191 23.7231 64.2707 24.9247 65.7088C25.0497 65.8584 25.1569 66.022 25.2608 66.1869L31.0216 75.3335C32.1051 77.0537 34.6129 77.0537 35.6964 75.3335L38.2582 71.2661C39.2697 69.66 41.0349 68.6857 42.933 68.6857H68.5792C73.1561 68.6857 76.8663 64.9754 76.8663 60.3985V35.5371C76.8663 30.9603 73.1561 27.25 68.5792 27.25H31.2871Z" fill="#FAFAFA"/>
<path d="M31.0216 75.3335L28.6842 76.8056H28.6842L31.0216 75.3335ZM35.6964 75.3335L38.0338 76.8056L35.6964 75.3335ZM38.2582 71.2661L35.9208 69.7939L38.2582 71.2661ZM24.9247 65.7088L22.8049 67.48L24.9247 65.7088ZM25.7624 35.5371C25.7624 32.4859 28.2359 30.0124 31.2871 30.0124V24.4876C25.1847 24.4876 20.2376 29.4347 20.2376 35.5371H25.7624ZM25.7624 60.3985V35.5371H20.2376V60.3985H25.7624ZM27.0445 63.9376C26.2426 62.9779 25.7624 61.7479 25.7624 60.3985H20.2376C20.2376 63.0902 21.2036 65.5636 22.8049 67.48L27.0445 63.9376ZM33.359 73.8613L27.5982 64.7147L22.9234 67.6591L28.6842 76.8056L33.359 73.8613ZM33.359 73.8613H33.359L28.6842 76.8056C30.8512 80.2462 35.8668 80.2462 38.0338 76.8056L33.359 73.8613ZM35.9208 69.7939L33.359 73.8613L38.0338 76.8056L40.5956 72.7382L35.9208 69.7939ZM68.5792 65.9233H42.933V71.448H68.5792V65.9233ZM74.104 60.3985C74.104 63.4498 71.6305 65.9233 68.5792 65.9233V71.448C74.6817 71.448 79.6287 66.501 79.6287 60.3985H74.104ZM74.104 35.5371V60.3985H79.6287V35.5371H74.104ZM68.5792 30.0124C71.6305 30.0124 74.104 32.4859 74.104 35.5371H79.6287C79.6287 29.4347 74.6817 24.4876 68.5792 24.4876V30.0124ZM31.2871 30.0124H68.5792V24.4876H31.2871V30.0124ZM40.5956 72.7382C41.1014 71.9352 41.9839 71.448 42.933 71.448V65.9233C40.0859 65.9233 37.4381 67.3848 35.9208 69.7939L40.5956 72.7382ZM22.8049 67.48C22.7998 67.4739 22.8065 67.4814 22.8278 67.5121C22.8501 67.5444 22.8785 67.588 22.9234 67.6591L27.5981 64.7147C27.4856 64.5361 27.2961 64.2387 27.0445 63.9376L22.8049 67.48Z" fill="#161026" mask="url(#path-3-inside-1)"/>
<mask id="path-5-inside-2" fill="white">
<path fill-rule="evenodd" clip-rule="evenodd" d="M49.9331 41.8869C49.9095 41.844 49.8859 41.8014 49.8623 41.7593C46.8721 36.4307 41.1514 34.0692 37.0848 36.4848C33.0182 38.9004 32.1456 45.1784 35.1358 50.5071C37.8 55.255 45.4258 62.626 49.9331 62.4678C54.4404 62.6259 62.0661 55.2549 64.7303 50.5071C67.7205 45.1784 66.8479 38.9005 62.7813 36.4848C58.7147 34.0692 52.994 36.4307 50.0038 41.7593C49.9802 41.8014 49.9566 41.844 49.9331 41.8869Z"/>
</mask>
<path fill-rule="evenodd" clip-rule="evenodd" d="M49.9331 41.8869C49.9095 41.844 49.8859 41.8014 49.8623 41.7593C46.8721 36.4307 41.1514 34.0692 37.0848 36.4848C33.0182 38.9004 32.1456 45.1784 35.1358 50.5071C37.8 55.255 45.4258 62.626 49.9331 62.4678C54.4404 62.6259 62.0661 55.2549 64.7303 50.5071C67.7205 45.1784 66.8479 38.9005 62.7813 36.4848C58.7147 34.0692 52.994 36.4307 50.0038 41.7593C49.9802 41.8014 49.9566 41.844 49.9331 41.8869Z" fill="#30D2F5"/>
<path d="M49.8623 41.7593L47.4533 43.1112L47.4533 43.1112L49.8623 41.7593ZM49.9331 41.8869L47.511 43.2153L49.9331 47.6314L52.3551 43.2153L49.9331 41.8869ZM37.0848 36.4848L38.4956 38.8598H38.4956L37.0848 36.4848ZM35.1358 50.5071L37.5448 49.1553L35.1358 50.5071ZM49.9331 62.4678L50.0299 59.7071L49.9331 59.7037L49.8362 59.7071L49.9331 62.4678ZM64.7303 50.5071L67.1393 51.8589L64.7303 50.5071ZM62.7813 36.4848L64.1921 34.1099L64.1921 34.1099L62.7813 36.4848ZM50.0038 41.7593L52.4128 43.1112L52.4129 43.1112L50.0038 41.7593ZM47.4533 43.1112C47.4724 43.1453 47.4917 43.18 47.511 43.2153L52.3551 40.5586C52.3273 40.508 52.2994 40.4576 52.2713 40.4075L47.4533 43.1112ZM38.4956 38.8598C40.678 37.5634 44.8675 38.5032 47.4533 43.1112L52.2713 40.4075C48.8767 34.3581 41.6248 30.575 35.674 34.1099L38.4956 38.8598ZM37.5448 49.1553C34.9581 44.5456 36.2287 40.2064 38.4956 38.8598L35.674 34.1099C29.8077 37.5945 29.3331 45.8113 32.7268 51.8589L37.5448 49.1553ZM49.8362 59.7071C49.4186 59.7218 48.6089 59.5451 47.3961 58.897C46.2367 58.2775 44.9461 57.355 43.6471 56.235C41.0205 53.9706 38.6816 51.1812 37.5448 49.1553L32.7268 51.8589C34.2542 54.5809 37.0604 57.851 40.0396 60.4194C41.5434 61.7159 43.1709 62.9033 44.7923 63.7697C46.3602 64.6076 48.1939 65.2929 50.03 65.2285L49.8362 59.7071ZM49.8363 65.2285C51.6723 65.2929 53.506 64.6075 55.0739 63.7697C56.6953 62.9032 58.3227 61.7159 59.8266 60.4194C62.8058 57.8509 65.6119 54.5809 67.1393 51.8589L62.3213 49.1553C61.1845 51.1812 58.8457 53.9705 56.2191 56.235C54.9201 57.3549 53.6295 58.2774 52.4701 58.897C51.2573 59.5451 50.4475 59.7218 50.0299 59.7071L49.8363 65.2285ZM67.1393 51.8589C70.533 45.8113 70.0584 37.5945 64.1921 34.1099L61.3706 38.8598C63.6375 40.2064 64.9081 44.5456 62.3213 49.1553L67.1393 51.8589ZM64.1921 34.1099C58.2413 30.575 50.9895 34.3581 47.5948 40.4075L52.4129 43.1112C54.9986 38.5032 59.1881 37.5634 61.3706 38.8598L64.1921 34.1099ZM47.5949 40.4075C47.5667 40.4576 47.5388 40.508 47.511 40.5586L52.3551 43.2153C52.3745 43.1799 52.3937 43.1452 52.4128 43.1112L47.5949 40.4075Z" fill="#161026" mask="url(#path-5-inside-2)"/>
</svg>
