<svg width="100" height="100" viewBox="0 0 100 100" fill="none" xmlns="http://www.w3.org/2000/svg">
<rect width="100" height="100" rx="3.6" fill="#F5C3CF"/>
<path d="M31.7173 38.6073C31.7173 28.3308 40.0197 20 50.2612 20C60.5027 20 68.805 28.3308 68.805 38.6073V58.9631C68.805 69.2396 60.5027 77.5704 50.2612 77.5704C40.0197 77.5704 31.7173 69.2396 31.7173 58.9631V38.6073Z" fill="#30D2F5"/>
<path fill-rule="evenodd" clip-rule="evenodd" d="M66.9749 58.9631V38.6073C66.9749 29.345 59.4919 21.8364 50.2612 21.8364C41.0304 21.8364 33.5475 29.345 33.5475 38.6073V58.9631C33.5475 68.2254 41.0304 75.734 50.2612 75.734C59.4919 75.734 66.9749 68.2254 66.9749 58.9631ZM50.2612 20C40.0197 20 31.7173 28.3308 31.7173 38.6073V58.9631C31.7173 69.2396 40.0197 77.5704 50.2612 77.5704C60.5027 77.5704 68.805 69.2396 68.805 58.9631V38.6073C68.805 28.3308 60.5027 20 50.2612 20Z" fill="#161026"/>
<path d="M38.1973 34.6813C38.1973 30.4215 41.6387 26.9683 45.884 26.9683H54.6378C58.8831 26.9683 62.3245 30.4215 62.3245 34.6813V41.7232C62.3245 45.983 58.8831 49.4362 54.6378 49.4362H45.884C41.6387 49.4362 38.1973 45.983 38.1973 41.7232V34.6813Z" fill="#FAFAFA"/>
<path fill-rule="evenodd" clip-rule="evenodd" d="M54.6378 28.8047H45.884C42.6495 28.8047 40.0274 31.4357 40.0274 34.6813V41.7232C40.0274 44.9688 42.6495 47.5998 45.884 47.5998H54.6378C57.8723 47.5998 60.4944 44.9688 60.4944 41.7232V34.6813C60.4944 31.4357 57.8723 28.8047 54.6378 28.8047ZM45.884 26.9683C41.6387 26.9683 38.1973 30.4215 38.1973 34.6813V41.7232C38.1973 45.983 41.6387 49.4362 45.884 49.4362H54.6378C58.8831 49.4362 62.3245 45.983 62.3245 41.7232V34.6813C62.3245 30.4215 58.8831 26.9683 54.6378 26.9683H45.884Z" fill="#161026"/>
<path d="M53.8621 23.1764C54.3947 23.4436 54.7485 23.961 54.7019 24.5412C54.5574 26.342 53.7309 27.5982 51.8453 29.305C51.3023 29.7965 50.4967 29.8931 49.855 29.571C48.6958 28.9893 48.7018 27.4446 49.6231 26.5009C50.1408 25.9707 50.5066 25.4189 50.7448 24.7862C51.2156 23.5357 52.6573 22.5718 53.8621 23.1764Z" fill="#161026"/>
<path d="M57.2452 27.5744C57.3864 28.2012 57.1809 28.846 56.6532 29.182C54.9822 30.2461 53.3192 30.4218 50.523 30.0711C49.7607 29.9755 49.1336 29.3896 48.9672 28.6509C48.682 27.3846 49.839 26.3799 51.147 26.52C52.234 26.6364 53.1622 26.5373 54.0803 26.1794C55.3204 25.696 56.9479 26.2541 57.2452 27.5744Z" fill="#161026"/>
<path d="M56.6989 40.2539C56.6989 37.096 53.8953 40.2539 50.4369 40.2539C46.9784 40.2539 44.1748 37.096 44.1748 40.2539C44.1748 43.4117 46.9784 45.9717 50.4369 45.9717C53.8953 45.9717 56.6989 43.4117 56.6989 40.2539Z" fill="#FAFAFA"/>
<path fill-rule="evenodd" clip-rule="evenodd" d="M54.8459 39.9339C54.845 39.9354 54.8472 39.9523 54.8554 39.9805C54.851 39.9466 54.8469 39.9325 54.8459 39.9339ZM54.7654 41.0744C53.7419 41.4777 52.1109 42.0903 50.4369 42.0903C48.7629 42.0903 47.1318 41.4777 46.1084 41.0744C46.5277 42.7307 48.1876 44.1353 50.4369 44.1353C52.6862 44.1353 54.346 42.7307 54.7654 41.0744ZM46.0183 39.9805C46.0265 39.9523 46.0287 39.9354 46.0278 39.9339C46.0269 39.9325 46.0228 39.9466 46.0183 39.9805ZM54.0983 39.3588C55.6737 38.7442 56.6989 38.3443 56.6989 40.2539C56.6989 43.4117 53.8953 45.9717 50.4369 45.9717C46.9784 45.9717 44.1748 43.4117 44.1748 40.2539C44.1748 38.3443 45.2001 38.7442 46.7754 39.3588C47.8051 39.7605 49.0698 40.2539 50.4369 40.2539C51.8039 40.2539 53.0686 39.7605 54.0983 39.3588Z" fill="#161026"/>
<path d="M52.524 34.6613C52.524 33.9672 53.0847 33.4046 53.7764 33.4046C54.4681 33.4046 55.0288 33.9672 55.0288 34.6613C55.0288 35.3553 54.4681 35.918 53.7764 35.918C53.0847 35.918 52.524 35.3553 52.524 34.6613Z" fill="#161026"/>
<path d="M45.4273 34.6613C45.4273 33.9672 45.988 33.4046 46.6797 33.4046C47.3714 33.4046 47.9321 33.9672 47.9321 34.6613C47.9321 35.3553 47.3714 35.918 46.6797 35.918C45.988 35.918 45.4273 35.3553 45.4273 34.6613Z" fill="#161026"/>
<path fill-rule="evenodd" clip-rule="evenodd" d="M57.8876 60.9228C51.4978 64.0527 42.9758 65.3683 34.7483 60.5439L35.6656 58.96C43.2109 63.3844 51.0576 62.2206 57.0772 59.272C60.1034 57.7943 62.5826 55.9202 64.3579 54.0596C65.238 53.1414 65.8891 52.2904 66.3449 51.4808C66.797 50.6822 66.9699 50.0636 66.9648 49.6526L68.7951 49.6396C68.806 50.5153 68.4629 51.4666 67.9379 52.394C67.4167 53.3104 66.6298 54.3416 65.6821 55.3345C63.8017 57.2965 61.0661 59.3613 57.8876 60.9228Z" fill="#161026"/>
<path fill-rule="evenodd" clip-rule="evenodd" d="M46.4897 69.3026C38.9393 66.4762 31.7634 60.7272 31.7634 50.9461L33.6741 50.97C33.6741 59.7657 40.0564 65.0112 47.1911 67.682C50.7743 69.0278 54.4249 69.6841 57.5296 69.8091C59.0694 69.8734 60.3911 69.8055 61.5054 69.6166C62.6162 69.4301 63.347 69.1454 63.7289 68.8564L64.9573 70.2135C64.2123 70.7774 63.1095 71.1325 61.8745 71.3399C60.643 71.545 59.1067 71.6252 57.4703 71.5592C54.2228 71.4234 50.2491 70.7055 46.4897 69.3026Z" fill="#161026"/>
</svg>
