<svg width="307" height="306" viewBox="0 0 307 306" fill="none" xmlns="http://www.w3.org/2000/svg">
<path fill-rule="evenodd" clip-rule="evenodd" d="M221.285 67.0291C239.201 79.3577 230.649 108.148 237.674 128.814C244.515 148.936 265.972 165.174 261.769 186.113C257.542 207.173 235.944 220.042 217.246 230.591C200.692 239.93 181.727 239.485 162.941 241.871C141.921 244.541 120.812 252.822 101.071 245.35C78.6504 236.863 57.9298 220.856 48.7474 198.647C39.3834 175.998 45.4673 150.46 52.0127 126.691C58.6415 102.618 64.0373 73.2469 86.3454 62.1111C108.623 50.9907 133.066 72.9665 157.829 73.869C179.594 74.6623 203.394 54.7172 221.285 67.0291Z" fill="#E9E2FB"/>
<rect x="106" y="107" width="59" height="93" fill="#C1ACFC"/>
<path fill-rule="evenodd" clip-rule="evenodd" d="M111.125 99.75H159.875C165.26 99.75 169.625 104.563 169.625 110.5V196.5C169.625 202.437 165.26 207.25 159.875 207.25H111.125C105.74 207.25 101.375 202.437 101.375 196.5V110.5C101.375 104.563 105.74 99.75 111.125 99.75ZM111.125 110.5V196.5H159.875V110.5H111.125ZM140.375 185.75C140.375 188.719 138.192 191.125 135.5 191.125C132.808 191.125 130.625 188.719 130.625 185.75C130.625 182.781 132.808 180.375 135.5 180.375C138.192 180.375 140.375 182.781 140.375 185.75Z" fill="#7D5CD7"/>
<mask id="path-5-inside-1" fill="white">
<path fill-rule="evenodd" clip-rule="evenodd" d="M183.911 148.327C183.86 148.231 183.809 148.135 183.758 148.04C177.279 136.016 164.884 130.688 156.073 136.138C147.262 141.589 145.371 155.755 151.85 167.778C157.623 178.491 174.145 195.123 183.911 194.767C193.677 195.123 210.199 178.491 215.972 167.778C222.45 155.755 220.56 141.589 211.749 136.138C202.938 130.688 190.543 136.016 184.064 148.04C184.013 148.135 183.962 148.231 183.911 148.327Z"/>
</mask>
<path fill-rule="evenodd" clip-rule="evenodd" d="M183.911 148.327C183.86 148.231 183.809 148.135 183.758 148.04C177.279 136.016 164.884 130.688 156.073 136.138C147.262 141.589 145.371 155.755 151.85 167.778C157.623 178.491 174.145 195.123 183.911 194.767C193.677 195.123 210.199 178.491 215.972 167.778C222.45 155.755 220.56 141.589 211.749 136.138C202.938 130.688 190.543 136.016 184.064 148.04C184.013 148.135 183.962 148.231 183.911 148.327Z" fill="#C1ACFC"/>
<path d="M183.758 148.04L179.356 150.412L179.356 150.412L183.758 148.04ZM183.911 148.327L179.487 150.657L183.911 159.057L188.335 150.657L183.911 148.327ZM156.073 136.138L153.442 131.886L156.073 136.138ZM151.85 167.778L156.252 165.407L151.85 167.778ZM183.911 194.767L184.093 189.77L183.911 189.763L183.728 189.77L183.911 194.767ZM215.972 167.778L211.57 165.407V165.407L215.972 167.778ZM184.064 148.04L188.466 150.412L188.466 150.412L184.064 148.04ZM179.356 150.412C179.399 150.492 179.443 150.574 179.487 150.657L188.335 145.997C188.277 145.887 188.218 145.777 188.159 145.668L179.356 150.412ZM158.703 140.391C161.462 138.684 164.999 138.489 168.815 140.13C172.665 141.785 176.584 145.267 179.356 150.412L188.159 145.668C184.452 138.789 178.935 133.595 172.765 130.943C166.56 128.276 159.495 128.142 153.442 131.886L158.703 140.391ZM156.252 165.407C153.482 160.266 152.567 154.775 153.184 150.155C153.803 145.513 155.88 142.137 158.703 140.391L153.442 131.886C147.455 135.59 144.181 142.023 143.272 148.832C142.36 155.663 143.739 163.267 147.448 170.15L156.252 165.407ZM183.728 189.77C182.624 189.81 180.718 189.337 178.025 187.838C175.434 186.396 172.578 184.266 169.723 181.703C163.968 176.536 158.802 170.139 156.252 165.407L147.448 170.15C150.671 176.131 156.652 183.407 163.043 189.144C166.261 192.034 169.727 194.664 173.162 196.576C176.493 198.43 180.315 199.901 184.093 199.763L183.728 189.77ZM183.728 199.763C187.507 199.901 191.329 198.43 194.66 196.576C198.095 194.664 201.561 192.034 204.779 189.144C211.169 183.407 217.15 176.131 220.373 170.15L211.57 165.407C209.02 170.139 203.854 176.535 198.098 181.703C195.244 184.266 192.387 186.396 189.797 187.838C187.104 189.337 185.198 189.81 184.093 189.77L183.728 199.763ZM220.373 170.15C224.082 163.267 225.462 155.663 224.55 148.832C223.641 142.023 220.367 135.59 214.379 131.886L209.118 140.391C211.942 142.137 214.018 145.513 214.638 150.155C215.254 154.775 214.34 160.266 211.57 165.407L220.373 170.15ZM214.379 131.886C208.326 128.142 201.261 128.276 195.057 130.943C188.887 133.595 183.369 138.789 179.662 145.668L188.466 150.412C191.237 145.267 195.157 141.785 199.006 140.13C202.822 138.489 206.36 138.684 209.118 140.391L214.379 131.886ZM179.662 145.668C179.603 145.777 179.545 145.887 179.487 145.997L188.335 150.657C188.379 150.574 188.422 150.492 188.466 150.412L179.662 145.668Z" fill="#7D5CD7" mask="url(#path-5-inside-1)"/>
</svg>
