<svg width="307" height="306" viewBox="0 0 307 306" fill="none" xmlns="http://www.w3.org/2000/svg">
<path fill-rule="evenodd" clip-rule="evenodd" d="M221.285 67.0291C239.201 79.3577 230.649 108.148 237.674 128.814C244.515 148.936 265.972 165.174 261.769 186.113C257.542 207.173 235.944 220.042 217.246 230.591C200.692 239.93 181.727 239.485 162.941 241.871C141.921 244.541 120.812 252.822 101.071 245.35C78.6504 236.863 57.9298 220.856 48.7474 198.647C39.3834 175.998 45.4673 150.46 52.0127 126.691C58.6415 102.618 64.0373 73.2469 86.3454 62.1111C108.623 50.9907 133.066 72.9665 157.829 73.869C179.594 74.6623 203.394 54.7172 221.285 67.0291Z" fill="#E9E2FB"/>
<rect x="105" y="118" width="87" height="71" fill="#C1ACFC"/>
<path fill-rule="evenodd" clip-rule="evenodd" d="M108.375 113.375H188.625C193.549 113.375 197.542 117.367 197.542 122.292V184.708C197.542 189.633 193.549 193.625 188.625 193.625H108.375C103.45 193.625 99.4583 189.633 99.4583 184.708V122.292C99.4583 117.367 103.45 113.375 108.375 113.375ZM108.375 122.292V184.708H188.625V122.292H108.375ZM126.208 175.792H135.125V149.042H126.208V175.792ZM152.958 175.792H144.042V131.208H152.958V175.792ZM161.875 175.792H170.792V144.583H161.875V175.792Z" fill="#7D5CD7"/>
</svg>
