<svg width="307" height="306" viewBox="0 0 307 306" fill="none" xmlns="http://www.w3.org/2000/svg">
<path fill-rule="evenodd" clip-rule="evenodd" d="M221.285 67.0291C239.201 79.3577 230.649 108.148 237.674 128.814C244.515 148.936 265.972 165.174 261.769 186.113C257.542 207.173 235.944 220.042 217.246 230.591C200.692 239.93 181.727 239.485 162.941 241.871C141.921 244.541 120.812 252.822 101.071 245.35C78.6504 236.863 57.9298 220.856 48.7474 198.647C39.3834 175.998 45.4673 150.46 52.0127 126.691C58.6415 102.618 64.0373 73.2469 86.3454 62.1111C108.623 50.9907 133.066 72.9665 157.829 73.869C179.594 74.6623 203.394 54.7172 221.285 67.0291Z" fill="#E9E2FB"/>
<rect x="80.6299" y="123.149" width="63.2682" height="62.1973" transform="rotate(-10 80.6299 123.149)" fill="#C1ACFC"/>
<rect x="91.7129" y="191.162" width="63.2682" height="11.176" transform="rotate(-10 91.7129 191.162)" fill="#C1ACFC"/>
<path fill-rule="evenodd" clip-rule="evenodd" d="M166.697 198.264L100.718 209.898C93.4306 211.183 86.4037 205.879 85.0235 198.051L73.3609 131.91C71.9807 124.082 76.7698 116.695 84.0576 115.41L150.036 103.776L163.365 179.366C160.936 179.795 159.339 182.257 159.8 184.866C160.26 187.475 162.602 189.243 165.031 188.815L166.697 198.264ZM151.002 186.417C150.71 184.761 150.694 183.124 150.92 181.561L97.3862 191C94.9569 191.428 93.3606 193.891 93.8207 196.5C94.2807 199.109 96.623 200.877 99.0523 200.449L152.586 191.009C151.839 189.617 151.294 188.074 151.002 186.417ZM85.7236 124.858L142.905 114.776L152.902 171.469L95.7201 181.551C94.1778 181.823 92.7474 182.368 91.4638 183.133L82.1581 130.358C81.698 127.749 83.2944 125.287 85.7236 124.858Z" fill="#7D5CD7"/>
<mask id="path-6-inside-1" fill="white">
<path fill-rule="evenodd" clip-rule="evenodd" d="M117.937 141.286C117.907 141.248 117.878 141.21 117.848 141.172C114.065 136.386 108.2 135.003 104.747 138.084C101.294 141.165 101.561 147.542 105.344 152.329C108.714 156.593 117.271 162.627 121.539 161.713C125.862 161.113 131.84 152.515 133.548 147.355C135.465 141.564 133.535 135.48 129.237 133.766C124.938 132.052 119.9 135.357 117.982 141.148C117.967 141.194 117.952 141.24 117.937 141.286Z"/>
</mask>
<path fill-rule="evenodd" clip-rule="evenodd" d="M117.937 141.286C117.907 141.248 117.878 141.21 117.848 141.172C114.065 136.386 108.2 135.003 104.747 138.084C101.294 141.165 101.561 147.542 105.344 152.329C108.714 156.593 117.271 162.627 121.539 161.713C125.862 161.113 131.84 152.515 133.548 147.355C135.465 141.564 133.535 135.48 129.237 133.766C124.938 132.052 119.9 135.357 117.982 141.148C117.967 141.194 117.952 141.24 117.937 141.286Z" fill="#E9E2FB"/>
<path d="M117.848 141.172L120.015 139.459L120.015 139.459L117.848 141.172ZM117.937 141.286L115.754 142.978L118.967 147.124L120.568 142.13L117.937 141.286ZM104.747 138.084L102.908 136.023L102.908 136.023L104.747 138.084ZM105.344 152.329L107.511 150.616L105.344 152.329ZM121.539 161.713L121.159 158.977L121.059 158.991L120.961 159.012L121.539 161.713ZM133.548 147.355L130.926 146.487L130.926 146.487L133.548 147.355ZM117.982 141.148L115.36 140.28L115.36 140.28L117.982 141.148ZM115.68 142.884C115.705 142.915 115.729 142.947 115.754 142.978L120.121 139.594C120.086 139.549 120.05 139.504 120.015 139.459L115.68 142.884ZM106.586 140.145C107.514 139.317 108.869 138.972 110.54 139.366C112.232 139.765 114.127 140.919 115.68 142.885L120.015 139.459C117.786 136.639 114.858 134.708 111.808 133.989C108.738 133.265 105.433 133.77 102.908 136.023L106.586 140.145ZM107.511 150.616C105.959 148.652 105.174 146.413 105.092 144.451C105.01 142.477 105.627 141.001 106.586 140.145L102.908 136.023C100.415 138.248 99.4392 141.501 99.5724 144.682C99.7061 147.876 100.946 151.219 103.176 154.041L107.511 150.616ZM120.961 159.012C120.616 159.086 119.85 159.06 118.586 158.622C117.383 158.205 115.997 157.51 114.565 156.618C111.671 154.815 108.953 152.441 107.511 150.616L103.176 154.041C105.104 156.481 108.35 159.256 111.644 161.307C113.306 162.343 115.071 163.251 116.778 163.842C118.424 164.412 120.328 164.798 122.117 164.414L120.961 159.012ZM121.919 164.449C123.732 164.197 125.389 163.184 126.741 162.086C128.143 160.947 129.491 159.489 130.699 157.948C133.092 154.893 135.193 151.176 136.171 148.224L130.926 146.487C130.195 148.695 128.453 151.856 126.35 154.54C125.309 155.869 124.245 156.996 123.257 157.798C122.219 158.642 121.508 158.929 121.159 158.977L121.919 164.449ZM136.171 148.224C137.301 144.809 137.323 141.243 136.356 138.196C135.393 135.161 133.364 132.438 130.26 131.2L128.214 136.332C129.408 136.808 130.493 137.984 131.09 139.867C131.684 141.739 131.713 144.111 130.926 146.487L136.171 148.224ZM130.26 131.2C127.117 129.947 123.839 130.603 121.202 132.333C118.581 134.051 116.49 136.867 115.36 140.28L120.605 142.016C121.392 139.637 122.779 137.905 124.232 136.952C125.668 136.01 127.058 135.871 128.214 136.332L130.26 131.2ZM115.36 140.28C115.342 140.334 115.324 140.388 115.307 140.443L120.568 142.13C120.58 142.091 120.593 142.053 120.605 142.016L115.36 140.28Z" fill="#C1ACFC" mask="url(#path-6-inside-1)"/>
<path d="M202.5 121.5L216 130.5L188.5 176L175.5 178.5L173 166.5L202.5 121.5Z" fill="#C1ACFC"/>
<path fill-rule="evenodd" clip-rule="evenodd" d="M201.562 115.823C203.447 115.49 205.395 115.982 206.966 117.181L217.58 125.217C219.16 126.413 220.247 128.223 220.603 130.246C220.959 132.27 220.553 134.343 219.476 136.008L193.058 176.842C191.487 179.695 188.907 181.732 185.685 182.549L170.908 185.158L170.363 182.059L168.077 168.992C167.748 165.68 168.624 162.392 170.418 159.969L196.944 118.954C198.018 117.282 199.68 116.155 201.562 115.823ZM184.395 176.395C185.912 176.006 187.208 174.983 188.108 173.364L206.883 144.333L193.595 135.281L175.154 163.788C174.183 165.105 173.734 166.786 173.868 168.228L175.576 177.946L184.395 176.395ZM196.729 130.435L210.018 139.486L214.637 132.344C214.839 132.032 214.915 131.643 214.848 131.264C214.781 130.884 214.577 130.545 214.281 130.32L203.658 122.277C203.365 122.053 203.003 121.961 202.653 122.023C202.303 122.085 201.994 122.295 201.795 122.606L196.729 130.435Z" fill="#7D5CD7"/>
</svg>
