<svg width="307" height="306" viewBox="0 0 307 306" fill="none" xmlns="http://www.w3.org/2000/svg">
<path fill-rule="evenodd" clip-rule="evenodd" d="M221.285 67.0291C239.201 79.3577 230.649 108.148 237.674 128.814C244.515 148.936 265.972 165.174 261.769 186.113C257.542 207.173 235.944 220.042 217.246 230.591C200.692 239.93 181.727 239.485 162.941 241.871C141.921 244.541 120.812 252.822 101.071 245.35C78.6504 236.863 57.9298 220.856 48.7474 198.647C39.3834 175.998 45.4673 150.46 52.0127 126.691C58.6415 102.618 64.0373 73.2469 86.3454 62.1111C108.623 50.9907 133.066 72.9665 157.829 73.869C179.594 74.6623 203.394 54.7172 221.285 67.0291Z" fill="#E9E2FB"/>
<rect x="104.501" y="117.251" width="65.506" height="64.3972" transform="rotate(-10 104.501 117.251)" fill="#C1ACFC"/>
<rect x="115.976" y="187.669" width="65.506" height="11.5713" transform="rotate(-10 115.976 187.669)" fill="#C1ACFC"/>
<path fill-rule="evenodd" clip-rule="evenodd" d="M193.612 195.022L125.3 207.068C117.754 208.398 110.479 202.907 109.05 194.802L96.975 126.321C95.5459 118.216 100.504 110.568 108.05 109.237L176.362 97.1921L190.162 175.456C187.647 175.9 185.994 178.449 186.471 181.151C186.947 183.852 189.372 185.683 191.887 185.239L193.612 195.022ZM177.362 182.757C177.06 181.042 177.044 179.347 177.277 177.728L121.85 187.501C119.335 187.945 117.682 190.494 118.158 193.196C118.635 195.897 121.06 197.728 123.575 197.284L179.002 187.511C178.229 186.07 177.665 184.472 177.362 182.757ZM109.775 119.02L168.979 108.581L179.329 167.279L120.125 177.718C118.528 178 117.047 178.565 115.718 179.356L106.083 124.715C105.607 122.013 107.26 119.464 109.775 119.02Z" fill="#7D5CD7"/>
<mask id="path-6-inside-1" fill="white">
<path fill-rule="evenodd" clip-rule="evenodd" d="M143.128 136.03C143.097 135.99 143.066 135.951 143.035 135.912C139.119 130.956 133.046 129.525 129.471 132.715C125.896 135.905 126.173 142.508 130.089 147.463C133.578 151.878 142.438 158.126 146.857 157.18C151.333 156.558 157.522 147.657 159.291 142.314C161.276 136.318 159.277 130.019 154.827 128.244C150.377 126.469 145.16 129.891 143.175 135.887C143.159 135.934 143.143 135.982 143.128 136.03Z"/>
</mask>
<path fill-rule="evenodd" clip-rule="evenodd" d="M143.128 136.03C143.097 135.99 143.066 135.951 143.035 135.912C139.119 130.956 133.046 129.525 129.471 132.715C125.896 135.905 126.173 142.508 130.089 147.463C133.578 151.878 142.438 158.126 146.857 157.18C151.333 156.558 157.522 147.657 159.291 142.314C161.276 136.318 159.277 130.019 154.827 128.244C150.377 126.469 145.16 129.891 143.175 135.887C143.159 135.934 143.143 135.982 143.128 136.03Z" fill="white"/>
<path d="M143.035 135.912L145.202 134.199L145.202 134.199L143.035 135.912ZM143.128 136.03L140.944 137.722L144.157 141.869L145.758 136.874L143.128 136.03ZM129.471 132.715L127.632 130.654L129.471 132.715ZM130.089 147.463L132.256 145.751L130.089 147.463ZM146.857 157.18L146.477 154.443L146.377 154.457L146.278 154.478L146.857 157.18ZM159.291 142.314L161.913 143.182L161.913 143.182L159.291 142.314ZM154.827 128.244L153.804 130.81L153.804 130.81L154.827 128.244ZM143.175 135.887L140.552 135.019L140.552 135.019L143.175 135.887ZM140.868 137.624C140.893 137.657 140.919 137.689 140.944 137.722L145.311 134.338C145.275 134.291 145.239 134.245 145.202 134.199L140.868 137.624ZM131.31 134.776C132.299 133.893 133.736 133.534 135.492 133.947C137.267 134.366 139.247 135.574 140.868 137.624L145.202 134.199C142.907 131.294 139.893 129.309 136.759 128.57C133.605 127.827 130.218 128.346 127.632 130.654L131.31 134.776ZM132.256 145.751C130.637 143.702 129.817 141.364 129.731 139.311C129.644 137.246 130.29 135.687 131.31 134.776L127.632 130.654C125.078 132.933 124.074 136.27 124.211 139.542C124.349 142.827 125.624 146.269 127.922 149.176L132.256 145.751ZM146.278 154.478C145.896 154.56 145.083 154.527 143.767 154.071C142.513 153.637 141.072 152.914 139.585 151.987C136.581 150.116 133.758 147.651 132.256 145.751L127.922 149.176C129.909 151.691 133.26 154.557 136.664 156.677C138.38 157.746 140.201 158.683 141.96 159.292C143.657 159.879 145.608 160.272 147.435 159.881L146.278 154.478ZM147.237 159.916C149.088 159.659 150.788 158.622 152.181 157.49C153.626 156.316 155.016 154.813 156.264 153.221C158.737 150.065 160.906 146.226 161.913 143.182L156.668 141.446C155.907 143.745 154.097 147.028 151.915 149.813C150.834 151.192 149.727 152.365 148.697 153.202C147.617 154.08 146.864 154.39 146.477 154.443L147.237 159.916ZM161.913 143.182C163.078 139.665 163.099 135.994 162.105 132.861C161.115 129.739 159.03 126.946 155.85 125.678L153.804 130.81C155.074 131.316 156.214 132.561 156.839 134.531C157.461 136.49 157.489 138.967 156.668 141.446L161.913 143.182ZM155.85 125.678C152.631 124.394 149.27 125.065 146.561 126.842C143.869 128.608 141.716 131.504 140.552 135.019L145.797 136.755C146.618 134.274 148.066 132.462 149.591 131.461C151.099 130.472 152.573 130.319 153.804 130.81L155.85 125.678ZM140.552 135.019C140.534 135.075 140.515 135.131 140.497 135.187L145.758 136.874C145.771 136.834 145.784 136.794 145.797 136.755L140.552 135.019Z" fill="#C1ACFC" mask="url(#path-6-inside-1)"/>
</svg>
