<svg width="307" height="306" viewBox="0 0 307 306" fill="none" xmlns="http://www.w3.org/2000/svg">
<path fill-rule="evenodd" clip-rule="evenodd" d="M221.285 67.0291C239.201 79.3577 230.649 108.148 237.674 128.814C244.515 148.936 265.972 165.174 261.769 186.113C257.542 207.173 235.944 220.042 217.246 230.591C200.692 239.93 181.727 239.485 162.941 241.871C141.921 244.541 120.812 252.822 101.071 245.35C78.6504 236.863 57.9298 220.856 48.7474 198.647C39.3834 175.998 45.4673 150.46 52.0127 126.691C58.6415 102.618 64.0373 73.2469 86.3454 62.1111C108.623 50.9907 133.066 72.9665 157.829 73.869C179.594 74.6623 203.394 54.7172 221.285 67.0291Z" fill="#E9E2FB"/>
<rect x="105" y="115" width="86" height="81" fill="#C1ACFC"/>
<path fill-rule="evenodd" clip-rule="evenodd" d="M128 123H118V118H108V133H188V118H178V123H168V118H128V123ZM188 143H108V193H188V143ZM168 108H128V103H118V108H108C102.477 108 98 112.477 98 118V193C98 198.523 102.477 203 108 203H188C193.523 203 198 198.523 198 193V118C198 112.477 193.523 108 188 108H178V103H168V108ZM133 163H123V153H133V163ZM143 163H153V153H143V163ZM163 163V153H173V163H163ZM123 183H133V173H123V183ZM153 183H143V173H153V183Z" fill="#7D5CD7"/>
</svg>
