<svg width="70" height="70" viewBox="0 0 70 70" fill="none" xmlns="http://www.w3.org/2000/svg">
<rect width="70" height="70" rx="3.6" fill="#B2E0F1"/>
<path fill-rule="evenodd" clip-rule="evenodd" d="M29.3334 34.7198L47.6667 31.6643V39.5222C46.5815 38.976 45.3259 38.6668 44.0001 38.6668C40.0164 38.6668 36.6667 41.4582 36.6667 45.0834C36.6667 48.7087 40.0164 51.5001 44.0001 51.5001C47.9838 51.5001 51.3334 48.7087 51.3334 45.0834V16.3359L25.6667 20.6137V41.3555C24.5815 40.8093 23.3259 40.5001 22.0001 40.5001C18.0164 40.5001 14.6667 43.2915 14.6667 46.9168C14.6667 50.5421 18.0164 53.3334 22.0001 53.3334C25.9838 53.3334 29.3334 50.5421 29.3334 46.9168V34.7198ZM25.6667 46.9169C25.6667 48.3543 24.0915 49.6669 22.0001 49.6669C19.9086 49.6669 18.3334 48.3543 18.3334 46.9169C18.3334 45.4796 19.9086 44.167 22.0001 44.167C24.0915 44.167 25.6667 45.4796 25.6667 46.9169ZM44.0001 47.8336C46.0915 47.8336 47.6667 46.5209 47.6667 45.0836C47.6667 43.6463 46.0915 42.3336 44.0001 42.3336C41.9086 42.3336 40.3334 43.6463 40.3334 45.0836C40.3334 46.5209 41.9086 47.8336 44.0001 47.8336ZM29.3334 31.0029V23.7202L47.6667 20.6646V27.9474L29.3334 31.0029Z" fill="#7D5CD7"/>
</svg>
