<svg width="70" height="70" viewBox="0 0 70 70" fill="none" xmlns="http://www.w3.org/2000/svg">
<rect width="70" height="70" rx="3.6" fill="#B2E0F1"/>
<path d="M52.8341 35.0183C51.0357 45.2172 41.3101 52.0272 31.1112 50.2288C20.9123 48.4305 14.1023 38.7048 15.9007 28.506C16.7527 23.6737 20.0472 20.494 25.1795 18.5721C30.3653 16.6302 37.2649 16.054 44.8363 16.4519C47.4419 16.5888 49.2536 17.1928 50.5171 18.0635C51.7619 18.9213 52.5927 20.1189 53.1052 21.6751C54.1694 24.9068 53.8084 29.4928 52.8341 35.0183Z" stroke="#7D5CD7" stroke-width="3"/>
<circle cx="34.3416" cy="32.8592" r="6.28907" transform="rotate(10 34.3416 32.8592)" stroke="#7D5CD7" stroke-width="3"/>
<circle cx="34.4416" cy="32.682" r="3.0823" transform="rotate(10 34.4416 32.682)" fill="#7D5CD7"/>
<path d="M38.5323 51.7486C38.5323 55.4188 36.6675 56.8935 34.3671 56.8935C32.0667 56.8935 30.2019 55.4188 30.2019 51.7486C30.2019 48.0784 32.2127 44.9724 34.3671 41.6689C36.3779 44.9724 38.5323 48.0784 38.5323 51.7486Z" fill="#7D5CD7"/>
</svg>
