<svg width="70" height="70" viewBox="0 0 70 70" fill="none" xmlns="http://www.w3.org/2000/svg">
<rect width="70" height="70" rx="3.6" fill="#B2E0F1"/>
<path fill-rule="evenodd" clip-rule="evenodd" d="M29.393 16.6668C30.6802 15.4989 32.5469 14.8335 34.5333 14.8335C36.5197 14.8335 38.3864 15.4989 39.6736 16.6668H41.3777C43.2678 16.6668 44.8 18.3085 44.8 20.3335V20.3335H46.5111C48.4011 20.3335 49.9333 21.9752 49.9333 24.0002V51.5002C49.9333 53.5253 48.4011 55.1669 46.5111 55.1669H22.5555C20.6655 55.1669 19.1333 53.5253 19.1333 51.5002V24.0002C19.1333 21.9752 20.6655 20.3335 22.5555 20.3335H24.2666V20.3335C24.2666 18.3085 25.7988 16.6668 27.6889 16.6668H29.393ZM41.3777 25.8335C42.6444 25.8335 43.7504 25.0962 44.3421 24.0002H46.5111V51.5002H22.5555V24.0002H24.7245C25.3162 25.0962 26.4222 25.8335 27.6889 25.8335H41.3777ZM27.6889 42.3334V38.6668H37.9555V42.3334H27.6889ZM27.6889 31.3335V35.0001H41.3777V31.3335H27.6889ZM30.8674 20.3335L31.3791 19.7017C31.9413 19.0075 33.1463 18.5001 34.5333 18.5001C35.9203 18.5001 37.1253 19.0075 37.6875 19.7017L38.1992 20.3335H41.3777V22.1668H27.6889V20.3335H30.0867H30.8674Z" fill="#7D5CD7"/>
</svg>
