<svg width="70" height="70" viewBox="0 0 70 70" fill="none" xmlns="http://www.w3.org/2000/svg">
<rect width="70" height="70" rx="3.6" fill="#B2E0F1"/>
<mask id="path-3-inside-1" fill="white">
<path fill-rule="evenodd" clip-rule="evenodd" d="M34.9511 26.3801C34.9792 26.3268 35.0072 26.2741 35.0353 26.2219C38.5987 19.6089 45.4159 16.6783 50.262 19.6761C55.108 22.674 56.1479 30.4651 52.5845 37.0781C49.4096 42.9702 40.3224 52.1177 34.9511 51.9216C29.5799 52.1177 20.4926 42.9702 17.3177 37.0781C13.7543 30.4651 14.7942 22.674 19.6403 19.6761C24.4864 16.6783 31.3035 19.6089 34.8669 26.2219C34.895 26.2741 34.9231 26.3268 34.9511 26.3801Z"/>
</mask>
<path d="M35.0353 26.2219L31.514 24.3245L31.514 24.3246L35.0353 26.2219ZM34.9511 26.3801L31.4119 28.244L34.9511 34.9642L38.4903 28.244L34.9511 26.3801ZM50.262 19.6761L48.1576 23.0778L50.262 19.6761ZM52.5845 37.0781L56.1059 38.9756L52.5845 37.0781ZM34.9511 51.9216L35.0971 47.9243L34.9511 47.919L34.8052 47.9243L34.9511 51.9216ZM17.3177 37.0781L13.7964 38.9756H13.7964L17.3177 37.0781ZM19.6403 19.6761L21.7446 23.0778L19.6403 19.6761ZM34.8669 26.2219L38.3882 24.3246L38.3882 24.3245L34.8669 26.2219ZM31.514 24.3246C31.4798 24.3881 31.4458 24.4519 31.4119 24.5162L38.4903 28.244C38.5126 28.2017 38.5347 28.1601 38.5567 28.1193L31.514 24.3246ZM52.3663 16.2744C48.6254 13.9602 44.2987 14.0749 40.5878 15.6701C36.9041 17.2538 33.6697 20.324 31.514 24.3245L38.5567 28.1194C39.9644 25.5069 41.9202 23.8053 43.7474 23.0198C45.5475 22.2459 47.0524 22.3942 48.1576 23.0778L52.3663 16.2744ZM56.1059 38.9756C58.2631 34.972 59.08 30.526 58.5416 26.4923C58.0056 22.4761 56.0551 18.5563 52.3663 16.2744L48.1576 23.0778C49.3149 23.7938 50.3074 25.2685 50.6119 27.5506C50.9142 29.8152 50.4693 32.5712 49.0632 35.1807L56.1059 38.9756ZM34.8052 55.919C37.2177 56.007 39.5589 55.0729 41.471 54.0089C43.4657 52.8988 45.4481 51.3895 47.2638 49.7593C50.8577 46.5325 54.2493 42.4211 56.1059 38.9756L49.0632 35.1807C47.7449 37.6273 45.0054 41.0357 41.9192 43.8066C40.3947 45.1753 38.8998 46.2844 37.5807 47.0184C36.179 47.7985 35.3702 47.9343 35.0971 47.9243L34.8052 55.919ZM34.8052 47.9243C34.532 47.9343 33.7232 47.7985 32.3215 47.0184C31.0025 46.2844 29.5075 45.1753 27.9831 43.8066C24.8969 41.0357 22.1573 37.6273 20.839 35.1807L13.7964 38.9756C15.6529 42.4211 19.0445 46.5325 22.6385 49.7593C24.4541 51.3895 26.4365 52.8988 28.4313 54.0089C30.3433 55.0729 32.6846 56.007 35.0971 55.919L34.8052 47.9243ZM20.839 35.1807C19.4329 32.5712 18.988 29.8152 19.2903 27.5506C19.5949 25.2685 20.5873 23.7938 21.7446 23.0778L17.5359 16.2744C13.8471 18.5563 11.8966 22.4761 11.3606 26.4923C10.8222 30.526 11.6391 34.972 13.7964 38.9756L20.839 35.1807ZM21.7446 23.0778C22.8498 22.3942 24.3547 22.2459 26.1548 23.0198C27.982 23.8053 29.9379 25.5069 31.3456 28.1194L38.3882 24.3245C36.2326 20.324 32.9981 17.2538 29.3144 15.6701C25.6035 14.0749 21.2768 13.9602 17.5359 16.2744L21.7446 23.0778ZM31.3455 28.1193C31.3675 28.1601 31.3897 28.2017 31.4119 28.244L38.4903 24.5162C38.4565 24.4519 38.4225 24.388 38.3882 24.3246L31.3455 28.1193Z" fill="#7D5CD7" mask="url(#path-3-inside-1)"/>
</svg>
