<svg width="70" height="70" viewBox="0 0 70 70" fill="none" xmlns="http://www.w3.org/2000/svg">
<rect width="70" height="70" rx="3.6" fill="#B2E0F1"/>
<path fill-rule="evenodd" clip-rule="evenodd" d="M35.0002 55.1668C23.8624 55.1668 14.8335 46.1379 14.8335 35.0002C14.8335 23.8624 23.8624 14.8335 35.0002 14.8335C46.1379 14.8335 55.1668 23.8624 55.1668 35.0002C55.1668 46.1379 46.1379 55.1668 35.0002 55.1668ZM35.0002 51.5002C44.1129 51.5002 51.5002 44.1129 51.5002 35.0002C51.5002 25.8875 44.1129 18.5002 35.0002 18.5002C25.8875 18.5002 18.5002 25.8875 18.5002 35.0002C18.5002 44.1129 25.8875 51.5002 35.0002 51.5002ZM35.0001 42.8795C37.4192 42.8795 39.6371 44.0573 41.0036 46.0002L44.0028 43.8908C41.9568 40.9817 38.6256 39.2129 35.0001 39.2129C31.3746 39.2129 28.0434 40.9817 25.9974 43.8908L28.9966 46.0002C30.363 44.0573 32.581 42.8795 35.0001 42.8795ZM38.6668 35.0002V31.3335H42.3335V35.0002H38.6668ZM27.6668 31.3335V35.0002H31.3335V31.3335H27.6668Z" fill="#7D5CD7"/>
</svg>
