<svg width="70" height="70" viewBox="0 0 70 70" fill="none" xmlns="http://www.w3.org/2000/svg">
<rect width="70" height="70" rx="3.6" fill="#B2E0F1"/>
<path fill-rule="evenodd" clip-rule="evenodd" d="M49.8806 17.1009C49.3774 16.8664 48.8573 16.6698 48.3248 16.5127L48.1146 16.4507C47.4983 16.2689 46.8675 16.1408 46.2291 16.0677L45.2449 15.9549L45.1649 15.9458L45.0844 15.9478L44.0304 15.975C43.209 15.9962 42.3976 16.1617 41.6335 16.4639C41.0929 16.6776 40.581 16.9579 40.1096 17.2981L39.8694 17.4714C39.3412 17.8526 38.8786 18.3174 38.4999 18.8474C38.3043 19.1211 38.1321 19.4107 37.9852 19.7133L37.4985 20.7151L37.4677 20.7784L37.4449 20.845L37.1952 21.5739C37.0626 21.961 36.9638 22.359 36.8999 22.7632L36.8153 23.2985C36.7357 23.8017 36.7493 24.3152 36.8554 24.8135L37.0089 25.5349C37.0286 25.6275 37.0054 25.724 36.9458 25.7976C36.9365 25.8091 36.9263 25.82 36.9154 25.83L36.6156 26.1082C36.4066 26.302 36.2302 26.5283 36.0933 26.7783L35.9546 27.0313C35.848 27.226 35.7881 27.4428 35.7798 27.6646C35.7615 28.1523 35.9923 28.6059 36.376 28.8807C36.2221 29.3364 36.3018 29.8195 36.5533 30.1945C36.5247 30.2632 36.5004 30.3339 36.4807 30.4059L36.4696 30.4468C36.3301 30.9582 36.406 31.4837 36.6484 31.9195C36.3745 31.7065 36.1132 31.4774 35.866 31.2334L33.8456 29.24L31.2493 26.4057L31.1673 26.3092C29.4138 24.2462 26.0429 25.5868 26.1852 28.2905L27.3336 28.2301L26.1872 28.321L26.5445 32.8248L26.56 32.8236L26.7911 36.376L20.1976 41.0109C20.1451 41.0478 20.0842 41.0706 20.0204 41.0773C19.9624 41.0834 19.9037 41.0759 19.849 41.0553L18.5069 40.5512L17.4355 39.9983C17.411 39.9857 17.3881 39.9702 17.3672 39.9524L17.0821 39.7083C16.5787 39.2772 15.8917 39.1294 15.2555 39.3152C14.6625 39.4884 14.1858 39.9307 13.9685 40.5089L13.9478 40.5643C13.7175 41.1773 13.7893 41.8631 14.1416 42.4152L14.2044 42.5135C14.3902 42.8048 14.639 43.0508 14.9324 43.2334L15.4904 43.5807C15.6414 43.6747 15.7835 43.7823 15.9148 43.9022L17.9951 45.8009L18.0043 45.8094L18.0137 45.8176L18.8126 46.5156C19.177 46.834 19.6296 47.034 20.1104 47.0892C20.903 47.1802 21.6887 46.8691 22.2041 46.2601L22.3936 46.0362C22.6082 45.7826 22.7777 45.4939 22.8945 45.1829C22.9495 45.0365 23.0596 44.9174 23.2012 44.8511L25.8051 43.6321C26.3141 43.3937 26.8012 43.1132 27.2613 42.7938L27.6317 46.9827C27.6783 47.5099 27.8064 48.0267 28.0115 48.5146L28.112 48.7537C28.6031 49.922 29.437 50.9138 30.5036 51.5983L30.7383 51.749C31.2728 52.092 31.8694 52.3268 32.4943 52.4402C33.4663 52.6165 34.4689 52.4923 35.3683 52.084L35.8912 51.8467C36.718 51.4714 37.4597 50.9319 38.0714 50.261L38.2881 50.0233L38.2934 50.0284L40.3467 47.928L45.3128 43.9849L45.3613 43.9465L45.4053 43.9031L46.4149 42.9073C46.9598 42.3698 47.4479 41.7777 47.8715 41.1403L47.9367 41.0423C48.4927 40.2057 48.933 39.2978 49.2458 38.3433L49.4423 37.7439L49.4638 37.6783L49.4773 37.6107L49.869 35.6468L49.877 35.6066L49.8822 35.5658L50.0794 34.0036L50.4167 33.4617C50.81 32.8297 51.2816 32.2499 51.8203 31.7361L51.9543 31.6083C52.6455 30.9491 53.2373 30.193 53.7113 29.3638C54.2264 28.4625 54.5961 27.4856 54.8067 26.4691L54.9401 25.8253C55.0521 25.2848 55.1018 24.7331 55.0882 24.1813C55.0699 23.4367 54.9366 22.6994 54.693 21.9956L54.6465 21.8611C54.509 21.4637 54.3356 21.0797 54.1286 20.7137C53.7188 19.9893 53.1821 19.3446 52.5441 18.8103L52.0753 18.4176L52.0385 18.3868L51.9993 18.3592L51.6758 18.1313C51.1356 17.7506 50.5627 17.4188 49.9637 17.1396L49.8806 17.1009ZM36.7499 48.3171L38.7526 46.2685L38.8031 46.2167L38.8598 46.1718L43.8342 42.2221L44.7998 41.2697C45.2323 40.8432 45.6197 40.3732 45.956 39.8673L46.0211 39.7692C46.4624 39.1052 46.8119 38.3846 47.0602 37.627L47.2352 37.0931L47.6054 35.2371L47.6325 35.0225L47.0364 35.1312L45.281 35.5832L45.2353 35.595L45.1888 35.6029L43.3788 35.9136L41.0832 36.4596L40.7797 36.5318L40.4814 36.4407L39.7717 36.2241C38.743 35.9101 37.7652 35.449 36.8686 34.855L35.9235 34.2288C35.3233 33.8311 34.763 33.3763 34.2506 32.8707L32.2095 30.8569L32.1888 30.8364L32.1692 30.815L29.5389 27.9435L29.5245 27.9278L29.5106 27.9115L29.4148 27.7987C29.0889 27.4154 28.4648 27.6598 28.4815 28.1584L28.7322 31.3183L28.7668 31.3161L29.3555 40.3649L29.9227 46.7801C29.9484 47.0703 30.0189 47.3548 30.1318 47.6233L30.2323 47.8624C30.5431 48.6018 31.0708 49.2295 31.7458 49.6626L31.9805 49.8133C32.2619 49.9938 32.5759 50.1175 32.9049 50.1771C33.4165 50.27 33.9442 50.2045 34.4177 49.9896L34.9406 49.7523C35.4833 49.506 35.9703 49.1518 36.3718 48.7114L36.7397 48.3078L36.7499 48.3171ZM40.4432 34.0243C39.6285 33.7757 38.8541 33.4107 38.1438 32.9408C38.5879 33.0255 39.039 33.0681 39.4911 33.0681L40.4471 33.0681C40.5781 33.0681 40.7072 33.0986 40.8244 33.1572C40.9837 33.2368 41.1137 33.3648 41.1958 33.5228L41.4482 34.0086L40.8545 34.1499L40.4432 34.0243ZM44.7532 33.3441L43.7815 33.5108L43.2367 32.4623C42.9308 31.8736 42.4464 31.3967 41.853 31.1C41.4165 30.8817 40.9351 30.7681 40.4471 30.7681L39.4911 30.7681C39.3037 30.7681 39.1166 30.7573 38.9306 30.7359C39.2219 30.1946 39.1402 29.5526 38.785 29.1003C38.9588 28.5456 38.8349 27.9512 38.4807 27.5152C38.571 27.4314 38.6552 27.3414 38.7327 27.2457C39.2295 26.6326 39.4228 25.8279 39.2585 25.0561L39.105 24.3347C39.0576 24.112 39.0515 23.8825 39.0871 23.6576L39.1717 23.1224C39.2148 22.8494 39.2815 22.5807 39.3711 22.3192L39.598 21.6569L40.054 20.7183C40.1446 20.5318 40.2507 20.3533 40.3712 20.1846C40.6047 19.8579 40.8898 19.5714 41.2154 19.3365L41.4556 19.1631C41.7723 18.9346 42.1162 18.7463 42.4794 18.6027C42.9927 18.3996 43.5378 18.2885 44.0897 18.2743L45.0632 18.2492L45.9674 18.3527C46.4741 18.4108 46.9748 18.5125 47.464 18.6568L47.6741 18.7188C48.0968 18.8434 48.5096 18.9995 48.909 19.1856L48.9921 19.2244C49.4675 19.4459 49.9223 19.7093 50.3511 20.0114L50.6353 20.2117L51.0673 20.5735C51.4939 20.9308 51.8527 21.3619 52.1267 21.8462C52.2651 22.0909 52.381 22.3476 52.473 22.6133L52.5195 22.7478C52.6856 23.2276 52.7764 23.7302 52.7889 24.2378C52.7982 24.6141 52.7643 24.9901 52.688 25.3587L52.5546 26.0024C52.393 26.782 52.1095 27.5313 51.7144 28.2225C51.3509 28.8585 50.897 29.4384 50.3669 29.9439L50.2329 30.0717C49.5541 30.7192 48.9597 31.4499 48.464 32.2464L48.2627 32.5697L46.5834 32.8759L46.5428 32.8833L46.5029 32.8936L44.7532 33.3441ZM41.5406 26.4857L41.7024 26.527L41.9496 25.558L41.7877 25.5167C41.1907 25.3645 40.5627 25.385 39.9769 25.5759L40.2867 26.5267C40.6923 26.3945 41.1272 26.3803 41.5406 26.4857ZM45.5705 26.7004C45.764 26.6126 45.9845 26.6052 46.1834 26.68C46.3815 26.7544 46.4702 26.8638 46.4929 26.95C46.5489 27.162 46.568 27.3617 46.5753 27.4446L46.5753 27.4476C46.5752 27.4534 46.5749 27.4684 46.5734 27.4951C46.5711 27.537 46.5665 27.5925 46.5596 27.6578C46.5457 27.7885 46.5235 27.9459 46.4948 28.0929C46.4661 28.2401 46.3821 28.3942 46.2414 28.5585L46.1177 28.7031C46.003 28.837 45.8563 28.9398 45.6912 29.0018C45.4846 29.0795 45.2586 29.0898 45.0458 29.0312L44.6289 28.9164L44.3634 29.8805L44.7804 29.9953C45.1968 30.1099 45.6388 30.0898 46.0431 29.9379C46.366 29.8165 46.6529 29.6155 46.8773 29.3535L47.001 29.2089C47.2069 28.9685 47.4029 28.6605 47.4763 28.2846C47.5114 28.1046 47.5376 27.9182 47.554 27.7635C47.5685 27.6276 47.5812 27.4664 47.5721 27.3636L47.5719 27.3617C47.564 27.2723 47.5397 26.9978 47.4599 26.695C47.3257 26.1864 46.9128 25.8857 46.5351 25.7438C46.0878 25.5758 45.5922 25.5924 45.1571 25.7898L44.4495 26.111L44.8628 27.0216L45.5705 26.7004ZM26.966 39.0644L27.0269 40.0006L26.9403 40.0854C26.3243 40.6886 25.6108 41.1835 24.8299 41.549L22.226 42.7681C21.5404 43.089 21.0076 43.6655 20.7414 44.3741C20.7172 44.4384 20.6822 44.498 20.6379 44.5504L20.4484 44.7743C20.4298 44.7963 20.4014 44.8075 20.3728 44.8042C20.3554 44.8022 20.3391 44.795 20.3259 44.7835L19.5364 44.0938L18.2351 42.906L19.0403 43.2084C19.4292 43.3545 19.8468 43.4081 20.26 43.3648C20.7134 43.3173 21.1473 43.1547 21.5203 42.8925L26.966 39.0644Z" fill="#7D5CD7"/>
</svg>
