<svg width="70" height="70" viewBox="0 0 70 70" fill="none" xmlns="http://www.w3.org/2000/svg">
<rect width="70" height="70" rx="3.6" fill="#B2E0F1"/>
<path fill-rule="evenodd" clip-rule="evenodd" d="M23.9167 33.167C19.3604 33.167 15.6667 29.4733 15.6667 24.917C15.6667 20.3606 19.3604 16.667 23.9167 16.667C28.4731 16.667 32.1667 20.3606 32.1667 24.917C32.1667 29.4733 28.4731 33.167 23.9167 33.167ZM15.6667 45.0837C15.6667 49.64 19.3604 53.3337 23.9167 53.3337C28.4731 53.3337 32.1667 49.64 32.1667 45.0837C32.1667 40.5273 28.4731 36.8337 23.9167 36.8337C19.3604 36.8337 15.6667 40.5273 15.6667 45.0837ZM35.8334 45.0837C35.8334 49.64 39.5271 53.3337 44.0834 53.3337C48.6398 53.3337 52.3334 49.64 52.3334 45.0837C52.3334 40.5273 48.6398 36.8337 44.0834 36.8337C39.5271 36.8337 35.8334 40.5273 35.8334 45.0837ZM35.8334 24.917C35.8334 29.4733 39.5271 33.167 44.0834 33.167C48.6398 33.167 52.3334 29.4733 52.3334 24.917C52.3334 20.3606 48.6398 16.667 44.0834 16.667C39.5271 16.667 35.8334 20.3606 35.8334 24.917ZM44.0834 29.5003C46.6147 29.5003 48.6667 27.4483 48.6667 24.917C48.6667 22.3857 46.6147 20.3337 44.0834 20.3337C41.5521 20.3337 39.5001 22.3857 39.5001 24.917C39.5001 27.4483 41.5521 29.5003 44.0834 29.5003ZM28.5001 24.917C28.5001 27.4483 26.4481 29.5003 23.9167 29.5003C21.3854 29.5003 19.3334 27.4483 19.3334 24.917C19.3334 22.3857 21.3854 20.3337 23.9167 20.3337C26.4481 20.3337 28.5001 22.3857 28.5001 24.917ZM44.0834 49.667C46.6147 49.667 48.6667 47.615 48.6667 45.0837C48.6667 42.5524 46.6147 40.5003 44.0834 40.5003C41.5521 40.5003 39.5001 42.5524 39.5001 45.0837C39.5001 47.615 41.5521 49.667 44.0834 49.667ZM28.5001 45.0837C28.5001 47.615 26.4481 49.667 23.9167 49.667C21.3854 49.667 19.3334 47.615 19.3334 45.0837C19.3334 42.5524 21.3854 40.5003 23.9167 40.5003C26.4481 40.5003 28.5001 42.5524 28.5001 45.0837Z" fill="#7D5CD7"/>
</svg>
