<?xml version="1.0" encoding="UTF-8" standalone="no"?>
<svg
   xmlns:dc="http://purl.org/dc/elements/1.1/"
   xmlns:cc="http://creativecommons.org/ns#"
   xmlns:rdf="http://www.w3.org/1999/02/22-rdf-syntax-ns#"
   xmlns:svg="http://www.w3.org/2000/svg"
   xmlns="http://www.w3.org/2000/svg"
   xmlns:sodipodi="http://sodipodi.sourceforge.net/DTD/sodipodi-0.dtd"
   xmlns:inkscape="http://www.inkscape.org/namespaces/inkscape"
   width="70"
   height="70"
   viewBox="0 0 70 70"
   fill="none"
   version="1.1"
   id="svg6"
   sodipodi:docname="report.svg"
   inkscape:version="1.0.2 (e86c870879, 2021-01-15, custom)">
  <metadata
     id="metadata12">
    <rdf:RDF>
      <cc:Work
         rdf:about="">
        <dc:format>image/svg+xml</dc:format>
        <dc:type
           rdf:resource="http://purl.org/dc/dcmitype/StillImage" />
        <dc:title></dc:title>
      </cc:Work>
    </rdf:RDF>
  </metadata>
  <defs
     id="defs10" />
  <sodipodi:namedview
     pagecolor="#ffffff"
     bordercolor="#666666"
     borderopacity="1"
     objecttolerance="10"
     gridtolerance="10"
     guidetolerance="10"
     inkscape:pageopacity="0"
     inkscape:pageshadow="2"
     inkscape:window-width="1440"
     inkscape:window-height="836"
     id="namedview8"
     showgrid="false"
     inkscape:zoom="6.343758"
     inkscape:cx="21.979975"
     inkscape:cy="40.263414"
     inkscape:window-x="0"
     inkscape:window-y="32"
     inkscape:window-maximized="1"
     inkscape:current-layer="svg6" />
  <rect
     width="70"
     height="70"
     rx="3.6"
     fill="#B2E0F1"
     id="rect2" />
  <path
     fill-rule="evenodd"
     clip-rule="evenodd"
     d="m 40.17,20.33332 h 7.6633 c 2.0167,0 3.6667,1.65 3.6667,3.66663 v 25.6667 c 0,2.0167 -1.65,3.6667 -3.6667,3.6667 H 22.16667 c -0.25667,0 -0.495,-0.0184 -0.73334,-0.055 -0.715,-0.1467 -1.35666,-0.5134 -1.85166,-1.0084 -0.33,-0.3483 -0.605,-0.7333 -0.78834,-1.1733 C 18.61,50.65665 18.5,50.16165 18.5,49.66665 v -25.6667 c 0,-0.5133 0.11,-0.99 0.29333,-1.41163 0.18334,-0.44 0.45834,-0.84333 0.78834,-1.17333 0.495,-0.495 1.13666,-0.86167 1.85166,-1.00834 0.23834,-0.055 0.47667,-0.07333 0.73334,-0.07333 H 29.83 c 0.77,-2.12667 2.7867,-3.66667 5.17,-3.66667 2.3833,0 4.4,1.54 5.17,3.66667 z M 25.8333,31.33335 v -3.6667 h 18.3334 v 3.6667 z m 18.3334,7.3333 v -3.6667 H 25.8333 v 3.6667 z m -5.5,3.6667 H 25.8333 v 3.6666 H 38.6667 Z M 35,19.87499 c 0.7517,0 1.375,0.62333 1.375,1.375 0,0.75166 -0.6233,1.375 -1.375,1.375 -0.7517,0 -1.375,-0.62334 -1.375,-1.375 0,-0.75167 0.6233,-1.375 1.375,-1.375 z M 22.16667,49.66665 H 47.8333 V 23.99995 H 22.16667 Z"
     fill="#7d5cd7"
     id="path4" />
</svg>
