<svg width="70" height="70" viewBox="0 0 70 70" fill="none" xmlns="http://www.w3.org/2000/svg">
<rect width="70" height="70" rx="3.6" fill="#B2E0F1"/>
<path d="M32.4536 30.8825C33.0136 30.7658 33.5503 30.6842 34.0636 30.6375C34.577 30.5792 35.0728 30.55 35.5511 30.55C36.8811 30.55 38.0536 30.7483 39.0686 31.145C40.0836 31.5417 40.9353 32.09 41.6236 32.79C42.312 33.49 42.8311 34.3125 43.1811 35.2575C43.5311 36.1908 43.7061 37.2 43.7061 38.285C43.7061 39.6267 43.467 40.8517 42.9886 41.96C42.522 43.0683 41.8686 44.0192 41.0286 44.8125C40.1886 45.5942 39.1911 46.2008 38.0361 46.6325C36.8928 47.0642 35.6445 47.28 34.2911 47.28C33.4978 47.28 32.7453 47.1983 32.0336 47.035C31.322 46.8717 30.6511 46.6558 30.0211 46.3875C29.4028 46.1075 28.8253 45.7925 28.2886 45.4425C27.7636 45.0808 27.2911 44.7017 26.8711 44.305L28.2011 42.4675C28.4811 42.0708 28.8486 41.8725 29.3036 41.8725C29.5953 41.8725 29.8928 41.9658 30.1961 42.1525C30.4995 42.3392 30.8436 42.5433 31.2286 42.765C31.6253 42.9867 32.0861 43.1908 32.6111 43.3775C33.1478 43.5642 33.7895 43.6575 34.5361 43.6575C35.3295 43.6575 36.0295 43.5292 36.6361 43.2725C37.2428 43.0158 37.7445 42.66 38.1411 42.205C38.5495 41.7383 38.8528 41.19 39.0511 40.56C39.2611 39.9183 39.3661 39.2242 39.3661 38.4775C39.3661 37.1008 38.9636 36.0275 38.1586 35.2575C37.3653 34.4758 36.187 34.085 34.6236 34.085C33.422 34.085 32.1911 34.3067 30.9311 34.75L28.2361 33.98L30.3361 21.695H42.8311V23.5325C42.8311 24.1508 42.6386 24.6525 42.2536 25.0375C41.8686 25.4225 41.2153 25.615 40.2936 25.615H33.3461L32.4536 30.8825Z" fill="#7D5CD7"/>
</svg>
