<svg width="70" height="70" viewBox="0 0 70 70" fill="none" xmlns="http://www.w3.org/2000/svg">
<rect width="70" height="70" rx="3.6" fill="#B2E0F1"/>
<path d="M42.5161 42.975C42.9828 42.975 43.3503 43.1092 43.6186 43.3775C43.8986 43.6342 44.0386 43.9783 44.0386 44.41V47H26.6786V45.565C26.6786 45.2733 26.737 44.97 26.8536 44.655C26.982 44.3283 27.1803 44.0367 27.4486 43.78L35.1311 36.08C35.7728 35.4267 36.3445 34.8025 36.8461 34.2075C37.3595 33.6125 37.7853 33.0233 38.1236 32.44C38.462 31.8567 38.7186 31.2675 38.8936 30.6725C39.0803 30.0658 39.1736 29.43 39.1736 28.765C39.1736 28.1583 39.0861 27.6275 38.9111 27.1725C38.7361 26.7058 38.4853 26.315 38.1586 26C37.8436 25.685 37.4586 25.4517 37.0036 25.3C36.5603 25.1367 36.0586 25.055 35.4986 25.055C34.9853 25.055 34.507 25.1308 34.0636 25.2825C33.632 25.4225 33.247 25.6267 32.9086 25.895C32.5703 26.1517 32.2845 26.455 32.0511 26.805C31.8178 27.155 31.6428 27.54 31.5261 27.96C31.3278 28.4967 31.0711 28.8525 30.7561 29.0275C30.4411 29.2025 29.9861 29.2433 29.3911 29.15L27.1161 28.7475C27.2911 27.5342 27.6295 26.4725 28.1311 25.5625C28.6328 24.6408 29.257 23.8767 30.0036 23.27C30.762 22.6517 31.6253 22.1908 32.5936 21.8875C33.5736 21.5725 34.6236 21.415 35.7436 21.415C36.9103 21.415 37.9778 21.59 38.9461 21.94C39.9145 22.2783 40.7428 22.7625 41.4311 23.3925C42.1195 24.0225 42.6561 24.7808 43.0411 25.6675C43.4261 26.5542 43.6186 27.54 43.6186 28.625C43.6186 29.5583 43.4786 30.4217 43.1986 31.215C42.9303 32.0083 42.5628 32.7667 42.0961 33.49C41.6411 34.2133 41.1045 34.9133 40.4861 35.59C39.8678 36.2667 39.2203 36.955 38.5436 37.655L32.8386 43.4825C33.387 43.3192 33.9295 43.1967 34.4661 43.115C35.0145 43.0217 35.5336 42.975 36.0236 42.975H42.5161Z" fill="#7D5CD7"/>
</svg>
