<svg width="70" height="70" viewBox="0 0 70 70" fill="none" xmlns="http://www.w3.org/2000/svg">
<rect width="70" height="70" rx="3.6" fill="#B2E0F1"/>
<path d="M27.2386 29.7475C27.4136 28.5342 27.752 27.4725 28.2536 26.5625C28.7553 25.6408 29.3795 24.8767 30.1261 24.27C30.8845 23.6517 31.7478 23.1908 32.7161 22.8875C33.6961 22.5725 34.7461 22.415 35.8661 22.415C37.0328 22.415 38.0828 22.5842 39.0161 22.9225C39.9611 23.2492 40.7661 23.71 41.4311 24.305C42.0961 24.8883 42.6036 25.5767 42.9536 26.37C43.3153 27.1633 43.4961 28.0208 43.4961 28.9425C43.4961 29.7475 43.4028 30.4592 43.2161 31.0775C43.0411 31.6842 42.7845 32.215 42.4461 32.67C42.1078 33.125 41.6878 33.51 41.1861 33.825C40.6845 34.14 40.1186 34.4025 39.4886 34.6125C41.0053 35.0908 42.137 35.82 42.8836 36.8C43.6303 37.78 44.0036 39.0108 44.0036 40.4925C44.0036 41.7525 43.7703 42.8667 43.3036 43.835C42.837 44.8033 42.207 45.62 41.4136 46.285C40.6203 46.9383 39.6986 47.4342 38.6486 47.7725C37.6103 48.1108 36.5078 48.28 35.3411 48.28C34.0695 48.28 32.9611 48.1342 32.0161 47.8425C31.0711 47.5508 30.2486 47.1192 29.5486 46.5475C28.8486 45.9758 28.2536 45.2758 27.7636 44.4475C27.2736 43.6192 26.8536 42.6625 26.5036 41.5775L28.4111 40.79C28.9128 40.58 29.3795 40.5275 29.8111 40.6325C30.2545 40.7258 30.5753 40.9592 30.7736 41.3325C30.9836 41.7408 31.2111 42.1433 31.4561 42.54C31.7128 42.9367 32.0161 43.2925 32.3661 43.6075C32.7161 43.9108 33.1245 44.1617 33.5911 44.36C34.0695 44.5467 34.6353 44.64 35.2886 44.64C36.0236 44.64 36.6653 44.5233 37.2136 44.29C37.762 44.045 38.217 43.73 38.5786 43.345C38.952 42.96 39.2261 42.5342 39.4011 42.0675C39.5878 41.5892 39.6811 41.1108 39.6811 40.6325C39.6811 40.0258 39.617 39.4775 39.4886 38.9875C39.3603 38.4858 39.092 38.06 38.6836 37.71C38.2753 37.36 37.6861 37.0858 36.9161 36.8875C36.1578 36.6892 35.137 36.59 33.8536 36.59V33.51C34.9153 33.4983 35.7961 33.3992 36.4961 33.2125C37.1961 33.0258 37.7503 32.7692 38.1586 32.4425C38.5786 32.1042 38.8703 31.7017 39.0336 31.235C39.197 30.7683 39.2786 30.255 39.2786 29.695C39.2786 28.505 38.9461 27.6008 38.2811 26.9825C37.6161 26.3642 36.7295 26.055 35.6211 26.055C35.1078 26.055 34.6353 26.1308 34.2036 26.2825C33.772 26.4225 33.3811 26.6267 33.0311 26.895C32.6928 27.1517 32.407 27.455 32.1736 27.805C31.9403 28.155 31.7653 28.54 31.6486 28.96C31.4503 29.4967 31.1878 29.8525 30.8611 30.0275C30.5461 30.2025 30.097 30.2433 29.5136 30.15L27.2386 29.7475Z" fill="#7D5CD7"/>
</svg>
