<svg width="70" height="70" viewBox="0 0 70 70" fill="none" xmlns="http://www.w3.org/2000/svg">
<rect width="70" height="70" rx="3.6" fill="#93E4F5"/>
<path fill-rule="evenodd" clip-rule="evenodd" d="M14.8335 34.9999C14.8335 46.1377 23.8624 55.1666 35.0002 55.1666C46.1379 55.1666 55.1668 46.1377 55.1668 34.9999C55.1668 23.8622 46.1379 14.8333 35.0002 14.8333C23.8624 14.8333 14.8335 23.8622 14.8335 34.9999ZM51.5002 34.9999C51.5002 44.1126 44.1129 51.4999 35.0002 51.4999C25.8875 51.4999 18.5002 44.1126 18.5002 34.9999C18.5002 25.8872 25.8875 18.4999 35.0002 18.4999C44.1129 18.4999 51.5002 25.8872 51.5002 34.9999ZM35.0008 44.1633C36.0136 44.1633 36.8347 43.3425 36.8347 42.33C36.8347 41.3174 36.0136 40.4966 35.0008 40.4966C33.9879 40.4966 33.1668 41.3174 33.1668 42.33C33.1668 43.3425 33.9879 44.1633 35.0008 44.1633ZM33.1668 38.6666H36.8335C36.8335 37.2029 37.0634 36.9347 38.5701 36.1814C41.1884 34.8722 42.3335 33.5363 42.3335 30.4166C42.3335 26.4211 39.1881 23.9999 35.0002 23.9999C30.9501 23.9999 27.6668 27.2832 27.6668 31.3333H31.3335C31.3335 29.3082 32.9751 27.6666 35.0002 27.6666C37.3416 27.6666 38.6668 28.6867 38.6668 30.4166C38.6668 31.8802 38.4369 32.1485 36.9303 32.9018C34.3119 34.211 33.1668 35.5469 33.1668 38.6666Z" fill="#7D5CD7"/>
</svg>
