<svg width="70" height="70" viewBox="0 0 70 70" fill="none" xmlns="http://www.w3.org/2000/svg">
<rect width="70" height="70" rx="3.6" fill="#93E4F5"/>
<path fill-rule="evenodd" clip-rule="evenodd" d="M28.3335 24.9999H25.0002V23.3333H21.6668V28.3333H48.3335V23.3333H45.0002V24.9999H41.6668V23.3333H28.3335V24.9999ZM48.3335 31.6666H21.6668V48.3333H48.3335V31.6666ZM41.6668 19.9999H28.3335V18.3333H25.0002V19.9999H21.6668C19.8259 19.9999 18.3335 21.4923 18.3335 23.3333V48.3333C18.3335 50.1742 19.8259 51.6666 21.6668 51.6666H48.3335C50.1744 51.6666 51.6668 50.1742 51.6668 48.3333V23.3333C51.6668 21.4923 50.1744 19.9999 48.3335 19.9999H45.0002V18.3333H41.6668V19.9999ZM30.0002 38.3333H26.6668V34.9999H30.0002V38.3333ZM33.3335 38.3333H36.6668V34.9999H33.3335V38.3333ZM43.3335 38.3333H40.0002V34.9999H43.3335V38.3333ZM26.6668 44.9999H30.0002V41.6666H26.6668V44.9999ZM36.6668 44.9999H33.3335V41.6666H36.6668V44.9999Z" fill="#7D5CD7"/>
</svg>
