<svg width="70" height="70" viewBox="0 0 70 70" fill="none" xmlns="http://www.w3.org/2000/svg">
<rect width="70" height="70" rx="3.6" fill="#93E4F5"/>
<path fill-rule="evenodd" clip-rule="evenodd" d="M34.9998 53.3332C24.8746 53.3332 16.6665 45.1251 16.6665 34.9998C16.6665 24.8746 24.8746 16.6665 34.9998 16.6665C45.1251 16.6665 53.3332 24.8746 53.3332 34.9998C53.3332 45.1251 45.1251 53.3332 34.9998 53.3332ZM34.9998 49.9999C43.2841 49.9999 49.9998 43.2842 49.9998 34.9999C49.9998 26.7157 43.2841 19.9999 34.9998 19.9999C26.7155 19.9999 19.9998 26.7157 19.9998 34.9999C19.9998 43.2842 26.7155 49.9999 34.9998 49.9999ZM43.3332 33.3333H36.6665V24.9999H33.3332V36.6666H43.3332V33.3333Z" fill="#7D5CD7"/>
</svg>
