<svg width="18" height="18" viewBox="0 0 18 18" fill="none" xmlns="http://www.w3.org/2000/svg">
<mask id="path-1-inside-1" fill="white">
<path fill-rule="evenodd" clip-rule="evenodd" d="M3.6 0C1.61177 0 0 1.61178 0 3.6V14.4C0 16.3882 1.61178 18 3.6 18H14.4C16.3882 18 18 16.3882 18 14.4V3.6C18 1.61177 16.3882 0 14.4 0H3.6ZM8.20711 13.2071L14.7071 6.70711L13.2929 5.29289L7.6276 10.9582L5.81373 8.41876L4.18627 9.58124L6.68627 13.0812L7.3724 14.0418L8.20711 13.2071Z"/>
</mask>
<path fill-rule="evenodd" clip-rule="evenodd" d="M3.6 0C1.61177 0 0 1.61178 0 3.6V14.4C0 16.3882 1.61178 18 3.6 18H14.4C16.3882 18 18 16.3882 18 14.4V3.6C18 1.61177 16.3882 0 14.4 0H3.6ZM8.20711 13.2071L14.7071 6.70711L13.2929 5.29289L7.6276 10.9582L5.81373 8.41876L4.18627 9.58124L6.68627 13.0812L7.3724 14.0418L8.20711 13.2071Z" fill="#7D5CD7"/>
<path d="M14.7071 6.70711L16.1213 8.12132L17.5355 6.70711L16.1213 5.29289L14.7071 6.70711ZM8.20711 13.2071L6.79289 11.7929H6.79289L8.20711 13.2071ZM13.2929 5.29289L14.7071 3.87868L13.2929 2.46447L11.8787 3.87868L13.2929 5.29289ZM7.6276 10.9582L6.00014 12.1207L7.3724 14.0418L9.04182 12.3724L7.6276 10.9582ZM5.81373 8.41876L7.4412 7.25629L6.27872 5.62882L4.65126 6.7913L5.81373 8.41876ZM4.18627 9.58124L3.02379 7.95377L1.39632 9.11625L2.5588 10.7437L4.18627 9.58124ZM6.68627 13.0812L8.31373 11.9188L6.68627 13.0812ZM7.3724 14.0418L5.74493 15.2043L7.11719 17.1255L8.78661 15.456L7.3724 14.0418ZM2 3.6C2 2.71634 2.71635 2 3.6 2V-2C0.507205 -2 -2 0.507207 -2 3.6H2ZM2 14.4V3.6H-2V14.4H2ZM3.6 16C2.71634 16 2 15.2837 2 14.4H-2C-2 17.4928 0.507207 20 3.6 20V16ZM14.4 16H3.6V20H14.4V16ZM16 14.4C16 15.2837 15.2837 16 14.4 16V20C17.4928 20 20 17.4928 20 14.4H16ZM16 3.6V14.4H20V3.6H16ZM14.4 2C15.2837 2 16 2.71635 16 3.6H20C20 0.507205 17.4928 -2 14.4 -2V2ZM3.6 2H14.4V-2H3.6V2ZM13.2929 5.29289L6.79289 11.7929L9.62132 14.6213L16.1213 8.12132L13.2929 5.29289ZM11.8787 6.70711L13.2929 8.12132L16.1213 5.29289L14.7071 3.87868L11.8787 6.70711ZM9.04182 12.3724L14.7071 6.70711L11.8787 3.87868L6.21339 9.54397L9.04182 12.3724ZM4.18627 9.58124L6.00014 12.1207L9.25507 9.7957L7.4412 7.25629L4.18627 9.58124ZM5.34874 11.2087L6.97621 10.0462L4.65126 6.7913L3.02379 7.95377L5.34874 11.2087ZM8.31373 11.9188L5.81373 8.41876L2.5588 10.7437L5.0588 14.2437L8.31373 11.9188ZM8.99986 12.8793L8.31373 11.9188L5.0588 14.2437L5.74493 15.2043L8.99986 12.8793ZM6.79289 11.7929L5.95818 12.6276L8.78661 15.456L9.62132 14.6213L6.79289 11.7929Z" fill="#7D5CD7" mask="url(#path-1-inside-1)"/>
</svg>
