<svg width="18" height="22" viewBox="0 0 18 22" fill="none" xmlns="http://www.w3.org/2000/svg">
<path fill-rule="evenodd" clip-rule="evenodd" d="M18 21.5716H3C1.34315 21.5716 0 20.1326 0 18.3574V3.35735C0 1.58215 1.34315 0.143066 3 0.143066H18V17.2859C17.4477 17.2859 17 17.7656 17 18.3574C17 18.9491 17.4477 19.4288 18 19.4288V21.5716ZM15 18.3574C15 17.9817 15.0602 17.621 15.1707 17.2859H3C2.44772 17.2859 2 17.7656 2 18.3574C2 18.9491 2.44772 19.4288 3 19.4288H15.1707C15.0602 19.0937 15 18.733 15 18.3574ZM3 2.28592H16V15.1431H3C2.64936 15.1431 2.31278 15.2075 2 15.326V3.35735C2 2.76562 2.44772 2.28592 3 2.28592Z" fill="#000"/>
</svg>
