<svg width="22" height="24" viewBox="0 0 22 24" fill="none" xmlns="http://www.w3.org/2000/svg">
<path fill-rule="evenodd" clip-rule="evenodd" d="M11 23.6427C4.92487 23.6427 0 18.3661 0 11.857C0 5.34793 4.92487 0.0712891 11 0.0712891C17.0751 0.0712891 22 5.34793 22 11.857C22 18.3661 17.0751 23.6427 11 23.6427ZM18.3995 17.3477C19.4086 15.7895 20 13.8972 20 11.857C20 6.5314 15.9706 2.21415 11 2.21415C6.02944 2.21415 2 6.5314 2 11.857C2 13.8972 2.59138 15.7895 3.6005 17.3477C4.72595 15.7549 7.3706 15.0713 11 15.0713C14.6294 15.0713 17.274 15.7549 18.3995 17.3477ZM16.9647 19.0782C16.672 17.9506 14.5694 17.2141 11 17.2141C7.43062 17.2141 5.328 17.9506 5.03532 19.0782C6.6233 20.5851 8.71194 21.4999 11 21.4999C13.2881 21.4999 15.3767 20.5851 16.9647 19.0782ZM11 5.42843C8.5791 5.42843 7 7.3096 7 9.71415C7 13.3863 8.76086 15.0713 11 15.0713C13.2181 15.0713 15 13.4423 15 9.92843C15 7.48727 13.4142 5.42843 11 5.42843ZM9 9.71415C9 12.1455 9.81821 12.9284 11 12.9284C12.1777 12.9284 13 12.1767 13 9.92843C13 8.58959 12.2157 7.57129 11 7.57129C9.73374 7.57129 9 8.44539 9 9.71415Z" fill="#000"/>
</svg>
