<svg width="24" height="26" viewBox="0 0 24 26" fill="none" xmlns="http://www.w3.org/2000/svg">
<path fill-rule="evenodd" clip-rule="evenodd" d="M1 12.8044C1 19.2866 5.92487 24.5415 12 24.5415C18.0751 24.5415 23 19.2866 23 12.8044C23 6.32224 18.0751 1.06738 12 1.06738C5.92487 1.06738 1 6.32224 1 12.8044ZM21 12.8044C21 18.108 16.9706 22.4075 12 22.4075C7.02944 22.4075 3 18.108 3 12.8044C3 7.50082 7.02944 3.20139 12 3.20139C16.9706 3.20139 21 7.50082 21 12.8044ZM12.0003 18.1377C12.5528 18.1377 13.0007 17.66 13.0007 17.0707C13.0007 16.4814 12.5528 16.0037 12.0003 16.0037C11.4479 16.0037 11 16.4814 11 17.0707C11 17.66 11.4479 18.1377 12.0003 18.1377ZM13.0528 11.5833C11.6246 12.3453 11 13.1228 11 14.9384H13C13 14.0866 13.1254 13.9305 13.9472 13.492C15.3754 12.7301 16 11.9526 16 10.1369C16 7.81152 14.2843 6.40241 12 6.40241C9.79086 6.40241 8 8.31326 8 10.6704H10C10 9.49184 10.8954 8.53641 12 8.53641C13.2772 8.53641 14 9.1301 14 10.1369C14 10.9888 13.8746 11.1449 13.0528 11.5833Z" fill="#ffffff"/>
</svg>
