<svg width="18" height="24" viewBox="0 0 18 24" fill="none" xmlns="http://www.w3.org/2000/svg">
<path fill-rule="evenodd" clip-rule="evenodd" d="M5.99592 1.14272C6.7482 0.46019 7.83914 0.0712891 9 0.0712891C10.1609 0.0712891 11.2518 0.46019 12.0041 1.14272H13C14.1046 1.14272 15 2.10211 15 3.28557L16 3.28557C17.1046 3.28557 18 4.24496 18 5.42843V21.4999C18 22.6833 17.1046 23.6427 16 23.6427H2C0.89543 23.6427 0 22.6833 0 21.4999V5.42843C0 4.24496 0.89543 3.28557 2 3.28557L3 3.28557C3 2.10211 3.89543 1.14272 5 1.14272H5.99592ZM13 6.49986C13.7403 6.49986 14.3866 6.06893 14.7324 5.42843H16V21.4999H2V5.42843H3.26756C3.61337 6.06893 4.25972 6.49986 5 6.49986H13ZM5 16.1427V13.9999H11V16.1427H5ZM5 9.71415V11.857H13V9.71415H5ZM6.85762 3.28557L7.15665 2.91634C7.48519 2.51065 8.18941 2.21415 9 2.21415C9.81059 2.21415 10.5148 2.51065 10.8434 2.91634L11.1424 3.28557H13V4.357H5V3.28557H6.40135H6.85762Z" fill="#000"/>
</svg>
