<svg width="122" height="130" viewBox="0 0 122 130" fill="none" xmlns="http://www.w3.org/2000/svg">
<path fill-rule="evenodd" clip-rule="evenodd" d="M45.5221 10.8337C49.3289 7.3831 54.8493 5.41699 60.7237 5.41699C66.598 5.41699 72.1185 7.3831 75.9252 10.8337H80.9649C86.5544 10.8337 91.0855 15.6839 91.0855 21.667V21.6673H96.1458C101.735 21.6673 106.266 26.5175 106.266 32.5006V113.751C106.266 119.734 101.735 124.584 96.1458 124.584H25.3015C19.7121 124.584 15.1809 119.734 15.1809 113.751V32.5006C15.1809 26.5175 19.7121 21.6673 25.3015 21.6673H30.3618V21.667C30.3618 15.6839 34.893 10.8337 40.4824 10.8337H45.5221ZM80.9649 37.917C84.7108 37.917 87.9815 35.7385 89.7314 32.5006H96.1458V113.751H25.3015V32.5006H31.7159C33.4659 35.7385 36.7365 37.917 40.4824 37.917H80.9649ZM40.4824 86.6666V75.8332H70.8443V86.6666H40.4824ZM40.4824 54.1669V65.0002H80.9649V54.1669H40.4824ZM49.8826 21.6668L51.3957 19.8001C53.0583 17.7492 56.6219 16.2502 60.7237 16.2502C64.8255 16.2502 68.3891 17.7492 70.0516 19.8001L71.5648 21.6668H80.9649V27.0835H40.4824V21.6668H47.5737H49.8826Z" fill="#7D5CD7"/>
</svg>
